<svg width="29" height="26" viewBox="0 0 29 26" fill="none" xmlns="http://www.w3.org/2000/svg">
<g clip-path="url(#clip0_476_16)">
<path d="M5.12499 17.7083H17.625C17.8905 17.7086 18.1459 17.8103 18.3389 17.9926C18.532 18.1748 18.6481 18.4239 18.6637 18.689C18.6793 18.954 18.593 19.215 18.4226 19.4186C18.2522 19.6222 18.0105 19.753 17.7469 19.7844L17.625 19.7917H5.12499C4.85949 19.7914 4.60412 19.6897 4.41106 19.5075C4.218 19.3252 4.10182 19.0761 4.08626 18.8111C4.0707 18.546 4.15694 18.285 4.32734 18.0814C4.49775 17.8778 4.73947 17.747 5.00311 17.7156L5.12499 17.7083ZM5.12499 11.4583H23.875C24.1405 11.4586 24.3959 11.5603 24.5889 11.7426C24.782 11.9248 24.8981 12.1739 24.9137 12.439C24.9293 12.704 24.843 12.965 24.6726 13.1686C24.5022 13.3722 24.2605 13.503 23.9969 13.5344L23.875 13.5417H5.12499C4.85949 13.5414 4.60412 13.4397 4.41106 13.2575C4.218 13.0752 4.10182 12.8261 4.08626 12.5611C4.0707 12.296 4.15694 12.035 4.32734 11.8314C4.49775 11.6278 4.73947 11.497 5.00311 11.4656L5.12499 11.4583ZM5.12499 5.20834H20.75C21.0155 5.20864 21.2709 5.3103 21.4639 5.49256C21.657 5.67482 21.7731 5.92392 21.7887 6.18896C21.8043 6.45401 21.718 6.71499 21.5476 6.91859C21.3772 7.12218 21.1355 7.25303 20.8719 7.28439L20.75 7.29168H5.12499C4.85949 7.29138 4.60412 7.18972 4.41106 7.00746C4.218 6.8252 4.10182 6.5761 4.08626 6.31106C4.0707 6.04601 4.15694 5.78503 4.32734 5.58143C4.49775 5.37784 4.73947 5.24699 5.00311 5.21564L5.12499 5.20834Z" fill="white"/>
</g>
<defs>
<clipPath id="clip0_476_16">
<rect width="28" height="25" fill="white" transform="translate(0.390137 0.164062)"/>
</clipPath>
</defs>
</svg>
