<svg width="31" height="31" viewBox="0 0 31 31" fill="none" xmlns="http://www.w3.org/2000/svg">
<path d="M11.6094 3.33935C11.5156 3.45068 11.457 3.5913 11.457 3.70849C11.457 3.87841 11.4277 3.90771 11.0879 4.05419C10.2676 4.41162 9.45312 5.0913 8.94336 5.84716C8.65625 6.26904 8.27539 7.04833 8.18164 7.41747C8.11719 7.64599 8.09375 7.66943 7.93555 7.66943C7.83008 7.66943 7.70703 7.72216 7.61914 7.81591C7.47266 7.95654 7.47266 7.9624 7.47266 9.15771C7.47266 10.3413 7.47266 10.3589 7.61328 10.5229L7.75391 10.687L12.9043 10.7046C16.7012 10.7163 18.0898 10.6987 18.2129 10.6518C18.5117 10.5288 18.5469 10.3647 18.5469 9.16357C18.5469 7.79833 18.5234 7.73974 17.9961 7.65771C17.9199 7.64599 17.8496 7.5288 17.7559 7.25927C17.5508 6.6499 17.4512 6.45068 17.1172 5.94677C16.7715 5.43701 16.2324 4.86279 15.7637 4.5288C15.4531 4.30615 14.7031 3.91943 14.5801 3.91943C14.5332 3.91943 14.5039 3.8374 14.5039 3.68505C14.5039 3.50927 14.4629 3.40966 14.3574 3.30419C14.2168 3.15771 14.2168 3.15771 12.9863 3.15771H11.7617L11.6094 3.33935ZM13.5898 5.0913C13.7773 5.27294 13.7305 5.51318 13.4316 5.97021C13.2793 6.19287 13.1562 6.39208 13.1562 6.40966C13.1562 6.42724 13.3262 6.43896 13.5371 6.43896C13.8711 6.43896 13.9414 6.45654 14.0645 6.58544C14.1465 6.66162 14.2109 6.79638 14.2109 6.87841C14.2109 7.04247 13.2441 8.61279 13.0273 8.79443C12.7695 9.02294 12.2773 8.81201 12.2773 8.47802C12.2773 8.40185 12.4121 8.12646 12.5703 7.87451L12.8691 7.40576L12.4473 7.3706C11.9727 7.33544 11.8086 7.2124 11.8086 6.90185C11.8086 6.69677 12.916 4.99755 13.0801 4.95654C13.2441 4.90966 13.4668 4.96826 13.5898 5.0913Z" fill="#120F6C"/>
<path d="M22.7891 11.1851C22.5137 11.2964 22.4727 11.4487 22.4727 12.3042V13.1069L22.1094 13.1304C21.8105 13.1538 21.7285 13.1831 21.6113 13.3179C21.4766 13.4761 21.4766 13.4761 21.4766 15.146C21.4766 16.1245 21.5 16.8628 21.5352 16.9272C21.5645 16.9858 21.7695 17.1733 21.9863 17.3433C22.7715 17.9585 22.9414 18.228 22.9883 18.9604C23.0234 19.5757 23.123 19.6812 23.6504 19.6812H23.9961V21.3921C23.9902 23.5132 23.9551 23.8354 23.6445 24.4624C23.4629 24.8315 23.3164 25.0249 22.9883 25.3413L22.5605 25.7397L22.5254 23.0503C22.4902 20.1089 22.4902 20.103 22.1152 19.2827C21.6934 18.3511 20.8555 17.4956 19.9414 17.0737C19.7715 16.9917 19.5957 16.9272 19.5605 16.9272C19.502 16.9272 19.4844 17.9937 19.4844 22.0542V27.1812H20.8613C22.1914 27.1812 22.2441 27.1753 22.3613 27.0581C22.4316 26.9878 22.6777 26.8354 22.9062 26.7241C23.2051 26.5718 23.4629 26.3726 23.8262 26.0151C24.2598 25.5874 24.3711 25.4292 24.5996 24.9546C24.7461 24.6499 24.8984 24.2632 24.9336 24.105C24.9805 23.9175 25.0156 23.0503 25.0332 21.7437L25.0625 19.6812H25.3965C25.8887 19.6812 25.9941 19.5464 26.0469 18.8726C26.0703 18.5913 26.1289 18.2808 26.1758 18.187C26.2695 18.0054 26.7441 17.5425 27.2363 17.144L27.5117 16.9214V15.1753V13.4292L27.3652 13.2944C27.2539 13.189 27.1309 13.1479 26.8672 13.1304L26.5156 13.1069V12.269V11.4312L26.3281 11.2729C26.1758 11.144 26.0996 11.1206 25.9355 11.1499C25.5371 11.2144 25.4902 11.314 25.4727 12.269L25.4551 13.1187H24.4883H23.5273V12.3042C23.5273 11.5366 23.5215 11.4722 23.3984 11.3374C23.252 11.1675 22.9766 11.103 22.7891 11.1851Z" fill="#120F6C"/>
<path d="M8.67383 11.8882C8.79687 12.2456 9.21289 13.0366 9.50586 13.4995C9.83984 14.0093 10.7305 14.8999 11.1816 15.1636C13.0625 16.2651 15.0723 15.6147 16.5371 13.4233C16.8418 12.9722 17.375 11.8882 17.375 11.7241C17.375 11.6714 16.4551 11.6538 12.9805 11.6538H8.5918L8.67383 11.8882Z" fill="#120F6C"/>
<path d="M10.7832 15.9663C10.6543 16.0542 10.2441 16.271 9.875 16.4526C9.50586 16.6284 9.17188 16.8159 9.13086 16.8628C9.08984 16.9155 9.05469 17.062 9.05469 17.1909C9.05469 17.4136 9.08984 17.4546 10.0684 18.3921C11.627 19.898 11.6094 19.8862 11.8672 19.8862C12.1484 19.8862 12.2188 19.8218 12.6406 19.2007C12.8281 18.9136 12.9922 18.6851 13.0039 18.6851C13.0098 18.6851 13.1855 18.937 13.3906 19.2417C13.8008 19.8394 13.9707 19.9683 14.2695 19.8804C14.4395 19.8276 16.748 17.6714 16.8887 17.4253C17 17.2437 16.9766 17.0034 16.8359 16.8452C16.7598 16.769 16.3965 16.564 16.0273 16.394C15.6582 16.2241 15.2773 16.0249 15.1895 15.9487C14.9023 15.7144 14.7617 15.7612 13.9121 16.3706C13.4785 16.6812 13.0918 16.9448 13.0566 16.9624C13.0156 16.98 12.623 16.7456 12.1895 16.4292C11.2695 15.7788 11.1289 15.7261 10.7832 15.9663Z" fill="#120F6C"/>
<path d="M7.54883 16.6753C7.49023 16.6987 7.47266 17.8062 7.47266 21.9429V27.1812H13.0098H18.5469V21.9429C18.5469 17.2202 18.5352 16.7046 18.4531 16.6694C18.4004 16.6519 18.248 16.6343 18.1133 16.6343H17.8672L17.873 17.0854C17.873 17.8003 17.8086 17.8882 16.291 19.3354C15.5645 20.021 14.8848 20.6304 14.7676 20.689C14.293 20.9351 13.7949 20.8823 13.2676 20.5249L12.9629 20.3198L12.8105 20.4604C12.3945 20.8472 11.7266 20.9468 11.2344 20.6831C10.8945 20.5073 8.39844 18.105 8.25781 17.8237C8.17578 17.6597 8.14648 17.4722 8.14648 17.1147V16.6343L7.88281 16.6401C7.73633 16.6401 7.58398 16.6577 7.54883 16.6753Z" fill="#120F6C"/>
<path d="M5.97852 17.1265C5.28711 17.4546 4.66016 18.0171 4.2207 18.6851C3.89844 19.1831 3.74023 19.5464 3.59961 20.1206C3.5 20.5542 3.48828 20.8296 3.48828 23.7417V26.894L3.63477 27.0347L3.77539 27.1812H5.1582H6.53516V22.0542C6.53516 17.9292 6.51758 16.9272 6.45898 16.9272C6.41797 16.9272 6.20117 17.0151 5.97852 17.1265Z" fill="#120F6C"/>
</svg>
