<svg width="31" height="31" viewBox="0 0 31 31" fill="none" xmlns="http://www.w3.org/2000/svg">
<g clip-path="url(#clip0_49_650)">
<path d="M11.5742 0.252442C10.9356 0.428223 10.3672 0.850098 10.0566 1.37744C9.49415 2.33838 9.65235 3.62744 10.4258 4.40674C11.3691 5.35596 12.8984 5.39111 13.8828 4.48291C14.4102 3.99658 14.668 3.40479 14.668 2.6665C14.668 2.13916 14.5566 1.73486 14.2813 1.30713C13.707 0.404786 12.5996 -0.0229487 11.5742 0.252442Z" fill="white"/>
<path d="M18.2656 0.346191C18.1484 0.45166 18.0371 0.621582 18.002 0.73877C17.9551 0.92041 17.8965 0.979004 17.668 1.08447C17.3281 1.24268 17.1816 1.46533 17.1816 1.83447C17.1816 2.20361 17.3223 2.42627 17.6621 2.58447C17.8906 2.68994 17.9551 2.75439 18.002 2.91846C18.0781 3.19385 18.3418 3.43994 18.6231 3.51025C18.752 3.53369 19.3203 3.56299 19.8945 3.56299H20.9316V6.74463V9.92627L19.7539 10.2954C18.9922 10.5298 18.5586 10.6411 18.5352 10.6001C18.5117 10.5649 18.4238 9.98486 18.3301 9.30518C18.2422 8.63135 18.1309 7.95166 18.0781 7.80518C17.7852 6.94385 17.0703 6.2583 16.1914 6.00049C15.916 5.91846 15.3887 5.90674 12.1953 5.90674C8.70899 5.90674 8.50391 5.9126 8.15235 6.02393C7.23243 6.30518 6.49415 7.07275 6.25977 7.98682C6.1836 8.27979 6.16602 9.04736 6.13087 12.5981C6.08985 16.688 6.08399 16.8638 5.97852 16.8989C5.7793 16.9575 5.17579 17.5728 4.98829 17.895C4.80079 18.229 4.64259 18.7153 4.64259 18.979C4.64259 19.0903 4.59571 19.1489 4.44923 19.2192C4.06251 19.4067 4.06251 19.3716 4.4961 22.354C4.70704 23.8306 4.91212 25.1372 4.94141 25.2544C4.97071 25.3716 5.06446 25.5239 5.15235 25.5884C5.29884 25.7056 5.37501 25.7114 7.41993 25.7114C9.66993 25.7114 9.70509 25.7056 9.85157 25.4243C9.88087 25.3716 10.0918 24.0591 10.3203 22.5063C10.7715 19.436 10.7774 19.4067 10.4375 19.2368C10.3496 19.1899 10.2324 19.1489 10.1797 19.1489C10.1211 19.1489 10.0918 19.0903 10.0918 18.9731C10.0918 18.7446 9.88673 18.1294 9.72266 17.8599C9.5293 17.5435 9.17188 17.1802 8.85548 16.981L8.56837 16.7935V12.7681C8.56837 8.50244 8.56837 8.50244 8.8379 8.55518C8.94337 8.57275 8.94923 8.67236 8.97852 12.2173L9.00782 15.8618L9.38282 16.1021C10.0801 16.5532 10.6602 17.2798 10.9121 18.0063C10.9766 18.1997 11.0469 18.3052 11.1231 18.3169C11.4336 18.3755 11.6328 18.5337 11.7676 18.8208L11.9082 19.1196V18.2231V17.3325H12.2012H12.4941L12.5059 23.2681L12.5234 29.2095L12.6992 29.4966C12.8106 29.6724 12.9863 29.8481 13.168 29.9595C13.4258 30.1177 13.4961 30.1353 13.9531 30.1353C14.416 30.1353 14.4805 30.1235 14.7207 29.9595C14.8613 29.8599 15.0606 29.6606 15.1602 29.52L15.3359 29.2563L15.3535 18.979C15.3594 11.5435 15.3828 8.67822 15.4297 8.61963C15.5293 8.50244 15.7109 8.53174 15.7754 8.67236C15.8047 8.74854 15.9336 9.65674 16.0684 10.6997C16.1973 11.7427 16.3379 12.6743 16.3848 12.7798C16.4785 13.0024 16.7305 13.2661 16.9707 13.3892C17.3281 13.5767 17.7031 13.5122 19.3027 13.0024C20.1289 12.7446 20.8379 12.5278 20.8672 12.5278C20.9141 12.5278 20.9316 13.7407 20.9316 16.5298C20.9316 20.2915 20.9375 20.5376 21.0371 20.7251C21.3359 21.2759 22.1914 21.27 22.4961 20.7192C22.5957 20.5376 22.6016 20.2388 22.6191 16.2427L22.6367 11.9653L22.8652 11.8599C23.3164 11.6606 23.6387 11.0454 23.5391 10.5825C23.4395 10.1313 23.1172 9.73877 22.7656 9.62744L22.6309 9.59229V6.57471V3.56299H23.6445C25.0742 3.55713 25.332 3.4751 25.502 2.96533C25.5781 2.73096 25.6191 2.68408 25.8066 2.63135C26.5508 2.40869 26.5508 1.26025 25.8066 1.0376C25.6191 0.984863 25.5781 0.937988 25.502 0.703613C25.4375 0.510254 25.3555 0.387207 25.2149 0.299316L25.0156 0.164551H21.7461H18.4766L18.2656 0.346191ZM7.1211 18.6392C7.32618 18.686 7.46094 18.686 7.64844 18.6274C8.05274 18.5103 8.11134 18.5161 8.25782 18.7329C8.33399 18.8442 8.39259 18.979 8.39259 19.0376C8.39259 19.1431 8.32813 19.1489 7.3379 19.1489H6.28321L6.3711 18.9321C6.49415 18.6392 6.63477 18.4927 6.7461 18.5396C6.79884 18.563 6.9629 18.6099 7.1211 18.6392Z" fill="white"/>
<path d="M11.8613 20.6314C11.8555 20.6548 11.6504 21.7739 11.4043 23.1216C11.1641 24.4634 10.9121 25.6704 10.8594 25.7993C10.6074 26.3735 10.1738 26.6724 9.45312 26.7778L8.97852 26.8481V27.7329C8.97852 29.1743 9.0957 29.5552 9.66992 29.9595C9.88672 30.106 9.98633 30.1353 10.3613 30.1528C10.7422 30.1763 10.8359 30.1587 11.123 30.0181C11.4805 29.8423 11.7559 29.5259 11.8496 29.1685C11.9023 28.981 11.9141 20.4673 11.8613 20.6314Z" fill="white"/>
</g>
<defs>
<clipPath id="clip0_49_650">
<rect width="30" height="30" fill="white" transform="translate(0.248047 0.164551)"/>
</clipPath>
</defs>
</svg>
