<svg width="31" height="31" viewBox="0 0 31 31" fill="none" xmlns="http://www.w3.org/2000/svg">
<g clip-path="url(#clip0_49_684)">
<path d="M14.2179 0.258301C12.6476 0.527832 11.3116 1.24854 10.6437 2.18604C10.2218 2.77783 10.1046 3.16455 9.94055 4.57666C9.85852 5.26221 9.78235 5.9126 9.76477 6.02393L9.72961 6.229H15.7999C19.1339 6.229 21.8644 6.21143 21.8644 6.18799C21.8644 6.03564 21.5597 3.59229 21.507 3.33447C21.4308 2.94775 21.1261 2.35596 20.8097 1.98096C20.1183 1.15479 18.7706 0.498535 17.2648 0.252441C16.5968 0.141113 14.8624 0.146973 14.2179 0.258301ZM19.0519 2.03955C19.1573 2.14502 19.1691 2.23291 19.1691 3.17041C19.1691 3.95557 19.1515 4.21338 19.087 4.30127C19.005 4.40674 18.8937 4.4126 15.8644 4.43018L12.7238 4.44775L12.5773 4.30127C12.4308 4.15479 12.4308 4.14307 12.4308 3.15283C12.4308 2.23291 12.4425 2.14502 12.548 2.03955C12.6652 1.92236 12.7413 1.92236 15.7999 1.92236C18.8585 1.92236 18.9347 1.92236 19.0519 2.03955Z" fill="white"/>
<path d="M13.0753 3.18213V3.79736H15.7999H18.5245V3.18213V2.56689H15.7999H13.0753V3.18213Z" fill="white"/>
<path d="M9.79407 6.94385C9.45422 7.11377 8.98547 7.62354 8.7804 8.05713C8.60461 8.43799 8.5929 8.49072 8.5929 9.15869C8.5929 9.83838 8.59875 9.8794 8.78625 10.2544C8.99133 10.6704 9.44836 11.145 9.80579 11.3149C9.96399 11.3911 10.0284 11.4673 10.0812 11.6548C10.1984 12.0474 10.5792 12.8677 10.8898 13.4126C12.7648 16.6646 15.7238 17.7485 18.2609 16.1196C18.7941 15.7739 19.3448 15.2876 19.7433 14.813C20.4347 13.9868 21.132 12.7798 21.4601 11.8481C21.5831 11.4966 21.63 11.4321 21.8937 11.2681C22.7609 10.7056 23.2179 9.73291 23.0421 8.78955C23.0011 8.57276 22.8898 8.22705 22.7902 8.01612C22.5616 7.53565 21.9816 6.93799 21.6945 6.88526C21.589 6.86182 18.9113 6.84424 15.7472 6.84424C10.4562 6.84424 9.98157 6.85596 9.79407 6.94385ZM11.2648 9.51026C11.7159 9.93213 11.8507 9.94385 13.2218 9.6626C14.8741 9.33448 16.6788 9.34033 18.4952 9.69776C19.4386 9.8794 19.8019 9.88526 20.0773 9.71533C20.3527 9.54541 20.7042 9.14112 21.2198 8.40869L21.6534 7.78174L21.8175 7.93994C21.9113 8.02783 22.0577 8.24463 22.1398 8.42041C22.5441 9.23487 22.1808 10.2544 21.3429 10.6821C20.9972 10.8579 20.9796 10.8755 20.7863 11.4438C20.4054 12.5337 19.6906 13.7349 18.9581 14.5142C17.4698 16.0962 15.8585 16.5064 14.2062 15.7153C12.8234 15.0532 11.4816 13.3306 10.755 11.2739C10.6027 10.8345 10.5851 10.811 10.3273 10.6997C9.27258 10.2544 8.99133 8.8833 9.75891 7.9751L9.92297 7.78174L10.4562 8.51416C10.7491 8.91846 11.1124 9.36963 11.2648 9.51026Z" fill="white"/>
<path d="M27.3253 9.2876C27.1261 9.46338 26.0773 11.3735 26.1066 11.5024C26.1183 11.5669 26.1769 11.9478 26.2296 12.3521L26.3292 13.0845L25.4386 14.6372C24.9464 15.4927 24.5128 16.2251 24.4777 16.2603C24.4249 16.3188 24.2784 16.2603 23.798 15.979C23.0773 15.563 22.9191 15.5161 22.7609 15.6743C22.6964 15.7388 22.4034 16.2075 22.1105 16.7231C21.3898 17.9888 21.4952 17.8774 21.0441 17.8071C20.8331 17.7778 20.4991 17.7368 20.2999 17.7192L19.9308 17.6841V20.4673V23.2505L20.1827 23.1216C20.5167 22.9517 21.0851 22.9458 21.4718 23.1216L21.7472 23.2446V21.0181V18.7915L21.882 18.8325C21.9523 18.8501 22.0988 18.9028 22.2042 18.9497L22.3917 19.0259V21.604V24.188H22.8019C23.0304 24.188 23.3058 24.2231 23.4171 24.27L23.6222 24.3579V25.5884V26.8247H26.0538H28.4855L28.462 26.6899C28.4445 26.6196 28.3624 26.2739 28.2804 25.9224C27.7706 23.8306 26.6515 21.6099 25.4855 20.4028L25.2511 20.1626L25.9015 19.0435C26.2589 18.4282 26.5519 17.8657 26.5519 17.7837C26.5519 17.5962 26.3937 17.4673 25.7198 17.0923C25.4034 16.9165 25.1456 16.7583 25.1456 16.729C25.1456 16.7056 25.5675 15.9556 26.0831 15.0591L27.0206 13.436L27.7062 13.1899C28.0812 13.0493 28.4445 12.9028 28.5148 12.856C28.7023 12.7329 29.7745 10.8579 29.7745 10.6528C29.7745 10.5591 29.7335 10.4478 29.6866 10.395C29.546 10.2603 27.6417 9.18799 27.5363 9.18799C27.4835 9.18799 27.3898 9.23486 27.3253 9.2876Z" fill="white"/>
<path d="M4.2745 9.40479C4.21591 9.46924 4.16903 9.58057 4.16903 9.65674C4.16903 9.73291 4.41512 10.2134 4.71395 10.7349C5.00692 11.2505 5.25302 11.6958 5.25302 11.7251C5.25302 11.7485 4.98934 11.9243 4.66708 12.1118L4.087 12.4575L3.5245 11.479C2.92098 10.4478 2.79208 10.3071 2.50497 10.4126C2.31747 10.4888 2.03622 10.9634 1.87801 11.4907C1.70223 12.0649 1.73739 12.9731 1.96591 13.5239C2.14755 13.9751 2.54598 14.5259 2.89169 14.8013C3.67684 15.4341 4.93661 15.6626 5.85653 15.3345C5.962 15.2993 6.06161 15.2759 6.07333 15.2876C6.08505 15.2993 6.53622 16.0728 7.07528 17.0103L8.0538 18.7036L7.91317 18.7915C6.81161 19.5122 5.68075 20.6899 4.93661 21.8911C4.0577 23.3091 3.51864 24.6978 3.08505 26.6899L3.05575 26.8247H5.48739H7.91903V25.5884V24.3579L8.12411 24.27C8.23544 24.2231 8.51083 24.188 8.73934 24.188H9.1495V21.1938V18.1997L9.02059 18.2349C8.94442 18.2583 8.85067 18.2817 8.8038 18.2876C8.75106 18.2935 8.34677 17.6489 7.73739 16.5942L6.75302 14.895L7.09872 14.5317C7.50302 14.104 7.76669 13.6001 7.88973 13.0259C7.9952 12.5103 7.9952 12.2524 7.88973 11.7368C7.69052 10.7876 7.09872 10.0435 6.19637 9.59229C5.70419 9.35205 5.66317 9.34033 5.03036 9.31689C4.43856 9.29346 4.36239 9.30518 4.2745 9.40479Z" fill="white"/>
<path d="M11.1417 17.7251C10.9952 17.7368 10.632 17.7837 10.339 17.8364L9.79407 17.9302V20.5845V23.2446L10.0753 23.1157C10.4445 22.9458 10.9601 22.9458 11.3351 23.1157L11.6105 23.2446V20.4614C11.6105 17.854 11.6046 17.6841 11.5109 17.6958C11.4523 17.7017 11.2882 17.7134 11.1417 17.7251Z" fill="white"/>
<path d="M12.255 20.936V24.188H15.7706H19.2863V20.9302V17.6724L18.8702 17.6958C18.507 17.7134 18.4366 17.7368 18.3253 17.8657C18.2491 17.9536 17.6691 18.7505 17.0304 19.6411C16.3976 20.5317 15.8527 21.2759 15.8292 21.2876C15.7999 21.3052 15.2198 20.5259 14.5284 19.5649C13.5851 18.2349 13.2394 17.7954 13.1105 17.7485C13.0167 17.7134 12.7882 17.6841 12.6007 17.6841H12.255V20.936Z" fill="white"/>
<path d="M10.4151 23.6606C9.8936 23.8188 9.64165 24.4809 9.91118 25.0083C10.21 25.5942 11.0889 25.5884 11.4815 25.0024C11.5987 24.8384 11.6163 24.7446 11.5987 24.4634C11.5752 24.1938 11.5401 24.0942 11.3995 23.9477C11.1123 23.6372 10.7959 23.5493 10.4151 23.6606Z" fill="white"/>
<path d="M20.2999 23.7778C20.048 23.9302 19.9308 24.1763 19.9308 24.5395C19.9308 24.9087 20.0421 25.1372 20.2999 25.2954C20.5753 25.4653 21.1027 25.4653 21.3663 25.3013C21.8878 24.979 21.8702 24.0532 21.3312 23.7661C21.0616 23.6196 20.546 23.6255 20.2999 23.7778Z" fill="white"/>
<path d="M8.5636 27.5278V30.1646H9.4718H10.38V28.1196V26.0747L10.1749 26.0044C9.8761 25.9048 9.41321 25.4595 9.2843 25.1548L9.17883 24.8911H8.87415H8.5636V27.5278Z" fill="white"/>
<path d="M12.1202 25.1489C11.9855 25.4771 11.6632 25.7993 11.3058 25.9634L11.0245 26.0923V28.1255V30.1646H15.7706H20.5167V28.1196V26.0806L20.2648 25.981C19.9425 25.8579 19.5558 25.4771 19.421 25.1489L19.3156 24.8911H15.7706H12.2257L12.1202 25.1489Z" fill="white"/>
<path d="M22.257 25.1548C22.1281 25.4595 21.6652 25.9048 21.3663 26.0044L21.1613 26.0747V28.1196V30.1646H22.0695H22.9777V27.5278V24.8911H22.673H22.3624L22.257 25.1548Z" fill="white"/>
<path d="M2.90929 27.8032C2.81554 28.5298 2.78039 29.8423 2.84484 29.9888L2.90929 30.1353L5.41711 30.1528L7.91906 30.1646V28.8169V27.4692H5.43468H2.95031L2.90929 27.8032Z" fill="white"/>
<path d="M23.6222 28.8169V30.1646H26.1124H28.6027L28.6906 30.0239C28.7726 29.9009 28.7784 29.772 28.7198 28.9399C28.6906 28.4243 28.6437 27.8794 28.6261 27.7329L28.5851 27.4692H26.1066H23.6222V28.8169Z" fill="white"/>
</g>
<defs>
<clipPath id="clip0_49_684">
<rect width="30" height="30" fill="white" transform="translate(0.77063 0.164551)"/>
</clipPath>
</defs>
</svg>
