<svg width="31" height="31" viewBox="0 0 31 31" fill="none" xmlns="http://www.w3.org/2000/svg">
<g clip-path="url(#clip0_49_643)">
<path d="M10.209 1.25494C8.77347 1.62994 7.87698 3.14166 8.24612 4.56549C8.43362 5.28619 8.83792 5.84283 9.45901 6.24713C9.93948 6.55768 10.4199 6.67487 11.0996 6.64557C11.5625 6.62799 11.7032 6.59283 12.0489 6.43463C12.7754 6.09479 13.2617 5.5733 13.4961 4.8819C13.5547 4.71198 13.6192 4.57721 13.6485 4.57721C13.6719 4.57721 13.918 4.65338 14.1934 4.74713C14.7969 4.95221 14.9727 4.93463 15.1133 4.6358C15.2012 4.4483 15.2012 4.41315 15.1192 4.23151C15.043 4.07916 14.9551 4.00885 14.7383 3.92682C14.586 3.87408 14.2754 3.7569 14.0528 3.67487L13.6485 3.52252L13.5664 3.20612C13.4492 2.74323 13.209 2.33307 12.8457 1.96979C12.1309 1.25494 11.1875 0.997131 10.209 1.25494Z" fill="white"/>
<path d="M10.5547 7.36627C9.58208 7.47174 8.72075 8.09869 8.27544 9.03033C8.01763 9.55768 7.88872 10.1963 7.94731 10.6768C7.96489 10.8409 8.05864 11.3038 8.15239 11.7022C8.252 12.1006 8.38091 12.7393 8.44536 13.126C8.50981 13.5069 8.57427 13.8292 8.58013 13.835C8.65044 13.8936 14.6797 16.9698 14.6973 16.9581C14.7032 16.9463 14.7325 16.7237 14.7618 16.46L14.8086 15.9796L15.5118 16.4014C16.1446 16.7764 16.25 16.8174 16.584 16.8409C17.0645 16.876 17.3926 16.7471 17.6973 16.419C18.1192 15.9561 18.1602 15.2706 17.7911 14.7315C17.6094 14.4737 17.5333 14.421 16.0098 13.5421C15.3477 13.1612 14.7735 12.8213 14.7325 12.7862C14.6973 12.7452 14.6094 12.3936 14.545 12.001C14.4102 11.1749 14.1875 10.1963 14.0118 9.64557C13.8184 9.05377 13.5665 8.62603 13.1856 8.25103C12.4942 7.55377 11.586 7.24908 10.5547 7.36627Z" fill="white"/>
<path d="M3.51169 8.47369C3.14255 8.56744 2.72653 8.80768 2.43356 9.1065C2.22849 9.31744 1.95896 9.74518 1.42575 10.7354C0.722627 12.0362 0.69333 12.0889 0.669893 12.4932C0.640596 13.0088 0.781221 13.3838 1.1445 13.7296C1.47849 14.0577 4.81247 15.8565 5.07614 15.8565C5.32224 15.8565 5.44528 15.7159 5.74997 15.1124C5.87888 14.8487 6.00778 14.6202 6.03708 14.6026C6.06052 14.5909 10.4726 16.8116 15.8398 19.5479C25.1445 24.294 25.5898 24.5284 25.5898 24.6807C25.5898 24.8213 25.5605 24.8448 25.2676 24.921C24.9043 25.0147 24.541 25.2081 24.3418 25.4249L24.207 25.5655L24.4004 25.8819C24.5058 26.0577 24.5996 26.21 24.6054 26.2217C24.6113 26.2335 24.7519 26.1221 24.916 25.9698C25.2617 25.6417 25.5195 25.5245 25.8652 25.5245C26.3808 25.5303 26.914 25.9288 27.2422 26.5616C27.3301 26.7315 27.4238 26.8721 27.4472 26.8721C27.5 26.8721 28.0273 26.4444 28.2207 26.2393L28.3847 26.0577L28.2617 25.8585C27.9746 25.3956 27.2949 24.9268 26.7968 24.8448L26.5566 24.8038V24.4112C26.5566 24.1065 26.5332 23.9952 26.4511 23.9249C26.3926 23.8721 24.1191 22.6885 21.3945 21.2999C18.6758 19.9112 16.4316 18.7569 16.4082 18.7335C16.3789 18.71 16.455 18.4756 16.5664 18.2061C16.6836 17.9366 16.7656 17.7081 16.7597 17.7022C16.7304 17.6846 16.0449 17.544 15.9277 17.5323C15.8398 17.5264 15.7812 17.6085 15.6699 17.8897C15.5879 18.0948 15.5 18.2588 15.4765 18.2588C15.4179 18.2588 6.62302 13.753 6.57028 13.7003C6.54685 13.6768 6.66403 13.419 6.82224 13.1319C7.1738 12.4932 7.23239 12.2178 7.05075 12.0245C6.9863 11.9542 6.7695 11.8194 6.57614 11.7256C6.23044 11.5616 6.22458 11.5499 6.2656 11.3741C6.28903 11.2803 6.31247 10.9463 6.31247 10.6417C6.31247 10.1319 6.29489 10.0499 6.12497 9.6983C5.75583 8.95416 5.02927 8.47955 4.18552 8.43854C3.93942 8.42682 3.63474 8.4444 3.51169 8.47369Z" fill="white"/>
<path d="M8.32229 16.7764C8.28714 16.8702 8.24612 17.1924 8.22854 17.503C8.19925 18.1768 8.30471 18.6456 8.6094 19.1964C8.80862 19.5596 8.83792 19.6768 9.13089 21.4522L9.43557 23.3272L9.08987 25.876C8.8262 27.7921 8.74417 28.5479 8.76175 28.9053L8.77932 29.3917H4.84768C0.541043 29.3917 0.710965 29.3799 0.628933 29.7374C0.587918 29.9307 0.716824 30.2354 0.863308 30.294C0.916043 30.3116 7.20315 30.3292 14.8379 30.3292H28.7129L28.9942 30.1358C29.3633 29.8897 29.6387 29.5206 29.7559 29.1163C29.8907 28.6534 29.8438 27.6749 29.668 27.212C29.4336 26.6085 29.1231 26.5381 28.6485 26.9776C27.9981 27.5811 27.4649 27.9327 26.9961 28.0792L26.7324 28.1553V27.8741C26.7324 27.5225 26.5625 27.0128 26.3282 26.6729C26.041 26.2569 25.7949 26.2335 25.4199 26.5792C25.1153 26.8604 24.7168 27.0479 24.2949 27.1006L23.9785 27.1475L23.8848 26.8194C23.6914 26.1456 23.0821 25.4659 22.3321 25.0909C21.752 24.7979 21.4063 24.8214 21.2832 25.1495C21.2364 25.2608 21.2598 25.378 21.3711 25.6417C21.541 26.046 21.5528 26.21 21.4297 26.503C21.2715 26.878 21.2364 26.8956 21.0078 26.6964C20.7266 26.4444 20.2871 26.2393 19.7715 26.1046C19.1621 25.9522 18.9336 25.9581 18.7637 26.1397C18.5528 26.3682 18.5821 26.6026 18.875 27.0186C19.4199 27.7862 19.3965 28.5245 18.8047 29.1456L18.6231 29.3331H17.1172H15.6055L15.6699 29.1514C15.7578 28.8936 15.6934 28.2901 15.5528 28.003C15.3946 27.6983 14.9668 27.3233 14.6739 27.2354C14.5449 27.1944 14.2403 27.1651 13.9942 27.1651C13.5606 27.1651 13.5489 27.1592 13.5782 27.0303C13.6719 26.6143 14.1348 23.5967 14.1348 23.3917C14.1348 23.2569 14.0176 22.3839 13.8711 21.4581L13.6074 19.7764L13.7246 19.6241C13.7891 19.5362 13.8242 19.4483 13.8008 19.4249C13.7657 19.3897 9.90432 17.3858 8.6387 16.7413L8.39261 16.6124L8.32229 16.7764Z" fill="white"/>
</g>
<defs>
<clipPath id="clip0_49_643">
<rect width="30" height="30" fill="white" transform="translate(0.248047 0.739319)"/>
</clipPath>
</defs>
</svg>
