<svg width="30" height="31" viewBox="0 0 30 31" fill="none" xmlns="http://www.w3.org/2000/svg">
<g clip-path="url(#clip0_49_613)">
<path d="M21.7969 0.926812C20.25 1.46587 19.5821 3.2647 20.3731 4.73541C20.5547 5.07525 21.0938 5.59673 21.4336 5.77251C22.2188 6.17095 23.2031 6.15923 23.9707 5.73736C24.3926 5.50884 24.8203 5.04595 25.0664 4.55962C25.2481 4.18462 25.2774 4.06158 25.3008 3.59869C25.3594 2.42095 24.8379 1.53033 23.7891 1.0147C23.4492 0.844781 23.3496 0.827203 22.793 0.809625C22.2774 0.797906 22.1192 0.815484 21.7969 0.926812Z" fill="white"/>
<path d="M22.7637 6.95025C21.2227 7.06158 21.0234 7.10846 20.6074 7.47174C20.4902 7.57721 20.3145 7.8233 20.2148 8.01666C20.0566 8.33893 20.0391 8.43268 20.0391 8.89557V9.42291L19.2656 10.3077C18.8379 10.7999 18.4687 11.21 18.4453 11.2276C18.4277 11.2452 17.9941 11.3624 17.4961 11.4854C16.9922 11.6085 16.582 11.7315 16.582 11.7608C16.582 11.8428 17.291 13.8292 17.3437 13.8819C17.3672 13.9112 18.1582 13.46 19.0957 12.8799L20.8066 11.8253L21.293 11.0284C21.5625 10.5889 21.7969 10.2081 21.8203 10.1905C21.8379 10.1729 21.6797 10.6534 21.4687 11.2628C21.2578 11.8721 21.0703 12.3878 21.0469 12.4112C21.0234 12.4288 20.1621 12.962 19.1309 13.5948C18.0879 14.2335 17.1621 14.8487 17.0449 14.9717C16.8867 15.1299 16.8105 15.2823 16.752 15.5225C16.7168 15.71 16.6582 15.8565 16.6348 15.8565C16.5293 15.8565 16.1484 16.2432 16.0781 16.4249C16.0312 16.5362 15.9961 16.8292 15.9961 17.1456V17.6729H14.9121C13.834 17.6729 13.8223 17.6729 13.6816 17.8194C13.5469 17.9542 13.5352 18.001 13.5352 18.5811C13.5352 19.1612 13.5469 19.2081 13.6816 19.3428C13.7695 19.4307 13.8926 19.4893 13.998 19.4893C14.2031 19.4893 14.1914 19.4542 14.332 20.7198C14.4375 21.7569 14.5078 21.9561 14.7773 22.126C14.9648 22.2374 15.0645 22.2432 17.918 22.2432C21.1582 22.2432 21.1406 22.2432 21.3457 21.8917C21.416 21.7745 21.4863 21.3702 21.5742 20.6026L21.7031 19.4893H21.8613C22.2656 19.4893 22.3828 19.2842 22.3828 18.5811C22.3828 18.0596 22.3008 17.7784 22.1191 17.7081C22.0664 17.6905 21.5508 17.6729 20.9766 17.6729H19.9336L19.9102 17.128C19.8984 16.7764 19.8516 16.5186 19.7871 16.3897C19.7285 16.2784 19.7051 16.1671 19.7285 16.1436C19.7578 16.1202 20.4492 15.6866 21.2695 15.1827C22.0898 14.6846 22.8574 14.1749 22.9746 14.0518C23.1328 13.8819 23.2441 13.6534 23.4668 13.0147C23.9941 11.4971 24.1934 10.9639 24.1934 11.046C24.1992 11.087 24.1172 11.7608 24.0234 12.5342C23.8418 13.9581 23.748 14.3155 23.5195 14.5147C23.4609 14.5674 22.7578 15.0128 21.9609 15.5049C20.9941 16.0967 20.5078 16.4249 20.5078 16.4893C20.5078 16.5421 20.5254 16.6885 20.543 16.8057L20.5781 17.0225L21.4102 17.0401C22.207 17.0577 22.2539 17.0635 22.4883 17.2217C22.623 17.3096 22.793 17.4913 22.8633 17.6319C22.9805 17.8487 22.998 17.96 22.998 18.5811C22.998 19.2432 22.9863 19.3018 22.8398 19.5596C22.752 19.7061 22.5879 19.8878 22.4824 19.9522L22.2832 20.0753L22.1836 20.9366C22.0723 21.921 21.9258 22.3135 21.5859 22.5713C21.2461 22.835 21.0117 22.8819 20.1152 22.8878C19.2949 22.8878 19.2773 22.8878 19.2539 23.0167C19.1777 23.3799 18.6914 29.4561 18.7266 29.6026C18.832 30.0538 19.1895 30.4815 19.582 30.6456C19.7051 30.6983 19.9687 30.7393 20.1855 30.7393C20.8184 30.7393 21.2871 30.4288 21.5273 29.8546C21.5801 29.7256 21.7148 28.4307 21.9141 26.1397L22.2129 22.6241L23.0098 20.2393C23.8711 17.6788 23.8125 17.7901 24.2285 17.7901H24.4043L24.2754 20.4092C24.1816 22.2491 24.1582 23.1046 24.1934 23.2686C24.2871 23.6612 27.2754 30.0421 27.4746 30.2764C27.7676 30.628 28.1016 30.7569 28.6523 30.7335C29.0508 30.71 29.1445 30.6866 29.3613 30.5342C29.502 30.4346 29.6953 30.2413 29.7949 30.1006C29.9473 29.8839 29.9707 29.7901 29.9883 29.4034C30.0059 29.0518 29.9824 28.8936 29.8945 28.6885C29.8301 28.5421 29.1855 27.1417 28.4531 25.5655C27.2109 22.8936 27.1289 22.6885 27.1289 22.3721C27.1289 22.1905 27.1816 21.0362 27.252 19.8116L27.3691 17.5792L27.0762 13.1026C26.9121 10.6358 26.7656 8.50299 26.7422 8.3565C26.666 7.75299 26.3262 7.2901 25.7695 7.00885C25.4355 6.84479 25.3711 6.83307 24.791 6.83893C24.4512 6.84479 23.5371 6.89166 22.7637 6.95025ZM17.9414 16.9815C18.1699 16.9815 18.3398 16.9405 18.5566 16.8292C18.8555 16.6827 18.8672 16.6827 18.9258 16.7881C18.9551 16.8526 18.9844 17.0753 18.9844 17.2862V17.6729H17.959H16.9336V17.2452C16.9336 16.6944 16.9805 16.6475 17.3437 16.835C17.5371 16.9346 17.7187 16.9815 17.9414 16.9815ZM18.5039 18.5635C18.5508 18.6104 18.5742 18.8975 18.5742 19.4659C18.5742 20.4796 18.5742 20.4854 17.9824 20.4854C17.3262 20.4854 17.3437 20.5147 17.3437 19.4659C17.3437 18.9737 17.3613 18.5518 17.3848 18.5342C17.4551 18.4639 18.4277 18.4874 18.5039 18.5635Z" fill="white"/>
<path d="M1.59375 7.2901C1.20703 7.43072 0.726562 7.75885 0.509766 8.03424C0.416016 8.15143 0.275391 8.39166 0.1875 8.57916L0.0292969 8.91315L0.0117188 14.6963L0 20.4854H1.05469H2.10938V20.7198C2.10938 20.8546 2.15039 21.0362 2.19727 21.1299C2.34961 21.4288 2.49023 21.4815 3.09375 21.4815H3.63867L3.62109 23.5147C3.60352 25.8467 3.59766 25.8702 3.12305 26.1514C2.69531 26.3975 2.23242 26.2862 1.91016 25.8526C1.79883 25.7061 1.78125 25.5831 1.75781 24.628C1.7168 23.1807 1.67578 23.1221 0.597656 23.0753L0 23.0518V23.8194C0 24.546 0.00585938 24.587 0.117188 24.587C0.222656 24.587 0.234375 24.628 0.234375 25.1026C0.234375 26.2921 0.691406 27.0948 1.62891 27.5577C2.05664 27.7745 2.09766 27.7803 2.69531 27.7803C3.26953 27.7803 3.33984 27.7686 3.70898 27.5928C4.46484 27.2354 4.97461 26.544 5.09766 25.7178C5.12695 25.501 5.15625 24.4581 5.15625 23.3975V21.4815H5.68359C6.17578 21.4815 6.22266 21.4698 6.39258 21.3174C6.55078 21.1768 6.58594 21.1006 6.60938 20.8194L6.63281 20.4854H7.61133C8.74805 20.4854 9.2168 20.4034 9.82031 20.1046C10.5996 19.7237 11.2031 19.0381 11.5312 18.1534C11.6543 17.8194 11.6836 17.6319 11.707 16.8995L11.7305 16.0381L11.9297 15.921C12.2227 15.7452 12.3633 15.4756 12.3633 15.0889C12.3633 14.7022 12.2168 14.4385 11.8945 14.251C11.6895 14.128 11.6133 14.128 6.43359 14.1104L1.17188 14.0987V11.7374C1.17188 9.11236 1.17188 9.12408 1.58203 8.72565C2.11523 8.20416 3.01758 8.36822 3.38086 9.05377C3.49219 9.27057 3.51562 9.39947 3.51562 9.85065C3.51562 10.1846 3.53906 10.4073 3.58594 10.4542C3.67969 10.5479 4.58203 10.5479 4.67578 10.4542C4.79297 10.337 4.76367 9.31158 4.62891 8.86627C4.41797 8.18658 3.94336 7.65924 3.25195 7.35455C2.8418 7.16705 2.02734 7.13775 1.59375 7.2901Z" fill="white"/>
<path d="M14.6308 8.39752C14.5371 8.48541 14.6015 8.66119 14.8007 8.88385C15.0058 9.10651 15.0117 9.12994 14.9765 9.42877C14.9296 9.80963 14.9062 9.84479 14.625 9.96198C14.3027 10.0967 14.2031 10.0792 13.9101 9.84479L13.6523 9.63385V9.22369V8.8194L13.4941 8.83698C13.125 8.87799 12.9199 9.76862 13.1425 10.3604C13.2773 10.712 13.6816 11.087 14.0332 11.1807C14.3379 11.2628 14.2207 11.0108 15.0644 13.3956C15.6855 15.1534 15.7558 15.2706 16.1894 15.2706C16.5058 15.2706 16.7226 15.1182 16.8164 14.8311C16.8984 14.585 16.9453 14.7491 16.1894 12.6104L15.5742 10.8643L15.7558 10.5128C16.1484 9.74518 15.8906 8.86627 15.1582 8.50299C14.8593 8.35651 14.7011 8.32135 14.6308 8.39752Z" fill="white"/>
<path d="M3.96093 11.1631C3.77929 11.5733 3.76757 11.8311 3.92578 11.9893C4.18359 12.2471 4.6289 12.0713 4.6289 11.7139C4.6289 11.4268 4.34765 10.8174 4.21875 10.8174C4.15429 10.8174 4.0664 10.9346 3.96093 11.1631Z" fill="white"/>
<path d="M3.33979 12.6456C3.16987 13.003 3.123 13.296 3.21089 13.4307C3.29292 13.5596 3.52143 13.6358 3.69721 13.6006C4.0312 13.5245 4.07807 13.1612 3.80854 12.6339C3.70893 12.4405 3.60346 12.2823 3.56831 12.2823C3.53901 12.2823 3.43354 12.4464 3.33979 12.6456Z" fill="white"/>
<path d="M13.7871 12.587C13.2012 13.2315 13.3828 14.2276 14.1504 14.5733C14.3672 14.6729 14.8242 14.7256 14.8242 14.6495C14.8242 14.6202 14.1855 12.792 14.0918 12.5577C14.0332 12.4229 13.9336 12.4346 13.7871 12.587Z" fill="white"/>
</g>
<defs>
<clipPath id="clip0_49_613">
<rect width="30" height="30" fill="white" transform="translate(0 0.739319)"/>
</clipPath>
</defs>
</svg>
