<svg width="31" height="31" viewBox="0 0 31 31" fill="none" xmlns="http://www.w3.org/2000/svg">
<g clip-path="url(#clip0_49_578)">
<path d="M13.8772 1.01334C13.719 1.17154 13.678 1.25943 13.678 1.44107C13.678 1.56998 13.9006 2.6774 14.176 3.90787C14.6565 6.04654 14.6741 6.15201 14.592 6.35123C14.4866 6.59146 14.1819 6.76724 13.9534 6.70865C13.8655 6.69107 13.7307 6.6149 13.6487 6.53873C13.4963 6.40396 13.3381 5.78873 12.6174 2.48404C12.512 1.99771 12.4182 1.59341 12.4065 1.57584C12.3538 1.51138 11.4456 2.03873 10.9124 2.43716C9.63501 3.40396 8.70337 4.69888 8.19946 6.22232C8.00024 6.8317 7.8186 7.74576 7.8186 8.15005V8.37271H7.46118C7.14478 8.37271 7.08618 8.39029 6.93384 8.54263C6.78735 8.68912 6.76392 8.75943 6.76392 9.01724C6.76392 9.27505 6.78735 9.34537 6.93384 9.49185C7.10376 9.66177 7.11548 9.66177 7.78345 9.66177H8.46313V11.7008C8.46313 14.0739 8.49243 14.2672 8.99048 15.2575C9.39478 16.0661 9.92798 16.7575 10.8831 17.7126L11.6975 18.527L11.6741 19.5583C11.6565 20.5251 11.6448 20.6071 11.5159 20.8356C11.3694 21.0876 11.0881 21.3219 10.7952 21.4333C10.7073 21.4684 9.85181 21.5739 8.89087 21.6735C6.89868 21.8786 6.24829 22.0192 5.42798 22.4059C3.94556 23.109 2.85571 24.1813 2.15845 25.6286C1.89478 26.1735 1.76587 26.5719 1.34399 28.1598C1.0686 29.2028 0.845947 30.1169 0.845947 30.2047C0.845947 30.4098 1.01001 30.6735 1.17993 30.7497C1.27954 30.7965 4.22681 30.8141 11.217 30.8141H21.1194L20.9202 30.445C20.551 29.7711 20.5217 29.5661 20.5452 27.3922C20.5627 25.5524 20.5686 25.4352 20.6975 25.1012C20.9729 24.3688 21.512 23.7536 22.1917 23.3961C22.5432 23.2145 22.5901 23.1676 22.5549 23.0563C22.4729 22.7985 22.4553 22.2536 22.5198 21.9899C22.5608 21.8376 22.5842 21.7086 22.5725 21.7028C22.5608 21.6911 22.1096 21.6442 21.5706 21.5915C21.0315 21.5387 20.4807 21.4508 20.3518 21.404C20.0647 21.2868 19.6956 20.8766 19.6077 20.5719C19.5667 20.4372 19.5374 19.9567 19.5374 19.4176V18.4977L20.2874 17.7536C21.4768 16.57 22.1682 15.5856 22.5374 14.5192L22.7307 13.9684L22.7483 11.8122L22.7717 9.66177H23.4221C23.9553 9.66177 24.1018 9.63834 24.2014 9.5563C24.5471 9.28091 24.5471 8.75357 24.2014 8.47818C24.1194 8.40787 23.9729 8.37271 23.7444 8.37271H23.4163L23.3752 8.00357C23.2991 7.29459 23.2112 6.87271 23.0178 6.26334C22.4319 4.42935 21.1545 2.85904 19.4495 1.88638C19.0159 1.63443 18.7756 1.54068 18.7756 1.61099C18.7756 1.75748 17.762 6.2106 17.6917 6.3688C17.592 6.59146 17.2756 6.76724 17.0647 6.71451C16.842 6.65591 16.6194 6.4567 16.5784 6.2692C16.5549 6.16373 16.7131 5.33755 17.0471 3.87271C17.3225 2.64224 17.5452 1.54068 17.5452 1.42349C17.5452 1.25943 17.4983 1.16568 17.3459 1.01334L17.1467 0.814117H15.6116H14.0764L13.8772 1.01334ZM21.4124 11.5836C21.4124 13.7165 21.3889 13.8805 21.0315 14.6129C20.5803 15.5387 19.5725 16.6579 17.8967 18.0934C17.3987 18.5211 16.8831 18.9254 16.7542 18.984C16.5549 19.0778 16.3792 19.0954 15.6116 19.0895C15.0549 19.0895 14.6272 19.0602 14.5159 19.0192C14.012 18.8317 11.4104 16.4294 10.76 15.5504C10.5901 15.3219 10.3499 14.9411 10.2268 14.7008C9.81665 13.9157 9.81079 13.8571 9.81079 11.6422V9.66177H15.6116H21.4124V11.5836ZM13.8538 20.1969C14.1702 20.3551 14.1995 20.3551 15.4827 20.3727C17.0295 20.3961 17.2229 20.3551 17.8088 19.9157L18.1897 19.6286V20.0211C18.1897 20.8473 18.4534 21.5153 18.9924 22.0544C19.1624 22.2243 19.303 22.3825 19.303 22.4059C19.303 22.4704 18.0198 23.0563 17.592 23.1911C16.1975 23.6129 14.7209 23.5836 13.3733 23.1032C12.9338 22.945 11.9202 22.4586 11.9202 22.4059C11.9202 22.3883 12.0608 22.236 12.2307 22.0661C12.7639 21.527 13.0334 20.8473 13.0334 20.0153V19.611L13.2795 19.8278C13.4143 19.9391 13.6721 20.109 13.8538 20.1969Z" fill="white"/>
<path d="M27.4885 9.97818C27.1956 10.0836 27.0432 10.2243 26.9143 10.5114C26.7795 10.8044 26.7795 11.0739 26.9202 11.4489L27.0256 11.7419L26.5686 12.1813C26.2815 12.4567 26.094 12.6852 26.0647 12.7965C26.0237 12.9547 26.1584 13.4294 26.4163 14.0622C26.4456 14.1266 26.3284 14.2614 26.0178 14.5251C25.3733 15.07 25.344 15.193 25.6604 15.9899L25.8596 16.4879L25.385 16.9274C24.7932 17.484 24.7698 17.5895 25.0686 18.3629L25.2678 18.8903L25.0217 19.0954C24.8928 19.2067 24.6643 19.4059 24.5295 19.5465C24.2834 19.7809 24.2717 19.8102 24.2952 20.0739C24.3127 20.2262 24.4006 20.5602 24.4944 20.8122L24.6643 21.2633L24.3713 21.5094C23.7678 22.0251 23.6975 22.1071 23.6975 22.3825C23.6975 22.5172 23.7268 22.7165 23.7678 22.8219L23.8381 23.0153L26.9729 23.0387C28.7014 23.0446 30.1721 23.0797 30.2483 23.1032L30.3772 23.1501V17.4137C30.3772 11.0797 30.3948 11.361 30.0081 10.7926C29.7561 10.4352 29.2756 10.1012 28.8245 9.98404C28.3967 9.87857 27.7874 9.87271 27.4885 9.97818Z" fill="white"/>
<path d="M23.0178 24.3336C22.6839 24.4391 22.2854 24.7262 22.0979 24.9958C21.7698 25.4704 21.7581 25.5876 21.7756 27.6559C21.7932 29.4958 21.7991 29.5602 21.928 29.8004C22.2737 30.4567 22.8479 30.8141 23.5452 30.8141C24.1428 30.8141 28.1331 29.8883 28.7249 29.6071C29.4983 29.2497 30.0667 28.5524 30.2893 27.6794C30.4182 27.1813 30.4182 24.8493 30.2893 24.6032C30.1018 24.2458 30.178 24.2516 26.5569 24.2575C24.0432 24.2575 23.1995 24.2751 23.0178 24.3336Z" fill="white"/>
</g>
<defs>
<clipPath id="clip0_49_578">
<rect width="30" height="30" fill="white" transform="translate(0.611572 0.814117)"/>
</clipPath>
</defs>
</svg>
