<svg width="26" height="25" viewBox="0 0 26 25" fill="none" xmlns="http://www.w3.org/2000/svg">
<path d="M9.10938 0.354799C9.01562 0.466127 8.95703 0.606752 8.95703 0.72394C8.95703 0.893862 8.92773 0.923159 8.58789 1.06964C7.76758 1.42706 6.95312 2.10675 6.44336 2.86261C6.15625 3.28449 5.77539 4.06378 5.68164 4.43292C5.61719 4.66144 5.59375 4.68488 5.43555 4.68488C5.33008 4.68488 5.20703 4.73761 5.11914 4.83136C4.97266 4.97199 4.97266 4.97785 4.97266 6.17316C4.97266 7.35675 4.97266 7.37433 5.11328 7.53839L5.25391 7.70246L10.4043 7.72003C14.2012 7.73175 15.5898 7.71417 15.7129 7.6673C16.0117 7.54425 16.0469 7.38019 16.0469 6.17902C16.0469 4.81378 16.0234 4.75519 15.4961 4.67316C15.4199 4.66144 15.3496 4.54425 15.2559 4.27472C15.0508 3.66535 14.9512 3.46613 14.6172 2.96222C14.2715 2.45246 13.7324 1.87824 13.2637 1.54425C12.9531 1.3216 12.2031 0.934877 12.0801 0.934877C12.0332 0.934877 12.0039 0.852846 12.0039 0.700502C12.0039 0.524721 11.9629 0.425112 11.8574 0.319643C11.7168 0.173159 11.7168 0.173159 10.4863 0.173159H9.26172L9.10938 0.354799ZM11.0898 2.10675C11.2773 2.28839 11.2305 2.52863 10.9316 2.98566C10.7793 3.20831 10.6562 3.40753 10.6562 3.42511C10.6562 3.44269 10.8262 3.45441 11.0371 3.45441C11.3711 3.45441 11.4414 3.47199 11.5645 3.60089C11.6465 3.67706 11.7109 3.81183 11.7109 3.89386C11.7109 4.05792 10.7441 5.62824 10.5273 5.80988C10.2695 6.03839 9.77734 5.82746 9.77734 5.49347C9.77734 5.4173 9.91211 5.14191 10.0703 4.88996L10.3691 4.42121L9.94727 4.38605C9.47266 4.35089 9.30859 4.22785 9.30859 3.9173C9.30859 3.71222 10.416 2.013 10.5801 1.97199C10.7441 1.92511 10.9668 1.98371 11.0898 2.10675Z" fill="white"/>
<path d="M20.2891 8.2005C20.0137 8.31183 19.9727 8.46417 19.9727 9.31964V10.1224L19.6094 10.1458C19.3105 10.1693 19.2285 10.1985 19.1113 10.3333C18.9766 10.4915 18.9766 10.4915 18.9766 12.1614C18.9766 13.14 19 13.8782 19.0352 13.9427C19.0645 14.0013 19.2695 14.1888 19.4863 14.3587C20.2715 14.9739 20.4414 15.2435 20.4883 15.9759C20.5234 16.5911 20.623 16.6966 21.1504 16.6966H21.4961V18.4075C21.4902 20.5286 21.4551 20.8509 21.1445 21.4778C20.9629 21.847 20.8164 22.0403 20.4883 22.3568L20.0605 22.7552L20.0254 20.0657C19.9902 17.1243 19.9902 17.1185 19.6152 16.2982C19.1934 15.3665 18.3555 14.511 17.4414 14.0892C17.2715 14.0071 17.0957 13.9427 17.0605 13.9427C17.002 13.9427 16.9844 15.0091 16.9844 19.0696V24.1966H18.3613C19.6914 24.1966 19.7441 24.1907 19.8613 24.0735C19.9316 24.0032 20.1777 23.8509 20.4062 23.7396C20.7051 23.5872 20.9629 23.388 21.3262 23.0306C21.7598 22.6028 21.8711 22.4446 22.0996 21.97C22.2461 21.6653 22.3984 21.2786 22.4336 21.1204C22.4805 20.9329 22.5156 20.0657 22.5332 18.7591L22.5625 16.6966H22.8965C23.3887 16.6966 23.4941 16.5618 23.5469 15.888C23.5703 15.6068 23.6289 15.2962 23.6758 15.2025C23.7695 15.0208 24.2441 14.5579 24.7363 14.1595L25.0117 13.9368V12.1907V10.4446L24.8652 10.3099C24.7539 10.2044 24.6309 10.1634 24.3672 10.1458L24.0156 10.1224V9.28448V8.44659L23.8281 8.28839C23.6758 8.15948 23.5996 8.13605 23.4355 8.16534C23.0371 8.2298 22.9902 8.32941 22.9727 9.28448L22.9551 10.1341H21.9883H21.0273V9.31964C21.0273 8.55206 21.0215 8.48761 20.8984 8.35284C20.752 8.18292 20.4766 8.11847 20.2891 8.2005Z" fill="white"/>
<path d="M6.17383 8.90362C6.29687 9.26105 6.71289 10.0521 7.00586 10.515C7.33984 11.0247 8.23047 11.9153 8.68164 12.179C10.5625 13.2806 12.5723 12.6302 14.0371 10.4388C14.3418 9.98761 14.875 8.90362 14.875 8.73956C14.875 8.68683 13.9551 8.66925 10.4805 8.66925H6.0918L6.17383 8.90362Z" fill="white"/>
<path d="M8.2832 12.9817C8.1543 13.0696 7.74414 13.2864 7.375 13.4681C7.00586 13.6439 6.67188 13.8314 6.63086 13.8782C6.58984 13.931 6.55469 14.0775 6.55469 14.2064C6.55469 14.429 6.58984 14.47 7.56836 15.4075C9.12695 16.9134 9.10938 16.9017 9.36719 16.9017C9.64844 16.9017 9.71875 16.8372 10.1406 16.2161C10.3281 15.929 10.4922 15.7005 10.5039 15.7005C10.5098 15.7005 10.6855 15.9525 10.8906 16.2571C11.3008 16.8548 11.4707 16.9837 11.7695 16.8958C11.9395 16.8431 14.248 14.6868 14.3887 14.4407C14.5 14.2591 14.4766 14.0189 14.3359 13.8607C14.2598 13.7845 13.8965 13.5794 13.5273 13.4095C13.1582 13.2396 12.7773 13.0403 12.6895 12.9642C12.4023 12.7298 12.2617 12.7767 11.4121 13.386C10.9785 13.6966 10.5918 13.9603 10.5566 13.9778C10.5156 13.9954 10.123 13.761 9.68945 13.4446C8.76953 12.7942 8.62891 12.7415 8.2832 12.9817Z" fill="white"/>
<path d="M5.04883 13.6907C4.99023 13.7142 4.97266 14.8216 4.97266 18.9583V24.1966H10.5098H16.0469V18.9583C16.0469 14.2357 16.0352 13.72 15.9531 13.6849C15.9004 13.6673 15.748 13.6497 15.6133 13.6497H15.3672L15.373 14.1009C15.373 14.8157 15.3086 14.9036 13.791 16.3509C13.0645 17.0364 12.3848 17.6458 12.2676 17.7044C11.793 17.9505 11.2949 17.8978 10.7676 17.5403L10.4629 17.3353L10.3105 17.4759C9.89453 17.8626 9.22656 17.9622 8.73438 17.6985C8.39453 17.5228 5.89844 15.1204 5.75781 14.8392C5.67578 14.6751 5.64648 14.4876 5.64648 14.1302V13.6497L5.38281 13.6556C5.23633 13.6556 5.08398 13.6732 5.04883 13.6907Z" fill="white"/>
<path d="M3.47852 14.1419C2.78711 14.47 2.16016 15.0325 1.7207 15.7005C1.39844 16.1985 1.24023 16.5618 1.09961 17.136C1 17.5696 0.988281 17.845 0.988281 20.7571V23.9095L1.13477 24.0501L1.27539 24.1966H2.6582H4.03516V19.0696C4.03516 14.9446 4.01758 13.9427 3.95898 13.9427C3.91797 13.9427 3.70117 14.0306 3.47852 14.1419Z" fill="white"/>
</svg>
