<svg width="51" height="51" viewBox="0 0 51 51" fill="none" xmlns="http://www.w3.org/2000/svg">
<g clip-path="url(#clip0_257_387)">
<path d="M26.9216 2.80298C25.6326 2.98853 24.4607 3.8772 23.8455 5.10767C23.5232 5.76196 23.4744 5.94751 23.4451 6.73853C23.3865 8.04712 23.7771 9.10181 24.6462 9.97095C25.9744 11.2893 28.1326 11.5823 29.7341 10.6448C30.281 10.3225 31.072 9.4729 31.365 8.88696C32.1658 7.2854 31.8923 5.35181 30.6912 4.06275C29.7341 3.03735 28.3865 2.58814 26.9216 2.80298Z" fill="#120F6C"/>
<path d="M19.0701 8.99439C17.8298 9.25806 16.5701 10.1467 14.783 11.9827C13.5916 13.2034 12.8396 14.1604 11.8533 15.6741C8.90406 20.2249 6.91187 26.6409 7.53687 29.5608C7.76148 30.5764 8.58179 35.0491 8.58179 35.2346C8.58179 35.3225 7.08765 36.8069 5.26148 38.5452C1.57984 42.051 1.45289 42.2073 1.43336 43.2913C1.41382 44.3948 1.50171 44.5315 3.53296 46.8557C4.56812 48.0374 4.89039 48.3499 5.33961 48.5647C6.10132 48.9358 6.90211 48.926 7.66382 48.5354C8.65015 48.0374 9.13843 47.1487 9.04078 46.0452C8.98218 45.342 8.8064 44.9807 8.14234 44.1799L7.60523 43.5354L10.5642 40.7327C12.1853 39.1995 13.6209 37.7639 13.738 37.5491C14.0994 36.9534 14.1189 36.2405 13.8064 34.5803C13.6599 33.7698 13.572 33.1155 13.6209 33.0667C13.6697 33.0178 13.8162 32.969 13.9431 32.9495C14.1482 32.9202 14.2068 32.9983 14.4607 33.5842L14.7439 34.2385L15.0271 39.3948C15.3396 44.9221 15.3884 45.2444 15.906 45.8889C16.5017 46.592 16.8337 46.7092 19.1873 47.0315C21.9119 47.4026 22.2732 47.4026 22.947 47.051C23.533 46.7483 24.0505 46.1428 24.2068 45.5862C24.363 45.01 24.324 44.1018 24.1189 43.6526C23.8845 43.135 23.3084 42.5588 22.781 42.3342C22.5564 42.2268 21.9216 42.0803 21.3748 42.0022C20.8279 41.9338 20.3689 41.8557 20.3591 41.8362C20.3396 41.8167 20.2322 39.9612 20.115 37.7053C19.9978 35.4495 19.8611 33.3499 19.8123 33.0471C19.7537 32.6956 19.3923 31.7385 18.8552 30.5081C18.3767 29.4143 17.9275 28.2913 17.8591 27.9983C17.6638 27.1585 17.781 26.1526 18.2302 24.9124C18.865 23.135 19.5193 21.8264 19.5193 22.3245C19.5193 22.471 20.115 23.1057 20.3982 23.2522C20.5447 23.3303 22.0681 23.9651 23.7771 24.678C27.1658 26.0745 27.5369 26.1819 28.3767 25.8987C28.8552 25.7424 28.865 25.7424 31.2283 26.2307C32.5369 26.5042 33.6404 26.7385 33.6795 26.7678C33.7283 26.7971 34.4314 28.1155 35.2517 29.7073C36.072 31.2991 36.824 32.7053 36.9314 32.8323C37.2927 33.301 38.2693 32.9788 38.2693 32.3831C38.2693 32.2659 37.7712 31.221 37.156 30.0588C36.5505 28.8967 35.9548 27.7639 35.8474 27.5393L35.6423 27.1389L38.6111 27.7346C41.8435 28.3792 42.0095 28.3792 42.2537 27.8616C42.3318 27.7053 42.3611 27.4807 42.3318 27.3538C42.1951 26.8264 42.0388 26.7776 38.2791 26.0354L34.6951 25.3323L33.6502 23.3596C32.781 21.7092 32.6052 21.3088 32.6052 20.9475C32.6052 20.3909 32.156 19.5901 31.6775 19.2971C31.4822 19.1799 30.1736 18.5842 28.7771 17.9788L26.238 16.8752L25.613 15.4788C25.1638 14.4729 24.988 13.9651 24.988 13.6721C24.988 11.4456 23.3377 9.46314 21.1013 8.98463C20.3103 8.81861 19.8513 8.81861 19.0701 8.99439ZM32.2537 24.0627L32.6834 24.9221L31.3064 24.6487C30.5447 24.5022 29.9197 24.3752 29.9197 24.3752C29.9099 24.3752 29.9295 24.2288 29.949 24.0432C29.988 23.721 29.9978 23.7112 30.5154 23.6624C30.8084 23.6331 31.1892 23.5159 31.365 23.4085C31.5408 23.301 31.7068 23.2034 31.7459 23.2034C31.7849 23.2034 32.0193 23.594 32.2537 24.0627Z" fill="#120F6C"/>
<path d="M45.4959 29.2971C44.1091 29.6096 42.6052 30.3127 41.3748 31.2405C40.4861 31.9045 39.0701 33.3596 38.3376 34.3557C37.2146 35.8792 35.9841 38.135 35.2322 40.0295C35.0466 40.4983 34.8806 40.8792 34.8513 40.8792C34.822 40.8792 34.6755 40.6741 34.5095 40.4202C34.3533 40.1663 33.9334 39.6487 33.5818 39.2776C32.5173 38.1545 31.2576 37.4124 29.6853 37.0022C28.8845 36.7874 28.5232 36.7483 27.283 36.7483C25.4959 36.7385 25.0466 36.8459 24.822 37.3147C24.5974 37.7737 24.7634 38.0862 25.4861 38.6331C26.8728 39.6584 28.1521 41.2014 28.6502 42.4124C29.1677 43.7014 29.2166 45.2249 28.7869 46.4944L28.5525 47.178L26.2478 47.2268C24.1482 47.2756 23.9138 47.2952 23.7283 47.4612C23.4548 47.7151 23.4451 48.3206 23.7185 48.594C23.9138 48.7893 24.0408 48.7893 35.1931 48.7893H46.4822L46.7166 48.5452C47.0388 48.2327 47.0388 47.7834 46.7166 47.4709C46.5017 47.2463 46.4041 47.2268 45.5935 47.2268H44.7146V46.9534C44.7244 46.5334 45.0662 45.0979 45.3494 44.2971C46.072 42.3049 47.2634 40.469 49.1384 38.467C49.6072 37.969 50.0076 37.4612 50.0466 37.3245C50.115 37.0413 49.9587 36.7288 49.6755 36.5725C49.3533 36.3967 48.0349 36.3479 47.1462 36.4846C45.5056 36.719 44.1189 37.4026 42.8884 38.5647C42.1755 39.2385 42.1755 39.2385 42.2341 38.9163C42.3806 38.1643 42.8005 36.8655 43.1716 36.0159C43.865 34.4338 44.7634 33.1936 46.3357 31.6311C47.5369 30.4397 47.7419 30.1956 47.7419 29.9417C47.7419 29.7561 47.6541 29.551 47.4978 29.4045C47.2927 29.1897 47.1755 29.1604 46.6482 29.1702C46.3064 29.1799 45.7888 29.2385 45.4959 29.2971Z" fill="#120F6C"/>
</g>
<defs>
<clipPath id="clip0_257_387">
<rect width="50" height="50" fill="white" transform="translate(0.671631 0.742432)"/>
</clipPath>
</defs>
</svg>
