<svg class="black"  width="26" height="26" viewBox="0 0 26 26" fill="black" xmlns="http://www.w3.org/2000/svg">
<g clip-path="url(#clip0_211_5)">
<path d="M12.6704 0.989258C12.5532 1.04297 0.595215 11.165 0.478027 11.3164C0.424316 11.3799 0.390137 11.5068 0.390137 11.6436C0.390137 11.9219 0.51709 12.1025 0.775879 12.1807C1.03467 12.2588 1.1958 12.1758 1.81592 11.6436C2.104 11.3994 2.34814 11.1992 2.36279 11.1992C2.37744 11.1992 2.39209 13.9141 2.39209 17.2295V23.2598H1.57178C0.878418 23.2598 0.736816 23.2744 0.634277 23.3428C0.438965 23.4795 0.39502 23.5625 0.390137 23.8066C0.390137 23.9971 0.414551 24.0703 0.531738 24.1973L0.67334 24.3584H12.8901H25.1069L25.2485 24.1973C25.3657 24.0703 25.3901 23.9971 25.3901 23.8066C25.3853 23.5625 25.3413 23.4795 25.146 23.3428C25.0435 23.2744 24.9019 23.2598 24.2085 23.2598H23.3882V17.2295C23.3882 13.9141 23.4028 11.1992 23.4175 11.1992C23.4321 11.1992 23.6763 11.3994 23.9644 11.6436C24.2524 11.8877 24.5503 12.1221 24.6284 12.1611C24.8188 12.2588 25.0776 12.2051 25.2534 12.0293C25.4341 11.8438 25.4487 11.4873 25.2778 11.292C25.2192 11.2188 22.4995 8.9043 19.2378 6.14551C15.9761 3.38184 13.2661 1.0918 13.2222 1.05762C13.1245 0.969727 12.8022 0.930664 12.6704 0.989258ZM17.5972 6.24316L22.2651 10.1982V16.7266V23.2598L19.8726 23.2646C18.5591 23.2646 15.4146 23.2646 12.8901 23.2646C10.3657 23.2646 7.22607 23.2646 5.90771 23.2646L3.51514 23.2598V16.7266V10.1982L8.19287 6.2334C10.7612 4.05566 12.8804 2.27344 12.895 2.27832C12.9146 2.2832 15.0288 4.06543 17.5972 6.24316Z" fill="white"/>
<path d="M8.60791 13.1768C8.5249 13.2109 8.4126 13.3037 8.36377 13.377C8.28076 13.5088 8.27588 13.7627 8.26123 18.3867L8.25146 23.2598H8.81299H9.37451V18.7432V14.2266H12.8901H16.4058V15.6914V17.1562H15.6782C15.2778 17.1562 14.8872 17.1709 14.7993 17.1855C14.3452 17.2783 14.2134 17.8887 14.5894 18.1816C14.6968 18.2695 14.7896 18.2793 15.5562 18.2793H16.4058V20.7695V23.2598H16.9673H17.5288L17.519 18.3867C17.5044 13.7627 17.4995 13.5088 17.4165 13.377C17.231 13.0938 17.3628 13.1035 12.8804 13.1035C9.4917 13.1084 8.73486 13.1182 8.60791 13.1768Z" fill="white"/>
</g>
<defs>
<clipPath id="clip0_211_5">
<rect width="25" height="25" fill="white" transform="translate(0.390137 0.164062)"/>
</clipPath>
</defs>
</svg>
