<svg width="361" height="384" viewBox="0 0 361 384" fill="none" xmlns="http://www.w3.org/2000/svg">
<path d="M213.815 181.695H159.804L149.487 196.98L139.42 181.695H86.3675C85.561 181.695 84.7623 181.536 84.0172 181.228C83.2721 180.919 82.595 180.467 82.0247 179.896C81.4544 179.326 81.002 178.649 80.6933 177.904C80.3847 177.159 80.2258 176.36 80.2258 175.553V70.3596C80.2249 69.5525 80.3831 68.7531 80.6913 68.0071C80.9996 67.2612 81.4518 66.5833 82.0222 66.0123C82.5926 65.4412 83.27 64.9882 84.0156 64.6791C84.7612 64.37 85.5604 64.2109 86.3675 64.2109H213.815C214.622 64.2109 215.421 64.37 216.167 64.6791C216.912 64.9882 217.59 65.4412 218.16 66.0123C218.73 66.5833 219.183 67.2612 219.491 68.0071C219.799 68.7531 219.957 69.5525 219.956 70.3596V175.581C219.949 177.205 219.299 178.76 218.148 179.906C216.997 181.052 215.439 181.695 213.815 181.695Z" fill="#FAFAFA"/>
<path d="M213.815 181.695H214.148C214.483 181.674 214.815 181.625 215.142 181.549C216.256 181.298 217.277 180.739 218.089 179.935C218.901 179.132 219.471 178.117 219.734 177.006C219.798 176.742 219.847 176.475 219.88 176.207C219.88 175.929 219.915 175.644 219.88 175.352C219.88 174.768 219.88 174.157 219.88 173.525C219.88 170.987 219.88 168.071 219.88 164.778C219.88 151.577 219.845 132.555 219.824 109.023C219.824 97.2468 219.824 84.359 219.824 70.5193C219.854 69.2233 219.464 67.9523 218.713 66.8957C217.962 65.8391 216.89 65.0534 215.656 64.6555C214.817 64.4005 213.939 64.3016 213.064 64.3637H179.438H130.603H86.569C86.2842 64.3637 86.0202 64.3637 85.7492 64.3637C85.4801 64.3955 85.2132 64.4443 84.9502 64.5096C83.8879 64.7652 82.9171 65.3102 82.1456 66.084C81.3742 66.8579 80.8324 67.8304 80.5802 68.8936C80.4027 69.8765 80.3444 70.8772 80.4065 71.8741V116.339C80.4065 131.728 80.4065 146.637 80.4065 160.929V174.129C80.3661 174.983 80.4033 175.839 80.5177 176.686C80.6787 177.504 81.0091 178.28 81.4877 178.963C81.9663 179.647 82.5825 180.222 83.2967 180.653C84.0065 181.083 84.8002 181.355 85.6242 181.452C86.437 181.535 87.3055 181.487 88.1392 181.501H103.014H139.42H139.496L139.538 181.563L149.591 196.848H149.382L159.714 181.563L159.748 181.515H159.804L199.655 181.695L159.839 181.744L159.929 181.695C156.733 186.457 153.299 191.563 149.626 197.015L149.521 197.174L149.417 197.015L139.343 181.73L139.454 181.792H103.049H88.16C87.3124 181.792 86.4857 181.827 85.6103 181.744C84.3031 181.594 83.0752 181.041 82.0975 180.16C81.1199 179.28 80.4414 178.116 80.1564 176.832C80.0322 175.965 79.9903 175.088 80.0313 174.213V161.012C80.0313 146.721 80.0313 131.832 80.0313 116.422V70.4151C80.015 68.9889 80.4831 67.5994 81.3589 66.4737C82.2347 65.348 83.4665 64.5527 84.853 64.2178C85.1321 64.1495 85.4152 64.0985 85.7006 64.065C85.9854 64.065 86.2772 64.065 86.5551 64.065H213.071C213.979 64.0061 214.89 64.112 215.76 64.3776C216.624 64.6696 217.415 65.1434 218.081 65.7672C218.743 66.3754 219.267 67.1195 219.616 67.9487C219.955 68.7749 220.123 69.6612 220.109 70.5541C220.109 84.3937 220.109 97.2816 220.109 109.058C220.109 132.589 220.068 151.64 220.054 164.812C220.054 168.106 220.054 171.021 220.054 173.559C220.054 174.192 220.054 174.803 220.054 175.387C220.054 175.679 220.054 175.97 220.019 176.248C219.989 176.522 219.94 176.794 219.873 177.061C219.601 178.184 219.018 179.208 218.191 180.015C217.364 180.822 216.327 181.38 215.197 181.626C214.87 181.694 214.538 181.734 214.204 181.744L213.815 181.695Z" fill="#263238"/>
<path d="M134.515 128.893C134.515 130.283 133.493 131.103 131.854 131.103H130.624V132.791H129.234V126.67H131.881C133.493 126.698 134.515 127.545 134.515 128.893ZM133.076 128.893C133.076 128.199 132.646 127.823 131.777 127.823H130.624V129.949H131.777C132.646 129.977 133.076 129.588 133.076 128.893Z" fill="#263238"/>
<path d="M139.538 130.137V132.819H138.259V132.235C138.101 132.462 137.884 132.642 137.633 132.757C137.381 132.872 137.103 132.917 136.828 132.888C135.73 132.888 135.07 132.277 135.07 131.464C135.07 130.651 135.661 130.074 137.092 130.074H138.176C138.176 129.491 137.829 129.15 137.092 129.15C136.605 129.146 136.13 129.3 135.737 129.588L135.244 128.636C135.849 128.25 136.555 128.051 137.273 128.066C138.711 128.046 139.538 128.713 139.538 130.137ZM138.148 131.332V130.852H137.21C136.571 130.852 136.37 131.089 136.37 131.401C136.37 131.714 136.661 131.971 137.141 131.971C137.359 131.992 137.579 131.941 137.766 131.825C137.953 131.71 138.097 131.537 138.176 131.332H138.148Z" fill="#263238"/>
<path d="M140.316 132.367L140.768 131.387C141.264 131.681 141.83 131.837 142.407 131.839C143.032 131.839 143.269 131.679 143.269 131.415C143.269 130.644 140.427 131.415 140.427 129.553C140.427 128.664 141.233 128.032 142.609 128.032C143.235 128.022 143.854 128.163 144.415 128.442L143.963 129.414C143.54 129.175 143.06 129.055 142.574 129.067C141.963 129.067 141.698 129.255 141.698 129.498C141.698 130.304 144.54 129.498 144.54 131.38C144.54 132.256 143.727 132.874 142.317 132.874C141.617 132.879 140.928 132.705 140.316 132.367Z" fill="#263238"/>
<path d="M144.957 132.367L145.408 131.387C145.903 131.68 146.466 131.836 147.041 131.839C147.673 131.839 147.91 131.679 147.91 131.415C147.91 130.644 145.068 131.415 145.068 129.553C145.068 128.664 145.874 128.032 147.243 128.032C147.871 128.021 148.493 128.162 149.056 128.442L148.597 129.414C148.185 129.18 147.717 129.06 147.243 129.067C146.631 129.067 146.374 129.254 146.374 129.498C146.374 130.304 149.209 129.498 149.209 131.38C149.209 132.256 148.396 132.874 146.992 132.874C146.281 132.886 145.579 132.711 144.957 132.367Z" fill="#263238"/>
<path d="M157.511 128.115L155.809 132.819H154.496L153.44 129.901L152.349 132.819H151.022L149.327 128.115H150.612L151.724 131.297L152.877 128.115H154.03L155.149 131.297L156.295 128.115H157.511Z" fill="#263238"/>
<path d="M157.671 130.47C157.637 129.953 157.76 129.438 158.023 128.992C158.286 128.546 158.677 128.189 159.145 127.967C159.614 127.746 160.138 127.67 160.65 127.75C161.161 127.83 161.637 128.062 162.016 128.416C162.394 128.77 162.657 129.23 162.771 129.735C162.885 130.24 162.845 130.768 162.655 131.25C162.465 131.732 162.135 132.146 161.707 132.438C161.279 132.73 160.773 132.887 160.255 132.888C159.924 132.911 159.592 132.865 159.279 132.754C158.966 132.643 158.679 132.469 158.437 132.242C158.194 132.015 158.001 131.741 157.87 131.436C157.738 131.131 157.67 130.802 157.671 130.47ZM161.457 130.47C161.44 130.236 161.354 130.011 161.211 129.824C161.067 129.638 160.873 129.497 160.65 129.419C160.428 129.342 160.188 129.331 159.96 129.388C159.731 129.445 159.524 129.567 159.364 129.74C159.205 129.913 159.099 130.128 159.06 130.36C159.021 130.593 159.05 130.831 159.145 131.047C159.24 131.262 159.395 131.445 159.592 131.574C159.79 131.702 160.02 131.77 160.255 131.77C160.421 131.769 160.585 131.735 160.736 131.668C160.887 131.601 161.023 131.503 161.135 131.381C161.247 131.259 161.332 131.115 161.385 130.958C161.438 130.801 161.458 130.635 161.443 130.47H161.457Z" fill="#263238"/>
<path d="M166.661 128.046V129.303H166.355C166.182 129.287 166.008 129.31 165.845 129.371C165.682 129.431 165.535 129.528 165.414 129.654C165.294 129.779 165.204 129.931 165.15 130.096C165.097 130.262 165.081 130.437 165.105 130.609V132.833H163.715V128.129H165.021V128.747C165.216 128.504 165.467 128.313 165.753 128.191C166.039 128.068 166.351 128.019 166.661 128.046Z" fill="#263238"/>
<path d="M172.219 126.337V132.819H170.92V132.277C170.738 132.483 170.512 132.646 170.258 132.751C170.004 132.857 169.729 132.904 169.454 132.888C168.809 132.888 168.191 132.632 167.735 132.176C167.279 131.72 167.022 131.101 167.022 130.456C167.022 129.812 167.279 129.193 167.735 128.737C168.191 128.281 168.809 128.025 169.454 128.025C169.713 128.015 169.971 128.06 170.211 128.158C170.451 128.257 170.666 128.405 170.844 128.595V126.316L172.219 126.337ZM170.885 130.505C170.868 130.27 170.782 130.046 170.639 129.859C170.495 129.672 170.301 129.532 170.078 129.454C169.856 129.376 169.616 129.365 169.388 129.422C169.159 129.479 168.952 129.602 168.792 129.774C168.633 129.947 168.527 130.163 168.488 130.395C168.449 130.627 168.478 130.866 168.573 131.081C168.667 131.297 168.823 131.48 169.02 131.609C169.218 131.737 169.448 131.805 169.683 131.804C169.853 131.806 170.022 131.772 170.177 131.704C170.333 131.636 170.472 131.536 170.586 131.409C170.7 131.283 170.786 131.134 170.837 130.972C170.889 130.81 170.905 130.639 170.885 130.47V130.505Z" fill="#263238"/>
<path d="M115.832 143.372H106.981C104.878 143.372 103.174 145.077 103.174 147.179V162.346C103.174 164.449 104.878 166.153 106.981 166.153H115.832C117.935 166.153 119.64 164.449 119.64 162.346V147.179C119.64 145.077 117.935 143.372 115.832 143.372Z" fill="#EBEBEB"/>
<path d="M154.69 143.372H146.284C144.181 143.372 142.477 145.077 142.477 147.179V162.346C142.477 164.449 144.181 166.153 146.284 166.153H154.69C156.793 166.153 158.498 164.449 158.498 162.346V147.179C158.498 145.077 156.793 143.372 154.69 143.372Z" fill="#EBEBEB"/>
<path d="M135.432 143.372H127.025C124.922 143.372 123.218 145.077 123.218 147.179V162.346C123.218 164.449 124.922 166.153 127.025 166.153H135.432C137.534 166.153 139.239 164.449 139.239 162.346V147.179C139.239 145.077 137.534 143.372 135.432 143.372Z" fill="#EBEBEB"/>
<path d="M174.311 143.372H165.452C163.35 143.372 161.645 145.077 161.645 147.179V162.346C161.645 164.449 163.35 166.153 165.452 166.153H174.311C176.413 166.153 178.118 164.449 178.118 162.346V147.179C178.118 145.077 176.413 143.372 174.311 143.372Z" fill="#EBEBEB"/>
<path d="M193.201 143.372H184.343C182.24 143.372 180.536 145.077 180.536 147.179V162.346C180.536 164.449 182.24 166.153 184.343 166.153H193.201C195.304 166.153 197.008 164.449 197.008 162.346V147.179C197.008 145.077 195.304 143.372 193.201 143.372Z" fill="#EBEBEB"/>
<path d="M113.505 154.162L115.263 155.114L114.471 156.441L112.699 155.385V157.344H111.184V155.371L109.406 156.441L108.628 155.114L110.392 154.162L108.628 153.189L109.406 151.862L111.184 152.932V150.959H112.699V152.932L114.471 151.862L115.263 153.189L113.505 154.162Z" fill="#120F6C"/>
<path d="M132.722 154.057L134.487 155.009L133.695 156.336L131.916 155.294L131.951 157.253H130.429V155.28L128.651 156.35L127.88 155.023L129.637 154.071L127.88 153.099L128.651 151.772L130.429 152.842V150.869H131.951L131.916 152.842L133.695 151.772L134.487 153.099L132.722 154.057Z" fill="#120F6C"/>
<path d="M152.412 154.057L154.176 155.009L153.384 156.336L151.571 155.294L151.606 157.253H150.084V155.28L148.306 156.35L147.548 155.009L149.306 154.057L147.548 153.085L148.32 151.758L150.098 152.828V150.855H151.62L151.585 152.828L153.363 151.758L154.156 153.085L152.412 154.057Z" fill="#120F6C"/>
<path d="M171.42 154.057L173.178 155.009L172.386 156.336L170.607 155.294L170.642 157.253H169.121V155.28L167.342 156.35L166.564 155.023L168.329 154.071L166.564 153.099L167.342 151.772L169.121 152.842V150.869H170.642L170.607 152.842L172.386 151.772L173.178 153.099L171.42 154.057Z" fill="#120F6C"/>
<path d="M115.666 166.299H107.148C106.094 166.297 105.085 165.878 104.34 165.133C103.595 164.388 103.176 163.379 103.174 162.325V147.207C103.176 146.154 103.595 145.144 104.34 144.399C105.085 143.654 106.094 143.235 107.148 143.233H115.666C116.72 143.233 117.73 143.652 118.476 144.397C119.221 145.142 119.64 146.153 119.64 147.207V162.325C119.638 163.379 119.219 164.388 118.474 165.133C117.729 165.878 116.719 166.297 115.666 166.299ZM107.148 143.483C106.169 143.485 105.23 143.875 104.539 144.568C103.847 145.261 103.459 146.2 103.459 147.179V162.297C103.459 163.276 103.847 164.214 104.539 164.906C105.231 165.598 106.169 165.987 107.148 165.987H115.666C116.645 165.987 117.584 165.598 118.277 164.906C118.97 164.215 119.36 163.276 119.362 162.297V147.207C119.36 146.227 118.97 145.288 118.277 144.596C117.584 143.903 116.645 143.513 115.666 143.511L107.148 143.483Z" fill="#263238"/>
<path d="M135.452 166.299H126.928C125.874 166.297 124.864 165.878 124.12 165.133C123.375 164.388 122.955 163.379 122.954 162.325V147.207C122.955 146.154 123.375 145.144 124.12 144.399C124.864 143.654 125.874 143.235 126.928 143.233H135.452C136.505 143.235 137.514 143.654 138.258 144.4C139.002 145.145 139.419 146.154 139.419 147.207V162.325C139.419 163.378 139.002 164.388 138.258 165.133C137.514 165.878 136.505 166.297 135.452 166.299ZM126.928 143.483C125.949 143.485 125.01 143.875 124.319 144.568C123.627 145.261 123.238 146.2 123.238 147.179V162.297C123.238 163.276 123.627 164.214 124.319 164.906C125.011 165.598 125.949 165.987 126.928 165.987H135.452C136.431 165.987 137.369 165.598 138.061 164.906C138.753 164.214 139.142 163.276 139.142 162.297V147.207C139.142 146.228 138.753 145.289 138.061 144.596C137.37 143.903 136.431 143.513 135.452 143.511L126.928 143.483Z" fill="#263238"/>
<path d="M154.691 166.299H146.159C145.105 166.297 144.096 165.878 143.351 165.133C142.606 164.388 142.187 163.379 142.185 162.325V147.207C142.187 146.154 142.606 145.144 143.351 144.399C144.096 143.654 145.105 143.235 146.159 143.233H154.684C155.736 143.235 156.745 143.654 157.489 144.4C158.233 145.145 158.651 146.154 158.651 147.207V162.325C158.651 163.377 158.234 164.386 157.492 165.13C156.749 165.875 155.742 166.296 154.691 166.299ZM146.159 143.483C145.18 143.485 144.241 143.875 143.55 144.568C142.858 145.261 142.47 146.2 142.47 147.179V162.297C142.47 163.276 142.858 164.214 143.55 164.906C144.242 165.598 145.18 165.987 146.159 165.987H154.684C155.168 165.987 155.648 165.891 156.095 165.706C156.543 165.52 156.95 165.249 157.292 164.906C157.635 164.563 157.907 164.157 158.092 163.709C158.277 163.262 158.373 162.782 158.373 162.297V147.207C158.373 146.228 157.984 145.289 157.293 144.596C156.601 143.903 155.663 143.513 154.684 143.511L146.159 143.483Z" fill="#263238"/>
<path d="M174.144 166.299H165.612C164.559 166.297 163.549 165.878 162.804 165.133C162.059 164.388 161.64 163.379 161.638 162.325V147.207C161.638 146.153 162.057 145.142 162.802 144.397C163.547 143.652 164.558 143.233 165.612 143.233H174.13C175.183 143.235 176.193 143.654 176.938 144.399C177.683 145.144 178.102 146.154 178.104 147.207V162.325C178.102 163.376 177.685 164.384 176.943 165.128C176.201 165.873 175.195 166.294 174.144 166.299ZM165.612 143.483C164.633 143.485 163.693 143.875 163.001 144.568C162.308 145.261 161.918 146.2 161.916 147.179V162.297C161.918 163.276 162.308 164.215 163.001 164.906C163.694 165.598 164.633 165.987 165.612 165.987H174.13C175.108 165.987 176.047 165.598 176.739 164.906C177.431 164.214 177.819 163.276 177.819 162.297V147.207C177.819 146.228 177.431 145.289 176.739 144.596C176.047 143.903 175.109 143.513 174.13 143.511L165.612 143.483Z" fill="#263238"/>
<path d="M193.034 166.299H184.517C183.463 166.297 182.453 165.878 181.708 165.133C180.964 164.388 180.544 163.379 180.542 162.325V147.207C180.542 146.153 180.961 145.142 181.706 144.397C182.452 143.652 183.463 143.233 184.517 143.233H193.034C194.088 143.235 195.097 143.654 195.842 144.399C196.587 145.144 197.007 146.154 197.008 147.207V162.325C197.007 163.379 196.587 164.388 195.842 165.133C195.097 165.878 194.088 166.297 193.034 166.299ZM184.517 143.483C183.537 143.485 182.598 143.875 181.905 144.568C181.212 145.261 180.822 146.2 180.82 147.179V162.297C180.822 163.276 181.212 164.215 181.905 164.906C182.598 165.598 183.537 165.987 184.517 165.987H193.034C194.013 165.987 194.951 165.598 195.643 164.906C196.335 164.214 196.723 163.276 196.723 162.297V147.207C196.723 146.228 196.335 145.289 195.643 144.596C194.952 143.903 194.013 143.513 193.034 143.511L184.517 143.483Z" fill="#263238"/>
<path d="M193.34 160.248C191.826 160.431 190.299 160.491 188.776 160.429C187.252 160.491 185.725 160.431 184.211 160.248C185.725 160.069 187.252 160.009 188.776 160.067C190.299 160.009 191.826 160.069 193.34 160.248Z" fill="#120F6C"/>
<path d="M150.842 119.75C161.006 119.75 169.246 111.51 169.246 101.346C169.246 91.1815 161.006 82.9417 150.842 82.9417C140.677 82.9417 132.437 91.1815 132.437 101.346C132.437 111.51 140.677 119.75 150.842 119.75Z" fill="#120F6C"/>
<path d="M147.604 97.9972H147.298V96.2811C147.277 95.7966 147.354 95.3128 147.525 94.8588C147.695 94.4048 147.956 93.9902 148.291 93.6398C148.627 93.2894 149.03 93.0105 149.476 92.82C149.922 92.6295 150.402 92.5313 150.887 92.5312C151.372 92.5313 151.852 92.6295 152.298 92.82C152.744 93.0105 153.146 93.2894 153.482 93.6398C153.817 93.9902 154.078 94.4048 154.249 94.8588C154.419 95.3128 154.496 95.7966 154.475 96.2811V97.6706H154.169V96.2811C154.19 95.8373 154.12 95.394 153.964 94.9779C153.808 94.5618 153.57 94.1817 153.263 93.8604C152.956 93.5391 152.587 93.2833 152.179 93.1086C151.771 92.9339 151.331 92.8438 150.887 92.8438C150.442 92.8438 150.003 92.9339 149.594 93.1086C149.186 93.2833 148.817 93.5391 148.51 93.8604C148.203 94.1817 147.965 94.5618 147.809 94.9779C147.653 95.394 147.583 95.8373 147.604 96.2811V97.9972Z" fill="white"/>
<path d="M155.406 109.996H146.284C146.085 109.997 145.887 109.958 145.703 109.882C145.519 109.807 145.352 109.695 145.211 109.554C145.07 109.413 144.959 109.246 144.883 109.062C144.807 108.878 144.768 108.68 144.769 108.481V99.3589C144.769 98.9573 144.929 98.572 145.213 98.288C145.497 98.0039 145.882 97.8444 146.284 97.8444H155.406C155.807 97.8462 156.191 98.0063 156.475 98.29C156.759 98.5736 156.919 98.9578 156.921 99.3589V108.481C156.921 108.883 156.761 109.268 156.477 109.552C156.193 109.836 155.808 109.996 155.406 109.996ZM146.284 98.1501C145.963 98.1501 145.656 98.2774 145.429 98.5041C145.202 98.7308 145.075 99.0383 145.075 99.3589V108.481C145.075 108.64 145.106 108.797 145.167 108.944C145.228 109.09 145.317 109.224 145.429 109.336C145.541 109.448 145.675 109.537 145.821 109.598C145.968 109.659 146.125 109.69 146.284 109.69H155.406C155.565 109.69 155.722 109.659 155.869 109.598C156.015 109.537 156.149 109.448 156.261 109.336C156.373 109.224 156.462 109.09 156.523 108.944C156.584 108.797 156.615 108.64 156.615 108.481V99.3589C156.615 99.0383 156.488 98.7308 156.261 98.5041C156.034 98.2774 155.727 98.1501 155.406 98.1501H146.284Z" fill="white"/>
<path d="M150.89 104.222C150.605 104.224 150.326 104.14 150.089 103.983C149.851 103.825 149.666 103.601 149.556 103.338C149.446 103.075 149.417 102.785 149.472 102.505C149.528 102.226 149.665 101.969 149.866 101.767C150.068 101.566 150.325 101.429 150.604 101.373C150.884 101.318 151.174 101.347 151.437 101.457C151.7 101.566 151.924 101.752 152.082 101.989C152.239 102.227 152.323 102.506 152.321 102.791C152.32 103.17 152.168 103.533 151.9 103.801C151.632 104.069 151.269 104.22 150.89 104.222ZM150.89 101.666C150.668 101.666 150.45 101.732 150.265 101.855C150.08 101.979 149.935 102.155 149.85 102.36C149.765 102.566 149.743 102.792 149.786 103.011C149.83 103.229 149.937 103.429 150.094 103.587C150.252 103.744 150.452 103.851 150.671 103.895C150.889 103.938 151.115 103.916 151.321 103.831C151.527 103.746 151.702 103.601 151.826 103.416C151.95 103.231 152.016 103.014 152.016 102.791C152.017 102.643 151.988 102.496 151.932 102.359C151.876 102.222 151.793 102.098 151.688 101.993C151.583 101.888 151.459 101.806 151.322 101.749C151.185 101.693 151.038 101.665 150.89 101.666Z" fill="white"/>
<path d="M150.994 104H150.689V106.584H150.994V104Z" fill="white"/>
<path d="M213.155 75.8673C213.829 72.8019 211.891 69.7701 208.826 69.0956C205.76 68.421 202.728 70.3592 202.054 73.4246C201.379 76.49 203.318 79.5218 206.383 80.1963C209.448 80.8708 212.48 78.9327 213.155 75.8673Z" fill="#E0E0E0"/>
<path d="M205.776 76.668C205.753 76.6677 205.73 76.6626 205.708 76.6531C205.687 76.6435 205.667 76.6297 205.651 76.6124C205.635 76.5968 205.621 76.578 205.612 76.5571C205.603 76.5362 205.599 76.5136 205.599 76.4909C205.599 76.4681 205.603 76.4455 205.612 76.4246C205.621 76.4037 205.635 76.3849 205.651 76.3693L209.334 72.687C209.349 72.6704 209.368 72.6572 209.389 72.6481C209.41 72.6391 209.432 72.6344 209.455 72.6344C209.478 72.6344 209.5 72.6391 209.521 72.6481C209.542 72.6572 209.561 72.6704 209.577 72.687C209.593 72.7032 209.607 72.7227 209.616 72.7441C209.625 72.7656 209.63 72.7887 209.63 72.8121C209.63 72.8354 209.625 72.8585 209.616 72.88C209.607 72.9015 209.593 72.9209 209.577 72.9371L205.894 76.6124C205.864 76.6456 205.821 76.6656 205.776 76.668Z" fill="white"/>
<path d="M209.452 76.668C209.407 76.6656 209.364 76.6456 209.334 76.6124L205.651 72.9371C205.634 72.9209 205.621 72.9015 205.612 72.88C205.603 72.8585 205.598 72.8354 205.598 72.8121C205.598 72.7887 205.603 72.7656 205.612 72.7441C205.621 72.7227 205.634 72.7032 205.651 72.687C205.667 72.6704 205.686 72.6572 205.707 72.6481C205.728 72.6391 205.75 72.6344 205.773 72.6344C205.796 72.6344 205.818 72.6391 205.839 72.6481C205.86 72.6572 205.879 72.6704 205.894 72.687L209.577 76.3693C209.593 76.3849 209.607 76.4037 209.616 76.4246C209.625 76.4455 209.629 76.4681 209.629 76.4909C209.629 76.5136 209.625 76.5362 209.616 76.5571C209.607 76.578 209.593 76.5968 209.577 76.6124C209.561 76.6297 209.541 76.6435 209.52 76.6531C209.498 76.6626 209.475 76.6677 209.452 76.668Z" fill="white"/>
<path d="M61.4395 289.071C61.4395 289.071 43.0839 267.943 36.1571 246.815C29.2303 225.687 32.5165 228.112 32.5165 228.112C32.5165 228.112 41.868 248.635 48.9685 258.55C56.069 268.464 68.7136 283.005 68.7136 283.005L61.4395 289.071Z" fill="#455A64"/>
<path d="M65.0939 231.398C64.9701 231.181 64.7739 231.013 64.5395 230.925C64.305 230.838 64.0471 230.835 63.8108 230.917C63.5744 231 63.3745 231.163 63.2459 231.378C63.1173 231.593 63.0681 231.846 63.1069 232.093C64.2255 239.52 66.6433 256.931 66.5807 268.221C66.4626 282.894 66.5807 288.563 66.5807 288.563H74.2231C74.2231 288.563 72.8336 258.23 71.1384 248.962C69.9017 242.494 67.3311 235.296 65.0939 231.398Z" fill="#455A64"/>
<path d="M69.2625 286.09C72.4647 278.836 74.5832 271.151 75.55 263.281C76.1753 257.883 75.0568 250.581 73.3893 240.84C72.7418 237.278 72.4186 233.664 72.4236 230.044C72.4274 229.641 72.5648 229.25 72.8143 228.934C73.0638 228.617 73.4113 228.392 73.8023 228.295C74.1933 228.197 74.6057 228.232 74.9748 228.394C75.3439 228.555 75.6489 228.835 75.8418 229.189C76.7659 230.836 79.4338 236.456 80.1146 239.979C81.9627 249.594 84.0539 254.402 82.456 263.531C80.858 272.66 74.9317 286.708 74.9317 286.708L69.2625 286.09Z" fill="#455A64"/>
<path d="M76.1406 286.708C76.1406 286.708 96.2887 243.397 97.6782 236.97C99.0678 230.544 103.827 215.738 104.383 216.579C104.939 217.42 105.772 225.236 102.153 234.177C98.5328 243.119 83.0118 288.028 83.0118 288.028H76.1406" fill="#455A64"/>
<path d="M67.0531 284.77C66.8535 284.659 66.6651 284.528 66.4903 284.381C66.129 284.11 65.5871 283.728 64.9271 283.193C63.5862 282.137 61.7034 280.532 59.508 278.413C53.8457 272.825 48.9405 266.518 44.918 259.654C40.8991 252.787 37.5556 245.546 34.9342 238.033C33.9199 235.157 33.1834 232.802 32.704 231.169C32.4539 230.349 32.2872 229.71 32.1691 229.279C32.0955 229.053 32.0421 228.82 32.0093 228.585C32.1085 228.79 32.1899 229.004 32.2524 229.224C32.4053 229.689 32.6068 230.315 32.8638 231.093C33.3919 232.711 34.1769 235.046 35.2191 237.908C37.9188 245.365 41.2882 252.562 45.2862 259.411C49.3079 266.242 54.1672 272.544 59.7511 278.17C61.9118 280.317 63.753 281.949 65.0591 283.033C65.7052 283.589 66.2333 283.992 66.5667 284.284C66.7418 284.432 66.9044 284.595 67.0531 284.77Z" fill="#263238"/>
<path d="M69.2625 263.99C69.1577 263.573 69.0972 263.147 69.0819 262.718C68.9846 261.822 68.8596 260.634 68.7067 259.244C68.3871 256.313 67.8869 252.297 67.1783 247.829C66.4696 243.362 65.6706 239.395 65.0523 236.519C64.7535 235.129 64.5104 233.983 64.3158 233.101C64.2035 232.687 64.129 232.263 64.0935 231.836C64.2581 232.232 64.3883 232.641 64.4826 233.059C64.7049 233.858 65.0036 235.011 65.351 236.449C66.0458 239.319 66.8865 243.314 67.6021 247.767C68.3177 252.22 68.7693 256.271 68.9916 259.217C69.1097 260.683 69.1931 261.878 69.2278 262.69C69.2754 263.122 69.287 263.556 69.2625 263.99Z" fill="#263238"/>
<path d="M73.98 228.849C74.0788 229.022 74.158 229.206 74.2162 229.398L74.8206 231.009C75.0916 231.704 75.3973 232.566 75.6891 233.587C75.9809 234.608 76.3839 235.748 76.6687 237.061L77.1689 239.096C77.3357 239.791 77.4538 240.555 77.6066 241.327C77.9401 242.862 78.1416 244.529 78.3848 246.28C78.819 250.09 78.9815 253.925 78.8711 257.758C78.7077 261.591 78.2712 265.408 77.565 269.18C77.1967 270.903 76.8702 272.556 76.4394 274.043C76.2241 274.8 76.0504 275.544 75.835 276.238L75.1889 278.267C74.8068 279.545 74.3343 280.664 73.9661 281.657C73.5979 282.651 73.2713 283.492 72.917 284.166L72.2222 285.729C72.1491 285.914 72.0559 286.091 71.9443 286.257C71.9913 286.064 72.0565 285.875 72.1389 285.694C72.3056 285.291 72.521 284.763 72.785 284.103C73.049 283.443 73.4172 282.575 73.7577 281.567C74.0981 280.56 74.5566 279.483 74.9249 278.17C75.1194 277.538 75.3209 276.871 75.5363 276.176C75.7516 275.481 75.9114 274.745 76.1129 273.987C76.5298 272.48 76.8077 270.84 77.1967 269.124C77.874 265.37 78.2964 261.575 78.4612 257.765C78.5707 253.954 78.4221 250.14 78.0166 246.35C77.7803 244.606 77.5928 242.945 77.2801 241.41C77.1342 240.646 77.023 239.895 76.8633 239.187C76.7035 238.478 76.5437 237.797 76.3908 237.151C76.1199 235.852 75.7516 234.705 75.4807 233.677C75.2097 232.649 74.9249 231.787 74.6817 231.079L74.1606 229.446C74.0808 229.253 74.0203 229.053 73.98 228.849Z" fill="#263238"/>
<path d="M104.167 217.448C104.175 217.512 104.175 217.578 104.167 217.642C104.167 217.795 104.112 217.976 104.077 218.205C103.987 218.698 103.875 219.428 103.681 220.359C103.292 222.221 102.639 224.902 101.597 228.154C100.554 231.405 99.2205 235.227 97.5879 239.416C95.9552 243.605 94.0724 248.177 92.2799 253.04C90.4874 257.904 89.0631 262.635 87.75 266.936C86.4369 271.236 85.2072 275.099 84.0122 278.288C83.0976 280.816 82.0423 283.291 80.851 285.701C80.4411 286.556 80.066 287.195 79.8297 287.639L79.5449 288.133C79.4824 288.244 79.4476 288.299 79.4407 288.293C79.4536 288.229 79.4771 288.168 79.5101 288.112L79.7533 287.598C79.9687 287.146 80.3161 286.493 80.7051 285.625C81.5111 283.909 82.6088 281.387 83.7482 278.184C84.8876 274.981 86.1104 271.132 87.3888 266.824C88.6671 262.517 90.0775 257.792 91.8978 252.929C93.718 248.066 95.5939 243.487 97.2405 239.305C98.8871 235.122 100.29 231.336 101.333 228.098C102.375 224.861 103.063 222.207 103.5 220.359C103.723 219.435 103.862 218.712 103.98 218.219C104.028 217.997 104.077 217.816 104.112 217.67C104.116 217.593 104.135 217.518 104.167 217.448Z" fill="#263238"/>
<path d="M42.0208 207.881C41.7444 207.611 41.386 207.442 41.0024 207.4C40.6189 207.358 40.2322 207.445 39.904 207.648C39.5758 207.851 39.3248 208.158 39.1909 208.52C39.0571 208.882 39.048 209.278 39.1653 209.645C39.8534 211.875 40.6985 214.052 41.6942 216.162C44.4733 222.047 52.602 243.175 56.4162 254.777C60.2305 266.38 65.5663 288.028 65.5663 288.028L73.7019 286.708C73.7019 286.708 66.261 251.171 59.0147 238.325C53.1717 228.029 47.3218 213.147 42.0208 207.881Z" fill="#455A64"/>
<path d="M58.6187 262.037C58.7974 262.344 58.9396 262.67 59.0425 263.01C59.2787 263.649 59.6122 264.58 59.9804 265.74C60.7307 268.061 61.6478 271.299 62.5649 274.904C63.482 278.51 64.2601 281.789 64.7951 284.166C65.0383 285.284 65.2397 286.25 65.4065 286.979C65.4966 287.323 65.5524 287.674 65.5732 288.028C65.4281 287.705 65.3163 287.367 65.2397 287.021C65.0452 286.278 64.7951 285.347 64.4963 284.242C63.8711 281.796 63.0582 278.58 62.148 275.022C61.2379 271.465 60.3625 268.172 59.6886 265.838C59.369 264.733 59.098 263.809 58.8827 263.059C58.7609 262.728 58.6725 262.386 58.6187 262.037Z" fill="#263238"/>
<path d="M69.6794 287.368C69.6564 287.299 69.6424 287.226 69.6377 287.153C69.6377 286.979 69.5821 286.771 69.5405 286.514C69.4571 285.951 69.3807 285.124 69.207 284.047C68.9082 281.908 68.3802 278.83 67.5048 275.071C66.463 270.677 65.1922 266.34 63.6975 262.079C62.0231 257.257 59.9319 252.047 57.5628 246.655C52.7759 235.893 47.9959 226.34 44.8486 219.282C43.2646 215.752 42.0696 212.883 41.222 210.875C40.812 209.875 40.5272 209.09 40.3118 208.562C40.2146 208.318 40.1451 208.117 40.0825 207.957C40.0515 207.889 40.0304 207.816 40.02 207.742C40.0623 207.802 40.0973 207.868 40.1242 207.936L40.3882 208.527C40.6314 209.083 40.9579 209.847 41.3818 210.813C42.2363 212.793 43.5077 215.676 45.1265 219.15C48.3363 226.16 53.1649 235.699 57.9588 246.482C60.3279 251.88 62.4191 257.105 64.0727 261.947C65.556 266.229 66.8015 270.589 67.8036 275.009C68.4792 277.991 69.0033 281.005 69.3737 284.04C69.5196 285.11 69.5682 285.951 69.6308 286.514L69.6794 287.16C69.6874 287.229 69.6874 287.299 69.6794 287.368Z" fill="#263238"/>
<path d="M73.7298 286.708C73.6005 286.253 73.5076 285.789 73.4519 285.319C73.2921 284.367 73.0768 283.103 72.8197 281.581C72.2639 278.427 71.4302 274.085 70.1727 269.36C68.9151 264.636 67.5812 260.446 66.5252 257.424C66.011 255.965 65.5803 254.763 65.2538 253.853C65.0746 253.423 64.9305 252.979 64.823 252.526C65.0548 252.93 65.2524 253.353 65.4135 253.791C65.7609 254.617 66.2542 255.819 66.8031 257.32C68.2737 261.236 69.5354 265.227 70.5826 269.277C71.6344 273.324 72.4808 277.421 73.1185 281.553C73.3477 283.137 73.5214 284.423 73.6117 285.319C73.6859 285.778 73.7254 286.243 73.7298 286.708Z" fill="#263238"/>
<path d="M90.4319 285.541H58.6743V324.233H90.4319V285.541Z" fill="#120F6C"/>
<g opacity="0.3">
<path d="M90.4319 285.541H58.6743V324.233H90.4319V285.541Z" fill="black"/>
</g>
<path d="M80.2954 285.541H52.1228V324.233H80.2954V285.541Z" fill="#120F6C"/>
<path d="M276.017 199.46L259.322 197.042L225.924 201.982L216.552 205.296L218.212 225.792L250.324 231.704L271.987 225.285L280.178 213.23L276.017 199.46Z" fill="#FFBE9D"/>
<path d="M286.542 201.419L272.564 198.126C272.564 198.126 262.691 228.696 238.312 227.355C218.442 226.278 218.213 204.101 218.213 204.101L203.894 208.687C203.894 208.687 198.412 245.419 204.477 271.444C205.867 277.524 207.791 285.715 207.791 285.715L205.853 323.739L311.762 323.906L286.542 201.419Z" fill="#120F6C"/>
<g opacity="0.3">
<path d="M245.023 316.361C250.179 316.229 254.931 316.667 260.086 316.541C266.269 316.389 272.501 316.236 278.608 317.236C283.18 317.994 287.64 319.383 292.212 320.106C298.465 321.092 305.127 320.745 310.685 317.736L309.789 312.547L288.682 307.447L245.023 316.361Z" fill="black"/>
</g>
<path d="M191.937 217.246C196.8 210.993 204.831 208.388 204.831 208.388L210.25 255.555L199.989 324.24L166.376 324.08C166.376 324.08 184.912 226.313 191.937 217.246Z" fill="#120F6C"/>
<path d="M284.91 201.072C284.91 201.072 307.531 202.885 315.646 239.979C319.314 256.743 323.983 276.384 325.296 289.592C326.262 299.165 321.058 314.158 311.512 315.388L299.507 317C297.153 317.339 294.757 317.252 292.434 316.743C284.854 314.999 284.097 309.795 282.707 304.237L279.233 293.177C277.316 282.658 287.119 280.671 292.531 280.817L288.495 232.802L284.91 201.072Z" fill="#120F6C"/>
<path d="M202.031 234.615C201.978 234.782 201.944 234.955 201.927 235.129C201.872 235.505 201.795 236.005 201.698 236.623C201.656 236.95 201.601 237.318 201.545 237.707C201.49 238.096 201.462 238.534 201.413 238.999C201.316 239.923 201.205 240.979 201.156 242.153C200.995 244.9 200.977 247.652 201.1 250.4C201.266 253.761 201.6 257.112 202.101 260.44C202.622 263.99 203.275 267.339 203.942 270.368C204.609 273.397 205.255 276.113 205.825 278.392C206.395 280.671 206.874 282.498 207.214 283.763C207.381 284.367 207.513 284.853 207.617 285.215C207.655 285.387 207.711 285.555 207.784 285.715C207.769 285.541 207.737 285.368 207.687 285.201C207.603 284.826 207.492 284.339 207.353 283.728C207.041 282.415 206.603 280.581 206.061 278.33C205.519 276.079 204.894 273.327 204.262 270.298C203.629 267.269 202.969 263.927 202.455 260.391C201.941 256.855 201.58 253.443 201.427 250.379C201.274 247.315 201.267 244.502 201.427 242.167C201.462 240.993 201.552 239.944 201.628 239.013C201.661 238.55 201.696 238.119 201.733 237.721C201.774 237.332 201.816 236.97 201.851 236.637C201.92 236.019 201.976 235.518 202.011 235.136C202.035 234.964 202.042 234.789 202.031 234.615Z" fill="#263238"/>
<path d="M310.282 293.809C310.267 293.486 310.213 293.167 310.122 292.857C309.901 292.021 309.608 291.205 309.247 290.419C308.06 287.796 306.212 285.527 303.885 283.833C301.558 282.139 298.83 281.078 295.97 280.754C295.111 280.65 294.243 280.622 293.379 280.671C293.06 280.675 292.743 280.714 292.434 280.789C293.595 280.796 294.755 280.868 295.908 281.004C298.703 281.392 301.359 282.464 303.641 284.124C305.923 285.785 307.761 287.982 308.99 290.523C309.478 291.595 309.909 292.692 310.282 293.809Z" fill="#263238"/>
<path d="M305.058 275.342C304.878 275.297 304.693 275.281 304.509 275.293C304.01 275.284 303.511 275.308 303.015 275.363C301.375 275.53 299.767 275.932 298.242 276.558C296.718 277.191 295.292 278.035 294.004 279.066C293.615 279.376 293.247 279.711 292.899 280.066C292.656 280.324 292.531 280.469 292.545 280.49C292.559 280.511 293.156 280.004 294.164 279.268C296.784 277.344 299.834 276.089 303.05 275.613C304.28 275.432 305.058 275.405 305.058 275.342Z" fill="#263238"/>
<path d="M281.637 227.355C281.688 227.026 281.707 226.694 281.693 226.361C281.693 225.722 281.735 224.805 281.811 223.673C282.216 217.75 283.839 211.974 286.577 206.707C287.098 205.699 287.55 204.893 287.876 204.351C288.059 204.075 288.215 203.782 288.342 203.476C288.12 203.723 287.922 203.99 287.751 204.275C287.39 204.803 286.904 205.588 286.362 206.588C283.478 211.839 281.838 217.681 281.568 223.666C281.526 224.805 281.526 225.75 281.568 226.368C281.557 226.699 281.58 227.029 281.637 227.355Z" fill="#263238"/>
<path d="M238.312 261.002C238.327 261.136 238.36 261.267 238.409 261.391C238.493 261.641 238.597 262.024 238.784 262.482C239.291 263.81 239.921 265.087 240.667 266.296C243.133 270.329 246.712 273.564 250.973 275.61C255.234 277.656 259.996 278.427 264.685 277.829C266.1 277.654 267.495 277.349 268.854 276.919C269.333 276.773 269.694 276.614 269.938 276.523C270.065 276.482 270.188 276.428 270.306 276.363C270.306 276.329 269.771 276.509 268.812 276.78C267.448 277.163 266.053 277.428 264.643 277.572C260.008 278.118 255.313 277.335 251.105 275.315C246.897 273.295 243.35 270.122 240.876 266.164C240.119 264.975 239.459 263.728 238.903 262.433C238.562 261.516 238.34 260.988 238.312 261.002Z" fill="#263238"/>
<path d="M285.987 313.144C286.021 313.109 286.376 313.617 287.223 314.311C288.463 315.247 289.882 315.919 291.392 316.284C293.616 316.841 295.913 317.045 298.2 316.889C300.785 316.701 303.64 316.396 306.6 315.958C309.388 315.597 312.134 314.964 314.798 314.068C315.91 313.579 316.929 312.9 317.807 312.06C318.581 311.334 319.279 310.531 319.891 309.663C320.797 308.41 321.572 307.066 322.205 305.655C322.42 305.147 322.587 304.758 322.691 304.487C322.732 304.345 322.793 304.21 322.871 304.084C322.845 304.228 322.808 304.37 322.76 304.508C322.677 304.793 322.531 305.203 322.33 305.71C321.747 307.16 320.998 308.538 320.099 309.816C319.492 310.706 318.793 311.53 318.015 312.276C317.119 313.149 316.074 313.854 314.93 314.36C312.249 315.292 309.478 315.941 306.663 316.298C303.682 316.743 300.834 317.035 298.228 317.209C295.906 317.345 293.577 317.11 291.329 316.514C289.808 316.121 288.387 315.411 287.161 314.429C286.838 314.15 286.542 313.841 286.278 313.505C286.166 313.398 286.068 313.277 285.987 313.144Z" fill="#263238"/>
<path d="M282.256 239.166C282.346 239.166 284.736 248.399 287.577 259.849C290.419 271.299 292.649 280.595 292.552 280.622C292.455 280.65 290.072 271.382 287.23 259.932C284.388 248.483 282.158 239.187 282.256 239.166Z" fill="#263238"/>
<path d="M279.372 291.468C279.298 291.219 279.259 290.962 279.254 290.703C279.185 290.011 279.169 289.314 279.206 288.619C279.285 287.559 279.637 286.537 280.227 285.652C280.561 285.126 280.95 284.637 281.387 284.193C281.871 283.731 282.41 283.33 282.992 282.998C285.05 281.919 287.278 281.2 289.578 280.872C290.269 280.773 290.965 280.713 291.663 280.692C291.918 280.654 292.178 280.654 292.434 280.692C292.434 280.747 291.343 280.789 289.613 281.102C287.364 281.489 285.188 282.225 283.166 283.283C282.608 283.6 282.09 283.983 281.623 284.423C281.202 284.846 280.824 285.312 280.498 285.812C279.923 286.636 279.564 287.592 279.456 288.591C279.394 289.284 279.373 289.98 279.393 290.676C279.417 290.939 279.41 291.205 279.372 291.468Z" fill="#263238"/>
<g opacity="0.3">
<path d="M203.074 265.761C197.3 255.986 197.175 243.286 202.212 233.108C200.599 243.952 200.948 254.998 203.24 265.72" fill="black"/>
</g>
<path d="M212.279 309.608C214.1 306.176 228.294 297.102 228.294 297.102L224.452 296.213L220.207 298.005C219.885 299.444 219.263 300.799 218.379 301.979C216.823 304.202 214.176 301.903 214.176 301.903L215.968 293.309L224.361 288.258C224.361 288.258 232.254 289.467 233.532 290.078L236.895 293.156C238.375 294.316 242.64 298.881 243.808 299.02C244.975 299.158 281.637 290.926 281.637 290.926C286.661 294.907 289.28 302.806 290.1 308.51C290.1 308.51 290.996 311.289 290.023 312.831L245.051 316.361L235.519 318.994C232.967 320.05 230.352 320.948 227.689 321.683C224.521 322.377 222.388 321.328 222.298 319.598C222.207 317.868 224.674 317.653 224.674 317.653C226.777 316.898 228.824 315.998 230.802 314.957C232.25 313.993 233.442 312.691 234.275 311.164L230.878 311.567C230.878 311.567 223.653 316.583 220.936 318.056C218.22 319.529 217.685 316.826 217.462 315.972C217.24 315.117 225.577 307.002 225.577 307.002C225.577 307.002 217.65 311.866 216.226 313.116C214.801 314.367 212.689 314.721 212.238 313.894C211.786 313.068 210.466 313.04 212.279 309.608Z" fill="#FFBE9D"/>
<path d="M251.366 310.4C251.407 310.217 251.421 310.03 251.408 309.844C251.416 309.625 251.402 309.407 251.366 309.191C251.339 308.902 251.285 308.616 251.207 308.336C250.755 306.714 249.972 305.202 248.907 303.897C247.869 302.587 246.705 301.382 245.433 300.298C244.934 299.821 244.387 299.397 243.801 299.033C244.263 299.541 244.755 300.021 245.273 300.472C246.483 301.597 247.607 302.812 248.636 304.105C249.677 305.377 250.469 306.834 250.97 308.399C251.332 309.608 251.297 310.407 251.366 310.4Z" fill="#EB996E"/>
<path d="M228.62 296.845C229.433 296.965 230.263 296.891 231.042 296.629C231.82 296.367 232.526 295.924 233.101 295.337C233.046 295.261 232.177 295.907 230.934 296.31C229.69 296.713 228.62 296.748 228.62 296.845Z" fill="#EB996E"/>
<path d="M226.258 306.252C228.704 305.485 231.08 304.509 233.358 303.334C232.118 303.662 230.909 304.099 229.746 304.64C228.539 305.078 227.373 305.617 226.258 306.252Z" fill="#EB996E"/>
<path d="M233.872 311.06C234.512 310.913 235.132 310.692 235.72 310.4C236.351 310.216 236.958 309.957 237.527 309.629C236.201 309.764 234.937 310.259 233.872 311.06Z" fill="#EB996E"/>
<path d="M227.446 306.877C227.955 307.229 228.422 307.639 228.835 308.1C229.171 308.626 229.442 309.19 229.641 309.781C229.683 309.781 229.725 309.552 229.641 309.191C229.557 308.721 229.361 308.278 229.072 307.899C228.784 307.519 228.41 307.214 227.981 307.009C227.668 306.856 227.446 306.843 227.446 306.877Z" fill="#EB996E"/>
<path d="M224.097 301.632C224.049 301.715 224.674 302.056 225.084 302.771C225.292 303.231 225.462 303.707 225.591 304.196C225.692 303.929 225.723 303.642 225.683 303.36C225.643 303.078 225.533 302.811 225.362 302.584C224.896 301.778 224.111 301.542 224.097 301.632Z" fill="#EB996E"/>
<path d="M225.223 292.253C225.264 292.253 225.389 292.114 225.494 291.801C225.601 291.391 225.601 290.96 225.494 290.55C225.394 290.138 225.188 289.76 224.896 289.453C224.667 289.223 224.479 289.14 224.451 289.175C224.742 289.631 224.976 290.121 225.146 290.634C225.245 291.167 225.271 291.712 225.223 292.253Z" fill="#EB996E"/>
<path d="M290.391 314.117C290.345 313.774 290.326 313.428 290.336 313.082C290.336 312.748 290.336 312.345 290.287 311.873C290.238 311.4 290.245 310.865 290.176 310.282C289.915 307.198 289.254 304.162 288.21 301.25C287.623 299.659 286.912 298.116 286.084 296.637C285.667 295.942 285.306 295.323 284.889 294.761C284.694 294.476 284.5 294.205 284.312 293.941C284.124 293.677 283.923 293.441 283.735 293.246C282.242 291.405 281.095 290.467 281.151 290.411C281.442 290.597 281.712 290.814 281.957 291.058C282.27 291.32 282.567 291.601 282.846 291.898C283.173 292.239 283.541 292.593 283.937 293.079C284.124 293.316 284.326 293.552 284.534 293.774C284.743 293.996 284.93 294.309 285.139 294.594C285.57 295.157 285.945 295.81 286.369 296.477C287.227 297.964 287.957 299.521 288.55 301.132C289.604 304.066 290.238 307.135 290.433 310.247C290.482 310.837 290.475 311.379 290.488 311.852C290.502 312.324 290.488 312.734 290.488 313.068C290.492 313.42 290.459 313.771 290.391 314.117Z" fill="#263238"/>
<g opacity="0.3">
<path d="M305.822 281.984C301.605 280.243 296.959 279.819 292.496 280.768C296.332 280.591 300.128 281.617 303.353 283.702C306.578 285.787 309.071 288.828 310.484 292.399C310.803 293.26 311.442 294.281 312.36 294.149C313.277 294.017 313.527 292.954 313.527 292.1C313.534 287.605 309.97 283.714 305.822 281.984Z" fill="black"/>
</g>
<path d="M201.74 231.433C201.532 231.395 201.331 231.327 201.142 231.232C200.76 231.086 200.225 230.843 199.572 230.537C197.868 229.686 196.24 228.689 194.709 227.556C193.183 226.429 191.756 225.174 190.443 223.805C189.943 223.277 189.547 222.832 189.297 222.519C189.046 222.207 188.907 222.019 188.928 221.998C188.949 221.977 189.581 222.624 190.624 223.624C191.978 224.93 193.414 226.149 194.924 227.272C196.438 228.385 198.023 229.399 199.669 230.308C200.975 231.023 201.781 231.385 201.74 231.433Z" fill="white"/>
<path d="M281.964 234.052C281.912 234.099 281.853 234.139 281.79 234.171L281.255 234.49C280.79 234.775 280.081 235.185 279.171 235.643C276.562 236.982 273.857 238.123 271.077 239.055C266.947 240.421 262.711 241.439 258.411 242.098C253.147 242.882 247.837 243.322 242.515 243.418C236.853 243.55 231.462 243.418 226.536 243.334C222.189 243.273 217.85 242.946 213.544 242.355C210.638 241.943 207.774 241.278 204.984 240.368C204.005 240.034 203.247 239.756 202.747 239.541L202.177 239.298C202.11 239.275 202.044 239.244 201.983 239.208L202.191 239.263L202.775 239.472C203.282 239.666 204.046 239.923 205.033 240.236C207.827 241.085 210.685 241.71 213.578 242.105C217.879 242.654 222.208 242.954 226.543 243.001C231.406 243.091 236.825 243.189 242.474 243.057C247.781 242.963 253.076 242.532 258.328 241.764C262.614 241.127 266.841 240.14 270.966 238.812C273.744 237.904 276.456 236.803 279.081 235.518C280.005 235.06 280.72 234.692 281.165 234.428L281.714 234.143C281.894 234.073 281.957 234.045 281.964 234.052Z" fill="white"/>
<path d="M202.004 258.814C201.711 258.787 201.422 258.726 201.142 258.633L198.829 258.001C196.883 257.452 194.202 256.667 191.242 255.785C188.282 254.902 185.614 254.076 183.683 253.464L181.404 252.728C181.122 252.647 180.847 252.54 180.584 252.408C180.877 252.435 181.166 252.496 181.446 252.589L183.759 253.221C185.705 253.77 188.386 254.555 191.346 255.437C194.306 256.32 196.974 257.139 198.905 257.751L201.184 258.494C201.468 258.572 201.743 258.679 202.004 258.814Z" fill="white"/>
<path d="M204.025 297.213C204.025 297.304 197.078 295.317 188.532 292.767C179.987 290.217 173.115 288.07 173.143 287.973C173.171 287.876 180.091 289.863 188.636 292.419C197.182 294.976 204.053 297.116 204.025 297.213Z" fill="white"/>
<path d="M304.439 214.134C304.206 214.36 303.95 214.563 303.675 214.738C303.175 215.106 302.425 215.62 301.487 216.232C296.58 219.406 291.317 221.992 285.806 223.937C284.75 224.305 283.888 224.583 283.284 224.756C282.978 224.868 282.661 224.947 282.339 224.993C282.628 224.843 282.931 224.72 283.242 224.624L285.723 223.7C287.807 222.901 290.662 221.72 293.719 220.227C296.776 218.733 299.458 217.19 301.362 216.023L303.613 214.634C303.871 214.44 304.148 214.273 304.439 214.134Z" fill="white"/>
<path d="M318.279 253.61C317.917 253.815 317.541 253.994 317.153 254.145C316.424 254.471 315.34 254.902 313.992 255.396C306.947 257.961 299.55 259.433 292.059 259.759C290.62 259.821 289.46 259.835 288.654 259.807C288.239 259.816 287.823 259.798 287.411 259.752C287.822 259.689 288.238 259.661 288.654 259.668C289.453 259.668 290.614 259.599 292.045 259.502C295.766 259.265 299.468 258.785 303.126 258.063C306.782 257.329 310.386 256.359 313.916 255.159C315.271 254.694 316.361 254.298 317.112 254.013C317.489 253.846 317.879 253.711 318.279 253.61Z" fill="white"/>
<path d="M298.312 316.75C298.306 316.619 298.318 316.489 298.346 316.361C298.388 316.076 298.451 315.715 298.52 315.27C298.59 314.825 298.694 314.214 298.763 313.533C298.833 312.852 298.951 312.088 298.979 311.227C298.979 310.803 299.034 310.351 299.062 309.886C299.09 309.42 299.062 308.927 299.062 308.427C299.062 307.419 299.02 306.342 298.965 305.21C298.782 302.758 298.408 300.323 297.846 297.929C297.256 295.541 296.483 293.202 295.533 290.933C295.06 289.904 294.636 288.911 294.143 288.029C293.907 287.584 293.691 287.146 293.448 286.736L292.754 285.583C292.33 284.833 291.871 284.193 291.503 283.631C291.135 283.068 290.808 282.582 290.496 282.199L289.842 281.303C289.759 281.204 289.689 281.094 289.634 280.977C289.73 281.061 289.819 281.154 289.898 281.255L290.593 282.116C290.971 282.56 291.326 283.024 291.656 283.506C292.045 284.068 292.517 284.694 292.955 285.437L293.65 286.59C293.893 286.993 294.115 287.438 294.345 287.883C294.845 288.765 295.289 289.758 295.734 290.794C297.736 295.346 298.912 300.218 299.208 305.182C299.25 306.322 299.312 307.405 299.27 308.42C299.27 308.927 299.27 309.42 299.229 309.893C299.187 310.365 299.159 310.81 299.124 311.241C299.076 312.109 298.937 312.873 298.847 313.554C298.756 314.235 298.652 314.819 298.548 315.284C298.444 315.75 298.367 316.083 298.305 316.375C298.321 316.499 298.323 316.625 298.312 316.75Z" fill="white"/>
<path d="M325.115 295.456C325.081 295.456 325.06 294.886 324.9 293.885C324.655 292.472 324.186 291.107 323.511 289.842C322.522 287.963 321.19 286.285 319.585 284.895C317.629 283.179 315.363 281.854 312.908 280.991C310.44 280.166 307.861 279.716 305.259 279.657C303.13 279.598 301 279.679 298.881 279.9C297.068 280.067 295.602 280.254 294.588 280.365L293.42 280.49C293.284 280.509 293.147 280.509 293.01 280.49C293.138 280.443 293.271 280.413 293.407 280.4L294.567 280.206C295.574 280.046 297.04 279.83 298.853 279.622C300.983 279.368 303.128 279.261 305.273 279.302C307.911 279.354 310.525 279.807 313.027 280.643C315.524 281.528 317.826 282.887 319.807 284.645C321.431 286.071 322.766 287.795 323.74 289.724C324.399 291.03 324.829 292.44 325.011 293.892C325.066 294.284 325.094 294.678 325.095 295.073C325.116 295.2 325.123 295.328 325.115 295.456Z" fill="white"/>
<path d="M250.373 275.342C250.244 275.382 250.111 275.405 249.977 275.412L248.844 275.53L244.676 275.877C241.153 276.148 236.283 276.482 230.906 276.759C225.528 277.037 220.644 277.211 217.108 277.253C215.343 277.253 213.912 277.253 212.939 277.253H211.807C211.673 277.257 211.54 277.243 211.411 277.211C211.541 277.184 211.674 277.173 211.807 277.176H212.939L217.108 277.072C220.63 276.968 225.507 276.759 230.885 276.475L244.655 275.696L248.824 275.46L249.963 275.412C250.096 275.371 250.234 275.347 250.373 275.342Z" fill="white"/>
<g opacity="0.3">
<path d="M254.409 276.787C258.786 278.073 264.831 278.385 269.118 276.787C265.783 281.532 259.342 283.249 253.749 281.706C248.157 280.164 243.008 274.571 242.578 268.784C245.287 272.431 250.032 275.488 254.409 276.787Z" fill="black"/>
</g>
<path d="M289.905 272.209C289.79 272.251 289.671 272.284 289.551 272.306L288.543 272.521C287.661 272.702 286.39 272.938 284.805 273.216C281.644 273.772 277.26 274.453 272.404 275.05C267.548 275.648 263.122 276.037 259.898 276.259C258.3 276.37 257.001 276.447 256.105 276.482L255.077 276.516C254.957 276.536 254.835 276.536 254.715 276.516C254.831 276.486 254.95 276.468 255.07 276.461L256.098 276.357L259.877 276.016C263.073 275.731 267.478 275.321 272.341 274.703C277.205 274.085 281.575 273.466 284.743 272.98L288.495 272.396L289.523 272.25C289.647 272.214 289.776 272.2 289.905 272.209Z" fill="white"/>
<g opacity="0.3">
<path d="M282.624 241.278C281.526 253.853 284.951 266.331 288.349 278.489C288.5 279.245 288.818 279.957 289.28 280.574C289.518 280.882 289.85 281.104 290.226 281.208C290.602 281.312 291.001 281.292 291.364 281.15C292.427 280.608 292.281 279.066 291.982 277.927L282.54 241.799" fill="black"/>
</g>
<path d="M106.71 253.805L120.988 323.906H244.933C245.589 323.906 246.218 323.645 246.682 323.182C247.146 322.718 247.406 322.089 247.406 321.433C247.406 320.777 247.146 320.148 246.682 319.684C246.218 319.22 245.589 318.959 244.933 318.959H219.977L206.742 253.763C206.618 253.156 206.29 252.609 205.812 252.215C205.334 251.821 204.735 251.602 204.116 251.595L109.392 250.56C108.988 250.555 108.588 250.64 108.222 250.81C107.856 250.98 107.532 251.229 107.275 251.541C107.018 251.852 106.833 252.217 106.736 252.609C106.638 253 106.629 253.409 106.71 253.805Z" fill="#E0E0E0"/>
<path d="M106.71 253.805C106.692 253.736 106.678 253.666 106.668 253.596C106.642 253.384 106.642 253.169 106.668 252.957C106.717 252.538 106.861 252.136 107.089 251.781C107.316 251.426 107.621 251.127 107.982 250.907C108.235 250.757 108.512 250.649 108.801 250.588C109.122 250.528 109.448 250.507 109.774 250.525H112.004L117.562 250.574L153.377 250.914L178.347 251.164L192.34 251.31L199.676 251.387L203.421 251.421C203.741 251.421 204.039 251.421 204.38 251.421C204.714 251.454 205.039 251.548 205.339 251.699C205.959 251.991 206.452 252.497 206.728 253.124C206.849 253.43 206.935 253.75 206.985 254.075L207.18 255.02C207.305 255.646 207.437 256.278 207.562 256.91C207.826 258.182 208.083 259.46 208.347 260.738L209.931 268.54C211.001 273.797 212.094 279.177 213.21 284.68C215.447 295.671 217.775 307.1 220.158 318.883L219.991 318.744H244.53C244.853 318.729 245.177 318.747 245.496 318.799C246.161 318.964 246.737 319.377 247.108 319.953C247.318 320.259 247.462 320.606 247.53 320.972C247.598 321.337 247.589 321.713 247.502 322.074C247.416 322.436 247.254 322.775 247.028 323.071C246.802 323.366 246.517 323.61 246.191 323.788C245.831 323.982 245.431 324.089 245.023 324.101H212.738H179.181H120.987H120.883V323.996C116.513 302.459 112.963 284.923 110.504 272.778C109.288 266.706 108.336 261.982 107.69 258.772C107.37 257.167 107.127 255.944 106.995 255.118C106.863 254.291 106.766 253.867 106.766 253.867C106.766 253.867 106.863 254.291 107.037 255.111L107.801 258.751C108.461 261.961 109.434 266.685 110.684 272.744L121.175 323.948L121.043 323.837H179.236H245.072C245.426 323.823 245.773 323.73 246.086 323.566C246.37 323.41 246.618 323.196 246.814 322.939C247.01 322.681 247.15 322.386 247.225 322.071C247.3 321.756 247.307 321.429 247.248 321.11C247.188 320.792 247.062 320.49 246.878 320.224C246.552 319.745 246.055 319.409 245.489 319.286C245.193 319.239 244.892 319.22 244.593 319.23H219.838V319.098C217.448 307.287 215.135 295.879 212.891 284.888C211.774 279.395 210.684 274.015 209.618 268.749L207.993 260.842C207.735 259.557 207.478 258.286 207.221 257.014C207.089 256.382 206.964 255.75 206.832 255.118L206.645 254.18C206.599 253.872 206.518 253.572 206.402 253.283C206.169 252.73 205.748 252.277 205.213 252.005C204.945 251.873 204.656 251.788 204.359 251.755C204.067 251.755 203.734 251.755 203.428 251.755L199.676 251.713L192.34 251.63L178.354 251.463L153.384 251.171L117.569 250.734L112.011 250.657L109.781 250.623C109.461 250.603 109.139 250.619 108.822 250.671C108.541 250.734 108.272 250.839 108.023 250.984C107.665 251.194 107.361 251.484 107.133 251.831C106.905 252.178 106.761 252.573 106.71 252.985C106.675 253.257 106.675 253.532 106.71 253.805Z" fill="#263238"/>
<path d="M163.82 285.909C163.82 286.719 163.58 287.51 163.13 288.183C162.68 288.856 162.041 289.38 161.293 289.69C160.546 290 159.723 290.081 158.929 289.923C158.135 289.765 157.406 289.375 156.834 288.803C156.262 288.231 155.872 287.502 155.714 286.708C155.556 285.914 155.637 285.091 155.947 284.343C156.256 283.596 156.781 282.957 157.454 282.507C158.127 282.057 158.918 281.817 159.727 281.817C160.813 281.817 161.854 282.248 162.621 283.016C163.388 283.783 163.82 284.824 163.82 285.909Z" fill="white"/>
<path d="M106.821 254.374C106.821 254.374 106.967 254.374 107.252 254.374H113.324L131.048 254.458L189.512 254.868L197.967 254.937H200.051C200.407 254.921 200.763 254.941 201.114 255C201.47 255.069 201.81 255.206 202.115 255.403C202.734 255.794 203.183 256.404 203.372 257.112C203.532 257.806 203.643 258.446 203.782 259.113C204.831 264.393 205.867 269.485 206.804 274.335C208.722 284.061 210.452 292.781 211.897 300.124L215.308 317.493C215.697 319.543 216.003 321.134 216.219 322.225C216.316 322.76 216.392 323.17 216.448 323.461C216.503 323.753 216.51 323.878 216.51 323.878C216.51 323.878 216.469 323.739 216.413 323.468C216.357 323.197 216.26 322.774 216.149 322.239C215.927 321.148 215.6 319.564 215.176 317.521C214.343 313.408 213.148 307.475 211.661 300.152L206.492 274.376C205.526 269.513 204.505 264.434 203.456 259.154C203.317 258.501 203.192 257.82 203.053 257.181C202.88 256.557 202.481 256.02 201.934 255.673C201.661 255.508 201.36 255.395 201.045 255.34C200.717 255.286 200.384 255.267 200.051 255.284H197.967L189.512 255.222L131.041 254.708L113.324 254.513L108.503 254.444H107.252L106.821 254.374Z" fill="#263238"/>
<path d="M272.348 147.909C272.491 154.391 271.26 160.829 268.736 166.801C266.211 172.773 262.451 178.143 257.703 182.557C255.512 176.234 253.328 169.912 251.151 163.59" fill="#263238"/>
<path d="M222.992 110.183C228.613 107.112 235.401 106.668 241.681 107.925C247.962 109.183 253.812 112.024 259.356 115.234C262.469 117.034 265.567 119.014 267.805 121.821C271.883 126.955 275.919 135.389 276.308 141.969C276.628 147.263 274.599 160.512 272.362 165.32C270.313 169.731 260.704 173.094 255.959 174.185L212.439 123.537C213.226 120.723 214.564 118.093 216.375 115.801C218.187 113.508 220.436 111.599 222.992 110.183Z" fill="#263238"/>
<path d="M215.489 117.006L225.91 115.144C220.206 128.727 218.657 159.782 215.399 174.15C211.55 168.592 202.622 151.57 203.101 144.81C203.581 138.05 203.129 115.86 215.489 117.006Z" fill="#263238"/>
<path d="M264.963 139.613C264.4 131.679 259.259 125.176 251.554 123.21L227.522 117.082C217.143 115.964 210.209 128.734 209.528 139.155C208.771 150.737 208.305 162.951 209.66 171.593C212.377 188.962 225.688 191.213 225.688 191.213C225.688 191.213 225.688 199.481 225.688 204.553L233.727 237.839L259.634 202.045L264.998 139.836C265.019 139.53 264.963 140.009 264.963 139.613Z" fill="#FFBE9D"/>
<path d="M214.746 152.279C214.74 152.86 214.961 153.42 215.362 153.84C215.763 154.261 216.312 154.508 216.893 154.53C217.176 154.553 217.461 154.518 217.731 154.429C218.002 154.34 218.251 154.198 218.465 154.01C218.68 153.823 218.854 153.595 218.979 153.34C219.104 153.084 219.176 152.806 219.192 152.522C219.198 151.942 218.978 151.383 218.579 150.963C218.179 150.543 217.632 150.294 217.052 150.271C216.768 150.247 216.482 150.281 216.211 150.37C215.94 150.458 215.69 150.601 215.475 150.788C215.26 150.975 215.085 151.203 214.959 151.459C214.834 151.716 214.761 151.994 214.746 152.279Z" fill="#263238"/>
<path d="M212.161 145.957C212.439 146.248 214.127 145.005 216.524 145.012C218.921 145.019 220.693 146.227 220.936 145.936C221.068 145.804 220.783 145.283 220.019 144.72C218.984 143.999 217.751 143.616 216.49 143.622C215.244 143.618 214.028 144.007 213.016 144.734C212.252 145.303 212.001 145.825 212.161 145.957Z" fill="#263238"/>
<path d="M235.644 152.279C235.638 152.86 235.859 153.42 236.26 153.841C236.661 154.261 237.21 154.508 237.791 154.53C238.075 154.554 238.361 154.52 238.632 154.431C238.903 154.341 239.154 154.198 239.368 154.01C239.583 153.822 239.757 153.593 239.881 153.336C240.006 153.079 240.077 152.8 240.091 152.515C240.097 151.935 239.876 151.376 239.477 150.956C239.078 150.536 238.53 150.288 237.951 150.264C237.666 150.241 237.38 150.274 237.108 150.363C236.837 150.453 236.586 150.595 236.371 150.783C236.156 150.971 235.981 151.201 235.856 151.457C235.731 151.714 235.659 151.994 235.644 152.279Z" fill="#263238"/>
<path d="M234.901 145.957C235.179 146.248 236.874 145.005 239.271 145.012C241.668 145.019 243.439 146.228 243.683 145.936C243.808 145.804 243.53 145.283 242.765 144.72C241.735 144.006 240.511 143.623 239.257 143.622C238.011 143.62 236.796 144.009 235.783 144.734C235.019 145.304 234.769 145.825 234.901 145.957Z" fill="#263238"/>
<path d="M227.446 164.785C227.446 164.653 225.966 164.389 223.548 164.09C222.937 164.027 222.36 163.902 222.256 163.485C222.205 162.852 222.351 162.219 222.673 161.672C223.252 160.195 223.859 158.641 224.493 157.01C227.022 150.382 228.849 144.928 228.585 144.831C228.321 144.734 226.049 150.021 223.52 156.642C222.909 158.272 222.328 159.833 221.777 161.325C221.389 162.063 221.274 162.914 221.45 163.729C221.538 163.945 221.675 164.138 221.85 164.294C222.024 164.449 222.232 164.562 222.457 164.625C222.794 164.722 223.142 164.771 223.493 164.771C225.89 164.91 227.397 164.924 227.446 164.785Z" fill="#263238"/>
<path d="M248.733 185.023C248.733 185.023 243.078 196.98 225.695 195.292V191.206C233.799 191.318 241.775 189.177 248.733 185.023Z" fill="#EB996E"/>
<path d="M235.658 137.293C235.894 137.946 238.284 137.64 241.098 137.988C243.912 138.335 246.184 139.106 246.559 138.523C246.725 138.238 246.329 137.626 245.412 136.994C244.195 136.214 242.808 135.738 241.369 135.605C239.931 135.429 238.471 135.596 237.11 136.091C236.075 136.473 235.554 136.98 235.658 137.293Z" fill="#263238"/>
<path d="M212.918 138.62C213.335 139.169 215.003 138.62 216.976 138.585C218.949 138.55 220.644 138.96 221.033 138.391C221.2 138.113 220.936 137.571 220.206 137.05C219.22 136.432 218.073 136.12 216.909 136.153C215.746 136.186 214.618 136.564 213.669 137.237C212.96 137.793 212.731 138.356 212.918 138.62Z" fill="#263238"/>
<path d="M214.245 123.28C215.308 120.667 218.178 119.111 220.991 118.958C223.805 118.805 226.549 119.882 229.009 121.293C239.354 127.274 244.676 141.719 254.896 147.909C257.411 149.43 260.683 148.034 262.823 150.049C264.963 152.064 266.345 155.287 265.164 157.976C266.629 156.158 267.824 154.139 268.715 151.98C269.493 149.778 269.59 147.228 268.423 145.206C267.54 143.671 265.977 142.504 265.553 140.788C265.171 139.273 265.769 137.696 265.706 136.14C265.529 134.558 264.984 133.04 264.115 131.707C260.106 124.627 254.597 118.222 247.504 114.234C242.872 111.56 237.6 110.198 232.254 110.294C226.876 110.415 221.72 112.458 217.719 116.054C215.433 118.187 213.029 120.389 214.245 123.28Z" fill="#263238"/>
<path d="M262.573 152.203C262.754 151.702 271.82 148.437 271.938 158.066C272.057 167.425 262.615 165.584 262.594 165.313C262.573 165.042 262.573 152.203 262.573 152.203Z" fill="#FFBE9D"/>
<path d="M265.449 161.742C265.491 161.742 265.609 161.853 265.887 161.978C266.28 162.134 266.717 162.134 267.11 161.978C268.089 161.61 268.909 160.025 268.937 158.344C268.956 157.54 268.795 156.743 268.465 156.01C268.372 155.719 268.211 155.454 267.994 155.239C267.778 155.024 267.513 154.864 267.221 154.773C267.035 154.725 266.837 154.743 266.663 154.826C266.489 154.908 266.35 155.05 266.269 155.225C266.144 155.489 266.207 155.676 266.151 155.69C266.095 155.704 265.95 155.537 266.026 155.148C266.077 154.919 266.204 154.713 266.387 154.565C266.513 154.466 266.657 154.393 266.81 154.35C266.964 154.307 267.125 154.295 267.284 154.315C267.669 154.386 268.03 154.556 268.33 154.808C268.631 155.06 268.862 155.386 269 155.753C269.409 156.557 269.611 157.449 269.59 158.351C269.548 160.241 268.604 162.013 267.249 162.415C267 162.491 266.737 162.51 266.479 162.47C266.222 162.43 265.977 162.333 265.762 162.186C265.463 161.971 265.415 161.762 265.449 161.742Z" fill="#EB996E"/>
<path d="M266.297 147.395C266.101 147.307 265.912 147.202 265.734 147.082C265.373 146.853 264.817 146.547 264.164 146.082C262.319 144.733 260.623 143.192 259.106 141.482C256.9 138.925 254.837 136.246 252.93 133.458C250.632 130.041 248.05 126.825 245.211 123.842C243.696 122.352 242.023 121.031 240.223 119.903C238.535 118.874 236.73 118.053 234.845 117.458C231.646 116.431 228.283 116.019 224.931 116.242C222.669 116.38 220.436 116.816 218.289 117.541C217.518 117.777 216.948 118.034 216.552 118.187C216.355 118.277 216.151 118.349 215.941 118.402C216.126 118.291 216.318 118.194 216.517 118.111C217.075 117.844 217.648 117.612 218.233 117.416C220.378 116.617 222.627 116.131 224.91 115.971C228.301 115.693 231.714 116.071 234.963 117.082C236.884 117.674 238.725 118.5 240.445 119.542C242.272 120.687 243.971 122.026 245.51 123.537C248.366 126.549 250.956 129.803 253.249 133.263C255.137 136.052 257.168 138.739 259.335 141.316C260.822 143.028 262.472 144.592 264.261 145.984C264.901 146.464 265.436 146.79 265.776 147.04C265.959 147.144 266.133 147.263 266.297 147.395Z" fill="#455A64"/>
<path d="M266.512 163.395C266.973 163.31 267.449 163.404 267.843 163.657C268.236 163.911 268.519 164.305 268.632 164.759C268.746 165.214 268.682 165.694 268.454 166.103C268.225 166.512 267.85 166.819 267.403 166.961C266.957 167.102 266.473 167.069 266.051 166.866C265.628 166.664 265.299 166.308 265.13 165.871C264.96 165.435 264.964 164.95 265.139 164.516C265.315 164.081 265.649 163.73 266.075 163.534" fill="white"/>
<path d="M266.075 163.534C265.673 163.858 265.38 164.297 265.234 164.792C265.167 165.047 265.166 165.314 265.229 165.57C265.292 165.826 265.418 166.063 265.595 166.258C265.804 166.504 266.081 166.683 266.391 166.772C266.701 166.862 267.031 166.858 267.339 166.761C267.647 166.663 267.92 166.477 268.122 166.226C268.325 165.975 268.449 165.669 268.478 165.347C268.507 165.088 268.471 164.826 268.374 164.583C268.277 164.341 268.122 164.126 267.923 163.958C267.526 163.64 267.041 163.451 266.533 163.416C266.533 163.416 266.672 163.319 266.971 163.312C267.395 163.315 267.805 163.459 268.138 163.722C268.398 163.914 268.604 164.171 268.735 164.467C268.867 164.763 268.92 165.088 268.888 165.41C268.862 165.813 268.715 166.199 268.466 166.517C268.217 166.835 267.878 167.07 267.493 167.193C267.108 167.315 266.695 167.318 266.308 167.202C265.921 167.086 265.578 166.856 265.324 166.542C265.114 166.298 264.97 166.003 264.907 165.687C264.843 165.37 264.863 165.043 264.963 164.736C265.073 164.331 265.318 163.976 265.658 163.729C265.901 163.541 266.068 163.513 266.075 163.534Z" fill="#263238"/>
<path d="M263.942 150.042C264.087 152.598 264.206 155.294 263.025 157.566C261.843 159.838 258.856 161.387 256.647 160.116C254.833 159.081 254.291 156.753 253.979 154.69C253.096 148.729 252.686 142.705 251.749 136.751L263.942 150.042Z" fill="#263238"/>
<path d="M216.552 118.833C216.552 118.882 217.379 118.673 218.873 118.625C220.993 118.592 223.098 118.977 225.07 119.757C226.43 120.284 227.729 120.955 228.947 121.758C230.342 122.694 231.678 123.715 232.948 124.815C235.892 127.305 238.523 130.141 240.785 133.263C241.973 134.931 243.029 136.647 244.169 138.238C245.251 139.785 246.51 141.2 247.92 142.455C250.347 144.511 253 146.285 255.827 147.742C258.224 149.007 260.225 149.896 261.607 150.521L263.205 151.216C263.389 151.306 263.583 151.376 263.782 151.424C263.618 151.305 263.441 151.205 263.254 151.126L261.691 150.354C260.301 149.66 258.363 148.743 256.008 147.443C253.231 145.949 250.627 144.155 248.24 142.094C246.863 140.852 245.637 139.453 244.586 137.925C243.467 136.355 242.418 134.639 241.216 132.951C238.93 129.795 236.26 126.936 233.268 124.44C231.971 123.337 230.607 122.316 229.183 121.383C227.932 120.58 226.597 119.916 225.202 119.403C223.181 118.637 221.023 118.301 218.866 118.416C218.283 118.45 217.705 118.532 217.136 118.659C216.934 118.69 216.738 118.749 216.552 118.833Z" fill="#455A64"/>
<path d="M264.199 144.261C264.452 144.478 264.729 144.665 265.025 144.817L267.402 146.207L268.194 146.658C268.506 146.848 268.858 146.964 269.222 146.999C269.443 147.023 269.666 146.971 269.854 146.853C269.955 146.782 270.038 146.69 270.098 146.583C270.158 146.476 270.194 146.357 270.201 146.234C270.181 145.805 270.028 145.392 269.764 145.053L266.985 140.649L266.61 140.989C268.444 142.34 270.692 143.011 272.967 142.886C273.257 142.883 273.546 142.834 273.821 142.74C273.975 142.689 274.117 142.607 274.236 142.498C274.356 142.389 274.451 142.256 274.516 142.108C274.569 141.949 274.583 141.78 274.555 141.615C274.527 141.45 274.459 141.295 274.356 141.163C274.202 140.95 274.025 140.754 273.828 140.579C272.593 139.385 271.52 138.032 270.639 136.556C269.862 135.17 269.184 133.731 268.61 132.249C268.654 132.679 268.755 133.102 268.909 133.506C269.259 134.631 269.725 135.716 270.299 136.744C271.153 138.276 272.219 139.68 273.467 140.913C273.814 141.246 274.162 141.607 274.03 141.92C273.898 142.233 273.383 142.365 272.89 142.365C271.82 142.418 270.749 142.289 269.722 141.983C268.699 141.682 267.734 141.213 266.867 140.593L265.755 139.773L266.498 140.933L269.277 145.303C269.494 145.565 269.632 145.883 269.673 146.221C269.673 146.485 269.437 146.637 269.138 146.617C268.538 146.498 267.966 146.262 267.457 145.922L265.012 144.671C264.756 144.506 264.483 144.369 264.199 144.261Z" fill="#455A64"/>
<path d="M236.526 169.189C236.352 168.478 235.933 167.85 235.342 167.415C234.752 166.981 234.027 166.768 233.296 166.813C232.761 166.879 232.252 167.076 231.813 167.388C231.373 167.7 231.019 168.116 230.781 168.599C230.548 169.085 230.415 169.613 230.39 170.151C230.365 170.689 230.448 171.227 230.635 171.732L230.69 171.955C231.19 172.492 231.842 172.863 232.56 173.016C233.277 173.169 234.024 173.097 234.699 172.809C235.36 172.491 235.897 171.964 236.228 171.31C236.558 170.655 236.663 169.91 236.526 169.189Z" fill="#EB996E"/>
<path d="M228.947 172.024C228.947 171.663 231.371 171.774 233.199 169.787C235.026 167.8 234.88 165.202 235.22 165.202C235.373 165.202 235.665 165.799 235.637 166.897C235.587 168.315 235.039 169.671 234.088 170.725C233.17 171.739 231.895 172.356 230.531 172.448C229.53 172.49 228.926 172.191 228.947 172.024Z" fill="#263238"/>
<path d="M310.623 319.258C310.57 319.265 310.516 319.265 310.463 319.258L309.977 319.307L308.122 319.46C306.51 319.592 304.175 319.744 301.285 319.918C295.512 320.259 287.529 320.613 278.705 320.759C269.882 320.905 261.878 320.821 256.098 320.668C253.208 320.599 250.866 320.516 249.254 320.446L247.392 320.349H249.254L256.105 320.467C261.885 320.55 269.875 320.592 278.698 320.467C287.522 320.342 295.498 320.008 301.271 319.73L308.115 319.39L309.977 319.307H310.456L310.623 319.258Z" fill="white"/>
<path fill-rule="evenodd" clip-rule="evenodd" d="M177.535 30.0404C201.135 28.8772 222.615 41.948 244.44 51.0027C266.664 60.2228 289.879 67.9116 307.723 84.0517C326.237 100.797 340.008 122.273 348.987 145.566C358.173 169.393 362.558 195.047 360.32 220.486C358.068 246.09 351.939 272.592 336.035 292.784C320.467 312.549 292.93 317.299 272.501 331.984C252.178 346.592 239.247 371.841 215.414 379.485C191.401 387.186 164.706 382.174 140.771 374.231C117.741 366.588 98.0067 351.61 80.5697 334.735C64.2727 318.963 55.4183 297.885 42.5714 279.195C28.7859 259.14 5.54838 243.776 1.54568 219.771C-2.44708 195.826 12.9611 173.316 21.1028 150.446C29.0758 128.051 32.4957 102.631 49.2519 85.7678C65.9304 68.9826 91.7995 66.8841 113.503 57.456C135.033 48.1028 154.088 31.1959 177.535 30.0404Z" fill="#120F6C" fill-opacity="0.05"/>
</svg>
