<svg width="360" height="354" viewBox="0 0 360 354" fill="none" xmlns="http://www.w3.org/2000/svg">
<path d="M272.353 76.5573H143.686C141.187 76.5573 139.161 78.5829 139.161 81.0816V163.104C139.161 165.603 141.187 167.629 143.686 167.629H272.353C274.851 167.629 276.877 165.603 276.877 163.104V81.0816C276.877 78.5829 274.851 76.5573 272.353 76.5573Z" fill="#E0E0E0"/>
<path d="M272.353 167.629L272.648 167.61C272.768 167.606 272.887 167.593 273.005 167.57C273.172 167.55 273.337 167.515 273.499 167.467C273.962 167.351 274.402 167.157 274.8 166.893C275.354 166.535 275.822 166.059 276.169 165.498C276.377 165.167 276.543 164.812 276.663 164.44C276.784 164.017 276.849 163.581 276.855 163.142C276.855 162.21 276.855 161.207 276.855 160.111C276.855 157.922 276.855 155.394 276.855 152.549C276.855 141.169 276.855 124.698 276.831 104.349C276.831 99.263 276.831 93.9396 276.831 88.3791V82.0226C276.874 81.3114 276.819 80.5976 276.666 79.9017C276.474 79.2067 276.117 78.5684 275.625 78.0417C275.133 77.5149 274.521 77.1153 273.84 76.8771C273.669 76.8166 273.495 76.7669 273.318 76.7281C273.141 76.6908 272.961 76.666 272.781 76.6442C272.418 76.6194 272.048 76.6225 271.676 76.6256H269.428H231.233H143.701C142.743 76.627 141.811 76.9366 141.043 77.5087C140.275 78.0808 139.711 78.885 139.435 79.8023C139.304 80.2585 139.241 80.7314 139.248 81.2059V96.9527C139.248 104.515 139.248 111.959 139.248 119.286C139.248 133.93 139.248 148.053 139.248 161.517V162.76C139.237 163.176 139.268 163.592 139.342 164.002C139.513 164.808 139.903 165.551 140.469 166.151C140.749 166.448 141.07 166.704 141.422 166.911C141.596 167.016 141.777 167.109 141.962 167.191C142.151 167.268 142.343 167.332 142.54 167.383C143.323 167.613 144.152 167.526 144.971 167.542H173.214H206.499L254.693 167.57L267.797 167.585L254.693 167.601L206.499 167.626H173.214H154.669H143.729C143.31 167.628 142.892 167.574 142.487 167.464C142.285 167.41 142.085 167.344 141.891 167.265C141.699 167.179 141.513 167.081 141.332 166.973C140.969 166.76 140.639 166.495 140.351 166.188C140.059 165.882 139.811 165.537 139.615 165.163C139.42 164.786 139.275 164.385 139.183 163.971C139.108 163.553 139.076 163.128 139.087 162.704V161.462C139.087 148.006 139.087 133.884 139.087 119.23V81.2183C139.078 80.728 139.143 80.2392 139.279 79.7681C139.565 78.8175 140.15 77.9841 140.946 77.3913C141.743 76.7985 142.709 76.4778 143.701 76.4766H231.233H269.428H271.66C272.033 76.4766 272.399 76.4766 272.775 76.4983C272.962 76.5169 273.147 76.5449 273.331 76.5821C274.147 76.7654 274.898 77.1662 275.504 77.7419C276.11 78.3176 276.549 79.0468 276.775 79.852L276.843 80.1159C276.862 80.206 276.871 80.296 276.886 80.3861C276.915 80.5659 276.932 80.7475 276.936 80.9295C276.936 81.2928 276.936 81.6499 276.936 82.007V84.1404C276.936 85.5564 276.936 86.9589 276.936 88.348C276.936 93.9023 276.936 99.2258 276.936 104.318C276.936 124.667 276.914 141.138 276.908 152.518C276.908 155.363 276.908 157.891 276.908 160.08C276.908 161.176 276.908 162.188 276.908 163.11C276.901 163.554 276.835 163.995 276.709 164.421C276.59 164.8 276.422 165.162 276.209 165.498C275.858 166.063 275.385 166.542 274.825 166.899C274.424 167.161 273.982 167.353 273.517 167.467C273.355 167.514 273.188 167.547 273.02 167.567C272.901 167.588 272.781 167.6 272.66 167.601L272.353 167.629Z" fill="#263238"/>
<path d="M277.458 169.718H139.304C137.839 169.718 136.434 169.135 135.398 168.098C134.362 167.062 133.78 165.657 133.78 164.191V161.75H282.985V164.191C282.985 165.657 282.403 167.063 281.366 168.1C280.33 169.136 278.924 169.718 277.458 169.718Z" fill="#E0E0E0"/>
<path d="M277.458 169.718H277.638C277.816 169.712 277.993 169.696 278.169 169.672L278.563 169.61L279.032 169.489C279.203 169.439 279.377 169.364 279.569 169.296C279.762 169.228 279.958 169.119 280.159 169.004C280.615 168.744 281.033 168.424 281.401 168.051C282.371 167.049 282.925 165.718 282.954 164.325C282.954 163.527 282.954 162.669 282.954 161.76L282.985 161.788L139.314 161.84H133.78L133.861 161.76V163.7C133.829 164.34 133.891 164.98 134.047 165.601C134.375 166.836 135.128 167.916 136.174 168.65C137.218 169.373 138.475 169.724 139.742 169.647H186.529L233.953 169.666L265.807 169.691L274.449 169.706H265.807L233.953 169.731L186.529 169.75H139.742C138.451 169.844 137.165 169.505 136.087 168.787C135.016 168.027 134.246 166.915 133.914 165.644C133.755 165.01 133.69 164.356 133.721 163.704V161.682H139.335L283.007 161.732H283.035V161.763C283.035 162.673 283.035 163.527 283.035 164.331C282.988 165.735 282.408 167.068 281.414 168.06C281.045 168.433 280.627 168.755 280.172 169.017C279.967 169.132 279.765 169.219 279.579 169.305C279.392 169.392 279.206 169.448 279.035 169.495L278.563 169.613L278.169 169.672C277.992 169.696 277.813 169.708 277.635 169.709L277.458 169.718Z" fill="#263238"/>
<path d="M194.445 161.747L196.295 164.691H222.349L224.066 161.747H194.445Z" fill="#263238"/>
<path d="M267.754 82.7803H148.167C146.712 82.7803 145.533 83.9592 145.533 85.4135V154.205C145.533 155.659 146.712 156.838 148.167 156.838H267.754C269.208 156.838 270.387 155.659 270.387 154.205V85.4135C270.387 83.9592 269.208 82.7803 267.754 82.7803Z" fill="#B5B5B5"/>
<path d="M267.698 156.838C268.036 156.831 268.371 156.764 268.685 156.639C269.073 156.485 269.419 156.241 269.695 155.928C270.077 155.495 270.31 154.951 270.359 154.375C270.378 151.761 270.359 147.895 270.359 142.92C270.359 132.983 270.359 118.575 270.331 100.788C270.331 96.3409 270.331 91.683 270.331 86.8139V85.9134C270.345 85.6115 270.33 85.309 270.288 85.0098C270.182 84.4117 269.871 83.8692 269.409 83.4758C268.942 83.0822 268.352 82.8628 267.741 82.8547H258.143H224.749H148.232C147.82 82.8549 147.414 82.9523 147.046 83.139C146.679 83.3257 146.36 83.5964 146.117 83.9292C145.873 84.2605 145.713 84.6463 145.651 85.0533C145.614 85.4662 145.602 85.881 145.614 86.2954V120.863C145.614 127.264 145.614 133.546 145.614 139.709V148.845C145.614 150.348 145.614 151.848 145.614 153.335C145.614 153.705 145.614 154.087 145.633 154.441C145.693 154.98 145.92 155.487 146.281 155.892C146.643 156.296 147.122 156.578 147.651 156.698C148.008 156.761 148.37 156.782 148.732 156.763H181.027H210.123L252.255 156.788L263.711 156.804L252.255 156.819L210.123 156.844H181.027H148.732C148.36 156.863 147.987 156.839 147.62 156.773C147.061 156.646 146.555 156.348 146.172 155.921C145.789 155.493 145.549 154.958 145.484 154.388C145.45 154.003 145.484 153.639 145.465 153.267V148.845C145.465 145.833 145.465 142.787 145.465 139.709V120.863C145.465 114.464 145.465 107.957 145.465 101.34V86.3109C145.451 85.8851 145.464 85.4589 145.502 85.0346C145.568 84.6017 145.739 84.1913 145.999 83.8391C146.257 83.4855 146.595 83.1979 146.985 82.9998C147.375 82.8017 147.807 82.6988 148.244 82.6995H224.761H258.155H267.751C268.39 82.7084 269.007 82.9399 269.494 83.3542C269.982 83.7684 270.309 84.3396 270.421 84.9694C270.464 85.278 270.478 85.5898 270.465 85.901V86.8139C270.465 91.6664 270.465 96.3244 270.465 100.788C270.465 118.575 270.446 132.971 270.44 142.92C270.44 147.888 270.44 151.758 270.412 154.378C270.368 154.878 270.186 155.356 269.886 155.758C269.586 156.16 269.18 156.471 268.713 156.655C268.476 156.747 268.228 156.805 267.974 156.828L267.698 156.838Z" fill="#263238"/>
<path d="M191.827 101.111V101.822H188.877V97.9867H191.771V98.6978H189.759V99.5393H191.535V100.229H189.759V101.114L191.827 101.111Z" fill="white"/>
<path d="M195.479 100.139V101.822H194.625V100.269C194.625 99.7941 194.407 99.5736 194.029 99.5736C193.65 99.5736 193.324 99.8252 193.324 100.365V101.822H192.473V98.8812H193.286V99.2289C193.412 99.0999 193.564 98.9986 193.731 98.9318C193.899 98.8649 194.078 98.8339 194.258 98.8408C194.954 98.8346 195.479 99.2289 195.479 100.139Z" fill="white"/>
<path d="M198.146 101.679C197.94 101.81 197.698 101.875 197.454 101.865C196.758 101.865 196.354 101.511 196.354 100.809V99.6015H195.901V98.9463H196.354V98.229H197.205V98.9463H197.938V99.6015H197.205V100.8C197.198 100.851 197.203 100.903 197.219 100.952C197.235 101.001 197.262 101.045 197.297 101.082C197.333 101.12 197.376 101.148 197.424 101.167C197.472 101.185 197.523 101.192 197.575 101.188C197.698 101.189 197.817 101.15 197.916 101.077L198.146 101.679Z" fill="white"/>
<path d="M201.4 100.592H199.177C199.222 100.775 199.333 100.936 199.487 101.045C199.642 101.153 199.831 101.202 200.019 101.182C200.154 101.187 200.29 101.165 200.416 101.116C200.543 101.067 200.658 100.992 200.755 100.896L201.211 101.39C201.055 101.553 200.866 101.679 200.656 101.761C200.447 101.843 200.222 101.879 199.997 101.865C198.978 101.865 198.317 101.226 198.317 100.35C198.315 100.146 198.354 99.9433 198.433 99.7549C198.511 99.5665 198.628 99.3961 198.774 99.2543C198.921 99.1124 199.095 99.002 199.286 98.9298C199.477 98.8576 199.681 98.8252 199.885 98.8345C200.089 98.8238 200.292 98.856 200.483 98.929C200.673 99.0019 200.846 99.114 200.99 99.258C201.134 99.402 201.247 99.5748 201.32 99.765C201.394 99.9552 201.426 100.159 201.416 100.362C201.416 100.428 201.407 100.521 201.4 100.592ZM199.165 100.092H200.615C200.594 99.9168 200.508 99.7557 200.374 99.6407C200.24 99.5257 200.068 99.4652 199.891 99.4711C199.714 99.4622 199.539 99.5215 199.404 99.637C199.269 99.7525 199.183 99.9154 199.165 100.092Z" fill="white"/>
<path d="M203.813 98.8346V99.6233C203.742 99.6233 203.686 99.6233 203.621 99.6233C203.512 99.6134 203.403 99.6281 203.301 99.6664C203.199 99.7046 203.107 99.7654 203.031 99.8442C202.956 99.9231 202.9 100.018 202.866 100.122C202.833 100.225 202.823 100.335 202.838 100.443V101.831H201.987V98.8905H202.801V99.2786C202.921 99.128 203.076 99.0088 203.252 98.9315C203.428 98.8541 203.621 98.8208 203.813 98.8346Z" fill="white"/>
<path d="M207.788 100.471V101.828H206.903V100.471L205.422 97.9867H206.353L207.378 99.6884L208.4 97.9867H209.269L207.788 100.471Z" fill="white"/>
<path d="M209.039 100.35C209.018 100.026 209.095 99.7024 209.26 99.4223C209.424 99.1423 209.67 98.9182 209.963 98.7791C210.257 98.6401 210.586 98.5926 210.907 98.6427C211.228 98.6928 211.526 98.8382 211.764 99.0601C212.001 99.2821 212.166 99.5702 212.238 99.8872C212.31 100.204 212.284 100.535 212.165 100.838C212.046 101.14 211.839 101.4 211.571 101.583C211.302 101.766 210.985 101.865 210.66 101.865C210.453 101.88 210.244 101.851 210.048 101.782C209.852 101.712 209.672 101.603 209.52 101.46C209.368 101.318 209.247 101.146 209.164 100.955C209.081 100.764 209.039 100.558 209.039 100.35ZM211.409 100.35C211.397 100.204 211.342 100.064 211.252 99.9482C211.162 99.8325 211.04 99.7455 210.901 99.698C210.762 99.6505 210.612 99.6445 210.47 99.6808C210.328 99.717 210.199 99.7939 210.1 99.9021C210.001 100.01 209.936 100.145 209.912 100.29C209.888 100.435 209.907 100.583 209.967 100.718C210.026 100.852 210.123 100.966 210.247 101.045C210.37 101.125 210.514 101.167 210.66 101.167C210.765 101.168 210.869 101.147 210.965 101.106C211.061 101.064 211.147 101.003 211.217 100.926C211.288 100.849 211.342 100.758 211.375 100.658C211.408 100.559 211.419 100.454 211.409 100.35Z" fill="white"/>
<path d="M215.806 98.8811V101.822H214.995V101.471C214.881 101.599 214.74 101.7 214.582 101.768C214.424 101.836 214.254 101.869 214.082 101.865C213.343 101.865 212.825 101.449 212.825 100.542V98.8811H213.679V100.415C213.679 100.909 213.896 101.126 214.275 101.126C214.654 101.126 214.952 100.875 214.952 100.334V98.8811H215.806Z" fill="white"/>
<path d="M218.423 98.8346V99.6233C218.352 99.6233 218.299 99.6233 218.234 99.6233C218.125 99.6128 218.016 99.6271 217.913 99.6651C217.811 99.7032 217.719 99.764 217.643 99.8429C217.568 99.9219 217.512 100.017 217.478 100.121C217.445 100.225 217.436 100.335 217.451 100.443V101.831H216.598V98.8905H217.411V99.2786C217.531 99.128 217.686 99.0088 217.862 98.9315C218.039 98.8541 218.231 98.8208 218.423 98.8346Z" fill="white"/>
<path d="M220.321 99.9089C220.321 98.7693 221.206 97.9277 222.417 97.9277C223.628 97.9277 224.51 98.7662 224.51 99.9089C224.51 101.052 223.619 101.887 222.417 101.887C221.215 101.887 220.321 101.045 220.321 99.9089ZM223.612 99.9089C223.607 99.6728 223.533 99.4434 223.398 99.2496C223.263 99.0557 223.074 98.9059 222.855 98.8191C222.635 98.7323 222.395 98.7122 222.164 98.7615C221.933 98.8108 221.722 98.9271 221.557 99.096C221.392 99.2649 221.28 99.4788 221.236 99.7108C221.192 99.9428 221.218 100.183 221.31 100.4C221.402 100.618 221.556 100.803 221.753 100.933C221.95 101.064 222.181 101.133 222.417 101.132C222.577 101.136 222.737 101.107 222.886 101.047C223.034 100.986 223.169 100.896 223.281 100.781C223.393 100.666 223.481 100.53 223.538 100.38C223.595 100.229 223.62 100.069 223.612 99.9089Z" fill="white"/>
<path d="M225.917 98.7164H224.69V97.9867H228.025V98.7102H226.802V101.815H225.917V98.7164Z" fill="white"/>
<path d="M231.823 99.3841C231.823 100.235 231.183 100.766 230.158 100.766H229.388V101.822H228.503V97.9867H230.158C231.183 97.9867 231.823 98.5239 231.823 99.3841ZM230.925 99.3841C230.925 98.9617 230.652 98.7164 230.109 98.7164H229.388V100.045H230.109C230.652 100.045 230.925 99.7971 230.925 99.3841Z" fill="white"/>
<g opacity="0.2">
<path d="M192.839 109.719H186.52C185.582 109.719 184.821 110.479 184.821 111.417V121.258C184.821 122.196 185.582 122.956 186.52 122.956H192.839C193.777 122.956 194.538 122.196 194.538 121.258V111.417C194.538 110.479 193.777 109.719 192.839 109.719Z" fill="white"/>
</g>
<g opacity="0.2">
<path d="M205.065 109.719H198.745C197.807 109.719 197.047 110.479 197.047 111.417V121.258C197.047 122.196 197.807 122.956 198.745 122.956H205.065C206.003 122.956 206.763 122.196 206.763 121.258V111.417C206.763 110.479 206.003 109.719 205.065 109.719Z" fill="white"/>
</g>
<g opacity="0.2">
<path d="M217.293 109.719H210.974C210.036 109.719 209.275 110.479 209.275 111.417V121.258C209.275 122.196 210.036 122.956 210.974 122.956H217.293C218.231 122.956 218.992 122.196 218.992 121.258V111.417C218.992 110.479 218.231 109.719 217.293 109.719Z" fill="white"/>
</g>
<g opacity="0.2">
<path d="M229.519 109.719H223.199C222.261 109.719 221.501 110.479 221.501 111.417V121.258C221.501 122.196 222.261 122.956 223.199 122.956H229.519C230.457 122.956 231.217 122.196 231.217 121.258V111.417C231.217 110.479 230.457 109.719 229.519 109.719Z" fill="white"/>
</g>
<path d="M190.383 116.392L191.547 117.013L191.026 117.888L189.852 117.193L189.871 118.485H188.877V117.184L187.703 117.888L187.191 117.013L188.352 116.392L187.191 115.752L187.703 114.876L188.877 115.581V114.28H189.88L189.861 115.581L191.035 114.876L191.557 115.752L190.383 116.392Z" fill="#120F6C"/>
<path d="M221.243 131.083H198.755C196.52 131.083 194.708 132.894 194.708 135.129V135.952C194.708 138.186 196.52 139.998 198.755 139.998H221.243C223.478 139.998 225.289 138.186 225.289 135.952V135.129C225.289 132.894 223.478 131.083 221.243 131.083Z" fill="#120F6C"/>
<path d="M201.453 135.331C201.47 135.06 201.566 134.801 201.728 134.584C201.891 134.367 202.114 134.203 202.369 134.112C202.625 134.021 202.901 134.006 203.164 134.071C203.427 134.135 203.666 134.275 203.851 134.474L203.478 134.818C203.402 134.727 203.307 134.654 203.2 134.603C203.092 134.553 202.975 134.527 202.857 134.526C202.644 134.526 202.439 134.611 202.288 134.762C202.137 134.913 202.053 135.117 202.053 135.331C202.053 135.544 202.137 135.749 202.288 135.899C202.439 136.05 202.644 136.135 202.857 136.135C202.977 136.133 203.095 136.104 203.202 136.05C203.31 135.996 203.404 135.919 203.478 135.824L203.851 136.169C203.667 136.369 203.429 136.51 203.166 136.576C202.903 136.641 202.626 136.628 202.37 136.537C202.115 136.446 201.892 136.282 201.728 136.066C201.565 135.849 201.47 135.589 201.453 135.318V135.331Z" fill="white"/>
<path d="M203.99 135.62C203.977 135.406 204.027 135.194 204.136 135.01C204.244 134.826 204.405 134.679 204.598 134.588C204.791 134.497 205.007 134.466 205.218 134.499C205.429 134.532 205.625 134.628 205.781 134.774C205.937 134.919 206.045 135.109 206.092 135.317C206.139 135.525 206.122 135.743 206.044 135.941C205.966 136.14 205.83 136.311 205.654 136.431C205.477 136.551 205.269 136.616 205.055 136.616C204.919 136.626 204.782 136.607 204.653 136.561C204.524 136.515 204.406 136.443 204.306 136.35C204.206 136.256 204.126 136.143 204.072 136.017C204.018 135.892 203.99 135.756 203.99 135.62ZM205.543 135.62C205.535 135.523 205.499 135.431 205.44 135.355C205.38 135.278 205.3 135.221 205.208 135.19C205.117 135.158 205.018 135.155 204.924 135.179C204.831 135.203 204.746 135.253 204.681 135.325C204.616 135.396 204.573 135.485 204.557 135.581C204.542 135.676 204.555 135.774 204.594 135.862C204.633 135.951 204.698 136.026 204.779 136.078C204.861 136.13 204.955 136.158 205.052 136.157C205.121 136.158 205.19 136.145 205.253 136.117C205.316 136.09 205.373 136.05 205.42 135.999C205.467 135.948 205.502 135.888 205.524 135.823C205.545 135.757 205.553 135.688 205.546 135.62H205.543Z" fill="white"/>
<path d="M208.462 135.48V136.585H207.903V135.561C207.903 135.25 207.757 135.104 207.512 135.104C207.266 135.104 207.046 135.269 207.046 135.626V136.579H206.487V134.648H207.021V134.874C207.104 134.79 207.204 134.723 207.314 134.68C207.424 134.636 207.542 134.615 207.661 134.62C207.773 134.612 207.886 134.63 207.99 134.671C208.095 134.713 208.189 134.777 208.266 134.859C208.342 134.942 208.4 135.04 208.434 135.147C208.468 135.255 208.477 135.368 208.462 135.48Z" fill="white"/>
<path d="M210.213 136.492C210.077 136.579 209.918 136.623 209.757 136.616C209.661 136.63 209.564 136.621 209.472 136.591C209.38 136.561 209.297 136.511 209.227 136.444C209.158 136.377 209.105 136.295 209.072 136.204C209.038 136.114 209.026 136.017 209.036 135.921V135.129H208.726V134.697H209.036V134.228H209.595V134.697H210.076V135.129H209.595V135.915C209.591 135.948 209.594 135.982 209.605 136.014C209.615 136.046 209.633 136.075 209.656 136.099C209.679 136.124 209.707 136.143 209.739 136.155C209.77 136.167 209.804 136.172 209.837 136.169C209.919 136.17 209.998 136.145 210.064 136.098L210.213 136.492Z" fill="white"/>
<path d="M210.462 134.073C210.461 134.029 210.47 133.985 210.488 133.945C210.506 133.905 210.532 133.869 210.565 133.839C210.598 133.81 210.637 133.788 210.679 133.775C210.721 133.761 210.766 133.757 210.809 133.763C210.853 133.757 210.898 133.761 210.94 133.775C210.982 133.788 211.021 133.81 211.053 133.839C211.086 133.869 211.113 133.905 211.13 133.945C211.148 133.985 211.157 134.029 211.157 134.073C211.146 134.157 211.104 134.235 211.04 134.291C210.976 134.347 210.894 134.377 210.809 134.377C210.724 134.377 210.642 134.347 210.578 134.291C210.514 134.235 210.473 134.157 210.462 134.073ZM210.53 134.654H211.089V136.585H210.53V134.654Z" fill="white"/>
<path d="M213.585 135.48V136.585H213.026V135.561C213.026 135.25 212.881 135.104 212.635 135.104C212.39 135.104 212.169 135.269 212.169 135.626V136.579H211.61V134.648H212.145V134.874C212.229 134.791 212.33 134.726 212.44 134.684C212.551 134.642 212.669 134.623 212.787 134.629C212.899 134.622 213.01 134.64 213.113 134.681C213.217 134.722 213.31 134.786 213.386 134.867C213.463 134.948 213.52 135.045 213.554 135.151C213.589 135.257 213.599 135.369 213.585 135.48Z" fill="white"/>
<path d="M216.039 134.654V136.585H215.508V136.355C215.432 136.44 215.34 136.507 215.237 136.552C215.133 136.597 215.021 136.619 214.908 136.616C214.794 136.626 214.678 136.609 214.571 136.568C214.463 136.527 214.366 136.463 214.287 136.379C214.208 136.296 214.148 136.196 214.113 136.086C214.077 135.977 214.067 135.861 214.082 135.747V134.654H214.65V135.663C214.65 135.974 214.793 136.132 215.042 136.132C215.29 136.132 215.489 135.964 215.489 135.61V134.654H216.039Z" fill="white"/>
<path d="M218.442 135.778H216.979C217.009 135.899 217.081 136.005 217.183 136.076C217.285 136.147 217.409 136.179 217.532 136.166C217.621 136.169 217.71 136.154 217.793 136.122C217.877 136.09 217.953 136.042 218.017 135.98L218.327 136.29C218.176 136.436 217.987 136.536 217.781 136.58C217.576 136.623 217.363 136.609 217.165 136.538C216.968 136.467 216.794 136.342 216.663 136.178C216.533 136.013 216.451 135.816 216.427 135.607C216.428 135.475 216.455 135.345 216.507 135.224C216.559 135.103 216.634 134.994 216.729 134.903C216.824 134.812 216.937 134.74 217.06 134.693C217.183 134.646 217.314 134.624 217.445 134.629C217.579 134.622 217.713 134.643 217.838 134.691C217.963 134.739 218.077 134.812 218.171 134.907C218.266 135.001 218.34 135.115 218.388 135.24C218.437 135.364 218.458 135.498 218.451 135.632C218.451 135.672 218.445 135.731 218.442 135.778ZM216.973 135.467H217.924C217.91 135.353 217.853 135.247 217.765 135.173C217.677 135.098 217.564 135.059 217.448 135.064C217.335 135.057 217.223 135.093 217.135 135.165C217.047 135.237 216.989 135.339 216.973 135.452V135.467Z" fill="white"/>
<path d="M210.763 79.6968C210.763 79.9683 210.682 80.2338 210.531 80.4596C210.38 80.6854 210.166 80.8613 209.915 80.9651C209.664 81.0689 209.388 81.0959 209.121 81.0427C208.855 80.9895 208.611 80.8584 208.419 80.6662C208.227 80.4739 208.096 80.2291 208.044 79.9626C207.991 79.6962 208.019 79.4201 208.123 79.1694C208.228 78.9186 208.404 78.7045 208.63 78.554C208.856 78.4036 209.122 78.3236 209.393 78.3242C209.574 78.3242 209.752 78.3597 209.918 78.4288C210.085 78.4978 210.236 78.5989 210.363 78.7264C210.49 78.8539 210.591 79.0052 210.66 79.1717C210.728 79.3382 210.763 79.5167 210.763 79.6968Z" fill="#263238"/>
<path d="M261.133 87.255V85.9383C261.132 85.9029 261.137 85.8674 261.149 85.834C261.161 85.8006 261.18 85.7698 261.204 85.7436C261.228 85.7173 261.256 85.6961 261.289 85.681C261.321 85.6659 261.356 85.6574 261.391 85.6558H263.369C263.405 85.6574 263.439 85.6659 263.472 85.681C263.504 85.6961 263.533 85.7173 263.557 85.7436C263.581 85.7698 263.599 85.8006 263.611 85.834C263.623 85.8674 263.629 85.9029 263.627 85.9383V87.255C263.629 87.2905 263.623 87.3259 263.611 87.3593C263.599 87.3928 263.581 87.4235 263.557 87.4497C263.533 87.476 263.504 87.4972 263.472 87.5123C263.439 87.5274 263.405 87.536 263.369 87.5376H261.391C261.356 87.536 261.321 87.5274 261.289 87.5123C261.256 87.4972 261.228 87.476 261.204 87.4497C261.18 87.4235 261.161 87.3928 261.149 87.3593C261.137 87.3259 261.132 87.2905 261.133 87.255Z" fill="#263238"/>
<path d="M264.884 87.9847H260.978C260.886 87.9839 260.797 87.9465 260.732 87.8808C260.667 87.8151 260.63 87.7263 260.63 87.6338V85.4818C260.63 85.4362 260.639 85.3909 260.657 85.3487C260.674 85.3065 260.7 85.2682 260.732 85.2359C260.764 85.2036 260.803 85.178 260.845 85.1605C260.887 85.143 260.932 85.134 260.978 85.134H264.829C264.911 85.134 264.99 85.1667 265.048 85.225C265.106 85.2832 265.139 85.3622 265.139 85.4446V85.842C265.139 85.8552 265.144 85.8678 265.154 85.8772C265.163 85.8865 265.176 85.8917 265.189 85.8917H265.611C265.666 85.8917 265.719 85.9136 265.758 85.9527C265.797 85.9917 265.819 86.0446 265.819 86.0998V86.8078C265.819 86.8761 265.792 86.9417 265.744 86.99C265.695 87.0384 265.63 87.0655 265.561 87.0655H265.251C265.237 87.0655 265.223 87.0711 265.214 87.081C265.204 87.0909 265.198 87.1043 265.198 87.1183V87.6679C265.199 87.7095 265.191 87.7508 265.176 87.7894C265.161 87.828 265.138 87.8631 265.108 87.8927C265.079 87.9222 265.044 87.9456 265.006 87.9614C264.967 87.9772 264.926 87.9851 264.884 87.9847ZM260.978 85.2893C260.927 85.2893 260.878 85.3096 260.842 85.3457C260.806 85.3818 260.786 85.4308 260.786 85.4818V87.6338C260.786 87.6851 260.806 87.7344 260.842 87.771C260.878 87.8076 260.927 87.8286 260.978 87.8294H264.884C264.928 87.8286 264.969 87.8109 264.999 87.7801C265.029 87.7493 265.046 87.7079 265.046 87.6648V87.1183C265.046 87.0631 265.068 87.0102 265.107 86.9712C265.146 86.9322 265.199 86.9102 265.254 86.9102H265.565C265.592 86.9102 265.618 86.8995 265.637 86.8802C265.656 86.861 265.667 86.835 265.667 86.8078V86.106C265.666 86.0922 265.66 86.0792 265.651 86.0695C265.641 86.0597 265.628 86.0539 265.614 86.0532H265.192C265.138 86.0524 265.086 86.0305 265.048 85.9923C265.01 85.954 264.988 85.9024 264.987 85.8482V85.4508C264.987 85.4293 264.983 85.408 264.974 85.3883C264.966 85.3685 264.954 85.3505 264.939 85.3355C264.923 85.3204 264.905 85.3086 264.885 85.3007C264.865 85.2928 264.844 85.2889 264.822 85.2893H260.978Z" fill="#263238"/>
<path d="M127.728 126.802C127.493 126.097 127.049 125.481 126.455 125.035C125.862 124.588 125.147 124.332 124.405 124.3C124.79 123.22 124.051 121.974 123.001 121.519C122.463 121.324 121.889 121.245 121.318 121.287C120.747 121.328 120.191 121.489 119.686 121.76C118.956 122.105 118.274 122.586 117.5 122.765C116.463 123.002 115.392 122.674 114.334 122.639C113.248 122.618 112.177 122.896 111.238 123.443C110.3 123.99 109.529 124.784 109.012 125.739C108.658 126.408 108.439 127.147 108.05 127.799C107.735 128.319 107.324 128.774 107.013 129.299C106.58 130.067 106.383 130.946 106.446 131.826C106.51 132.706 106.832 133.547 107.372 134.245L122.28 130.821C122.892 131.244 123.622 131.466 124.367 131.455C125.112 131.444 125.835 131.201 126.435 130.76C127.035 130.318 127.482 129.7 127.714 128.992C127.946 128.284 127.951 127.522 127.728 126.811V126.802Z" fill="#263238"/>
<path d="M162.07 181.692L147.696 180.267L146.865 187.732L163.098 187.167L162.07 181.692Z" fill="#FFBF9D"/>
<path d="M172.99 186.065C172.898 186.195 172.771 186.294 172.623 186.352C172.475 186.41 172.314 186.422 172.159 186.389C172.092 186.371 172.028 186.346 171.966 186.315C171.529 186.1 171.726 185.186 171.726 185.186L169.618 184.495C169.618 184.495 166.522 185.86 165.332 186.905C164.143 187.95 161.747 186.573 161.747 186.573L161.589 181.824L166.137 178.854C166.137 178.854 165.857 179.033 166.238 178.417C166.618 177.8 167.829 178.238 167.829 178.238C168.079 177.936 168.914 177.945 168.914 177.945L172.338 178.898C172.687 178.995 173.01 179.169 173.282 179.407C173.555 179.646 173.77 179.942 173.912 180.275L175.019 182.842C175.019 182.842 175.535 184.648 175.347 185.029C175.267 185.182 175.134 185.3 174.973 185.361C174.811 185.423 174.633 185.423 174.472 185.361C174.472 185.361 174.122 186.437 173.829 186.433C173.533 186.37 173.251 186.253 172.998 186.087L172.99 186.065Z" fill="#FFBF9D"/>
<path d="M166.211 186.284C166.294 186.249 166.373 186.207 166.448 186.157L167.104 185.781C167.927 185.325 168.777 184.918 169.649 184.561H169.596L171.7 185.27L171.638 185.165C171.606 185.342 171.591 185.522 171.595 185.702C171.593 185.899 171.649 186.093 171.757 186.258C171.826 186.342 171.919 186.405 172.023 186.437C172.118 186.479 172.221 186.501 172.325 186.503C172.54 186.503 172.747 186.427 172.911 186.288C172.952 186.254 172.99 186.216 173.025 186.175L173.051 186.144L172.915 186.17L172.981 186.21C173.065 186.263 173.153 186.311 173.243 186.354C173.335 186.4 173.43 186.44 173.528 186.472C173.578 186.492 173.631 186.506 173.685 186.516C173.752 186.535 173.823 186.535 173.891 186.516C173.998 186.456 174.087 186.368 174.149 186.262C174.205 186.172 174.257 186.079 174.302 185.982C174.392 185.79 174.471 185.593 174.538 185.392L174.398 185.458C174.539 185.513 174.693 185.529 174.842 185.504C174.992 185.478 175.131 185.412 175.246 185.313C175.365 185.206 175.442 185.06 175.465 184.902C175.481 184.757 175.481 184.61 175.465 184.465C175.388 183.908 175.271 183.357 175.115 182.816L174.525 181.447L174.153 180.573C174.038 180.274 173.892 179.988 173.716 179.72C173.529 179.46 173.291 179.241 173.016 179.077C172.742 178.926 172.448 178.817 172.141 178.754L168.91 177.879H168.883C168.682 177.881 168.482 177.902 168.284 177.94C168.073 177.968 167.877 178.063 167.725 178.211H167.851C167.687 178.102 167.498 178.034 167.301 178.014C167.105 177.995 166.906 178.023 166.723 178.098C166.398 178.264 166.149 178.549 166.028 178.894L166.063 178.85L162.927 180.883L162.083 181.447C161.982 181.51 161.886 181.58 161.795 181.657C161.905 181.611 162.01 181.554 162.11 181.487L162.984 180.962L166.155 178.994V178.968C166.263 178.669 166.48 178.422 166.762 178.277C166.918 178.217 167.087 178.196 167.252 178.215C167.418 178.234 167.577 178.293 167.716 178.386L167.786 178.43L167.843 178.369C167.965 178.26 168.117 178.19 168.28 178.168C168.463 178.132 168.649 178.115 168.835 178.115L172.058 179.025C172.342 179.084 172.614 179.186 172.867 179.327C173.115 179.477 173.329 179.676 173.497 179.913C173.661 180.166 173.796 180.437 173.899 180.722C174.026 181.01 174.149 181.299 174.275 181.596L174.866 182.965C175.019 183.494 175.135 184.033 175.211 184.579C175.224 184.705 175.224 184.833 175.211 184.959C175.196 185.067 175.143 185.166 175.063 185.239C174.977 185.311 174.874 185.358 174.764 185.377C174.654 185.395 174.541 185.384 174.437 185.344L174.332 185.309L174.297 185.409C174.237 185.603 174.162 185.791 174.074 185.974C174.013 186.142 173.911 186.292 173.777 186.411C173.746 186.415 173.716 186.415 173.685 186.411L173.558 186.376C173.471 186.345 173.383 186.306 173.296 186.267C173.21 186.226 173.127 186.18 173.047 186.131L172.985 186.096L172.85 186.122V186.148C172.821 186.18 172.791 186.209 172.758 186.236C172.636 186.341 172.482 186.401 172.321 186.406C172.24 186.406 172.159 186.39 172.084 186.358C172.012 186.341 171.947 186.3 171.901 186.24C171.757 185.95 171.722 185.618 171.805 185.304V185.221L171.73 185.2L169.622 184.517H169.596H169.57C168.699 184.889 167.855 185.318 167.042 185.803C166.758 185.974 166.544 186.114 166.4 186.214C166.335 186.233 166.272 186.256 166.211 186.284Z" fill="#FF9A6C"/>
<path d="M168.227 179.55C168.559 179.766 168.918 179.936 169.294 180.057C170.21 180.402 171.167 180.625 172.141 180.722L172.036 180.625C172.071 180.809 172.102 180.997 172.15 181.189C172.398 182.275 172.853 183.302 173.488 184.216C173.68 184.489 173.89 184.749 174.118 184.994C174.28 185.169 174.38 185.252 174.393 185.243C174.407 185.235 174.07 184.828 173.624 184.124C173.043 183.205 172.622 182.196 172.377 181.137C172.334 180.953 172.299 180.765 172.268 180.59V180.499H172.181C171.224 180.405 170.28 180.21 169.364 179.917C168.993 179.773 168.613 179.65 168.227 179.55Z" fill="#FF9A6C"/>
<path d="M171.219 182.103C171.318 183.571 171.983 184.942 173.073 185.93C173.13 185.882 172.491 185.156 171.984 184.098C171.477 183.039 171.289 182.09 171.219 182.103Z" fill="#FF9A6C"/>
<path d="M161.279 185.047C161.279 185.047 161.309 185.082 161.379 185.13C161.483 185.199 161.591 185.262 161.703 185.318C162.126 185.524 162.584 185.652 163.054 185.694C163.775 185.759 164.5 185.618 165.144 185.287C165.966 184.866 166.616 184.174 166.985 183.328L166.845 183.394C167.652 183.684 168.496 183.858 169.351 183.91C169.669 183.927 169.987 183.927 170.305 183.91C170.623 183.91 170.939 183.859 171.24 183.756C171.409 183.7 171.551 183.583 171.638 183.428C171.675 183.349 171.696 183.263 171.7 183.175C171.704 183.087 171.69 182.999 171.66 182.917C171.598 182.754 171.474 182.621 171.315 182.55L170.93 182.383C169.911 181.946 168.971 181.627 168.179 181.369C167.388 181.111 166.732 180.931 166.281 180.818C166.049 180.745 165.811 180.696 165.569 180.673C165.793 180.764 166.022 180.842 166.255 180.905C166.692 181.045 167.34 181.251 168.127 181.526C168.914 181.802 169.837 182.152 170.847 182.584L171.227 182.751C171.33 182.799 171.41 182.885 171.45 182.991C171.473 183.045 171.484 183.102 171.484 183.16C171.484 183.217 171.473 183.275 171.45 183.328C171.386 183.434 171.285 183.511 171.166 183.547C170.884 183.638 170.588 183.683 170.291 183.678C169.985 183.678 169.675 183.678 169.36 183.678C168.526 183.626 167.703 183.459 166.915 183.179L166.815 183.144L166.775 183.24C166.424 184.049 165.807 184.712 165.026 185.121C164.415 185.445 163.727 185.596 163.037 185.558C162.585 185.529 162.142 185.426 161.725 185.252C161.436 185.138 161.287 185.047 161.279 185.047Z" fill="#FF9A6C"/>
<path d="M115.445 163.221C113.739 163.183 112.116 162.478 110.924 161.257C109.732 160.037 109.066 158.398 109.069 156.692L108.797 135.041C108.544 129.229 111.622 124.23 117.277 124.134H117.802C123.071 124.357 127.287 128.7 127.492 134.118C127.685 139.16 127.89 144.027 127.75 146.721C127.457 152.301 121.943 152.843 121.943 152.843C121.943 152.843 121.943 154.92 121.943 156.56C121.957 157.423 121.801 158.28 121.482 159.081C121.163 159.882 120.688 160.613 120.085 161.229C119.481 161.846 118.762 162.337 117.968 162.673C117.173 163.01 116.32 163.185 115.458 163.19L115.445 163.221Z" fill="#FFBF9D"/>
<path d="M121.943 152.909C119.428 152.794 117.003 151.942 114.968 150.46C114.968 150.46 116.499 154.728 121.93 154.453L121.943 152.909Z" fill="#FF9A6C"/>
<path d="M125.494 139.099C125.488 139.303 125.405 139.497 125.26 139.642C125.115 139.786 124.92 139.868 124.716 139.873C124.615 139.876 124.516 139.86 124.422 139.824C124.328 139.788 124.242 139.734 124.17 139.665C124.097 139.596 124.039 139.513 123.999 139.421C123.96 139.329 123.938 139.23 123.937 139.129C123.94 138.924 124.022 138.728 124.168 138.583C124.314 138.438 124.51 138.357 124.716 138.355C124.816 138.353 124.915 138.37 125.009 138.405C125.102 138.441 125.188 138.495 125.26 138.565C125.333 138.634 125.391 138.717 125.431 138.808C125.471 138.9 125.492 138.999 125.494 139.099Z" fill="#263238"/>
<path d="M126.242 136.554C126.141 136.654 125.573 136.182 124.738 136.151C123.902 136.121 123.277 136.519 123.189 136.409C123.102 136.3 123.255 136.178 123.526 135.972C123.896 135.732 124.332 135.614 124.772 135.635C125.206 135.648 125.624 135.801 125.962 136.073C126.211 136.318 126.29 136.506 126.242 136.554Z" fill="#263238"/>
<path d="M117.924 139.099C117.921 139.304 117.838 139.499 117.692 139.644C117.547 139.788 117.351 139.871 117.146 139.873C117.046 139.875 116.946 139.856 116.853 139.819C116.76 139.782 116.676 139.727 116.604 139.657C116.532 139.588 116.475 139.504 116.436 139.412C116.397 139.32 116.377 139.221 116.376 139.121C116.38 138.916 116.463 138.72 116.608 138.576C116.754 138.431 116.95 138.349 117.155 138.347C117.255 138.344 117.355 138.362 117.448 138.399C117.541 138.436 117.626 138.491 117.698 138.561C117.77 138.631 117.827 138.714 117.865 138.807C117.904 138.899 117.924 138.999 117.924 139.099Z" fill="#263238"/>
<path d="M118.064 136.405C117.963 136.506 117.391 136.033 116.56 136.003C115.729 135.972 115.099 136.37 115.012 136.261C114.924 136.151 115.073 136.029 115.348 135.823C115.718 135.583 116.154 135.466 116.595 135.487C117.028 135.5 117.445 135.654 117.784 135.924C118.029 136.169 118.112 136.361 118.064 136.405Z" fill="#263238"/>
<path d="M120.788 143.122C121.233 143 121.692 142.935 122.153 142.93C122.367 142.93 122.59 142.881 122.612 142.733C122.638 142.507 122.597 142.279 122.494 142.077C122.315 141.539 122.127 140.975 121.934 140.384C121.151 137.971 120.622 136.011 120.692 135.963C120.762 135.915 121.497 137.857 122.275 140.271C122.463 140.865 122.643 141.43 122.809 141.972C122.937 142.245 122.965 142.555 122.888 142.846C122.854 142.921 122.804 142.987 122.741 143.039C122.678 143.092 122.604 143.129 122.525 143.148C122.406 143.177 122.284 143.19 122.162 143.188C121.703 143.224 121.242 143.202 120.788 143.122Z" fill="#263238"/>
<path d="M118.44 133.737C118.318 133.952 117.517 133.685 116.533 133.624C115.55 133.562 114.723 133.681 114.631 133.449C114.592 133.339 114.767 133.151 115.121 133.011C115.586 132.814 116.092 132.733 116.595 132.775C117.098 132.804 117.587 132.954 118.02 133.213C118.348 133.418 118.493 133.632 118.44 133.737Z" fill="#263238"/>
<path d="M126.382 134.035C126.202 134.227 125.507 134.004 124.711 133.974C123.915 133.943 123.203 134.065 123.049 133.856C122.98 133.755 123.093 133.563 123.399 133.388C123.822 133.176 124.292 133.078 124.763 133.104C125.235 133.129 125.692 133.276 126.089 133.532C126.369 133.737 126.46 133.943 126.382 134.035Z" fill="#263238"/>
<path d="M109.069 139.191C108.977 139.147 105.387 137.901 105.352 141.718C105.317 145.536 109.051 144.779 109.06 144.679C109.069 144.578 109.069 139.191 109.069 139.191Z" fill="#FFBF9D"/>
<path d="M107.945 143.218C107.945 143.218 107.879 143.266 107.77 143.314C107.693 143.347 107.611 143.363 107.527 143.363C107.444 143.363 107.361 143.347 107.285 143.314C106.895 143.161 106.567 142.519 106.559 141.828C106.55 141.501 106.614 141.177 106.747 140.879C106.781 140.761 106.844 140.653 106.929 140.565C107.015 140.477 107.12 140.41 107.236 140.371C107.312 140.352 107.392 140.36 107.462 140.394C107.532 140.429 107.587 140.487 107.617 140.559C107.669 140.664 107.643 140.743 107.665 140.747C107.687 140.752 107.744 140.686 107.713 140.529C107.696 140.434 107.645 140.348 107.569 140.288C107.521 140.247 107.464 140.216 107.403 140.199C107.342 140.182 107.277 140.178 107.215 140.188C107.06 140.218 106.917 140.287 106.797 140.389C106.678 140.491 106.587 140.622 106.532 140.769C106.372 141.1 106.292 141.464 106.301 141.832C106.301 142.602 106.694 143.328 107.228 143.494C107.327 143.524 107.432 143.53 107.534 143.514C107.636 143.497 107.733 143.457 107.818 143.398C107.936 143.31 107.958 143.227 107.945 143.218Z" fill="#FF9A6C"/>
<path d="M111.736 129.657C111.823 129.169 112.042 128.714 112.368 128.341C112.695 127.968 113.118 127.691 113.59 127.541C114.405 127.267 115.289 127.277 116.096 127.571C118.191 128.332 121.781 129.474 122.695 128.743C124.033 127.694 124.357 126.994 124.357 126.994L125.096 127.799C125.695 127.458 123.893 125.455 122.415 124.764C120.185 123.723 116.778 123.08 114.719 123.679C112.239 124.401 110.179 125.665 108.933 127.987C107.733 130.357 107.168 132.999 107.293 135.653C107.293 136.462 107.166 138.779 107.945 138.959C108.553 139.094 109.327 139.365 109.283 140.529C109.253 140.953 109.391 141.373 109.668 141.696C110.346 142.44 111.177 141.74 111.561 141.04C112.379 139.545 112.471 137.761 112.541 136.046C112.657 134.83 112.579 133.604 112.309 132.412C112.027 131.654 111.826 130.869 111.71 130.068C111.704 129.931 111.713 129.793 111.736 129.657Z" fill="#263238"/>
<path d="M120.933 145.186C120.955 145.243 120.784 145.387 120.439 145.462C119.981 145.553 119.505 145.479 119.096 145.252C118.686 145.029 118.365 144.672 118.187 144.242C118.055 143.914 118.077 143.695 118.139 143.677C118.2 143.66 118.545 144.403 119.328 144.828C120.111 145.252 120.898 145.059 120.933 145.186Z" fill="#263238"/>
<path d="M124.812 196.132L107.048 192.223L95.6303 163.933C95.6303 163.933 80.3727 167.318 77.8582 175.863C75.6717 183.232 71.1849 215.802 81.4004 235.879C82.7021 238.408 84.6775 240.528 87.1084 242.005C89.5393 243.482 92.3311 244.259 95.1755 244.249H172.915C177.655 244.249 182.229 242.503 185.762 239.344C189.296 236.185 191.541 231.834 192.069 227.124C192.507 223.188 192.813 219.458 192.752 217.027L180.271 207.45L124.812 196.132Z" fill="#455A64"/>
<g opacity="0.3">
<path d="M172.303 205.971C177.774 213.117 184.43 219.528 192.389 223.735L192.769 214.035L178.067 203.571L172.303 205.971Z" fill="black"/>
</g>
<path d="M113.63 158.432C113.63 158.948 117.671 160.619 119.494 159.884C122.275 158.773 121.93 156.591 121.93 156.591L123.474 158.218L138.941 181.788L150.438 189.376L132.036 195.205L112.742 173.042L113.63 158.432Z" fill="#F5F5F5"/>
<path d="M108.754 150.521L108.347 151.282L106.511 154.706L98.8708 159.578L114.583 178.255L121.751 195.205L138.937 200.584C138.937 200.584 130.759 188.011 128.218 181.583C125.678 175.155 125.42 175.461 123.102 170.747C121.526 167.425 120.125 164.024 118.904 160.557L108.754 150.521Z" fill="#120F6C"/>
<path d="M145.566 184.172L148.938 187.316L149.891 189.258L137.358 183.428L128.31 170.747C128.31 170.747 125.087 163.597 123.981 161.034C122.813 158.34 121.943 156.814 121.943 156.814V154.689L126.504 158.808L130.313 159.941L136.68 169.999L145.566 184.172Z" fill="#120F6C"/>
<path d="M141.705 172.312C141.705 172.312 140.183 169.067 138.941 166.369C136.142 160.291 129.543 159.713 129.543 159.713L136.838 179.943L145.772 186.28C145.772 186.28 148.317 187.154 148.636 186.28C148.636 186.28 150.495 179.571 150.438 179.545C150.381 179.519 144.079 177.634 144.079 177.634L141.543 171.949" fill="#120F6C"/>
<path d="M155.143 165.997L146.463 180.459L155.554 180.192L163.57 166.793C163.64 166.676 163.678 166.542 163.68 166.405C163.682 166.268 163.647 166.133 163.579 166.014C163.512 165.894 163.414 165.795 163.295 165.726C163.177 165.657 163.042 165.621 162.905 165.621H155.808C155.674 165.621 155.542 165.656 155.426 165.722C155.309 165.788 155.212 165.883 155.143 165.997Z" fill="#263238"/>
<path d="M121.75 182.353L143.48 179.768L147.132 173.37L149.992 171.801C150.229 171.669 150.498 171.609 150.769 171.626C151.039 171.643 151.299 171.737 151.518 171.897L151.789 172.094L153.91 171.827C154.271 171.779 154.638 171.852 154.955 172.032L156.459 172.907C156.568 172.971 156.658 173.061 156.721 173.17C156.784 173.279 156.817 173.402 156.818 173.528C156.818 173.634 156.794 173.738 156.749 173.834C156.704 173.93 156.639 174.014 156.558 174.082C156.476 174.149 156.381 174.198 156.279 174.225C156.176 174.252 156.069 174.256 155.965 174.236L154.505 173.97L152.266 174.7C152.266 174.7 153.709 174.853 153.892 175.946C154.076 177.039 153.346 177.066 153.346 177.066C153.346 177.066 154.863 177.94 153.783 179.252C153.783 179.252 155.051 180.096 153.63 181.697C152.672 182.781 145.759 186.315 145.759 186.315L121.75 195.205V182.353Z" fill="#FFBF9D"/>
<path d="M153.748 179.243C153.748 179.243 153.91 179.243 154.102 179.44C154.228 179.585 154.314 179.759 154.355 179.946C154.395 180.134 154.388 180.328 154.334 180.512C154.144 181.032 153.821 181.493 153.398 181.85C152.926 182.312 152.416 182.733 151.872 183.109C150.879 183.775 149.83 184.353 148.737 184.837C148.299 185.064 147.84 185.25 147.368 185.392C147.789 185.13 148.227 184.896 148.68 184.692C149.739 184.172 150.762 183.581 151.741 182.921C152.277 182.553 152.783 182.144 153.254 181.697C153.66 181.371 153.977 180.948 154.177 180.468C154.232 180.307 154.248 180.134 154.224 179.966C154.2 179.797 154.135 179.636 154.037 179.497C153.953 179.4 153.856 179.314 153.748 179.243Z" fill="#FF9A6C"/>
<path d="M151.71 172.15C151.378 172.355 151.01 172.495 150.626 172.561C150.26 172.698 149.871 172.763 149.48 172.754C149.811 172.547 150.18 172.408 150.565 172.343C150.931 172.206 151.32 172.141 151.71 172.15Z" fill="#FF9A6C"/>
<path d="M154.509 173.952C154.036 174.225 153.529 174.434 153.001 174.573C152.494 174.78 151.961 174.917 151.417 174.98C151.888 174.702 152.396 174.493 152.926 174.359C153.432 174.15 153.965 174.013 154.509 173.952Z" fill="#FF9A6C"/>
<path d="M151.925 176.851C151.859 176.851 151.829 176.655 151.754 176.44C151.68 176.226 151.592 176.06 151.64 176.003C151.689 175.946 151.881 176.09 151.968 176.357C152.056 176.624 151.964 176.86 151.925 176.851Z" fill="#FF9A6C"/>
<path d="M152.646 179.361C152.581 179.361 152.607 179.033 152.515 178.679C152.423 178.325 152.266 178.054 152.314 178.01C152.362 177.966 152.633 178.203 152.751 178.622C152.869 179.042 152.703 179.361 152.646 179.361Z" fill="#FF9A6C"/>
<path d="M99.4829 159.189C98.757 159.626 92.6128 163.824 93.5093 170.698C94.4058 177.573 108.006 193.115 110.844 193.412L121.755 195.205V182.353L116.507 182.055L109.65 168.604L99.4829 159.189Z" fill="#120F6C"/>
<path d="M121.751 181.732C121.622 181.755 121.492 181.767 121.362 181.767L120.259 181.81L116.35 181.898H116.298L116.263 181.854L113.499 178.137C111.85 175.911 110.372 173.886 109.309 172.413L108.063 170.663C107.899 170.454 107.753 170.232 107.626 169.999C107.81 170.188 107.98 170.391 108.133 170.607L109.445 172.312C110.543 173.755 112.069 175.767 113.691 177.997L116.433 181.727L116.346 181.684H120.255H121.357C121.49 181.683 121.622 181.7 121.751 181.732Z" fill="#263238"/>
<path d="M119.1 162.237C119.018 162.113 118.946 161.983 118.886 161.847L118.348 160.719H118.466C118.069 161.296 117.717 161.903 117.412 162.534C117.027 163.374 116.569 164.179 116.044 164.939L115.956 165.062L115.864 164.944C115.156 164.069 114.347 163.146 113.477 162.197C111.574 160.129 109.755 158.336 108.456 157.024L106.921 155.463C106.727 155.28 106.549 155.081 106.388 154.868C106.602 155.029 106.804 155.206 106.991 155.397L108.579 156.902C109.891 158.183 111.749 159.963 113.66 162.031C114.535 162.984 115.34 163.92 116.044 164.799H115.86C116.382 164.05 116.844 163.26 117.242 162.438C117.56 161.805 117.934 161.2 118.357 160.632L118.427 160.536L118.471 160.64C118.667 161.113 118.829 161.493 118.952 161.795C119.02 161.935 119.07 162.084 119.1 162.237Z" fill="#263238"/>
<path d="M126.561 158.948C126.707 159.143 126.818 159.362 126.889 159.595C127.113 160.186 127.304 160.789 127.462 161.401L127.611 161.935L127.269 161.498C126.781 160.892 126.246 160.326 125.669 159.805C125.162 159.342 124.668 158.931 124.217 158.52L124.401 158.45C124.337 159.166 124.316 159.886 124.335 160.605C124.352 160.891 124.315 161.177 124.226 161.449C124.2 161.449 124.226 161.139 124.195 160.61C124.138 159.882 124.138 159.151 124.195 158.423L124.217 158.218L124.379 158.353C124.816 158.734 125.341 159.158 125.853 159.63C126.442 160.162 126.981 160.748 127.462 161.379L127.269 161.471C127.081 160.715 126.928 160.085 126.788 159.652C126.696 159.423 126.62 159.188 126.561 158.948Z" fill="#263238"/>
<path d="M142.343 179.904C142.157 179.758 141.983 179.597 141.823 179.423L140.48 178.05C139.916 177.459 139.247 176.799 138.512 175.981C138.176 175.544 137.878 175.076 137.529 174.617C137.173 174.121 136.869 173.59 136.619 173.034C136.099 171.905 135.705 170.79 135.351 169.78C134.997 168.77 134.686 167.856 134.402 167.104C134.118 166.352 133.855 165.748 133.654 165.355C133.535 165.152 133.43 164.941 133.339 164.725C133.339 164.725 133.387 164.769 133.453 164.865C133.556 165.005 133.651 165.151 133.737 165.302C134.051 165.866 134.327 166.451 134.564 167.051C134.874 167.803 135.202 168.709 135.565 169.715C135.928 170.72 136.326 171.827 136.842 172.942C137.084 173.483 137.377 174 137.717 174.486C138.071 174.953 138.368 175.439 138.687 175.854C139.374 176.637 140.061 177.345 140.598 177.94L141.888 179.361C142.055 179.529 142.207 179.71 142.343 179.904Z" fill="#263238"/>
<path d="M148.649 187.159L189.896 186C190.549 185.983 191.199 186.103 191.803 186.354C193.303 186.992 196.001 188.632 197.851 192.559C200.531 198.244 213.038 222.296 213.038 222.296L200.391 228.777L184.88 200.002L137.056 195.935L137.612 192.113L148.649 187.159Z" fill="#263238"/>
<path d="M196.635 223.709L203.225 235.022L203.662 237.882C203.726 238.298 203.871 238.697 204.089 239.057C204.307 239.417 204.593 239.73 204.932 239.979C205.272 240.228 205.656 240.408 206.065 240.508C206.474 240.608 206.898 240.626 207.314 240.562L227.373 237.501C227.61 237.47 227.837 237.384 228.035 237.251C228.234 237.118 228.4 236.942 228.519 236.734C228.639 236.527 228.709 236.296 228.725 236.057C228.741 235.819 228.702 235.58 228.611 235.358C228.524 235.163 228.393 234.99 228.227 234.855C228.062 234.72 227.866 234.625 227.657 234.58C225.978 234.143 213.034 229.398 213.034 229.398L207.638 218.57L196.635 223.709Z" fill="#E0E0E0"/>
<path d="M202.158 226.328C201.607 225.77 201.111 225.161 200.676 224.509C200.174 223.903 199.735 223.248 199.364 222.554C199.912 223.113 200.407 223.722 200.842 224.373C201.343 224.98 201.784 225.635 202.158 226.328Z" fill="#263238"/>
<path d="M206.094 224.745C205.541 224.182 205.075 223.539 204.712 222.838C204.284 222.175 203.954 221.453 203.732 220.696C203.794 220.665 204.257 221.61 204.909 222.725C205.56 223.84 206.151 224.706 206.094 224.745Z" fill="#263238"/>
<path d="M208.844 240.199C208.801 240.199 208.696 239.81 208.407 239.22C208.021 238.454 207.471 237.783 206.796 237.254C206.121 236.725 205.338 236.351 204.502 236.159C203.859 236.006 203.444 236.001 203.444 235.958C203.805 235.875 204.18 235.875 204.541 235.958C205.425 236.106 206.258 236.475 206.963 237.028C207.669 237.582 208.224 238.304 208.578 239.128C208.743 239.462 208.834 239.827 208.844 240.199Z" fill="#263238"/>
<path d="M222.362 238.253C222.195 238.034 222.086 237.777 222.042 237.506C221.884 236.853 221.918 236.168 222.139 235.533C222.366 234.911 222.722 234.343 223.184 233.867C223.354 233.653 223.565 233.475 223.805 233.343C223.831 233.373 223.625 233.605 223.324 233.99C222.929 234.481 222.613 235.032 222.388 235.621C222.186 236.214 222.131 236.847 222.226 237.466C222.291 237.725 222.337 237.988 222.362 238.253Z" fill="#263238"/>
<path d="M136.02 192.787C136.02 192.787 178.583 188.519 180.651 188.689C184.469 189.004 191.509 195.026 204.003 203.413C210.477 207.812 216.484 212.86 221.933 218.479L217.94 227.592C217.94 227.592 189.953 217.39 185.558 213.721C181.911 210.66 175.255 206.33 175.255 206.33L158.838 206.496L146.633 207.572C143.623 207.839 140.593 207.34 137.827 206.122C135.061 204.904 132.648 203.006 130.811 200.606L126.075 194.418L136.02 192.787Z" fill="#263238"/>
<path d="M175.05 206.203C175.05 206.203 175.119 206.243 175.246 206.33L175.819 206.724L178.028 208.276C179.947 209.645 182.764 211.613 186.218 214.224C186.437 214.385 186.656 214.573 186.874 214.718L187.578 215.155C188.086 215.409 188.593 215.689 189.131 215.938L190.775 216.703L192.524 217.468C194.889 218.492 197.438 219.559 200.173 220.669C205.63 222.887 211.753 225.296 218.36 227.837L218.216 227.903L221.832 218.719L221.859 218.85L216.891 213.786C215.723 212.776 214.473 211.7 213.196 210.638C205.579 204.361 197.613 198.521 189.336 193.145C188.216 192.186 187.006 191.335 185.724 190.605C184.507 189.896 183.211 189.332 181.863 188.925C181.53 188.838 181.198 188.768 180.87 188.685L179.877 188.532L178.885 188.479H174.074L161.222 188.453L152.878 188.418H150.692H150.123C150.059 188.422 149.995 188.422 149.931 188.418H150.123H150.692H152.878L161.222 188.388L174.074 188.361H178.885L179.895 188.409L180.909 188.562C181.242 188.646 181.578 188.716 181.915 188.807C183.281 189.213 184.593 189.779 185.825 190.495C187.123 191.23 188.348 192.088 189.481 193.058C197.774 198.426 205.752 204.266 213.375 210.55C214.656 211.613 215.907 212.689 217.075 213.703L222.042 218.772L222.095 218.828L222.069 218.903L218.439 228.086L218.4 228.191L218.295 228.152C211.687 225.602 205.565 223.18 200.111 220.949C197.387 219.834 194.833 218.763 192.472 217.726L190.723 216.952L189.061 216.095C188.527 215.837 188.016 215.557 187.508 215.299L186.787 214.862C186.551 214.718 186.349 214.53 186.131 214.368C182.694 211.744 179.886 209.754 177.984 208.364L175.797 206.785L175.238 206.374C175.102 206.256 175.05 206.203 175.05 206.203Z" fill="#455A64"/>
<path d="M208.888 225.279L220.695 229.918L222.659 232.044C222.945 232.353 223.289 232.602 223.671 232.778C224.054 232.955 224.467 233.053 224.888 233.07C225.309 233.086 225.728 233.019 226.123 232.873C226.518 232.727 226.88 232.505 227.189 232.219L242.084 218.435C242.262 218.276 242.402 218.078 242.492 217.856C242.582 217.634 242.62 217.395 242.603 217.157C242.586 216.918 242.515 216.686 242.394 216.48C242.274 216.273 242.108 216.097 241.909 215.964C241.728 215.851 241.523 215.783 241.31 215.764C241.097 215.745 240.883 215.776 240.685 215.855C239.054 216.441 225.668 219.751 225.668 219.751L216.69 212.597L208.888 225.279Z" fill="#E0E0E0"/>
<path d="M208.888 225.279C208.888 225.279 208.928 225.204 209.015 225.056L209.413 224.4C209.767 223.809 210.288 222.957 210.948 221.863C212.295 219.646 214.236 216.463 216.633 212.553L216.681 212.47L216.76 212.531L225.738 219.668H225.646L233.631 217.656L237.851 216.559C238.564 216.366 239.285 216.178 240.002 215.968L240.536 215.802C240.721 215.731 240.916 215.685 241.113 215.667C241.319 215.658 241.525 215.693 241.717 215.768C241.909 215.843 242.083 215.958 242.228 216.104C242.513 216.389 242.686 216.766 242.715 217.167C242.745 217.569 242.63 217.967 242.39 218.291C242.271 218.449 242.136 218.595 241.988 218.728L241.581 219.104L240.772 219.852L237.597 222.786L231.593 228.331L228.799 230.911L227.461 232.149C227.243 232.359 227.006 232.548 226.752 232.713C226.13 233.095 225.398 233.259 224.672 233.18C223.946 233.101 223.267 232.783 222.742 232.276C221.99 231.493 221.308 230.727 220.639 230.006H220.669C217.026 228.554 214.079 227.382 212.028 226.56L209.702 225.62L209.098 225.375L208.901 225.292C208.901 225.292 208.98 225.314 209.124 225.37L209.741 225.602L212.102 226.512L220.726 229.857C221.399 230.574 222.095 231.344 222.829 232.109C223.224 232.486 223.71 232.752 224.24 232.881C224.769 233.011 225.323 233 225.847 232.848C226.12 232.77 226.38 232.653 226.621 232.503C226.863 232.344 227.089 232.161 227.294 231.956C227.732 231.55 228.169 231.134 228.633 230.719C229.536 229.879 230.466 229.016 231.423 228.13C233.329 226.381 235.336 224.5 237.418 222.576C238.456 221.611 239.513 220.632 240.588 219.637L241.397 218.89C241.672 218.652 241.932 218.398 242.176 218.129C242.384 217.849 242.486 217.504 242.462 217.155C242.438 216.807 242.29 216.479 242.045 216.231C241.92 216.108 241.772 216.013 241.608 215.951C241.445 215.889 241.27 215.862 241.096 215.872C240.919 215.89 240.745 215.933 240.58 215.999L240.033 216.165C239.312 216.375 238.594 216.563 237.877 216.756L233.653 217.849L225.668 219.847H225.615L225.576 219.817L216.646 212.662H216.773L211.048 221.872L209.461 224.404L209.024 225.064C208.945 225.196 208.888 225.279 208.888 225.279Z" fill="#263238"/>
<path d="M228.239 231.06C228.208 231.09 227.898 230.819 227.316 230.5C226.568 230.08 225.736 229.831 224.881 229.77C224.025 229.709 223.166 229.837 222.366 230.146C221.749 230.378 221.399 230.605 221.373 230.583C221.634 230.32 221.949 230.115 222.296 229.984C223.111 229.613 224.007 229.452 224.901 229.516C225.795 229.58 226.658 229.867 227.412 230.351C227.738 230.522 228.02 230.765 228.239 231.06Z" fill="#263238"/>
<path d="M238.349 221.881C238.09 221.79 237.855 221.64 237.663 221.443C237.168 220.99 236.815 220.404 236.644 219.755C236.484 219.111 236.46 218.441 236.574 217.788C236.594 217.516 236.67 217.251 236.797 217.009C236.819 217.276 236.807 217.545 236.762 217.809C236.705 218.438 236.751 219.072 236.898 219.685C237.063 220.291 237.372 220.848 237.798 221.308C238.126 221.658 238.376 221.841 238.349 221.881Z" fill="#263238"/>
<path d="M167.812 206.208C166.898 201.874 165.031 197.44 161.335 195.004C158.532 193.15 155.064 192.695 151.715 192.284L81.9819 183.708C81.3566 194.698 86.062 208.377 90.8636 218.286C91.607 219.825 92.4685 221.4 93.8941 222.34C95.6433 223.486 97.8648 223.473 99.9464 223.42C123.408 222.821 146.878 221.824 170.208 219.257C168.896 215.028 168.721 210.537 167.812 206.208Z" fill="#455A64"/>
<path d="M107.639 186.861C107.364 186.865 107.089 186.847 106.817 186.809L104.586 186.568C102.706 186.35 100.113 186.03 97.2527 185.637C94.3927 185.243 91.8038 184.845 89.9409 184.517C89.0051 184.351 88.2529 184.216 87.7544 184.08C87.483 184.035 87.2155 183.969 86.9541 183.883C87.2288 183.896 87.5022 183.93 87.7719 183.984L89.9846 184.325C91.8563 184.605 94.4408 184.977 97.3008 185.37L104.626 186.372L106.847 186.691C107.115 186.727 107.38 186.784 107.639 186.861Z" fill="#263238"/>
<path d="M107.997 244.227C107.97 244.184 107.946 244.139 107.927 244.092C107.875 243.991 107.814 243.855 107.735 243.689L107.027 242.128L106.515 241.022C106.34 240.584 106.169 240.147 105.973 239.648C105.597 238.665 105.124 237.554 104.722 236.281C104.512 235.652 104.285 234.991 104.062 234.3C103.839 233.609 103.624 232.875 103.428 232.114C102.99 230.614 102.614 228.978 102.212 227.264C100.589 219.782 100.058 212.105 100.633 204.472C100.795 202.722 100.922 201.052 101.167 199.504C101.285 198.73 101.363 197.978 101.495 197.26C101.626 196.543 101.757 195.861 101.879 195.205C102.102 193.893 102.417 192.726 102.653 191.707C102.78 191.191 102.885 190.714 103.003 190.277C103.121 189.839 103.248 189.446 103.353 189.087C103.559 188.383 103.725 187.832 103.839 187.443L103.974 187.006C103.987 186.956 104.004 186.907 104.027 186.861C104.023 186.912 104.013 186.962 103.996 187.01L103.887 187.447L103.449 189.1L103.121 190.294C103.012 190.731 102.911 191.217 102.793 191.729C102.566 192.761 102.264 193.915 102.054 195.227C101.941 195.879 101.814 196.565 101.687 197.278C101.56 197.991 101.486 198.743 101.377 199.517C101.136 201.061 101.018 202.727 100.861 204.476C100.32 212.092 100.85 219.747 102.435 227.216C102.833 228.926 103.178 230.561 103.629 232.057C103.843 232.809 104.022 233.539 104.245 234.243C104.468 234.947 104.683 235.595 104.892 236.224C105.282 237.497 105.741 238.608 106.104 239.6C106.296 240.095 106.458 240.558 106.629 240.978L107.118 242.111L107.783 243.689L107.954 244.105C107.972 244.144 107.987 244.185 107.997 244.227Z" fill="#263238"/>
<path d="M107.258 222.069C106.346 222.152 105.428 222.152 104.516 222.069C103.598 222.068 102.682 221.985 101.779 221.82C102.692 221.739 103.611 221.739 104.525 221.82C105.442 221.822 106.356 221.906 107.258 222.069Z" fill="#263238"/>
<path d="M106.624 225.279C105.65 225.193 104.698 224.943 103.808 224.54C102.887 224.211 102.029 223.728 101.271 223.11C101.311 223.048 102.422 223.717 103.895 224.312C105.369 224.907 106.637 225.182 106.624 225.279Z" fill="#263238"/>
<path d="M100.515 203.361C99.9699 203.703 99.3436 203.895 98.7002 203.916C98.0641 204.015 97.413 203.948 96.811 203.719C96.811 203.645 97.655 203.772 98.6783 203.671C99.7016 203.571 100.489 203.295 100.515 203.361Z" fill="#263238"/>
<path d="M101.91 202.311C101.233 202.453 100.528 202.363 99.9071 202.058C99.2545 201.827 98.6995 201.381 98.3328 200.794C98.8553 201.192 99.4147 201.539 100.003 201.83C101 202.263 101.91 202.233 101.91 202.311Z" fill="#263238"/>
<path d="M126.465 127.392C126.291 126.939 126.011 126.534 125.648 126.211C125.285 125.888 124.85 125.658 124.379 125.538C123.432 125.303 122.438 125.34 121.51 125.643L112.449 127.716C113.761 128.59 116.459 129.412 118.007 129.579C120.268 129.819 121.86 129.841 123.207 129.063C123.295 129.286 123.429 129.488 123.6 129.656C123.772 129.824 123.977 129.953 124.202 130.036C124.427 130.118 124.667 130.152 124.907 130.135C125.146 130.118 125.379 130.051 125.59 129.937C125.999 129.671 126.307 129.276 126.466 128.815C126.624 128.354 126.624 127.853 126.465 127.392Z" fill="#263238"/>
<path d="M216.991 222.445C215.15 222.063 213.38 221.396 211.744 220.468C211.77 220.407 212.924 220.906 214.368 221.448C215.811 221.99 217.009 222.384 216.991 222.445Z" fill="#263238"/>
<path d="M218.986 218.57C218.193 218.244 217.418 217.878 216.663 217.473C215.876 217.138 215.106 216.761 214.359 216.344C215.195 216.553 216.003 216.862 216.764 217.267C217.557 217.605 218.304 218.043 218.986 218.57Z" fill="#263238"/>
<path d="M146.813 191.129L165.079 191.352L187.137 186.979C187.483 186.907 187.799 186.731 188.044 186.475C188.288 186.219 188.449 185.895 188.505 185.545L191.505 165.683C191.539 165.455 191.519 165.222 191.446 165.003C191.373 164.785 191.249 164.586 191.085 164.424C190.921 164.262 190.721 164.141 190.502 164.071C190.282 164.001 190.049 163.984 189.822 164.021L167.279 167.69C166.966 167.741 166.679 167.892 166.459 168.119C166.239 168.347 166.099 168.64 166.059 168.954L163.544 189.153L146.839 189.07C146.566 189.07 146.304 189.178 146.111 189.37C145.917 189.563 145.808 189.824 145.807 190.097C145.806 190.367 145.91 190.626 146.099 190.819C146.287 191.012 146.543 191.124 146.813 191.129Z" fill="#E0E0E0"/>
<path d="M146.813 191.129C146.695 191.138 146.576 191.119 146.467 191.073C146.302 191.013 146.154 190.912 146.039 190.78C145.923 190.648 145.843 190.488 145.807 190.316C145.777 190.175 145.777 190.03 145.805 189.889C145.834 189.748 145.89 189.614 145.972 189.496C146.054 189.378 146.159 189.277 146.281 189.201C146.403 189.125 146.539 189.074 146.681 189.052C147.351 189.026 148.107 189.052 148.973 189.052L163.54 189.087L163.461 189.157C164.178 183.345 165.031 176.475 165.971 168.831C166.026 168.576 166.142 168.338 166.311 168.139C166.48 167.94 166.695 167.786 166.937 167.69C167.176 167.613 167.423 167.562 167.672 167.537L168.398 167.414L171.341 166.938L177.407 165.945L183.691 164.93L186.9 164.41L188.523 164.143L189.336 164.012C189.615 163.952 189.899 163.921 190.185 163.92C190.497 163.947 190.794 164.066 191.039 164.261C191.284 164.456 191.466 164.72 191.562 165.018C191.645 165.313 191.654 165.624 191.588 165.923L191.457 166.772C191.288 167.903 191.119 169.027 190.95 170.143C190.613 172.369 190.281 174.569 189.953 176.725C189.625 178.881 189.306 180.993 188.995 183.066L188.759 184.605C188.72 184.863 188.685 185.116 188.645 185.37C188.62 185.639 188.548 185.901 188.431 186.144C188.308 186.385 188.134 186.596 187.92 186.762C187.706 186.927 187.458 187.044 187.193 187.102L185.715 187.395L165.096 191.453L151.706 191.256L148.09 191.191L147.114 191.169H148.055L151.675 191.191L165.066 191.317L185.676 187.207L187.15 186.909C187.383 186.859 187.602 186.757 187.792 186.611C187.981 186.465 188.135 186.278 188.243 186.065C188.349 185.843 188.413 185.603 188.431 185.357L188.549 184.592C188.623 184.08 188.702 183.564 188.781 183.048L189.734 176.707C190.058 174.553 190.389 172.366 190.727 170.148C190.893 169.034 191.062 167.91 191.234 166.776L191.361 165.928C191.429 165.665 191.429 165.39 191.361 165.127C191.28 164.872 191.125 164.646 190.915 164.479C190.706 164.311 190.452 164.21 190.185 164.187C189.919 164.189 189.653 164.219 189.393 164.275L188.575 164.41L186.957 164.672L183.743 165.193L177.463 166.216L171.398 167.2L168.455 167.677L167.729 167.795C167.493 167.818 167.26 167.866 167.034 167.939C166.824 168.021 166.638 168.153 166.493 168.325C166.348 168.497 166.248 168.703 166.203 168.923C165.241 176.541 164.375 183.42 163.645 189.227V189.297H163.57L149.004 189.192C148.129 189.192 147.372 189.166 146.721 189.192C146.574 189.213 146.433 189.265 146.309 189.347C146.185 189.429 146.08 189.537 146.004 189.664C145.928 189.79 145.881 189.93 145.865 190.076C145.849 190.221 145.865 190.369 145.912 190.507C145.959 190.646 146.036 190.773 146.137 190.879C146.238 190.985 146.361 191.067 146.498 191.121C146.602 191.136 146.708 191.139 146.813 191.129Z" fill="#263238"/>
<path d="M168.009 168.328C168.07 168.328 167.466 173.607 166.657 180.105C165.848 186.603 165.144 191.864 165.079 191.855C165.013 191.847 165.625 186.577 166.434 180.079C167.243 173.58 167.948 168.32 168.009 168.328Z" fill="#263238"/>
<path d="M177.813 176.528C177.354 177.485 177.608 178.561 178.377 178.933C179.147 179.305 180.126 178.824 180.603 177.866C181.08 176.908 180.809 175.832 180.039 175.465C179.269 175.098 178.272 175.57 177.813 176.528Z" fill="white"/>
<path d="M186.113 134.078H144.053C143.473 134.078 142.917 134.309 142.507 134.719C142.097 135.129 141.867 135.685 141.867 136.265V155.428C141.867 156.008 142.097 156.564 142.507 156.974C142.917 157.384 143.473 157.614 144.053 157.614H161.699L165.446 162.425L168.573 157.614H186.118C186.698 157.614 187.254 157.384 187.664 156.974C188.074 156.564 188.304 156.008 188.304 155.428V136.269C188.305 135.982 188.248 135.696 188.139 135.43C188.029 135.164 187.867 134.922 187.664 134.719C187.46 134.515 187.218 134.354 186.952 134.244C186.686 134.134 186.401 134.078 186.113 134.078Z" fill="white"/>
<path d="M186.113 134.078H186.323C186.528 134.094 186.73 134.139 186.922 134.214C187.238 134.334 187.521 134.525 187.749 134.774C188.069 135.118 188.27 135.557 188.322 136.025C188.361 138.11 188.352 141.145 188.365 144.989C188.365 146.909 188.365 149.034 188.365 151.335C188.365 152.485 188.365 153.683 188.365 154.92C188.379 155.239 188.364 155.558 188.322 155.874C188.258 156.199 188.122 156.505 187.924 156.77C187.724 157.045 187.465 157.271 187.166 157.432C186.867 157.594 186.536 157.686 186.196 157.702H168.547L168.634 157.654L165.512 162.464L165.429 162.591L165.337 162.473L161.585 157.662L161.672 157.706H144.705C144.399 157.706 144.11 157.706 143.786 157.706C143.312 157.652 142.866 157.451 142.51 157.132C142.154 156.814 141.907 156.392 141.801 155.926C141.748 155.625 141.729 155.318 141.744 155.012V154.138C141.744 151.762 141.744 149.429 141.744 147.141V140.358C141.744 139.25 141.744 138.157 141.744 137.078V136.269C141.744 135.848 141.861 135.435 142.081 135.075C142.301 134.716 142.615 134.424 142.99 134.232C143.236 134.104 143.503 134.022 143.778 133.991C144.053 133.965 144.307 133.991 144.569 133.991H149.17H154.986H165.433L180.559 134.026L184.67 134.048L180.559 134.07L165.433 134.105H154.986H144.578C144.32 134.105 144.053 134.105 143.808 134.105C143.559 134.131 143.317 134.206 143.095 134.323C142.756 134.499 142.471 134.764 142.272 135.09C142.073 135.417 141.968 135.791 141.967 136.173V140.262C141.967 142.47 141.967 144.731 141.967 147.027V154.929C141.953 155.222 141.97 155.515 142.02 155.804C142.084 156.082 142.204 156.343 142.373 156.573C142.543 156.802 142.757 156.994 143.004 157.138C143.25 157.283 143.524 157.374 143.808 157.404C144.088 157.431 144.403 157.404 144.683 157.404H161.738L161.768 157.448L165.516 162.258H165.341L168.468 157.448L168.498 157.4H168.555H186.196C186.664 157.379 187.112 157.203 187.469 156.899C187.825 156.594 188.07 156.18 188.164 155.721C188.205 155.415 188.22 155.106 188.208 154.798C188.208 153.56 188.208 152.362 188.208 151.212C188.208 148.912 188.208 146.787 188.208 144.867C188.208 141.027 188.238 137.979 188.208 135.906C188.165 135.515 188.017 135.143 187.78 134.829C187.543 134.515 187.225 134.271 186.861 134.122C186.615 134.072 186.363 134.057 186.113 134.078Z" fill="#263238"/>
<path d="M153.919 138.268H149.729C149.42 138.268 149.17 138.518 149.17 138.828V141.819C149.17 142.128 149.42 142.378 149.729 142.378H153.919C154.228 142.378 154.479 142.128 154.479 141.819V138.828C154.479 138.518 154.228 138.268 153.919 138.268Z" fill="#120F6C"/>
<path d="M149.257 138.377L151.278 140.533C151.386 140.68 151.54 140.786 151.715 140.835C151.825 140.851 151.937 140.839 152.04 140.799C152.144 140.76 152.235 140.693 152.305 140.607C152.673 140.231 153.022 139.842 153.381 139.462C153.74 139.081 154.063 138.74 154.4 138.377C154.407 138.366 154.41 138.353 154.409 138.34C154.408 138.327 154.402 138.315 154.393 138.306C154.383 138.297 154.371 138.291 154.358 138.289C154.345 138.288 154.332 138.291 154.321 138.298L152.393 140.354C152.304 140.469 152.201 140.571 152.087 140.66C151.798 140.844 151.553 140.66 151.361 140.454C150.993 140.07 150.63 139.68 150.267 139.291L149.34 138.298C149.292 138.25 149.213 138.325 149.262 138.377H149.257Z" fill="white"/>
<path d="M149.235 142.352L150.858 140.507L151.085 140.249C151.133 140.196 151.054 140.118 151.011 140.17C150.468 140.787 149.926 141.399 149.388 142.016L149.157 142.274C149.113 142.326 149.187 142.405 149.235 142.352Z" fill="white"/>
<path d="M154.395 142.191L152.878 140.441L152.659 140.188C152.611 140.131 152.537 140.188 152.581 140.262L154.098 142.011C154.172 142.099 154.247 142.182 154.317 142.269C154.387 142.357 154.444 142.243 154.395 142.191Z" fill="white"/>
<path d="M158.397 141.723V140.363L157.728 141.482H157.491L156.827 140.389V141.723H156.333V139.453H156.77L157.61 140.879L158.445 139.466H158.882V141.736L158.397 141.723Z" fill="#263238"/>
<path d="M161.108 140.992H159.796C159.823 141.101 159.888 141.196 159.98 141.261C160.072 141.325 160.183 141.354 160.295 141.342C160.375 141.346 160.455 141.333 160.531 141.305C160.606 141.276 160.674 141.232 160.732 141.176L161.003 141.469C160.91 141.565 160.798 141.64 160.673 141.689C160.549 141.737 160.415 141.757 160.282 141.749C160.156 141.762 160.029 141.748 159.909 141.709C159.789 141.67 159.678 141.606 159.584 141.521C159.491 141.437 159.415 141.334 159.364 141.219C159.312 141.103 159.285 140.979 159.285 140.852C159.281 140.73 159.302 140.609 159.348 140.496C159.394 140.383 159.463 140.28 159.551 140.196C159.638 140.111 159.743 140.045 159.857 140.003C159.972 139.961 160.094 139.943 160.216 139.951C160.337 139.949 160.457 139.971 160.569 140.017C160.68 140.064 160.781 140.132 160.865 140.219C160.949 140.307 161.014 140.41 161.056 140.524C161.098 140.637 161.115 140.758 161.108 140.879C161.108 140.879 161.108 140.953 161.108 140.992ZM159.796 140.699H160.671C160.671 140.583 160.625 140.472 160.543 140.39C160.461 140.308 160.349 140.262 160.233 140.262C160.117 140.262 160.006 140.308 159.924 140.39C159.842 140.472 159.796 140.583 159.796 140.699Z" fill="#263238"/>
<path d="M161.266 141.561L161.436 141.198C161.618 141.308 161.827 141.367 162.04 141.368C162.276 141.368 162.363 141.303 162.363 141.207C162.363 140.922 161.309 141.207 161.309 140.516C161.309 140.188 161.607 139.951 162.114 139.951C162.347 139.948 162.578 140 162.787 140.105L162.617 140.463C162.463 140.377 162.29 140.333 162.114 140.336C161.886 140.336 161.79 140.406 161.79 140.498C161.79 140.795 162.844 140.498 162.844 141.193C162.844 141.517 162.542 141.749 162.022 141.749C161.758 141.755 161.496 141.69 161.266 141.561Z" fill="#263238"/>
<path d="M162.989 141.561L163.155 141.198C163.339 141.308 163.548 141.367 163.763 141.368C163.994 141.368 164.082 141.303 164.082 141.207C164.082 140.922 163.028 141.207 163.028 140.516C163.028 140.188 163.325 139.952 163.837 139.952C164.069 139.947 164.299 140 164.506 140.105L164.34 140.463C164.186 140.378 164.013 140.334 163.837 140.336C163.61 140.336 163.513 140.406 163.513 140.498C163.513 140.796 164.567 140.498 164.567 141.193C164.567 141.517 164.265 141.749 163.741 141.749C163.478 141.755 163.218 141.69 162.989 141.561Z" fill="#263238"/>
<path d="M166.421 140.726V141.723H165.945V141.504C165.887 141.589 165.807 141.657 165.714 141.7C165.621 141.743 165.518 141.76 165.416 141.749C165.004 141.749 164.764 141.522 164.764 141.22C164.764 140.918 164.978 140.699 165.512 140.699H165.918C165.918 140.481 165.787 140.354 165.516 140.354C165.335 140.353 165.159 140.409 165.013 140.516L164.834 140.161C165.058 140.018 165.32 139.945 165.586 139.952C166.111 139.952 166.421 140.201 166.421 140.726ZM165.914 141.163V140.984H165.569C165.332 140.984 165.254 141.071 165.254 141.189C165.254 141.307 165.363 141.399 165.542 141.399C165.621 141.406 165.7 141.388 165.768 141.347C165.835 141.306 165.888 141.245 165.918 141.172L165.914 141.163Z" fill="#263238"/>
<path d="M168.695 139.978V141.43C168.708 141.56 168.69 141.691 168.645 141.814C168.599 141.937 168.527 142.048 168.433 142.139C168.339 142.23 168.226 142.299 168.102 142.34C167.978 142.382 167.846 142.395 167.716 142.379C167.406 142.394 167.1 142.31 166.841 142.138L167.042 141.775C167.222 141.903 167.438 141.972 167.659 141.972C168.018 141.972 168.171 141.81 168.171 141.495V141.421C168.1 141.495 168.014 141.553 167.919 141.591C167.824 141.629 167.722 141.645 167.62 141.64C167.396 141.64 167.181 141.551 167.023 141.392C166.865 141.234 166.776 141.019 166.776 140.796C166.776 140.572 166.865 140.357 167.023 140.199C167.181 140.04 167.396 139.952 167.62 139.952C167.729 139.945 167.837 139.965 167.938 140.008C168.038 140.051 168.127 140.117 168.197 140.201V139.978H168.695ZM168.197 140.796C168.201 140.703 168.177 140.611 168.129 140.533C168.08 140.454 168.008 140.392 167.924 140.354C167.839 140.317 167.745 140.306 167.654 140.323C167.563 140.34 167.479 140.384 167.414 140.449C167.348 140.515 167.304 140.599 167.287 140.69C167.27 140.781 167.281 140.875 167.318 140.96C167.356 141.044 167.418 141.116 167.497 141.165C167.575 141.213 167.667 141.237 167.76 141.233C167.876 141.233 167.987 141.187 168.069 141.105C168.151 141.023 168.197 140.911 168.197 140.796Z" fill="#263238"/>
<path d="M170.864 140.992H169.553C169.579 141.101 169.645 141.196 169.736 141.261C169.828 141.325 169.94 141.354 170.051 141.342C170.131 141.346 170.212 141.334 170.287 141.305C170.362 141.276 170.431 141.232 170.488 141.176L170.759 141.469C170.667 141.565 170.554 141.64 170.43 141.689C170.305 141.737 170.171 141.758 170.038 141.749C169.913 141.761 169.786 141.747 169.667 141.707C169.547 141.668 169.437 141.604 169.344 141.52C169.25 141.435 169.176 141.332 169.124 141.218C169.073 141.103 169.046 140.978 169.045 140.852C169.041 140.731 169.063 140.61 169.108 140.497C169.154 140.384 169.223 140.282 169.31 140.197C169.397 140.113 169.501 140.047 169.615 140.005C169.729 139.962 169.851 139.944 169.972 139.952C170.093 139.947 170.213 139.967 170.325 140.01C170.437 140.054 170.539 140.121 170.625 140.206C170.71 140.29 170.777 140.392 170.821 140.504C170.866 140.616 170.886 140.736 170.882 140.857C170.873 140.879 170.869 140.953 170.864 140.992ZM169.553 140.699H170.427C170.427 140.583 170.381 140.472 170.299 140.39C170.217 140.308 170.106 140.262 169.99 140.262C169.874 140.262 169.763 140.308 169.681 140.39C169.599 140.472 169.553 140.583 169.553 140.699Z" fill="#263238"/>
<path d="M171.039 141.561L171.21 141.198C171.393 141.308 171.603 141.367 171.818 141.368C172.049 141.368 172.137 141.303 172.137 141.207C172.137 140.922 171.083 141.207 171.083 140.516C171.083 140.188 171.38 139.951 171.892 139.951C172.124 139.948 172.354 140 172.561 140.105L172.395 140.463C172.241 140.378 172.068 140.334 171.892 140.336C171.665 140.336 171.564 140.406 171.564 140.498C171.564 140.795 172.618 140.498 172.618 141.193C172.618 141.517 172.321 141.749 171.796 141.749C171.531 141.755 171.27 141.69 171.039 141.561Z" fill="#263238"/>
<path d="M173.742 140.59C173.728 140.342 173.789 140.095 173.916 139.882C174.044 139.669 174.233 139.499 174.458 139.394C174.683 139.289 174.935 139.254 175.18 139.294C175.426 139.334 175.653 139.446 175.834 139.617C176.015 139.787 176.14 140.008 176.194 140.251C176.248 140.493 176.228 140.747 176.136 140.978C176.045 141.209 175.886 141.407 175.68 141.547C175.475 141.687 175.232 141.762 174.984 141.762C174.824 141.771 174.665 141.747 174.514 141.692C174.364 141.638 174.227 141.553 174.111 141.443C173.995 141.333 173.902 141.201 173.839 141.054C173.775 140.908 173.742 140.75 173.742 140.59ZM175.692 140.59C175.69 140.449 175.646 140.313 175.565 140.197C175.485 140.082 175.373 139.992 175.242 139.94C175.111 139.889 174.968 139.877 174.831 139.906C174.693 139.935 174.568 140.005 174.469 140.105C174.371 140.206 174.305 140.333 174.279 140.472C174.253 140.61 174.269 140.752 174.323 140.882C174.378 141.011 174.47 141.122 174.588 141.199C174.705 141.276 174.843 141.317 174.984 141.316C175.079 141.318 175.173 141.3 175.261 141.264C175.349 141.228 175.429 141.174 175.495 141.106C175.562 141.038 175.613 140.957 175.647 140.869C175.681 140.78 175.696 140.685 175.692 140.59Z" fill="#263238"/>
<path d="M177.057 139.882H176.331V139.444H178.307V139.882H177.581V141.723H177.057V139.882Z" fill="#263238"/>
<path d="M180.559 140.275C180.559 140.782 180.179 141.097 179.571 141.097H179.134V141.723H178.6V139.453H179.58C180.179 139.453 180.559 139.768 180.559 140.275ZM180.026 140.275C180.026 140.026 179.864 139.882 179.545 139.882H179.108V140.669H179.545C179.864 140.669 180.026 140.524 180.026 140.275Z" fill="#263238"/>
<path d="M154.549 148.361C154.549 146.218 155.738 145.002 157.33 145.002C158.922 145.002 160.115 146.218 160.115 148.361C160.115 150.504 158.935 151.719 157.33 151.719C155.725 151.719 154.549 150.499 154.549 148.361ZM158.602 148.361C158.602 146.887 158.082 146.275 157.33 146.275C156.578 146.275 156.07 146.887 156.07 148.361C156.07 149.835 156.591 150.447 157.33 150.447C158.069 150.447 158.607 149.835 158.607 148.361H158.602Z" fill="#263238"/>
<path d="M166.286 149.725C166.286 150.95 165.192 151.719 163.544 151.719C161.895 151.719 160.815 150.95 160.815 149.725C160.811 149.402 160.903 149.085 161.077 148.812C161.252 148.54 161.503 148.326 161.799 148.195C161.569 148.062 161.378 147.871 161.246 147.64C161.114 147.41 161.045 147.148 161.047 146.883C161.047 145.741 162.066 145.024 163.544 145.024C165.022 145.024 166.054 145.741 166.054 146.883C166.055 147.149 165.985 147.411 165.851 147.642C165.717 147.872 165.525 148.063 165.293 148.195C165.591 148.323 165.845 148.537 166.022 148.809C166.199 149.082 166.29 149.401 166.286 149.725ZM164.768 149.677C164.768 149.104 164.292 148.75 163.544 148.75C162.796 148.75 162.337 149.104 162.337 149.677C162.337 150.25 162.8 150.617 163.544 150.617C164.287 150.617 164.768 150.254 164.768 149.677ZM162.542 146.922C162.542 147.416 162.932 147.722 163.544 147.722C164.156 147.722 164.563 147.416 164.563 146.922C164.563 146.428 164.169 146.126 163.544 146.126C162.918 146.126 162.542 146.415 162.542 146.922Z" fill="#263238"/>
<path d="M172.412 149.725C172.412 150.95 171.315 151.719 169.666 151.719C168.018 151.719 166.937 150.95 166.937 149.725C166.934 149.402 167.025 149.085 167.2 148.812C167.375 148.54 167.626 148.326 167.921 148.195C167.691 148.062 167.5 147.871 167.368 147.64C167.236 147.41 167.168 147.148 167.169 146.883C167.169 145.741 168.192 145.024 169.666 145.024C171.14 145.024 172.181 145.741 172.181 146.883C172.18 147.149 172.11 147.411 171.976 147.641C171.843 147.871 171.651 148.062 171.42 148.195C171.718 148.323 171.971 148.537 172.148 148.81C172.324 149.082 172.417 149.401 172.412 149.725ZM170.891 149.677C170.891 149.104 170.418 148.75 169.666 148.75C168.914 148.75 168.459 149.104 168.459 149.677C168.459 150.25 168.923 150.617 169.666 150.617C170.41 150.617 170.891 150.254 170.891 149.677ZM168.665 146.922C168.665 147.416 169.054 147.722 169.666 147.722C170.278 147.722 170.685 147.416 170.685 146.922C170.685 146.428 170.292 146.126 169.666 146.126C169.041 146.126 168.665 146.415 168.665 146.922Z" fill="#263238"/>
<path d="M175.605 145.116V151.61H174.1V146.323H172.789V145.116H175.605Z" fill="#263238"/>
<path fill-rule="evenodd" clip-rule="evenodd" d="M176.641 0.574048C200.242 -0.589109 221.721 12.4817 243.546 21.5363C265.77 30.7564 288.986 38.4453 306.83 54.5854C325.344 71.331 339.114 92.8068 348.094 116.099C357.28 139.926 361.665 165.581 359.427 191.019C357.174 216.624 351.046 243.125 335.142 263.318C319.574 283.083 292.037 287.833 271.608 302.518C251.285 317.126 238.354 342.375 214.521 350.018C190.508 357.72 163.813 352.708 139.878 344.765C116.847 337.122 97.1134 322.144 79.6764 305.268C63.3794 289.496 54.525 268.418 41.6781 249.729C27.8926 229.674 4.65507 214.309 0.65237 190.305C-3.34039 166.36 12.0678 143.849 20.2095 120.98C28.1825 98.5843 31.6024 73.1646 48.3585 56.3015C65.0371 39.5163 90.9062 37.4178 112.609 27.9897C134.14 18.6365 153.195 1.72961 176.641 0.574048Z" fill="#120F6C" fill-opacity="0.05"/>
</svg>
