<svg width="29" height="26" viewBox="0 0 29 26" fill="none" xmlns="http://www.w3.org/2000/svg">
<g clip-path="url(#clip0_211_20)">
<path d="M6.55682 18.914C6.55682 17.809 6.99581 16.7492 7.77721 15.9678C8.55861 15.1864 9.61842 14.7474 10.7235 14.7474H19.0568C20.1619 14.7474 21.2217 15.1864 22.0031 15.9678C22.7845 16.7492 23.2235 17.809 23.2235 18.914C23.2235 19.4666 23.004 19.9965 22.6133 20.3872C22.2226 20.7779 21.6927 20.9974 21.1402 20.9974H8.64016C8.08762 20.9974 7.55772 20.7779 7.16702 20.3872C6.77632 19.9965 6.55682 19.4666 6.55682 18.914Z" stroke="white" stroke-width="1.5625" stroke-linejoin="round"/>
<path d="M14.8901 10.5807C16.616 10.5807 18.0151 9.18161 18.0151 7.45572C18.0151 5.72983 16.616 4.33072 14.8901 4.33072C13.1642 4.33072 11.7651 5.72983 11.7651 7.45572C11.7651 9.18161 13.1642 10.5807 14.8901 10.5807Z" stroke="white" stroke-width="1.5625"/>
</g>
<defs>
<clipPath id="clip0_211_20">
<rect width="28" height="25" fill="white" transform="translate(0.390137 0.164062)"/>
</clipPath>
</defs>
</svg>
