<svg width="353" height="279" viewBox="0 0 353 279" fill="none" xmlns="http://www.w3.org/2000/svg">
<path d="M131.931 0.00598722C131.981 -0.0624618 132.778 0.460238 134.016 1.3563C135.254 2.25236 136.947 3.52177 138.77 4.97787C140.593 6.43397 142.199 7.82161 143.319 8.8359C143.97 9.35426 144.553 9.95214 145.055 10.6156C144.943 10.74 142.025 8.33809 138.384 5.4259C134.744 2.51371 131.826 0.124217 131.931 0.00598722Z" fill="#E0E0E0"/>
<path d="M253.198 0.236218C253.298 0.366894 250.442 2.79994 246.82 5.66858C243.199 8.53721 240.168 10.7649 240.062 10.6467C239.957 10.5285 242.819 8.08296 246.447 5.21433C250.075 2.34569 253.093 0.124211 253.198 0.236218Z" fill="#E0E0E0"/>
<path d="M253.105 83.912L239.583 72.929L253.105 83.912Z" fill="white"/>
<path d="M239.583 72.929C239.683 72.7984 242.794 75.1505 246.528 78.1747C250.261 81.1989 253.205 83.7751 253.105 83.8871C253.006 83.9991 249.888 81.6656 246.154 78.6414C242.421 75.6172 239.478 73.0846 239.583 72.929Z" fill="#E0E0E0"/>
<path d="M131.932 83.8995C131.832 83.7689 134.657 81.3669 138.248 78.5232C141.838 75.6794 144.831 73.4891 144.931 73.6198C145.03 73.7504 142.212 76.1586 138.621 78.9961C135.031 81.8336 132.038 84.0302 131.932 83.8995Z" fill="#E0E0E0"/>
<path d="M288.642 258.332H284.336V266.241H288.642V258.332Z" fill="#E0E0E0"/>
<path d="M315.232 258.332H310.926V266.241H315.232V258.332Z" fill="#E0E0E0"/>
<path d="M122.038 172.771H-3V230.436H122.038V172.771Z" fill="#F5F5F5"/>
<path d="M119.051 227.723H-0.137695V175.808H119.051V227.723ZM0.640134 226.945H118.285V176.586H0.640134V226.945Z" fill="#E0E0E0"/>
<path d="M152.585 172.771H122.038V230.436H152.585V172.771Z" fill="#E0E0E0"/>
<path d="M0.254721 191.875H118.671C118.708 191.867 118.741 191.848 118.765 191.819C118.789 191.79 118.802 191.753 118.802 191.716C118.802 191.679 118.789 191.642 118.765 191.613C118.741 191.584 118.708 191.565 118.671 191.557H0.254721C0.218013 191.565 0.184977 191.584 0.161234 191.613C0.13749 191.642 0.124512 191.679 0.124512 191.716C0.124512 191.753 0.13749 191.79 0.161234 191.819C0.184977 191.848 0.218013 191.867 0.254721 191.875Z" fill="#E0E0E0"/>
<path d="M59.8484 191.719C60.1772 186.502 60.1917 181.27 59.892 176.051C59.892 176.008 59.8749 175.966 59.8446 175.936C59.8143 175.906 59.7731 175.889 59.7302 175.889C59.6873 175.889 59.6461 175.906 59.6158 175.936C59.5855 175.966 59.5684 176.008 59.5684 176.051C59.2687 181.27 59.2832 186.502 59.612 191.719C59.612 191.75 59.6244 191.781 59.6466 191.803C59.6688 191.825 59.6988 191.837 59.7302 191.837C59.7616 191.837 59.7916 191.825 59.8138 191.803C59.836 191.781 59.8484 191.75 59.8484 191.719Z" fill="#E0E0E0"/>
<path d="M91.727 183.885C91.7282 184.205 91.6344 184.518 91.4573 184.785C91.2803 185.052 91.0281 185.261 90.7325 185.384C90.437 185.507 90.1115 185.54 89.7973 185.479C89.483 185.417 89.1942 185.263 88.9673 185.037C88.7404 184.811 88.5857 184.523 88.5228 184.209C88.4598 183.895 88.4915 183.569 88.6138 183.273C88.736 182.977 88.9434 182.724 89.2096 182.546C89.4758 182.368 89.7888 182.273 90.1091 182.273C90.3213 182.272 90.5315 182.313 90.7277 182.394C90.924 182.475 91.1024 182.593 91.2527 182.743C91.403 182.893 91.5223 183.071 91.6037 183.267C91.6851 183.463 91.727 183.673 91.727 183.885Z" fill="#E0E0E0"/>
<path d="M29.5749 183.885C29.5749 184.204 29.4804 184.515 29.3033 184.78C29.1262 185.045 28.8745 185.252 28.58 185.374C28.2855 185.496 27.9614 185.528 27.6488 185.465C27.3362 185.403 27.049 185.25 26.8236 185.024C26.5982 184.799 26.4447 184.512 26.3825 184.199C26.3203 183.887 26.3523 183.563 26.4742 183.268C26.5962 182.974 26.8028 182.722 27.0678 182.545C27.3329 182.368 27.6445 182.273 27.9632 182.273C28.1749 182.273 28.3844 182.315 28.58 182.396C28.7755 182.477 28.9532 182.596 29.1028 182.745C29.2525 182.895 29.3712 183.073 29.4522 183.268C29.5332 183.464 29.5749 183.673 29.5749 183.885Z" fill="#E0E0E0"/>
<path d="M59.4623 203.374C60.3524 203.374 61.0739 202.653 61.0739 201.762C61.0739 200.872 60.3524 200.151 59.4623 200.151C58.5722 200.151 57.8506 200.872 57.8506 201.762C57.8506 202.653 58.5722 203.374 59.4623 203.374Z" fill="#E0E0E0"/>
<path d="M11.9531 230.436L5.5127 266.64H9.13427L21.0071 230.436H11.9531Z" fill="#E0E0E0"/>
<path d="M113.195 230.436L118.578 266.702H114.956L104.141 230.436H113.195Z" fill="#E0E0E0"/>
<path d="M137.364 230.436L143.462 266.702H139.841L128.31 230.436H137.364Z" fill="#E0E0E0"/>
<path d="M60.9692 218.084C60.9704 218.405 60.8764 218.719 60.6991 218.986C60.5218 219.253 60.2692 219.461 59.9733 219.584C59.6774 219.707 59.3516 219.74 59.0372 219.678C58.7228 219.615 58.4339 219.461 58.2073 219.235C57.9806 219.008 57.8264 218.719 57.7642 218.405C57.702 218.09 57.7345 217.764 57.8577 217.469C57.981 217.173 58.1893 216.92 58.4563 216.743C58.7233 216.565 59.037 216.471 59.3575 216.473C59.7849 216.473 60.1949 216.643 60.4971 216.945C60.7994 217.247 60.9692 217.657 60.9692 218.084Z" fill="#E0E0E0"/>
<path d="M0.254687 209.727H118.671C118.713 209.727 118.752 209.711 118.781 209.682C118.811 209.653 118.827 209.613 118.827 209.572C118.827 209.531 118.811 209.491 118.781 209.462C118.752 209.433 118.713 209.416 118.671 209.416H0.254687C0.213428 209.416 0.173862 209.433 0.144688 209.462C0.115513 209.491 0.0991211 209.531 0.0991211 209.572C0.0991211 209.613 0.115513 209.653 0.144688 209.682C0.173862 209.711 0.213428 209.727 0.254687 209.727Z" fill="#E0E0E0"/>
<path d="M97.066 172.746C97.066 172.746 96.9603 172.746 96.7611 172.69C96.562 172.634 96.2571 172.591 95.8588 172.541C94.6976 172.416 93.5289 172.374 92.3617 172.417C91.5963 172.417 90.7501 172.417 89.8167 172.342C88.8021 172.276 87.8044 172.049 86.8609 171.67C85.7613 171.224 84.8356 170.433 84.2225 169.417C83.8873 168.849 83.6911 168.209 83.65 167.55C83.6114 166.871 83.8069 166.199 84.2039 165.646C84.6343 165.056 85.2429 164.62 85.94 164.402C86.3062 164.282 86.696 164.252 87.0762 164.315C87.4565 164.378 87.8159 164.531 88.1241 164.763C88.4286 165.018 88.6775 165.333 88.8552 165.688C89.0329 166.044 89.1356 166.432 89.1571 166.829C89.2079 167.651 88.9894 168.468 88.5348 169.156C88.0767 169.851 87.4945 170.457 86.8174 170.942C86.1326 171.452 85.3836 171.871 84.5897 172.186C82.9267 172.853 81.1223 173.088 79.344 172.871C77.4686 172.664 75.6926 171.921 74.229 170.73C72.7168 169.474 71.5818 167.825 70.9496 165.964C70.2759 164.038 70.2021 161.953 70.7381 159.984C71.0231 158.978 71.5054 158.039 72.1568 157.221C72.8184 156.377 73.7113 155.743 74.7268 155.398C75.7495 155.062 76.8527 155.062 77.8754 155.398C78.3852 155.559 78.855 155.827 79.254 156.183C79.6529 156.539 79.972 156.975 80.1903 157.464C80.6001 158.43 80.6746 159.505 80.4018 160.519C80.1626 161.518 79.6447 162.428 78.9084 163.145C77.4096 164.445 75.4851 165.15 73.5009 165.124C71.6257 165.14 69.7654 164.789 68.025 164.091C64.8383 162.773 62.0501 160.648 59.9356 157.924C58.0698 155.577 56.6216 152.927 55.6544 150.09C54.8574 147.761 54.26 145.37 53.8685 142.94C53.5138 140.799 53.3147 138.939 53.1716 137.42C53.0285 135.902 52.9351 134.726 52.8791 133.923C52.8791 133.531 52.8356 133.233 52.8169 133.009C52.7982 132.785 52.8169 132.697 52.8169 132.697C52.8169 132.697 52.8169 132.803 52.8605 133.009C52.904 133.214 52.9102 133.525 52.9476 133.917C53.0347 134.732 53.1467 135.902 53.3023 137.408C53.4578 138.914 53.6818 140.781 54.0552 142.909C54.4619 145.323 55.0718 147.698 55.8784 150.009C56.8399 152.815 58.2799 155.434 60.1347 157.75C62.2351 160.43 64.9973 162.517 68.1495 163.804C69.854 164.478 71.6745 164.81 73.5071 164.781C75.4134 164.808 77.2627 164.132 78.7031 162.883C79.3955 162.203 79.8809 161.34 80.1031 160.394C80.3581 159.449 80.2902 158.446 79.9102 157.544C79.7069 157.102 79.4129 156.707 79.0474 156.386C78.6819 156.064 78.253 155.823 77.7883 155.678C76.8302 155.364 75.7969 155.364 74.8388 155.678C73.883 156.001 73.042 156.596 72.4182 157.389C71.7946 158.174 71.3335 159.075 71.0617 160.04C70.5376 161.946 70.6071 163.967 71.2608 165.833C71.8762 167.637 72.9737 169.238 74.4343 170.463C75.8584 171.621 77.5873 172.343 79.4124 172.541C81.1412 172.759 82.897 172.534 84.515 171.888C86.0532 171.328 87.3855 170.315 88.3357 168.982C88.7746 168.35 88.9932 167.591 88.9579 166.822C88.9421 166.459 88.8516 166.103 88.6921 165.777C88.5325 165.45 88.3074 165.16 88.0308 164.924C87.7529 164.717 87.4292 164.579 87.087 164.523C86.7449 164.467 86.3941 164.493 86.0644 164.601C85.4184 164.8 84.8534 165.201 84.4528 165.746C84.0709 166.267 83.8837 166.906 83.9238 167.55C83.9607 168.168 84.1442 168.767 84.459 169.299C85.0432 170.284 85.9291 171.054 86.9854 171.496C87.9133 171.871 88.8934 172.102 89.8913 172.18C90.8061 172.267 91.6523 172.267 92.4177 172.273C93.5908 172.247 94.7641 172.312 95.9273 172.466C96.3146 172.525 96.6957 172.619 97.066 172.746Z" fill="#E0E0E0"/>
<path d="M37.3664 133.002L27.4849 172.815H31.4922L41.7471 133.002H37.3664Z" fill="#F5F5F5"/>
<path d="M66.015 133.002L75.8966 172.815H71.8892L61.6343 133.002H66.015Z" fill="#F5F5F5"/>
<path d="M53.545 122.181H48.8843V172.815H53.545V122.181Z" fill="#F5F5F5"/>
<path d="M67.6206 132.361H34.6157V136.431H67.6206V132.361Z" fill="#F5F5F5"/>
<path d="M22.5998 118.199C22.6344 118.454 22.649 118.712 22.6433 118.97H22.5562C22.4878 116.911 22.438 110.084 22.438 101.995C22.438 97.1164 22.4753 92.6984 22.4878 89.4501C22.4878 87.8758 22.5251 86.5877 22.5376 85.6481C22.5376 85.225 22.5376 84.8827 22.5376 84.6089C22.5199 84.4914 22.5199 84.3718 22.5376 84.2542C22.5615 84.3709 22.572 84.4899 22.5687 84.6089C22.5687 84.8827 22.5687 85.2312 22.5687 85.6481C22.5687 86.5877 22.5687 87.8758 22.6184 89.4501C22.6184 92.6984 22.6184 97.1164 22.6682 101.995C22.6682 110.084 22.6184 116.929 22.55 118.97H22.4629C22.4837 118.709 22.5295 118.451 22.5998 118.199Z" fill="#F5F5F5"/>
<path d="M27.485 118.199C27.5245 118.454 27.5411 118.712 27.5348 118.97H27.4415C27.373 116.911 27.3232 110.084 27.3232 101.995C27.3232 97.1164 27.3606 92.6984 27.373 89.4501C27.373 87.8758 27.4104 86.5877 27.4228 85.6481C27.4228 85.225 27.4228 84.8827 27.4228 84.6089C27.4133 84.4909 27.4133 84.3723 27.4228 84.2542C27.4515 84.3702 27.464 84.4895 27.4601 84.6089C27.4601 84.8827 27.4601 85.2312 27.4601 85.6481C27.4601 86.5877 27.4601 87.8758 27.5099 89.4501C27.5099 92.6984 27.5099 97.1164 27.5535 101.995C27.5535 110.084 27.5037 116.929 27.4415 118.97H27.3481C27.3732 118.71 27.419 118.452 27.485 118.199Z" fill="#F5F5F5"/>
<path d="M32.3819 118.199C32.4166 118.454 32.4311 118.712 32.4254 118.97H32.3383C32.2699 116.911 32.2201 110.084 32.2201 101.995C32.2201 97.1164 32.2512 92.6984 32.2636 89.4501C32.2636 87.8758 32.3072 86.5877 32.3197 85.6481C32.3197 85.225 32.3197 84.8827 32.3197 84.6089C32.302 84.4914 32.302 84.3718 32.3197 84.2542C32.3332 84.3721 32.3332 84.4911 32.3197 84.6089C32.3197 84.8827 32.3197 85.2312 32.3197 85.6481C32.3197 86.5877 32.3508 87.8758 32.3694 89.4501C32.3694 92.6984 32.3694 97.1164 32.4192 101.995C32.4192 110.084 32.3694 116.929 32.301 118.97H32.2139C32.2448 118.708 32.3011 118.45 32.3819 118.199Z" fill="#F5F5F5"/>
<path d="M37.2726 118.199C37.3115 118.454 37.3261 118.712 37.3162 118.97H37.2291C37.1606 116.911 37.1108 110.084 37.1108 101.995C37.1108 97.1164 37.1482 92.6984 37.1606 89.4501C37.1606 87.8758 37.1979 86.5877 37.2104 85.6481C37.2104 85.225 37.2104 84.8827 37.2415 84.6089C37.2382 84.4899 37.2487 84.3709 37.2726 84.2542C37.3013 84.3702 37.3139 84.4895 37.31 84.6089C37.31 84.8827 37.31 85.2312 37.31 85.6481C37.31 86.5877 37.31 87.8758 37.366 89.4501C37.366 92.6984 37.366 97.1164 37.4095 101.995C37.4095 110.084 37.3597 116.929 37.2913 118.97H37.2042C37.2067 118.712 37.2296 118.454 37.2726 118.199Z" fill="#F5F5F5"/>
<path d="M42.1701 118.199C42.2048 118.454 42.2193 118.712 42.2136 118.97H42.1203C42.0581 116.911 42.0083 110.084 42.0083 101.995C42.0083 97.1164 42.0394 92.6984 42.0519 89.4501C42.0519 87.8758 42.0954 86.5877 42.1079 85.6481C42.1079 85.225 42.1079 84.8827 42.1079 84.6089C42.104 84.4895 42.1165 84.3702 42.1452 84.2542C42.1651 84.3714 42.1755 84.4901 42.1763 84.6089C42.1763 84.8827 42.1763 85.2312 42.2074 85.6481C42.2074 86.5877 42.2074 87.8758 42.2572 89.4501C42.2572 92.6984 42.2883 97.1164 42.307 101.995C42.307 110.084 42.2572 116.929 42.1888 118.97H42.0954C42.0973 118.711 42.1223 118.453 42.1701 118.199Z" fill="#F5F5F5"/>
<path d="M47.0607 118.199C47.0996 118.454 47.1142 118.712 47.1043 118.97H47.0172C46.9487 116.911 46.8989 110.084 46.8989 101.995C46.8989 97.1164 46.9363 92.6984 46.9487 89.4501C46.9487 87.8758 46.986 86.5877 46.9985 85.6481C46.9985 85.225 46.9985 84.8827 46.9985 84.6089C46.9952 84.4899 47.0056 84.3709 47.0296 84.2542C47.0576 84.3702 47.0681 84.4898 47.0607 84.6089C47.0607 84.8827 47.0607 85.2312 47.0607 85.6481C47.0607 86.5877 47.0918 87.8758 47.1167 89.4501C47.1167 92.6984 47.1167 97.1164 47.1603 101.995C47.1603 110.084 47.1105 116.929 47.042 118.97H46.9549C46.9698 118.711 47.0052 118.453 47.0607 118.199Z" fill="#F5F5F5"/>
<path d="M51.9587 118.199C51.9933 118.454 52.0079 118.712 52.0022 118.97H51.9089C51.8404 116.911 51.7969 110.084 51.7969 101.995C51.7969 97.1164 51.828 92.6984 51.8404 89.4501C51.8404 87.8758 51.8778 86.5877 51.8902 85.6481C51.8902 85.225 51.8902 84.8827 51.9213 84.6089C51.9174 84.4895 51.93 84.3702 51.9587 84.2542C51.9682 84.3723 51.9682 84.4909 51.9587 84.6089C51.9587 84.8827 51.9587 85.2312 51.9898 85.6481C51.9898 86.5877 52.0209 87.8758 52.0396 89.4501C52.0396 92.6984 52.0396 97.1164 52.0893 101.995C52.0893 110.084 52.0396 116.929 51.9711 118.97H51.8778C51.8817 118.711 51.9088 118.453 51.9587 118.199Z" fill="#F5F5F5"/>
<path d="M56.8243 118.199C56.8631 118.454 56.8777 118.712 56.8678 118.97H56.8243C56.7558 116.911 56.7061 110.084 56.7061 101.995C56.7061 97.1164 56.7434 92.6984 56.7558 89.4501C56.7558 87.8758 56.7932 86.5877 56.8056 85.6481C56.8056 85.225 56.8056 84.8827 56.8367 84.6089C56.8191 84.4914 56.8191 84.3718 56.8367 84.2542C56.8648 84.3702 56.8753 84.4898 56.8678 84.6089C56.8678 84.8827 56.8678 85.2312 56.8678 85.6481C56.8678 86.5877 56.899 87.8758 56.9176 89.4501C56.9176 92.6984 56.9487 97.1164 56.9674 101.995C56.9674 110.084 56.9176 116.929 56.8492 118.97H56.8243C56.8 118.714 56.8 118.455 56.8243 118.199Z" fill="#F5F5F5"/>
<path d="M61.7402 118.199C61.7841 118.456 61.805 118.716 61.8024 118.977H61.7091C61.6406 116.917 61.5908 110.091 61.5908 102.001C61.5908 97.1226 61.6282 92.7046 61.6406 89.4564C61.6406 87.882 61.6779 86.5939 61.6904 85.6543C61.6904 85.2312 61.6904 84.8889 61.6904 84.6151C61.6912 84.4963 61.7016 84.3777 61.7215 84.2605C61.7502 84.3764 61.7627 84.4958 61.7588 84.6151C61.7588 84.8889 61.7588 85.2374 61.7588 85.6543C61.7588 86.5939 61.7588 87.882 61.8086 89.4564C61.8086 92.7046 61.8086 97.1226 61.8522 102.001C61.8522 110.091 61.8086 116.936 61.7402 118.977H61.6468C61.6616 118.716 61.6927 118.456 61.7402 118.199Z" fill="#F5F5F5"/>
<path d="M66.6374 118.199C66.672 118.454 66.6866 118.712 66.6809 118.97H66.5938C66.5254 116.911 66.4756 110.084 66.4756 101.995C66.4756 97.1164 66.5067 92.6984 66.5191 89.4501C66.5191 87.8758 66.5627 86.5877 66.5752 85.6481C66.5752 85.225 66.5752 84.8827 66.6063 84.6089C66.5989 84.4898 66.6094 84.3702 66.6374 84.2542C66.651 84.3721 66.651 84.4911 66.6374 84.6089C66.6374 84.8827 66.6374 85.2312 66.6685 85.6481C66.6685 86.5877 66.6685 87.8758 66.7183 89.4501C66.7183 92.6984 66.7494 97.1164 66.7681 101.995C66.7681 110.084 66.7183 116.929 66.6498 118.97H66.5627C66.5631 118.711 66.5881 118.453 66.6374 118.199Z" fill="#F5F5F5"/>
<path d="M71.5285 118.199C71.5679 118.454 71.5846 118.712 71.5783 118.97H71.4849C71.4165 116.911 71.3667 110.084 71.3667 101.995C71.3667 97.1164 71.404 92.6984 71.4165 89.4501C71.4165 87.8758 71.4538 86.5877 71.4663 85.6481C71.4663 85.225 71.4663 84.8827 71.4974 84.6089C71.4878 84.4909 71.4878 84.3723 71.4974 84.2542C71.5261 84.3702 71.5386 84.4895 71.5347 84.6089C71.5347 84.8827 71.5347 85.2312 71.5347 85.6481C71.5347 86.5877 71.5658 87.8758 71.5907 89.4501C71.5907 92.6984 71.5907 97.1164 71.6343 101.995C71.6343 110.084 71.5845 116.929 71.5223 118.97H71.4289C71.4418 118.711 71.4751 118.453 71.5285 118.199Z" fill="#F5F5F5"/>
<path d="M76.4255 118.199C76.4601 118.454 76.4747 118.712 76.469 118.97H76.3819C76.3134 116.911 76.2637 110.084 76.2637 101.995C76.2637 97.1164 76.2637 92.6984 76.3072 89.4501C76.3072 87.8758 76.3508 86.5877 76.3632 85.6481C76.3632 85.225 76.3632 84.8827 76.3632 84.6089C76.3558 84.4898 76.3663 84.3702 76.3943 84.2542C76.4183 84.3709 76.4287 84.4899 76.4255 84.6089C76.4255 84.8827 76.4255 85.2312 76.4255 85.6481C76.4255 86.5877 76.4566 87.8758 76.4752 89.4501C76.4752 92.6984 76.4752 97.1164 76.525 101.995C76.525 110.084 76.4752 116.929 76.4068 118.97H76.3197C76.3303 118.71 76.3657 118.452 76.4255 118.199Z" fill="#F5F5F5"/>
<path d="M81.3171 118.199C81.3559 118.454 81.3705 118.712 81.3606 118.97H81.2735C81.205 116.911 81.1553 110.084 81.1553 101.995C81.1553 97.1164 81.1926 92.6984 81.205 89.4501C81.205 87.8758 81.2424 86.5877 81.2548 85.6481C81.2548 85.225 81.2548 84.8827 81.2859 84.6089C81.2827 84.4899 81.2931 84.3709 81.3171 84.2542C81.3347 84.3718 81.3347 84.4914 81.3171 84.6089C81.3171 84.8827 81.3171 85.2312 81.3482 85.6481C81.3482 86.5877 81.3482 87.8758 81.4042 89.4501C81.4042 92.6984 81.4042 97.1164 81.4477 101.995C81.4477 110.084 81.398 116.929 81.3295 118.97H81.2424C81.247 118.712 81.272 118.454 81.3171 118.199Z" fill="#F5F5F5"/>
<path d="M204.849 103.874C202.117 103.6 199.808 101.709 198.085 99.5681C196.361 97.4275 195.06 94.9696 193.262 92.8974C191.918 91.3542 191.706 88.218 189.721 87.714C187.232 87.0917 186.025 83.5324 186.187 81.4913C186.361 79.2761 188.16 77.0422 188.104 76.3763C187.954 74.634 185.957 73.3833 185.926 71.6347C185.851 67.5215 189.037 66.9553 189.037 66.9553C189.827 64.8209 190.904 61.9772 193.648 60.1539C196.61 58.1689 201.196 55.8665 204.693 56.5635C208.19 57.2604 210.717 57.6524 212.782 60.5584" fill="#263238"/>
<path d="M234.45 102.462L231.718 116.562L225.583 129.262L217.4 123.594L214.699 115.946L212.434 109.537C212.434 109.537 203.498 111.335 200.281 102.922C198.726 98.8649 196.212 90.2403 194.021 82.3874C192.891 78.327 193.329 73.9903 195.247 70.2373C197.165 66.4844 200.423 63.5894 204.376 62.1265L205.191 61.8278C214.17 59.1023 221.507 65.2005 223.983 74.2731L234.45 102.462Z" fill="#FFBE9D"/>
<path d="M198.7 87.826C198.815 88.1419 199.047 88.4011 199.349 88.5485C199.651 88.696 199.999 88.7203 200.318 88.6163C200.475 88.5699 200.621 88.493 200.749 88.3899C200.876 88.2869 200.982 88.1598 201.06 88.0159C201.138 87.8719 201.187 87.714 201.203 87.5512C201.22 87.3883 201.205 87.2237 201.158 87.0668C201.045 86.7515 200.813 86.4928 200.512 86.3463C200.211 86.1998 199.864 86.177 199.546 86.2828C199.39 86.3285 199.243 86.4047 199.116 86.5071C198.988 86.6094 198.882 86.7358 198.804 86.8791C198.725 87.0224 198.676 87.1798 198.658 87.3422C198.64 87.5047 198.654 87.6691 198.7 87.826Z" fill="#263238"/>
<path d="M197.07 85.4738C197.276 85.5734 197.942 84.5591 199.242 84.0862C200.543 83.6132 201.731 83.9119 201.812 83.7004C201.856 83.6008 201.601 83.3768 201.072 83.2275C200.368 83.0454 199.625 83.0845 198.943 83.3395C198.267 83.5853 197.687 84.041 197.288 84.64C197.002 85.0942 196.971 85.4303 197.07 85.4738Z" fill="#263238"/>
<path d="M210.872 83.2523C210.985 83.5678 211.217 83.8269 211.518 83.9744C211.819 84.122 212.165 84.1464 212.484 84.0426C212.642 83.9969 212.789 83.9204 212.916 83.8177C213.044 83.715 213.151 83.5879 213.229 83.4439C213.308 83.2999 213.357 83.1418 213.375 82.9786C213.392 82.8154 213.377 82.6505 213.33 82.4932C213.216 82.1786 212.984 81.9206 212.684 81.7733C212.383 81.6259 212.037 81.6007 211.719 81.7029C211.561 81.7486 211.414 81.825 211.286 81.9278C211.158 82.0305 211.052 82.1576 210.973 82.3016C210.894 82.4456 210.845 82.6037 210.828 82.7669C210.81 82.93 210.826 83.095 210.872 83.2523Z" fill="#263238"/>
<path d="M209.901 80.3402C210.101 80.4646 210.872 79.525 212.216 79.1952C213.56 78.8654 214.705 79.2885 214.811 79.0894C214.867 79.0023 214.637 78.7472 214.127 78.5418C213.447 78.2835 212.703 78.2422 211.999 78.4236C211.298 78.5961 210.671 78.986 210.206 79.5374C209.845 79.9543 209.777 80.2842 209.901 80.3402Z" fill="#263238"/>
<path d="M209.048 92.773C208.284 92.8108 207.527 92.9446 206.796 93.1712C206.454 93.2583 206.111 93.3081 205.974 93.1028C205.818 92.7713 205.768 92.3997 205.831 92.0387C205.831 91.124 205.869 90.1719 205.887 89.1514C205.925 85.0569 205.819 81.7402 205.651 81.7402C205.483 81.7402 205.321 85.0569 205.29 89.1514C205.29 90.1595 205.29 91.124 205.29 92.0387C205.229 92.5166 205.337 93.0007 205.595 93.4077C205.687 93.507 205.8 93.5838 205.926 93.6324C206.052 93.6809 206.188 93.6999 206.323 93.6877C206.525 93.6695 206.723 93.6255 206.914 93.557C207.656 93.3872 208.373 93.1238 209.048 92.773Z" fill="#263238"/>
<path d="M213.2 92.2627C212.982 92.3312 213.498 93.7375 212.664 95.1873C211.831 96.6372 210.269 97.0541 210.331 97.2284C210.331 97.3217 210.766 97.3777 211.401 97.1661C212.233 96.8733 212.934 96.2958 213.38 95.5358C213.811 94.809 213.94 93.9425 213.741 93.1214C213.579 92.5116 213.293 92.2192 213.2 92.2627Z" fill="#263238"/>
<path d="M208.458 76.003C208.688 76.3328 209.97 75.7914 211.569 75.5487C213.168 75.306 214.568 75.3869 214.68 75.0011C214.73 74.8207 214.419 74.5406 213.809 74.3291C213.01 74.0859 212.166 74.0284 211.341 74.1611C210.516 74.2937 209.732 74.6129 209.049 75.0945C208.564 75.4865 208.352 75.8474 208.458 76.003Z" fill="#263238"/>
<path d="M196.448 81.9332C196.79 82.1447 197.568 81.51 198.639 81.0993C199.709 80.6886 200.698 80.5642 200.798 80.1784C200.829 79.9979 200.58 79.7552 200.076 79.6246C199.419 79.4874 198.736 79.5484 198.113 79.7998C197.49 80.0513 196.956 80.4819 196.579 81.0371C196.311 81.4789 196.299 81.8274 196.448 81.9332Z" fill="#263238"/>
<path d="M211.936 60.1726C212.267 61.1178 212.387 62.1243 212.287 63.1209C212.187 64.1175 211.869 65.0801 211.356 65.9405C210.844 66.801 210.148 67.5384 209.32 68.1008C208.491 68.6632 207.548 69.0369 206.559 69.1954C205.029 69.4319 203.199 69.2576 202.204 70.4399C201.208 71.6222 201.812 73.6881 201.003 75.1007C199.845 77.123 196.74 76.6937 194.848 78.0502C193.392 79.1018 192.919 81.0122 192.297 82.6923C191.675 84.3724 190.493 86.1894 188.694 86.2703C188.232 84.7879 187.939 83.2577 187.823 81.7091C187.723 80.1454 188.162 78.5947 189.068 77.3159C189.584 76.6439 190.275 76.1025 190.723 75.3807C191.694 73.8188 191.345 71.8151 191.644 69.9981C191.85 68.8283 192.333 67.7246 193.051 66.7787C193.77 65.8328 194.704 65.0721 195.776 64.5595C197.562 63.7257 199.659 63.6137 201.308 62.531C202.521 61.7282 203.386 60.4526 204.643 59.7246C207.101 58.3058 210.206 59.3388 212.77 60.5522" fill="#263238"/>
<path d="M204.818 66.8557C205.882 66.109 208.029 64.5035 208.302 63.259C208.925 60.5584 210.792 58.1938 213.318 57.4657C214.634 57.1186 216.027 57.2068 217.289 57.7171C218.551 58.2275 219.614 59.1326 220.318 60.297C221.875 59.8154 223.533 59.7623 225.118 60.1434C226.702 60.5245 228.155 61.3256 229.323 62.4625C230.537 63.6607 231.441 65.1371 231.956 66.7636C232.471 68.39 232.582 70.1176 232.278 71.7965C232.11 72.6614 231.83 73.5575 232.11 74.41C232.459 75.4616 233.523 76.0216 234.375 76.6937C236.69 78.5605 237.711 81.8149 237.456 84.7831C237.2 87.7513 236.703 88.946 235.246 90.035C232.384 92.1632 238.526 97.2097 233.187 99.0765L224.736 80.6139C224.607 80.7522 224.461 80.8735 224.301 80.9748C221.389 82.7919 218.819 76.7621 218.906 74.7522C217.367 74.1946 215.903 73.4462 214.55 72.5245C213.225 71.5413 211.233 68.2931 210.866 66.6441C209.765 67.0921 204.357 67.1855 204.818 66.8557Z" fill="#263238"/>
<path d="M224.338 80.8815C224.456 80.7633 229.509 77.0235 231.45 82.8665C233.392 88.7096 227.126 89.4625 227.063 89.2945C227.001 89.1265 224.338 80.8815 224.338 80.8815Z" fill="#FFBE9D"/>
<path d="M228.109 86.4881C228.109 86.4881 228.233 86.5255 228.432 86.5441C228.569 86.5577 228.707 86.5437 228.839 86.5031C228.97 86.4625 229.092 86.3961 229.198 86.3077C229.745 85.8783 229.938 84.7209 229.614 83.663C229.464 83.156 229.2 82.6899 228.843 82.3003C228.727 82.1357 228.573 82.0016 228.395 81.9095C228.216 81.8174 228.017 81.77 227.816 81.7714C227.689 81.7793 227.569 81.8317 227.477 81.9193C227.385 82.0069 227.326 82.1242 227.312 82.2505C227.312 82.4372 227.362 82.543 227.312 82.5616C227.262 82.5803 227.15 82.5056 227.119 82.2505C227.104 82.0955 227.141 81.9398 227.225 81.8087C227.347 81.6344 227.532 81.514 227.741 81.4727C227.997 81.4408 228.256 81.4749 228.495 81.5719C228.734 81.6688 228.943 81.8253 229.104 82.0265C229.522 82.4494 229.83 82.9687 230 83.5386C230.355 84.7271 230.118 86.0276 229.378 86.5566C229.236 86.6532 229.074 86.7172 228.904 86.7441C228.734 86.771 228.56 86.7601 228.395 86.7121C228.165 86.6188 228.096 86.5068 228.109 86.4881Z" fill="#EB996E"/>
<path d="M212.422 109.537C216.35 108.17 219.783 105.666 222.285 102.343C222.285 102.343 221.924 109.387 213.212 111.733L212.422 109.537Z" fill="#EB996E"/>
<path d="M217.885 78.3862C217.972 78.3862 217.742 79.1454 217.02 79.7117C216.824 79.8994 216.589 80.0435 216.333 80.1346C216.077 80.2258 215.804 80.2619 215.533 80.2406C215.533 80.1473 216.155 79.9668 216.821 79.4565C217.487 78.9463 217.804 78.3489 217.885 78.3862Z" fill="#EB996E"/>
<path d="M218.974 80.0041C218.56 80.269 218.092 80.437 217.605 80.4957C217.142 80.6604 216.65 80.722 216.161 80.6762C217.038 80.2474 217.998 80.0179 218.974 80.0041Z" fill="#EB996E"/>
<path d="M206.846 77.5524C206.846 77.6022 206.647 77.6893 206.336 77.8698C206.024 78.0502 205.601 78.3302 205.091 78.6227C204.669 78.8894 204.2 79.0732 203.71 79.1641C203.324 79.2201 203.087 79.1641 203.087 79.1143C203.087 79.0645 203.318 79.0458 203.66 78.94C204.098 78.7826 204.516 78.5737 204.904 78.3178C205.316 78.0551 205.749 77.8282 206.199 77.6395C206.591 77.5275 206.833 77.5151 206.846 77.5524Z" fill="#EB996E"/>
<path d="M208.719 74.074C208.719 74.1237 208.333 74.242 207.792 74.6153C207.112 75.1312 206.486 75.715 205.925 76.3577C205.337 77.0242 204.63 77.575 203.84 77.9818C203.514 78.1672 203.138 78.2476 202.764 78.212C202.764 78.156 203.168 78.0938 203.734 77.7764C204.463 77.3248 205.123 76.7716 205.695 76.1336C206.273 75.4665 206.949 74.8897 207.698 74.4224C207.997 74.2084 208.352 74.0872 208.719 74.074Z" fill="#EB996E"/>
<path d="M198.44 87.8633C198.483 87.938 198.048 88.2242 197.425 88.2491C196.803 88.274 196.349 88.0313 196.38 87.9566C196.411 87.882 196.865 87.9566 197.413 87.9255C197.96 87.8944 198.402 87.7575 198.44 87.8633Z" fill="#EB996E"/>
<path d="M198.041 88.5416C198.072 88.6225 197.792 88.8154 197.549 89.1638C197.307 89.5123 197.195 89.7861 197.101 89.7861C197.008 89.7861 196.989 89.3567 197.294 88.9585C197.599 88.5602 198.016 88.4856 198.041 88.5416Z" fill="#EB996E"/>
<path d="M215.103 92.3187C215.022 92.356 214.773 91.9454 214.257 91.7276C213.74 91.5098 213.274 91.6031 213.243 91.516C213.211 91.4289 213.336 91.3853 213.547 91.3418C213.828 91.2816 214.12 91.3121 214.381 91.4289C214.639 91.5444 214.856 91.7353 215.004 91.9765C215.134 92.1631 215.14 92.3063 215.103 92.3187Z" fill="#EB996E"/>
<path d="M216.305 92.4556C216.211 92.4867 216 92.0262 215.552 91.6342C215.104 91.2422 214.624 91.0617 214.649 90.9746C214.674 90.8875 215.272 90.9186 215.763 91.3915C216.255 91.8645 216.385 92.4432 216.305 92.4556Z" fill="#EB996E"/>
<path d="M215.907 83.0345C215.77 83.6596 215.407 84.2117 214.886 84.584C214.437 85.0426 213.829 85.3101 213.188 85.3307C213.188 85.2436 213.934 84.976 214.675 84.3351C215.415 83.6941 215.82 82.991 215.907 83.0345Z" fill="#EB996E"/>
<path d="M204.874 233.305L205.72 254.723C205.72 254.723 184.227 262.775 184.003 266.745L225.589 266.608L225.645 233.18L204.874 233.305Z" fill="#455A64"/>
<path d="M218.57 252.881C218.971 252.999 219.314 253.262 219.532 253.618C219.751 253.975 219.829 254.399 219.752 254.81C219.647 255.215 219.391 255.563 219.037 255.784C218.683 256.006 218.257 256.082 217.848 255.999C217.423 255.871 217.061 255.591 216.831 255.211C216.601 254.832 216.52 254.381 216.603 253.945C216.877 253.155 217.991 252.539 218.725 252.931" fill="#E0E0E0"/>
<g opacity="0.6">
<path d="M225.589 266.608L225.464 263.236L185.639 264.63C185.639 264.63 183.773 265.445 184.009 266.745L225.589 266.608Z" fill="white"/>
</g>
<path d="M205.042 254.512C205.042 254.717 206.068 254.804 207.07 255.458C208.072 256.111 208.601 256.957 208.788 256.876C208.974 256.795 208.669 255.632 207.444 254.86C206.218 254.089 204.998 254.331 205.042 254.512Z" fill="#263238"/>
<path d="M200.686 256.335C200.642 256.528 201.519 256.87 202.216 257.729C202.913 258.588 203.112 259.496 203.312 259.484C203.511 259.471 203.641 258.326 202.758 257.275C201.874 256.223 200.692 256.142 200.686 256.335Z" fill="#263238"/>
<path d="M198.228 261.562C198.415 261.605 198.688 260.591 198.166 259.477C197.643 258.363 196.691 257.928 196.604 258.096C196.517 258.264 197.108 258.861 197.525 259.782C197.942 260.703 198.023 261.543 198.228 261.562Z" fill="#263238"/>
<path d="M205.39 249.614C205.478 249.795 206.411 249.515 207.556 249.614C208.701 249.714 209.603 250.044 209.709 249.87C209.815 249.695 208.95 248.974 207.593 248.905C206.237 248.837 205.291 249.453 205.39 249.614Z" fill="#263238"/>
<path d="M317.273 261.313L338.473 258.139C338.473 258.139 348.815 278.624 352.785 278.419L348.106 237.095L314.877 240.685L317.273 261.313Z" fill="#455A64"/>
<path d="M335.238 245.564C335.313 245.153 335.538 244.784 335.869 244.529C336.2 244.274 336.613 244.151 337.03 244.182C337.443 244.244 337.817 244.461 338.075 244.79C338.333 245.119 338.455 245.533 338.417 245.949C338.336 246.384 338.096 246.774 337.745 247.043C337.393 247.311 336.954 247.441 336.513 247.405C335.698 247.219 334.964 246.161 335.269 245.408" fill="#E0E0E0"/>
<g opacity="0.6">
<path d="M348.119 237.095L344.777 237.586L350.533 277.031C350.533 277.031 351.541 278.78 352.817 278.425L348.119 237.095Z" fill="white"/>
</g>
<path d="M338.337 258.836C338.536 258.805 338.517 257.785 339.052 256.721C339.587 255.657 340.378 255.028 340.297 254.854C340.216 254.68 339.052 255.109 338.43 256.41C337.808 257.71 338.156 258.899 338.337 258.836Z" fill="#263238"/>
<path d="M340.62 262.968C340.82 262.968 341.068 262.078 341.865 261.294C342.661 260.51 343.52 260.212 343.489 260.012C343.458 259.813 342.307 259.813 341.361 260.803C340.415 261.792 340.427 262.981 340.62 262.968Z" fill="#263238"/>
<path d="M346.083 264.841C346.083 264.655 345.069 264.487 344.024 265.127C342.978 265.768 342.642 266.764 342.823 266.832C343.003 266.901 343.526 266.248 344.391 265.731C345.256 265.215 346.09 265.047 346.083 264.841Z" fill="#263238"/>
<path d="M333.427 259.023C333.601 258.917 333.215 258.021 333.166 256.87C333.116 255.719 333.371 254.792 333.166 254.711C332.96 254.63 332.357 255.557 332.438 256.914C332.518 258.27 333.278 259.141 333.427 259.023Z" fill="#263238"/>
<path d="M183.044 145.889L212.888 153.07L203.747 171.558L177.145 156.48L183.044 145.889Z" fill="#FFBE9D"/>
<path d="M172.964 141.341L167.861 140.364L160.861 143.662L157.892 150.258C157.702 150.682 157.643 151.153 157.723 151.611C157.802 152.069 158.018 152.493 158.341 152.828C159.585 154.147 161.67 156.144 162.74 156.312C162.74 156.312 162.895 158.627 165.073 158.739C165.073 158.739 164.451 159.809 166.971 160.214C169.491 160.618 177.45 159.144 177.45 159.144C177.45 159.144 177.917 157.756 175.745 156.032L178.34 153.941C178.34 153.941 178.184 152.286 175.758 151.869L178.359 147.601L172.964 141.341Z" fill="#120F6C"/>
<path d="M175.31 156.58L184.053 161.888L191.184 147.495L180.219 143.487L173.617 156.275L175.31 156.58Z" fill="#120F6C"/>
<path d="M161.701 144.589L161.123 146.138L142.897 139.275L140.638 138.69L139.617 137.819L140.351 136.425L141.559 136.574L143.525 137.831L161.701 144.589Z" fill="#E0E0E0"/>
<path d="M175.745 156.057C175.275 156.35 174.769 156.582 174.24 156.748C172.992 157.228 171.716 157.631 170.419 157.955C169.122 158.279 167.806 158.524 166.48 158.689C165.933 158.782 165.378 158.816 164.825 158.789C165.356 158.634 165.899 158.524 166.449 158.459C167.451 158.285 168.832 158.017 170.338 157.638C171.844 157.258 173.188 156.847 174.159 156.536C174.674 156.334 175.204 156.174 175.745 156.057Z" fill="#263238"/>
<path d="M163.3 156.032C166.892 155.571 170.427 154.737 173.847 153.543C174.287 153.409 174.706 153.214 175.092 152.965C175.494 152.698 175.781 152.289 175.894 151.82" fill="#120F6C"/>
<path d="M175.914 151.826C175.92 152.014 175.87 152.201 175.77 152.361C175.518 152.804 175.13 153.153 174.663 153.357C173.17 153.967 171.638 154.476 170.077 154.881C168.513 155.293 166.928 155.62 165.329 155.858C164.668 155.978 163.997 156.037 163.325 156.032C163.971 155.855 164.628 155.72 165.292 155.628C166.536 155.398 168.173 155.049 169.99 154.564C171.807 154.078 173.456 153.581 174.588 153.151C175.03 152.976 175.412 152.678 175.69 152.292C175.845 152.012 175.882 151.82 175.914 151.826Z" fill="#263238"/>
<path d="M176.816 153.655L160.687 147.657L162.36 143.151L178.489 149.15C178.788 149.26 179.061 149.428 179.294 149.644C179.527 149.861 179.714 150.121 179.846 150.411C179.977 150.7 180.05 151.013 180.059 151.33C180.069 151.648 180.016 151.964 179.902 152.261C179.677 152.855 179.226 153.336 178.647 153.597C178.069 153.858 177.41 153.879 176.816 153.655Z" fill="#455A64"/>
<path d="M161.402 150.818C165.443 149.995 169.55 149.543 173.673 149.467C174.163 149.412 174.658 149.501 175.098 149.723C175.311 149.876 175.487 150.077 175.612 150.309C175.737 150.54 175.808 150.797 175.82 151.06C175.826 151.514 175.697 151.96 175.451 152.341C175.204 152.722 174.849 153.021 174.432 153.201H174.395" fill="#120F6C"/>
<path d="M174.382 153.238C174.382 153.238 174.6 153.108 174.942 152.809C175.183 152.612 175.378 152.365 175.511 152.084C175.644 151.803 175.714 151.496 175.714 151.185C175.7 150.762 175.54 150.357 175.26 150.04C175.082 149.881 174.872 149.761 174.645 149.688C174.418 149.615 174.178 149.591 173.94 149.617C172.864 149.617 171.663 149.685 170.418 149.772C167.929 149.94 165.664 150.214 164.04 150.457L162.117 150.743C161.883 150.797 161.643 150.822 161.402 150.818C161.625 150.729 161.856 150.662 162.093 150.619C162.541 150.513 163.194 150.376 164.003 150.227C166.118 149.858 168.251 149.604 170.394 149.467C171.638 149.38 172.845 149.343 173.94 149.343C174.217 149.32 174.495 149.355 174.757 149.447C175.019 149.54 175.258 149.686 175.459 149.878C175.772 150.246 175.944 150.714 175.944 151.197C175.946 151.59 175.829 151.974 175.608 152.299C175.45 152.54 175.25 152.75 175.017 152.921C174.644 153.201 174.382 153.263 174.382 153.238Z" fill="#263238"/>
<path d="M183.474 146.269C183.474 146.269 178.34 141.708 176.305 140.581C174.806 139.668 173.02 139.346 171.296 139.679C170.157 139.959 161.694 146.076 161.694 146.076C161.694 146.076 162.522 148.061 165.328 147.775C166.963 147.634 168.5 146.938 169.684 145.802C169.684 145.802 170.213 148.584 173.685 149.474C177.674 150.5 183.474 146.269 183.474 146.269Z" fill="#120F6C"/>
<path d="M169.604 140.7C169.429 140.87 169.237 141.023 169.031 141.154L167.382 142.349L161.608 146.393L161.639 146.176C162.083 146.716 162.66 147.132 163.313 147.383C164.017 147.633 164.772 147.704 165.509 147.588C167.007 147.323 168.408 146.668 169.573 145.69L169.747 145.547L169.816 145.759C170.175 146.843 170.858 147.792 171.772 148.477C172.687 149.162 173.789 149.551 174.931 149.592C175.591 149.615 176.252 149.529 176.884 149.337C177.108 149.25 177.337 149.175 177.569 149.113C177.519 149.152 177.465 149.185 177.407 149.212C177.249 149.297 177.084 149.369 176.916 149.43C176.279 149.667 175.604 149.785 174.924 149.779C173.876 149.775 172.85 149.478 171.962 148.92C170.823 148.205 169.962 147.123 169.523 145.852L169.766 145.92C168.568 146.952 167.111 147.638 165.553 147.906C164.763 148.033 163.953 147.956 163.201 147.681C162.493 147.413 161.869 146.96 161.396 146.369L161.291 146.238L161.434 146.145C163.767 144.558 165.789 143.195 167.277 142.187L168.975 141.067C169.172 140.923 169.382 140.8 169.604 140.7Z" fill="#263238"/>
<path d="M177.108 159.336C177.337 159.067 177.458 158.721 177.448 158.367C177.438 158.013 177.296 157.676 177.052 157.42C176.546 156.923 175.923 156.562 175.241 156.368C175.68 156.235 176.076 155.986 176.386 155.646C176.614 155.418 176.761 155.121 176.803 154.8C176.801 154.539 176.725 154.283 176.584 154.063C176.443 153.843 176.243 153.667 176.006 153.556C175.57 153.39 175.103 153.318 174.637 153.344" fill="#120F6C"/>
<path d="M174.637 153.344C174.759 153.312 174.885 153.299 175.011 153.307C175.364 153.26 175.723 153.31 176.05 153.45C176.306 153.562 176.526 153.743 176.685 153.973C176.844 154.202 176.937 154.471 176.952 154.75C176.937 155.083 176.81 155.401 176.591 155.653C176.373 155.906 176.109 156.117 175.814 156.275C175.649 156.37 175.473 156.446 175.291 156.499V156.194C175.835 156.367 176.348 156.628 176.809 156.966C177.204 157.258 177.468 157.694 177.543 158.179C177.6 158.495 177.538 158.821 177.369 159.094C177.245 159.28 177.133 159.336 177.12 159.324C177.228 159.163 177.303 158.982 177.339 158.792C177.376 158.602 177.373 158.406 177.332 158.216C177.237 157.807 176.993 157.448 176.647 157.208C176.201 156.905 175.713 156.67 175.197 156.511L174.749 156.35L175.204 156.207C175.363 156.155 175.517 156.088 175.664 156.007C175.916 155.892 176.138 155.719 176.312 155.503C176.486 155.287 176.607 155.034 176.666 154.763C176.652 154.535 176.58 154.315 176.456 154.124C176.331 153.934 176.159 153.778 175.957 153.674C175.664 153.531 175.343 153.455 175.017 153.45C174.762 153.406 174.631 153.369 174.637 153.344Z" fill="#263238"/>
<path d="M186.797 145.889L179.846 159.336L182.404 160.886L188.937 146.673L186.797 145.889Z" fill="#E0E0E0"/>
<path d="M218.321 109.723C218.321 109.723 221.115 101.012 226.348 100.315C231.581 99.6179 237.791 99.8419 242.035 101.391C249.689 104.192 281.692 138.03 281.692 138.03C281.692 138.03 291.418 151.179 288.195 156.312L261.257 166.511H238.526C238.526 166.511 222.011 144.875 222.347 144.334C222.683 143.792 218.321 109.723 218.321 109.723Z" fill="#E0E0E0"/>
<path d="M251.973 198.216C251.973 198.216 252.763 252.44 254.605 256.914C256.447 261.388 258.818 264.81 266.714 266.391C274.611 267.971 333.838 263.759 333.838 263.759L330.944 237.207L288.742 233.336C288.742 233.336 288.562 221.413 288.823 215.882C289.084 210.35 295.264 200.001 296.048 187.643C296.832 175.285 251.973 198.216 251.973 198.216Z" fill="#120F6C"/>
<path d="M289.775 232.851C289.775 232.9 289.01 233.249 287.815 233.921C286.264 234.812 284.805 235.854 283.459 237.032C282.111 238.215 280.885 239.531 279.8 240.959C278.972 242.054 278.556 242.782 278.475 242.757C278.536 242.563 278.624 242.379 278.736 242.21C279.007 241.732 279.302 241.269 279.62 240.822C280.658 239.336 281.875 237.981 283.241 236.79C284.609 235.597 286.115 234.573 287.728 233.741C288.213 233.487 288.712 233.258 289.221 233.056C289.397 232.965 289.583 232.896 289.775 232.851Z" fill="#263238"/>
<path d="M282.376 248.569C282.381 248.344 282.413 248.121 282.47 247.903C282.544 247.486 282.681 246.876 282.881 246.136C283.403 244.203 284.081 242.315 284.909 240.492C285.741 238.67 286.721 236.92 287.84 235.259C288.269 234.637 288.636 234.126 288.904 233.79C289.03 233.605 289.178 233.436 289.346 233.286C289.383 233.317 288.836 234.089 288.027 235.39C286.97 237.073 286.024 238.823 285.195 240.629C284.375 242.439 283.671 244.299 283.086 246.198C282.656 247.661 282.426 248.582 282.376 248.569Z" fill="#263238"/>
<g opacity="0.3">
<path d="M252.246 209.727L252.215 209.951C256.761 213.453 262.407 215.218 268.139 214.929C274.208 214.416 279.931 211.883 284.392 207.736C274.311 210.605 262.7 210.487 252.246 209.727Z" fill="black"/>
</g>
<path d="M315.686 235.775L317.248 264.854L326.433 264.263L324.69 236.603L315.686 235.775Z" fill="#E0E0E0"/>
<path d="M228.706 149.1L261.966 165.068L288.848 152.66C288.848 152.66 293.876 158.602 294.859 161.073C295.842 163.543 296.172 171.975 296.172 171.975L261.586 176.467H231.749L226.348 167.301L228.706 149.1Z" fill="#120F6C"/>
<path d="M295.805 166.524C292.644 162.84 249.87 170.575 249.87 170.575C249.87 170.575 207.487 172.441 201.171 173.474C194.855 174.507 188.938 185.509 188.938 192.086C188.938 198.664 194.6 248.569 194.6 248.569L230.436 244.923C230.175 240.187 226.46 206.112 226.46 206.112C226.46 206.112 259.359 211.905 267.784 210.847C276.21 209.79 290.186 200.319 293.297 195.845C296.409 191.371 298.96 170.207 295.805 166.524Z" fill="#120F6C"/>
<path d="M228.856 171.558C228.856 171.558 280.902 164.819 297.199 177.158C297.199 177.158 300.242 170.133 295.805 166.542C291.368 162.952 227.02 168.471 227.02 168.471L228.856 171.558Z" fill="#455A64"/>
<path d="M213.442 193.953C213.695 193.97 213.945 194.013 214.189 194.084C214.48 194.141 214.767 194.218 215.047 194.314C215.427 194.421 215.801 194.548 216.168 194.693C217.122 195.064 218.043 195.518 218.918 196.05C221.075 197.36 222.935 199.104 224.381 201.171C224.969 202.011 225.479 202.902 225.906 203.835C226.105 204.227 226.23 204.6 226.36 204.923C226.471 205.197 226.565 205.478 226.64 205.764C226.73 206.002 226.789 206.251 226.814 206.504C226.752 206.504 226.466 205.484 225.701 203.934C225.248 203.03 224.724 202.165 224.132 201.345C223.405 200.344 222.589 199.411 221.693 198.558C220.785 197.722 219.804 196.968 218.762 196.305C217.906 195.769 217.009 195.301 216.08 194.905C214.487 194.27 213.43 194.015 213.442 193.953Z" fill="#263238"/>
<path d="M214.127 199.485C214.311 199.484 214.495 199.507 214.674 199.553C215.162 199.635 215.646 199.741 216.124 199.871C217.713 200.326 219.251 200.942 220.716 201.706C222.182 202.47 223.565 203.383 224.842 204.432C225.327 204.836 225.707 205.179 225.956 205.434C226.205 205.689 226.342 205.826 226.323 205.844C226.304 205.863 225.701 205.372 224.699 204.6C223.394 203.617 222.012 202.741 220.567 201.98C219.117 201.226 217.609 200.591 216.056 200.082C214.88 199.728 214.114 199.535 214.127 199.485Z" fill="#263238"/>
<path d="M285.114 207.811L284.965 207.854L284.529 207.954L282.843 208.309C282.109 208.464 281.213 208.645 280.161 208.806C279.109 208.968 277.921 209.192 276.589 209.342L274.505 209.597C273.783 209.684 273.024 209.734 272.24 209.808C270.672 209.976 268.991 210.045 267.224 210.144C263.69 210.281 259.794 210.287 255.712 210.094C248.749 209.714 241.813 208.928 234.941 207.742C232.303 207.294 230.175 206.902 228.719 206.604L227.032 206.255L226.59 206.156C226.491 206.156 226.441 206.118 226.447 206.112H226.597L227.038 206.18L228.737 206.467C230.212 206.728 232.346 207.089 234.96 207.506C241.831 208.623 248.756 209.375 255.706 209.758C259.782 209.951 263.665 209.951 267.193 209.833C268.954 209.746 270.634 209.684 272.171 209.528C272.955 209.46 273.708 209.416 274.436 209.335L276.521 209.099C277.846 208.968 279.01 208.763 280.093 208.614C281.175 208.464 282.04 208.309 282.775 208.172L284.473 207.879L284.915 207.811H285.114Z" fill="#263238"/>
<path d="M242.981 198.9C242.847 198.964 242.707 199.016 242.564 199.056L241.351 199.435L236.889 200.767L236.771 200.804L236.733 200.68C235.887 197.568 235.078 193.362 234.244 188.763C233.622 185.266 232.944 182.006 232.259 179.305L232.216 179.137H232.384C234.539 179.072 236.695 179.23 238.818 179.61C239.583 179.747 240.175 179.884 240.579 179.983C240.792 180.025 241 180.087 241.201 180.17C240.992 180.151 240.784 180.117 240.579 180.07C240.175 179.989 239.577 179.877 238.812 179.765C236.695 179.452 234.554 179.333 232.415 179.411L232.546 179.236C233.261 181.943 233.927 185.204 234.58 188.701C235.433 193.306 236.211 197.512 237.007 200.617L236.858 200.53L241.351 199.286L242.595 198.968C242.721 198.933 242.851 198.911 242.981 198.9Z" fill="#263238"/>
<path d="M243.933 198.446C243.882 198.211 243.861 197.97 243.871 197.73C243.871 197.201 243.827 196.554 243.796 195.782C243.604 191.498 242.956 187.247 241.861 183.101L241.357 181.234C241.276 181.007 241.222 180.771 241.195 180.531C241.318 180.739 241.412 180.963 241.475 181.197C241.637 181.626 241.848 182.267 242.097 183.063C243.314 187.203 243.967 191.487 244.039 195.801C244.039 196.629 244.039 197.295 244.039 197.755C244.027 197.988 243.991 198.22 243.933 198.446Z" fill="#263238"/>
<g opacity="0.3">
<path d="M236.945 200.736C235.502 194.401 234.525 188.564 233.081 182.23L233.006 182.161C233.803 189.423 234.456 196.685 235.259 203.94C238.008 202.8 240.493 201.105 242.558 198.962L236.945 200.736Z" fill="black"/>
</g>
<path d="M220.399 209.653C220.45 209.793 220.483 209.94 220.499 210.088C220.549 210.412 220.617 210.829 220.698 211.333C220.86 212.465 221.09 214.027 221.37 215.938V216.062H221.246C218.047 216.448 213.779 216.641 209.093 216.821C205.54 216.964 202.248 217.132 199.448 217.443H199.28V217.275C199.526 215.133 199.995 213.023 200.68 210.978C200.923 210.238 201.147 209.671 201.302 209.286C201.374 209.087 201.464 208.896 201.57 208.713C201.522 208.925 201.457 209.133 201.377 209.335C201.246 209.727 201.047 210.306 200.823 211.047C200.221 213.087 199.807 215.178 199.585 217.294L199.435 217.145C202.211 216.827 205.534 216.641 209.093 216.522C213.772 216.342 218.041 216.18 221.233 215.844L221.127 215.981C220.891 214.065 220.698 212.496 220.561 211.358C220.505 210.841 220.462 210.424 220.424 210.113C220.405 209.96 220.397 209.807 220.399 209.653Z" fill="#263238"/>
<path d="M220.094 208.645C219.854 208.66 219.614 208.643 219.378 208.595L217.437 208.389C213.169 207.964 208.868 207.991 204.606 208.47L202.671 208.701C202.435 208.744 202.195 208.763 201.955 208.757C202.176 208.666 202.409 208.606 202.646 208.576C203.1 208.477 203.76 208.358 204.575 208.24C206.709 207.94 208.86 207.782 211.015 207.767C213.171 207.753 215.325 207.886 217.462 208.165C218.283 208.271 218.943 208.383 219.397 208.47C219.635 208.505 219.868 208.563 220.094 208.645Z" fill="#263238"/>
<g opacity="0.3">
<path d="M221.345 215.888C214.873 216.398 205.925 216.796 199.447 217.307L201.936 218.962C209.235 219.223 223.268 218.103 223.268 218.103L220.405 210.082C220.729 212.015 221.042 213.95 221.345 215.888Z" fill="black"/>
</g>
<path d="M271.661 148.441C271.517 148.662 271.355 148.87 271.176 149.063C270.846 149.474 270.354 150.052 269.732 150.755C268.487 152.156 266.708 154.041 264.604 155.982C262.501 157.924 260.479 159.548 259.004 160.674C258.251 161.234 257.635 161.682 257.2 161.975C256.985 162.142 256.753 162.286 256.509 162.404C256.699 162.207 256.908 162.028 257.131 161.869L258.867 160.494C260.329 159.324 262.315 157.675 264.412 155.74C266.509 153.805 268.313 151.963 269.595 150.6L271.107 148.982C271.271 148.781 271.457 148.6 271.661 148.441Z" fill="#263238"/>
<path d="M256.745 147.98C256.708 148.628 256.612 149.272 256.459 149.903C256.229 151.079 255.868 152.691 255.376 154.458C254.885 156.225 254.362 157.793 253.951 158.913C253.756 159.532 253.506 160.131 253.205 160.705C253.331 160.07 253.508 159.446 253.734 158.839C254.088 157.694 254.574 156.119 255.065 154.365C255.557 152.61 255.949 151.004 256.235 149.847C256.36 149.213 256.531 148.589 256.745 147.98Z" fill="#263238"/>
<path d="M270.516 169.125L269.483 196.946C269.401 199.2 270.215 201.395 271.747 203.05C273.28 204.705 275.406 205.685 277.66 205.776L290.136 206.274C292.34 206.364 294.493 205.595 296.142 204.129C297.79 202.663 298.805 200.614 298.972 198.415C299.657 189.504 300.267 175.646 298.213 169.125H270.516Z" fill="#455A64"/>
<path d="M298.481 171.514C298.134 171.605 297.78 171.665 297.423 171.695C296.744 171.794 295.755 171.906 294.529 172.012C288.132 172.554 281.691 172.297 275.357 171.247C274.113 171.041 273.167 170.848 272.495 170.693C272.144 170.631 271.799 170.542 271.462 170.425C271.818 170.443 272.172 170.491 272.52 170.568C273.198 170.687 274.181 170.842 275.395 171.023C278.558 171.466 281.742 171.749 284.934 171.869C288.126 171.998 291.322 171.963 294.511 171.763C295.755 171.688 296.726 171.614 297.41 171.552C297.766 171.514 298.123 171.501 298.481 171.514Z" fill="#263238"/>
<path d="M298.599 182.516C298.3 182.683 297.986 182.818 297.659 182.92C297.354 183.045 296.975 183.188 296.527 183.325C296.079 183.462 295.575 183.648 295.002 183.791C293.668 184.164 292.314 184.457 290.945 184.669C289.266 184.92 287.571 185.06 285.874 185.086C284.176 185.094 282.48 184.992 280.796 184.781C279.423 184.6 278.062 184.338 276.72 183.997C276.148 183.866 275.637 183.698 275.189 183.561C274.741 183.424 274.355 183.3 274.044 183.182C273.718 183.079 273.4 182.952 273.092 182.802C273.429 182.859 273.76 182.947 274.082 183.063C274.399 183.163 274.785 183.275 275.239 183.387C275.693 183.499 276.197 183.655 276.776 183.773C278.115 184.081 279.469 184.32 280.833 184.488C284.18 184.891 287.565 184.853 290.901 184.376C292.261 184.18 293.609 183.912 294.94 183.574C295.519 183.443 296.023 183.281 296.471 183.157C296.919 183.032 297.305 182.908 297.616 182.802C297.937 182.685 298.265 182.589 298.599 182.516Z" fill="#263238"/>
<path d="M251.867 162.89C251.651 163.058 251.419 163.205 251.176 163.331C250.722 163.605 250.05 163.954 249.197 164.364C246.977 165.412 244.651 166.222 242.259 166.779C239.862 167.331 237.413 167.629 234.954 167.669C234.008 167.669 233.243 167.669 232.72 167.613C232.445 167.608 232.172 167.575 231.905 167.513C232.177 167.478 232.452 167.467 232.726 167.482C233.249 167.482 234.008 167.482 234.948 167.438C237.384 167.335 239.807 167.01 242.185 166.468C244.555 165.905 246.871 165.133 249.104 164.159C249.963 163.779 250.647 163.456 251.114 163.219C251.353 163.084 251.605 162.974 251.867 162.89Z" fill="#263238"/>
<path d="M194.196 244.923C194.158 244.593 193.219 236.093 193.219 236.093L229.279 232.851L230.094 240.94L194.196 244.923Z" fill="#E0E0E0"/>
<path d="M286.882 189.479L283.005 195.415H285.525L283.82 200.611L288.692 193.872H286.091L286.882 189.479Z" fill="#E0E0E0"/>
<path d="M214.549 131.851C214.549 131.851 207.306 144.01 207.294 151.645L172.988 168.353L176.641 178.384C176.641 178.384 217.387 173.53 220.156 172.049C222.925 170.568 230.187 164.582 232.234 159.959C234.281 155.335 237.536 141.409 237.536 141.409L214.549 131.851Z" fill="#FFBE9D"/>
<path d="M216.317 153.157C216.286 153.201 215.85 152.89 215.072 152.535C214.075 152.046 213.009 151.713 211.911 151.546C210.814 151.374 209.697 151.374 208.601 151.546C207.76 151.689 207.25 151.857 207.238 151.807C207.643 151.564 208.091 151.4 208.557 151.322C209.674 151.071 210.828 151.029 211.961 151.197C213.093 151.364 214.185 151.741 215.178 152.311C215.609 152.517 215.996 152.804 216.317 153.157Z" fill="#EB996E"/>
<path d="M147.37 164.252L138.583 173.991L165.285 179.653L164.824 167.625L147.37 164.252Z" fill="#455A64"/>
<path d="M173.586 167.625C173.586 167.625 168.459 166.381 165.988 166.617C163.518 166.853 152.336 169.33 152.336 169.33C152.336 169.33 151.477 171.346 154.271 172.205C157.065 173.064 160.83 172.205 160.83 172.205C160.83 172.205 153.948 177.687 153.842 178.116C153.736 178.546 152.877 179.516 153.948 180.269C155.018 181.022 158.247 180.269 158.247 180.269C158.247 180.269 158.247 182.634 159.218 183.275C160.189 183.916 161.041 184.457 161.041 184.457C161.041 184.457 162.765 186.287 163.835 186.61C164.906 186.934 167.065 187.363 167.065 187.363H170.288L179 180.002L186.504 178.384L181.725 163.854L173.586 167.625Z" fill="#120F6C"/>
<path d="M163.511 178.664C162.757 179.189 161.913 179.572 161.022 179.796C160.158 180.129 159.242 180.306 158.315 180.319C159.166 179.989 160.037 179.713 160.923 179.492C161.769 179.167 162.633 178.89 163.511 178.664Z" fill="#263238"/>
<path d="M178.62 172.448C178.748 173.756 178.79 175.072 178.745 176.387C178.808 177.699 178.79 179.015 178.689 180.325C178.355 177.711 178.332 175.067 178.62 172.448Z" fill="#263238"/>
<path d="M177.451 165.833L182.049 179.342L185.179 178.664L179.846 164.719L177.451 165.833Z" fill="#E0E0E0"/>
<path d="M230.573 102.798C230.573 102.798 220.162 105.523 218.128 110.134C216.093 114.745 209.677 137.327 209.677 137.327L237.548 147.165C237.548 147.165 241.133 131.123 242.67 124.981C244.207 118.84 249.011 107.06 230.573 102.798Z" fill="#E0E0E0"/>
<path d="M209.665 137.327C209.717 137.32 209.769 137.32 209.821 137.327L210.256 137.464L211.918 138.012L218.022 140.077L238.19 147.028L237.978 147.153C237.978 146.991 238.034 146.81 238.065 146.63C239.434 138.285 240.672 130.731 241.581 125.23C242.041 122.517 242.415 120.308 242.682 118.752C242.813 118.012 242.919 117.421 243 116.991L243.087 116.537C243.096 116.484 243.11 116.432 243.13 116.382C243.137 116.435 243.137 116.49 243.13 116.543C243.13 116.668 243.099 116.817 243.074 117.004C243.012 117.433 242.925 118.024 242.819 118.771C242.577 120.333 242.234 122.548 241.817 125.268C240.94 130.775 239.727 138.335 238.395 146.686C238.395 146.86 238.339 147.041 238.308 147.202L238.277 147.395L238.096 147.333L217.947 140.32L211.874 138.161L210.231 137.539L209.808 137.371L209.665 137.327Z" fill="#263238"/>
<path d="M244.748 119.698C244.761 119.886 244.751 120.074 244.717 120.258C244.68 120.613 244.599 121.123 244.487 121.758C243.869 125.041 242.797 128.223 241.301 131.21C241.015 131.783 240.766 132.237 240.579 132.542C240.393 132.847 240.287 133.015 240.268 133.002C240.51 132.365 240.786 131.742 241.096 131.136C241.618 129.978 242.297 128.354 242.913 126.512C243.529 124.67 243.977 122.971 244.263 121.733C244.385 121.046 244.547 120.367 244.748 119.698Z" fill="#263238"/>
<path d="M211.42 137.98C211.398 138.069 211.365 138.155 211.32 138.236L210.984 138.957C210.692 139.58 210.262 140.501 209.783 141.677C208.483 144.851 207.696 148.212 207.45 151.633V151.72L207.369 151.757L201.072 154.8C195.764 157.401 190.972 159.778 187.481 161.434C185.739 162.274 184.314 162.933 183.331 163.381L182.192 163.891C182.063 163.958 181.928 164.01 181.788 164.047C181.905 163.959 182.032 163.886 182.167 163.829L183.281 163.269L187.382 161.228L200.928 154.514C203.144 153.431 205.284 152.404 207.238 151.484L207.151 151.608C207.417 148.149 208.259 144.759 209.64 141.577C210.144 140.407 210.605 139.499 210.922 138.883L211.302 138.186C211.334 138.114 211.374 138.045 211.42 137.98Z" fill="#EB996E"/>
<path d="M227.43 123.699L223.554 129.63H226.074L224.369 134.826L229.241 128.086H226.64L227.43 123.699Z" fill="#120F6C"/>
<path d="M229.092 138.372C227.34 137.934 225.616 137.394 223.927 136.755C222.205 136.213 220.518 135.569 218.874 134.826C220.623 135.265 222.346 135.805 224.033 136.443C225.756 136.984 227.446 137.628 229.092 138.372Z" fill="#120F6C"/>
<path d="M116.276 139.063H96.7495V158.59H116.276V139.063Z" fill="#455A64"/>
<path d="M113.171 148.845C113.113 148.314 113.026 147.786 112.909 147.265C112.53 145.863 111.693 144.628 110.532 143.755C109.681 143.112 108.681 142.693 107.625 142.537C106.569 142.382 105.491 142.495 104.49 142.865C103.305 143.29 102.276 144.065 101.541 145.087C100.737 146.174 100.303 147.49 100.303 148.842C100.303 150.194 100.737 151.51 101.541 152.597C101.912 153.118 102.363 153.576 102.878 153.954C103.368 154.324 103.912 154.615 104.49 154.819C105.491 155.189 106.569 155.302 107.625 155.147C108.681 154.991 109.681 154.572 110.532 153.929C111.694 153.057 112.531 151.822 112.909 150.419C113.025 149.9 113.112 149.374 113.171 148.845C113.209 149.384 113.161 149.927 113.028 150.451C112.733 151.679 112.092 152.796 111.179 153.669C110.266 154.542 109.122 155.134 107.881 155.373C106.712 155.598 105.504 155.504 104.384 155.099C103.779 154.889 103.211 154.586 102.698 154.203C102.153 153.808 101.674 153.329 101.279 152.784C100.434 151.642 99.9785 150.259 99.9785 148.839C99.9785 147.419 100.434 146.036 101.279 144.894C101.676 144.352 102.155 143.876 102.698 143.481C103.211 143.098 103.779 142.795 104.384 142.585C105.504 142.181 106.712 142.086 107.881 142.311C109.122 142.551 110.266 143.142 111.179 144.015C112.092 144.888 112.733 146.005 113.028 147.233C113.161 147.76 113.209 148.304 113.171 148.845Z" fill="#263238"/>
<path d="M105.212 148.677C105.212 148.887 105.15 149.091 105.033 149.265C104.917 149.44 104.751 149.575 104.557 149.655C104.364 149.735 104.151 149.755 103.945 149.714C103.74 149.673 103.552 149.571 103.404 149.423C103.256 149.274 103.156 149.085 103.116 148.88C103.076 148.674 103.097 148.461 103.179 148.268C103.26 148.075 103.396 147.91 103.571 147.795C103.746 147.679 103.951 147.618 104.16 147.619C104.299 147.619 104.436 147.647 104.564 147.7C104.692 147.753 104.808 147.831 104.906 147.929C105.004 148.028 105.081 148.144 105.134 148.273C105.186 148.401 105.213 148.539 105.212 148.677Z" fill="#263238"/>
<path d="M110.339 148.677C110.339 148.887 110.277 149.091 110.161 149.265C110.044 149.44 109.879 149.575 109.685 149.655C109.491 149.735 109.278 149.755 109.073 149.714C108.867 149.673 108.679 149.571 108.531 149.423C108.384 149.274 108.283 149.085 108.243 148.88C108.203 148.674 108.225 148.461 108.306 148.268C108.387 148.075 108.524 147.91 108.698 147.795C108.873 147.679 109.078 147.618 109.288 147.619C109.426 147.619 109.564 147.647 109.692 147.7C109.82 147.753 109.936 147.831 110.034 147.929C110.131 148.028 110.209 148.144 110.261 148.273C110.314 148.401 110.34 148.539 110.339 148.677Z" fill="#263238"/>
<path d="M100.141 156.704C100.142 156.887 100.089 157.066 99.9881 157.218C99.8874 157.371 99.7436 157.49 99.5751 157.56C99.4065 157.631 99.2209 157.649 99.0416 157.614C98.8624 157.579 98.6977 157.491 98.5686 157.362C98.4394 157.233 98.3516 157.068 98.3162 156.889C98.2809 156.709 98.2996 156.524 98.3701 156.355C98.4406 156.187 98.5596 156.043 98.712 155.942C98.8644 155.841 99.0433 155.788 99.226 155.79C99.4686 155.79 99.7012 155.886 99.8728 156.058C100.044 156.229 100.141 156.462 100.141 156.704Z" fill="#E0E0E0"/>
<path d="M99.6247 156.244C99.6558 156.331 99.4629 156.48 99.2824 156.704C99.102 156.928 98.9838 157.14 98.8904 157.121C98.7971 157.103 98.7909 156.785 99.0335 156.499C99.2762 156.213 99.5998 156.163 99.6247 156.244Z" fill="#263238"/>
<path d="M99.6302 156.972C99.5431 157.003 99.3937 156.81 99.1573 156.648C98.9208 156.487 98.6968 156.406 98.6968 156.312C98.6968 156.219 99.0266 156.157 99.3502 156.387C99.6737 156.617 99.7173 156.935 99.6302 156.972Z" fill="#263238"/>
<path d="M115.361 156.704C115.362 156.887 115.309 157.065 115.209 157.218C115.108 157.37 114.965 157.489 114.797 157.56C114.629 157.63 114.443 157.649 114.264 157.615C114.085 157.58 113.92 157.493 113.791 157.364C113.662 157.235 113.573 157.071 113.537 156.893C113.501 156.714 113.519 156.528 113.589 156.36C113.658 156.191 113.776 156.047 113.928 155.945C114.079 155.844 114.258 155.79 114.44 155.79C114.683 155.79 114.916 155.886 115.089 156.057C115.262 156.228 115.359 156.461 115.361 156.704Z" fill="#E0E0E0"/>
<path d="M114.844 156.244C114.844 156.331 114.683 156.48 114.502 156.704C114.322 156.928 114.203 157.14 114.11 157.121C114.017 157.103 114.011 156.785 114.253 156.499C114.496 156.213 114.82 156.163 114.844 156.244Z" fill="#263238"/>
<path d="M114.851 156.972C114.764 157.003 114.614 156.81 114.378 156.648C114.141 156.487 113.917 156.406 113.917 156.312C113.917 156.219 114.247 156.157 114.54 156.387C114.832 156.617 114.938 156.935 114.851 156.972Z" fill="#263238"/>
<path d="M115.361 140.899C115.361 141.081 115.307 141.259 115.206 141.41C115.105 141.562 114.961 141.68 114.792 141.75C114.624 141.819 114.439 141.838 114.26 141.802C114.082 141.767 113.918 141.679 113.789 141.55C113.66 141.421 113.572 141.257 113.537 141.079C113.501 140.9 113.519 140.715 113.589 140.546C113.659 140.378 113.777 140.234 113.928 140.133C114.08 140.032 114.258 139.978 114.44 139.978C114.684 139.978 114.918 140.075 115.091 140.248C115.264 140.42 115.361 140.655 115.361 140.899Z" fill="#E0E0E0"/>
<path d="M114.844 140.438C114.844 140.519 114.683 140.675 114.502 140.893C114.322 141.11 114.203 141.328 114.11 141.31C114.017 141.291 114.011 140.974 114.253 140.687C114.496 140.401 114.82 140.351 114.844 140.438Z" fill="#263238"/>
<path d="M114.851 141.166C114.764 141.166 114.614 140.998 114.378 140.843C114.141 140.687 113.917 140.594 113.917 140.507C113.917 140.42 114.247 140.351 114.54 140.575C114.832 140.799 114.938 141.142 114.851 141.166Z" fill="#263238"/>
<path d="M100.134 140.899C100.134 141.081 100.08 141.26 99.9787 141.411C99.8773 141.563 99.733 141.681 99.5644 141.75C99.3958 141.82 99.2103 141.838 99.0315 141.802C98.8526 141.766 98.6886 141.677 98.56 141.548C98.4315 141.418 98.3443 141.254 98.3094 141.075C98.2746 140.896 98.2937 140.71 98.3644 140.542C98.435 140.374 98.554 140.23 98.7063 140.13C98.8586 140.03 99.0372 139.977 99.2197 139.978C99.3403 139.978 99.4598 140.002 99.5711 140.048C99.6825 140.094 99.7837 140.162 99.8687 140.248C99.9537 140.334 100.021 140.435 100.067 140.547C100.112 140.659 100.135 140.778 100.134 140.899Z" fill="#E0E0E0"/>
<path d="M99.6179 140.438C99.6179 140.519 99.4561 140.675 99.2756 140.893C99.0952 141.11 98.9769 141.328 98.8836 141.31C98.7903 141.291 98.784 140.974 99.0267 140.687C99.2694 140.401 99.593 140.351 99.6179 140.438Z" fill="#263238"/>
<path d="M99.6243 141.166C99.5372 141.166 99.3879 140.998 99.1576 140.843C98.9274 140.687 98.6909 140.594 98.6909 140.507C98.6909 140.42 99.0207 140.351 99.3443 140.575C99.6679 140.799 99.7114 141.142 99.6243 141.166Z" fill="#263238"/>
<path d="M138.31 139.063H118.784V158.59H138.31V139.063Z" fill="#263238"/>
<path d="M124.172 139.063C124.231 139.252 124.302 139.437 124.384 139.617C124.662 140.113 125.024 140.558 125.454 140.93C127.061 142.29 128.826 143.45 130.712 144.384C131.889 145.006 133.202 145.665 134.614 146.337L136.817 147.364C137.616 147.704 138.387 148.11 139.119 148.578C140.734 149.577 141.964 151.092 142.61 152.877C142.93 153.844 143.041 154.868 142.935 155.881C142.829 156.894 142.508 157.873 141.994 158.753C141.48 159.632 140.785 160.392 139.954 160.982C139.124 161.572 138.177 161.978 137.178 162.174C135.307 162.48 133.388 162.193 131.689 161.353C130.169 160.61 128.783 159.62 127.589 158.422C126.444 157.327 125.485 156.219 124.608 155.211C122.835 153.22 121.31 151.683 120.308 150.575C119.804 150.027 119.412 149.592 119.157 149.293L118.871 148.951C118.836 148.913 118.807 148.872 118.784 148.826C118.784 148.826 118.827 148.826 118.896 148.926L119.207 149.25L120.402 150.494C121.435 151.577 122.978 153.083 124.757 155.068C125.653 156.063 126.624 157.159 127.751 158.235C128.934 159.4 130.3 160.363 131.795 161.085C133.438 161.891 135.291 162.165 137.097 161.869C138.053 161.684 138.959 161.296 139.753 160.733C140.548 160.169 141.213 159.443 141.704 158.601C142.195 157.76 142.501 156.824 142.602 155.855C142.702 154.886 142.595 153.907 142.287 152.983C141.676 151.269 140.505 149.812 138.964 148.845C138.247 148.383 137.494 147.981 136.711 147.644L134.508 146.599C133.096 145.914 131.789 145.248 130.613 144.608C128.724 143.647 126.965 142.448 125.38 141.042C124.949 140.65 124.595 140.182 124.334 139.661C124.272 139.524 124.228 139.379 124.204 139.231C124.183 139.178 124.172 139.121 124.172 139.063Z" fill="#455A64"/>
<path d="M131.913 139.063C131.874 139.264 131.807 139.459 131.714 139.642C131.492 140.158 131.208 140.644 130.868 141.092C129.711 142.567 128.113 143.633 126.307 144.135C125.302 144.36 124.264 144.396 123.245 144.24C122.422 144.115 121.613 143.906 120.831 143.618C120.303 143.437 119.791 143.212 119.3 142.946C119.111 142.865 118.937 142.754 118.784 142.616C118.784 142.566 119.574 142.99 120.906 143.4C121.681 143.642 122.477 143.815 123.283 143.917C124.264 144.045 125.26 144.001 126.226 143.786C127.967 143.298 129.521 142.299 130.688 140.918C131.133 140.324 131.542 139.705 131.913 139.063Z" fill="#455A64"/>
<path d="M126.201 147.93H125.579C123.133 147.806 120.644 146.804 118.528 145.84L119.045 144.707C121.055 145.622 123.401 146.574 125.641 146.692C127.837 146.868 130.02 146.23 131.776 144.9C132.608 144.246 133.251 143.383 133.639 142.399C134.027 141.415 134.147 140.345 133.985 139.3L135.23 139.051C135.441 140.317 135.307 141.618 134.842 142.815C134.376 144.011 133.597 145.061 132.585 145.852C130.759 147.258 128.505 147.992 126.201 147.93Z" fill="#455A64"/>
<path d="M127.801 139.063C127.726 139.222 127.634 139.372 127.527 139.511C127.219 139.916 126.854 140.274 126.444 140.575C125.789 141.024 125.112 141.44 124.415 141.82C123.506 142.33 122.693 142.995 122.013 143.786C121.621 144.241 121.316 144.764 121.111 145.329C120.894 145.93 120.876 146.585 121.061 147.196C121.447 148.478 122.835 149.368 124.303 149.573C125.772 149.779 127.415 149.306 128.983 148.789C130.551 148.273 132.331 147.719 134.166 148.067C135.072 148.245 135.898 148.702 136.531 149.374C136.851 149.698 137.094 150.09 137.242 150.521C137.39 150.952 137.438 151.411 137.383 151.863C137.233 152.722 136.794 153.503 136.139 154.078C135.543 154.625 134.87 155.08 134.141 155.429C131.638 156.627 128.882 157.203 126.108 157.109C124.249 157.073 122.407 156.754 120.645 156.163C120.166 155.999 119.697 155.81 119.238 155.597C119.078 155.527 118.922 155.448 118.771 155.36C118.94 155.403 119.105 155.461 119.263 155.534C119.58 155.671 120.06 155.839 120.682 156.039C122.442 156.583 124.272 156.868 126.114 156.885C128.843 156.94 131.547 156.35 134.004 155.161C134.705 154.823 135.351 154.383 135.921 153.854C136.521 153.326 136.923 152.608 137.06 151.82C137.105 151.416 137.058 151.007 136.924 150.623C136.789 150.24 136.57 149.891 136.282 149.604C135.693 148.987 134.928 148.565 134.092 148.397C132.368 148.067 130.657 148.609 129.07 149.106C127.483 149.604 125.847 150.096 124.247 149.878C123.474 149.773 122.738 149.482 122.101 149.032C121.484 148.612 121.025 147.999 120.794 147.289C120.597 146.622 120.621 145.908 120.862 145.255C121.081 144.666 121.406 144.121 121.821 143.649C122.528 142.849 123.371 142.18 124.31 141.67C125.125 141.21 125.828 140.843 126.357 140.463C126.91 140.077 127.398 139.604 127.801 139.063Z" fill="#455A64"/>
<path d="M146.879 146.356C146.612 146.484 146.333 146.584 146.045 146.655C145.271 146.881 144.477 147.032 143.674 147.103C141.005 147.322 138.322 146.895 135.852 145.858C133.4 144.815 131.156 143.34 129.225 141.502C128.485 140.806 127.925 140.202 127.552 139.773C127.346 139.559 127.163 139.326 127.004 139.076C127.227 139.267 127.435 139.475 127.626 139.698C128.024 140.102 128.603 140.675 129.362 141.347C131.31 143.118 133.539 144.553 135.958 145.591C138.385 146.607 141.01 147.058 143.637 146.91C144.729 146.797 145.812 146.612 146.879 146.356Z" fill="#455A64"/>
<path d="M150.021 143.867C149.729 144.443 149.315 144.948 148.808 145.348C148.301 145.748 147.713 146.032 147.084 146.182C147.047 146.095 147.812 145.734 148.609 145.093C149.405 144.452 149.947 143.792 150.021 143.867Z" fill="#120F6C"/>
<path d="M151.173 147.321C150.521 146.994 149.844 146.717 149.15 146.493C148.433 146.372 147.706 146.311 146.979 146.313C147.684 145.988 148.485 145.939 149.225 146.176C149.992 146.307 150.685 146.714 151.173 147.321Z" fill="#120F6C"/>
<path d="M148.82 149.617C148.777 149.617 148.907 149.374 148.951 148.994C148.993 148.499 148.863 148.005 148.584 147.594C148.285 147.188 147.906 146.847 147.47 146.593C147.134 146.381 146.91 146.263 146.922 146.219C146.935 146.176 147.196 146.219 147.545 146.387C148.056 146.606 148.497 146.962 148.82 147.414C148.983 147.647 149.095 147.911 149.151 148.189C149.207 148.467 149.204 148.754 149.144 149.032C149.063 149.467 148.845 149.642 148.82 149.617Z" fill="#120F6C"/>
</svg>
