<svg width="26" height="26" viewBox="0 0 26 26" fill="none" xmlns="http://www.w3.org/2000/svg">
<path d="M9.49654 0.217775C7.90474 0.305666 6.13228 0.891603 4.78462 1.77539C2.40669 3.34278 0.853958 5.78906 0.45845 8.5918C0.351028 9.3877 0.385208 11.0527 0.531693 11.7559C1.17622 14.8809 3.07076 17.3467 5.87349 18.6943C7.0356 19.2559 8.13911 19.5488 9.48189 19.6514C11.894 19.8369 14.4184 19.0459 16.3178 17.5127L16.6547 17.2393L17.1772 17.7568L17.6997 18.2793L17.2456 18.7334C16.8549 19.124 16.7866 19.2217 16.767 19.3828C16.7475 19.5146 16.7719 19.6221 16.8305 19.7295C16.9672 19.9688 21.8256 24.749 22.0502 24.8613C22.4262 25.0518 22.7094 25.1201 23.144 25.1201C23.9643 25.1201 24.6528 24.7539 25.0678 24.0947C25.4829 23.4355 25.5024 22.4395 25.1118 21.7461C24.9848 21.5215 20.4536 16.9268 20.0971 16.6631C19.9555 16.5557 19.853 16.5215 19.687 16.5215C19.477 16.5215 19.4526 16.5361 18.9838 16.9951L18.5004 17.4688L17.9829 16.9512L17.4653 16.4336L17.7583 16.0723C18.7348 14.8809 19.4135 13.4307 19.7504 11.8291C19.9067 11.082 19.9702 9.66602 19.8774 8.85547C19.6674 7.00977 18.935 5.24707 17.7876 3.82617C17.3823 3.32324 16.518 2.49317 16.0151 2.12207C14.5454 1.02832 12.6313 0.320314 10.9565 0.237307C10.6635 0.222658 10.3608 0.203127 10.2778 0.198244C10.1997 0.188478 9.8481 0.198244 9.49654 0.217775ZM11.0493 1.36524C12.2016 1.45313 13.6274 1.93653 14.6967 2.60059C16.9038 3.97266 18.3491 6.18457 18.7299 8.76758C18.8374 9.51953 18.8032 10.8135 18.6567 11.5605C18.0415 14.6221 15.8588 17.1123 12.9389 18.0889C11.0688 18.7139 9.24263 18.7139 7.37251 18.0889C4.71626 17.2002 2.66548 15.0762 1.85005 12.376C1.77193 12.1172 1.66451 11.6338 1.60591 11.2969C1.51802 10.7646 1.50337 10.5596 1.52779 9.70996C1.55708 8.60645 1.63521 8.1377 1.95259 7.19043C3.03169 3.93848 6.06392 1.58985 9.5063 1.33594C10.0141 1.30176 10.3022 1.30664 11.0493 1.36524ZM20.351 18.4893L20.9467 19.085L20.1508 19.876L19.3598 20.6719L18.7348 20.0762L18.1049 19.4854L18.9057 18.6846C19.3403 18.25 19.7114 17.8887 19.726 17.8887C19.7407 17.8887 20.019 18.1572 20.351 18.4893ZM24.1743 22.4199C24.3305 22.7373 24.2915 23.2109 24.0864 23.5039C23.8911 23.792 23.5151 24.002 23.1977 24.0068C22.729 24.0117 22.6704 23.9678 21.3715 22.6787L20.1655 21.4775L20.9565 20.6865L21.7524 19.8906L22.9145 21.0479C23.6665 21.8047 24.1108 22.2832 24.1743 22.4199Z" fill="white"/>
<path d="M8.95941 3.17189C6.77191 3.55275 4.88714 4.98341 3.93011 6.9756C3.51019 7.8545 3.32464 8.63087 3.28558 9.68556C3.2514 10.6182 3.33929 11.2578 3.61273 12.083C3.83733 12.7617 4.04241 13.1768 4.43792 13.7774C5.24847 14.9883 6.49359 15.9404 7.88519 16.4141C10.395 17.2783 13.1684 16.6436 15.0141 14.7881C16.0102 13.7871 16.6108 12.6885 16.9037 11.3359C17.0453 10.667 17.06 9.29982 16.9282 8.64552C16.3569 5.81349 14.1498 3.6504 11.3325 3.17189C10.7612 3.07423 9.51116 3.07423 8.95941 3.17189ZM11.0346 4.27052C13.5297 4.63185 15.5317 6.68263 15.8735 9.23146C15.9418 9.73927 15.9076 10.584 15.8002 11.0869C15.3119 13.3574 13.5688 15.0762 11.2446 15.5742C10.7123 15.6865 9.62835 15.6865 9.08148 15.5742C6.82562 15.0957 5.15081 13.5234 4.55511 11.3115C4.43304 10.8721 4.42327 10.7549 4.42327 9.9297C4.42816 9.11427 4.43792 8.98243 4.55023 8.56251C5.34124 5.62794 8.04144 3.84083 11.0346 4.27052Z" fill="white"/>
</svg>
