<svg width="324" height="317" viewBox="0 0 324 317" fill="none" xmlns="http://www.w3.org/2000/svg">
<path fill-rule="evenodd" clip-rule="evenodd" d="M158.988 0.198329C180.131 -0.84375 199.375 10.8665 218.929 18.9786C238.839 27.2389 259.638 34.1274 275.625 48.5874C292.211 63.5899 304.548 82.8301 312.593 103.698C320.823 125.045 324.752 148.029 322.747 170.819C320.728 193.759 315.238 217.501 300.989 235.592C287.042 253.3 262.372 257.555 244.069 270.711C225.861 283.798 214.276 306.42 192.925 313.267C171.411 320.167 147.495 315.677 126.051 308.561C105.418 301.714 87.7384 288.294 72.1165 273.176C57.5159 259.045 49.5833 240.162 38.0736 223.417C25.7232 205.45 4.9045 191.685 1.31846 170.179C-2.25867 148.727 11.5456 128.56 18.8398 108.071C25.9828 88.0062 29.0468 65.2326 44.0587 50.1248C59.0011 35.0869 82.1774 33.2068 101.621 24.7601C120.911 16.3806 137.982 1.2336 158.988 0.198329Z" fill="#120F6C" fill-opacity="0.05"/>
<path d="M240.843 14.9099L237.224 16.2029L235.671 11.4737C232.818 2.75306 223.725 -1.87777 215.37 1.06657C207.015 4.01091 202.567 13.5747 205.42 22.2953L206.973 27.0245L203.34 28.3246C201.954 28.8619 200.829 29.9124 200.199 31.2577C199.568 32.6031 199.48 34.1398 199.953 35.5484L210.023 66.3199C210.232 67.0172 210.579 67.6654 211.043 68.2259C211.508 68.7865 212.08 69.2479 212.726 69.5829C213.373 69.9178 214.08 70.1195 214.805 70.1758C215.531 70.2321 216.261 70.142 216.951 69.9107L254.455 56.4961C255.858 55.9597 256.999 54.8998 257.637 53.5395C258.276 52.1791 258.361 50.6243 257.877 49.202L247.8 18.4304C247.586 17.7351 247.233 17.09 246.764 16.5338C246.295 15.9776 245.718 15.5216 245.069 15.193C244.42 14.8645 243.711 14.6701 242.985 14.6214C242.259 14.5728 241.531 14.6709 240.843 14.9099ZM212.257 19.8288C211.488 17.5613 211.626 15.0841 212.642 12.9162C213.659 10.7483 215.475 9.05783 217.71 8.19904C218.814 7.82143 219.982 7.67 221.146 7.7538C222.309 7.83759 223.444 8.15489 224.482 8.68677C225.52 9.21864 226.441 9.95419 227.188 10.8495C227.936 11.7449 228.496 12.7816 228.834 13.898L230.38 18.6272L213.803 24.5581L212.257 19.8288ZM233.338 47.136L235.91 54.9923C235.957 55.1498 235.942 55.3195 235.868 55.466C235.793 55.6126 235.665 55.7248 235.51 55.7793L231.905 57.0653C231.761 57.105 231.608 57.0877 231.477 57.017C231.346 56.9463 231.248 56.8276 231.202 56.6858L228.609 48.8647C227.179 48.7868 225.807 48.2739 224.677 47.3948C223.547 46.5157 222.712 45.3123 222.285 43.9457C221.674 42.139 221.785 40.1659 222.596 38.4396C223.407 36.7132 224.854 35.3674 226.635 34.6841C227.514 34.3837 228.444 34.2634 229.371 34.3303C230.298 34.3972 231.201 34.65 232.028 35.0736C232.855 35.4972 233.588 36.083 234.184 36.7959C234.78 37.5089 235.226 38.3345 235.496 39.2235C235.948 40.6118 235.985 42.1017 235.603 43.5109C235.221 44.92 234.437 46.1872 233.345 47.1571L233.338 47.136Z" fill="#120F6C"/>
<path d="M237.063 16.1186C237.063 16.217 230.352 18.7397 222.004 21.7402C213.656 24.7408 206.846 27.1511 206.811 27.0808C206.776 27.0105 213.522 24.4667 221.877 21.4592C230.232 18.4516 237.028 16.0272 237.063 16.1186Z" fill="#263238"/>
<path d="M245.032 17.4115C245.063 17.4725 245.088 17.5359 245.109 17.6012C245.165 17.7418 245.228 17.9245 245.313 18.1493C245.495 18.6623 245.748 19.3721 246.065 20.2575L248.763 28.1137C249.887 31.4446 251.229 35.3938 252.719 39.7787C253.422 41.9781 254.251 44.2689 255.024 46.6792C255.438 47.9213 255.616 49.2296 255.551 50.5371C255.491 51.2171 255.298 51.8786 254.982 52.4836C254.644 53.0865 254.193 53.6186 253.654 54.0506C252.568 54.8431 251.363 55.4575 250.084 55.8706L246.465 57.1706L239.614 59.6231L228.012 63.755L220.177 66.5096L218.069 67.2123L217.506 67.395C217.446 67.4217 217.382 67.4384 217.317 67.4442C217.317 67.4442 217.373 67.4442 217.492 67.3599L218.041 67.142L220.149 66.348L227.942 63.4809L239.522 59.2647L246.36 56.7912L249.979 55.4841C251.221 55.0878 252.391 54.4921 253.443 53.7204C253.945 53.3195 254.365 52.8256 254.68 52.2657C254.977 51.7062 255.157 51.0915 255.207 50.4598C255.271 49.2 255.1 47.9392 254.701 46.7425C253.942 44.3533 253.141 42.0414 252.417 39.8419C250.955 35.45 249.606 31.4867 248.538 28.1559C247.47 24.8251 246.57 22.1477 245.952 20.2645C245.657 19.3439 245.432 18.6272 245.249 18.1072L245.081 17.545C245.06 17.5024 245.043 17.4577 245.032 17.4115Z" fill="#263238"/>
<path d="M225.243 7.72121C225.243 7.72121 224.871 7.53851 224.182 7.25743C223.201 6.88026 222.163 6.67121 221.111 6.63904C219.553 6.58562 218.003 6.87842 216.572 7.49635C214.832 8.26579 213.344 9.51035 212.278 11.0872C211.206 12.6595 210.631 14.5176 210.627 16.4207C210.642 17.9805 210.878 19.5303 211.33 21.0234C211.695 22.3024 212.075 23.3213 212.328 24.031C212.477 24.3915 212.599 24.7626 212.693 25.1413C212.493 24.8043 212.326 24.449 212.194 24.0802C211.906 23.3775 211.491 22.3797 211.084 21.0937C210.584 19.5849 210.311 18.0099 210.276 16.4207C210.257 14.4457 210.846 12.5127 211.962 10.8834C213.064 9.24897 214.613 7.96592 216.424 7.18715C217.9 6.56584 219.499 6.29177 221.097 6.38607C222.171 6.4408 223.226 6.69083 224.21 7.12391C224.474 7.24531 224.727 7.38625 224.969 7.54554C225.069 7.58945 225.162 7.64872 225.243 7.72121Z" fill="#263238"/>
<path d="M225.566 35.2181C225.679 35.1502 225.796 35.0914 225.918 35.0425C226.27 34.8837 226.634 34.7545 227.007 34.656C227.599 34.4812 228.21 34.3774 228.827 34.3468C229.666 34.3017 230.505 34.4284 231.294 34.7192C233.092 35.3517 234.744 37.1857 235.559 39.6382C235.95 40.9543 235.95 42.3556 235.559 43.6717C235.125 45.1001 234.349 46.4006 233.296 47.4593L233.338 47.2696C234.273 49.8344 235.292 52.6172 236.346 55.5193L236.409 55.695L236.234 55.7583L234.624 56.2923L231.111 57.4658L230.935 57.522L230.879 57.3464C229.916 54.4372 228.862 51.7247 228.068 49.0615L228.223 49.1809C226.849 49.0668 225.539 48.5512 224.456 47.6982C223.476 46.9436 222.673 45.9844 222.102 44.8874C221.587 43.9146 221.33 42.8257 221.357 41.7252C221.39 40.6005 221.671 39.4969 222.18 38.4934C222.689 37.4899 223.413 36.6114 224.302 35.9208C224.667 35.624 225.078 35.3869 225.517 35.2181C225.12 35.4537 224.736 35.7093 224.365 35.9841C223.389 36.8097 222.641 37.8718 222.193 39.069C221.809 39.9717 221.629 40.9483 221.667 41.9288C221.705 42.9093 221.959 43.8692 222.411 44.7398C222.973 45.7951 223.757 46.7158 224.709 47.4382C225.742 48.249 226.991 48.7378 228.3 48.8436H228.419L228.455 48.949C229.228 51.5631 230.289 54.2966 231.265 57.2199L231.034 57.1075L234.547 55.9339L236.149 55.3928L236.037 55.6318C234.99 52.7296 233.978 49.9398 233.05 47.375V47.2696L233.135 47.1852C234.156 46.1704 234.918 44.9242 235.355 43.5522C235.728 42.2933 235.728 40.9533 235.355 39.6944C234.589 37.3333 233.008 35.5414 231.294 34.9089C230.535 34.6163 229.724 34.48 228.911 34.5084C228.304 34.5223 227.701 34.6048 227.112 34.7544C226.065 35.0144 225.573 35.2533 225.566 35.2181Z" fill="#263238"/>
<path d="M203.846 238.118L133.653 237.794C129.599 237.772 125.72 236.142 122.867 233.262C120.015 230.381 118.422 226.487 118.439 222.433L119.184 46.4685C119.192 44.4602 119.596 42.4732 120.373 40.6211C121.149 38.7691 122.283 37.0882 123.71 35.6747C125.137 34.2611 126.828 33.1426 128.687 32.383C130.546 31.6234 132.537 31.2377 134.545 31.2479L204.731 31.5711C208.785 31.5916 212.665 33.2201 215.519 36.0989C218.372 38.9778 219.967 42.8716 219.952 46.9253L219.207 222.883C219.199 224.892 218.795 226.88 218.018 228.732C217.242 230.585 216.108 232.267 214.682 233.682C213.255 235.096 211.564 236.216 209.705 236.977C207.846 237.739 205.855 238.126 203.846 238.118Z" fill="#455A64"/>
<path d="M204.626 37.6214H191.021C190.577 37.6297 190.139 37.7253 189.732 37.9028C189.325 38.0803 188.957 38.3362 188.649 38.656C188.341 38.9757 188.099 39.353 187.937 39.7663C187.775 40.1796 187.696 40.6208 187.704 41.0647V43.5312C187.713 43.9747 187.634 44.4156 187.471 44.8285C187.309 45.2414 187.067 45.6182 186.759 45.9374C186.451 46.2566 186.083 46.5119 185.676 46.6886C185.269 46.8654 184.831 46.9601 184.388 46.9674L157.867 46.848C156.97 46.824 156.119 46.445 155.501 45.7942C154.883 45.1433 154.549 44.2738 154.572 43.3766V40.9101C154.594 40.0141 154.261 39.1456 153.645 38.495C153.028 37.8443 152.179 37.4645 151.283 37.4387H146.498L134.587 37.3825C131.754 37.3656 129.029 38.4721 127.01 40.4595C124.991 42.4469 123.842 45.1534 123.814 47.9864L123.112 219.742C123.105 221.147 123.375 222.54 123.907 223.841C124.439 225.142 125.222 226.326 126.211 227.324C127.201 228.322 128.377 229.116 129.673 229.66C130.969 230.204 132.359 230.487 133.765 230.493L203.81 230.817C205.217 230.823 206.611 230.552 207.912 230.02C209.214 229.488 210.398 228.705 211.397 227.715C212.396 226.725 213.191 225.548 213.735 224.251C214.279 222.954 214.562 221.563 214.569 220.157L215.272 48.4009C215.288 45.56 214.176 42.8287 212.18 40.8073C210.184 38.7859 207.466 37.64 204.626 37.6214Z" fill="white"/>
<path d="M195.203 207.901L143.118 207.676C142.577 207.676 142.141 207.086 142.148 206.369L142.204 192.744C142.204 192.041 142.647 191.437 143.188 191.437L195.273 191.676C195.573 191.728 195.841 191.893 196.022 192.138C196.202 192.383 196.282 192.688 196.243 192.99L196.193 206.601C196.193 207.325 195.744 207.908 195.203 207.901Z" fill="#120F6C"/>
<path d="M155.465 204.204C155.043 204.204 154.636 204.137 154.246 204.001C153.861 203.86 153.563 203.681 153.351 203.464L153.587 203.001C153.788 203.196 154.056 203.361 154.392 203.497C154.734 203.627 155.091 203.692 155.465 203.692C155.823 203.692 156.113 203.649 156.335 203.562C156.563 203.47 156.728 203.348 156.831 203.196C156.94 203.044 156.994 202.876 156.994 202.692C156.994 202.47 156.929 202.291 156.799 202.155C156.674 202.02 156.509 201.914 156.303 201.838C156.097 201.757 155.869 201.686 155.62 201.627C155.371 201.567 155.121 201.505 154.872 201.44C154.622 201.369 154.392 201.277 154.181 201.163C153.975 201.049 153.807 200.9 153.677 200.716C153.552 200.526 153.49 200.28 153.49 199.976C153.49 199.694 153.563 199.437 153.709 199.204C153.861 198.965 154.091 198.775 154.4 198.634C154.709 198.488 155.105 198.415 155.587 198.415C155.907 198.415 156.224 198.461 156.539 198.553C156.853 198.64 157.124 198.762 157.352 198.919L157.149 199.399C156.905 199.236 156.644 199.117 156.368 199.041C156.097 198.965 155.834 198.927 155.579 198.927C155.238 198.927 154.956 198.973 154.734 199.065C154.511 199.158 154.346 199.282 154.238 199.439C154.135 199.591 154.083 199.765 154.083 199.96C154.083 200.182 154.145 200.361 154.27 200.497C154.4 200.632 154.568 200.738 154.774 200.814C154.986 200.89 155.216 200.957 155.465 201.017C155.715 201.077 155.961 201.142 156.205 201.212C156.455 201.283 156.682 201.375 156.888 201.489C157.1 201.597 157.268 201.743 157.393 201.928C157.523 202.112 157.588 202.353 157.588 202.651C157.588 202.928 157.512 203.185 157.36 203.424C157.208 203.657 156.975 203.847 156.661 203.993C156.352 204.134 155.953 204.204 155.465 204.204ZM158.899 204.156V198.464H159.5V204.156H158.899ZM161.352 204.156V198.464H161.848L165.776 203.408H165.516V198.464H166.109V204.156H165.613L161.694 199.212H161.954V204.156H161.352ZM170.463 204.204C170.03 204.204 169.629 204.134 169.26 203.993C168.897 203.847 168.58 203.643 168.309 203.383C168.043 203.123 167.834 202.817 167.682 202.464C167.536 202.112 167.463 201.727 167.463 201.31C167.463 200.892 167.536 200.507 167.682 200.155C167.834 199.803 168.046 199.496 168.317 199.236C168.588 198.976 168.905 198.775 169.268 198.634C169.637 198.488 170.038 198.415 170.471 198.415C170.905 198.415 171.301 198.483 171.659 198.618C172.022 198.754 172.331 198.96 172.586 199.236L172.212 199.618C171.973 199.38 171.71 199.209 171.423 199.106C171.136 199.003 170.827 198.952 170.496 198.952C170.143 198.952 169.818 199.011 169.52 199.131C169.227 199.244 168.97 199.41 168.748 199.627C168.531 199.838 168.36 200.087 168.235 200.375C168.116 200.656 168.056 200.968 168.056 201.31C168.056 201.646 168.116 201.957 168.235 202.245C168.36 202.532 168.531 202.784 168.748 203.001C168.97 203.212 169.227 203.378 169.52 203.497C169.818 203.611 170.141 203.668 170.488 203.668C170.813 203.668 171.119 203.619 171.407 203.521C171.699 203.424 171.968 203.258 172.212 203.025L172.553 203.481C172.282 203.719 171.965 203.901 171.602 204.026C171.239 204.145 170.859 204.204 170.463 204.204ZM171.976 203.408V201.31H172.553V203.481L171.976 203.408ZM156.189 214.204C155.463 214.204 154.891 213.996 154.473 213.578C154.056 213.161 153.847 212.543 153.847 211.724V208.464H154.449V211.7C154.449 212.372 154.601 212.868 154.904 213.188C155.208 213.508 155.636 213.668 156.189 213.668C156.747 213.668 157.178 213.508 157.482 213.188C157.786 212.868 157.937 212.372 157.937 211.7V208.464H158.523V211.724C158.523 212.543 158.314 213.161 157.897 213.578C157.485 213.996 156.916 214.204 156.189 214.204ZM160.336 214.156V208.464H162.466C162.949 208.464 163.364 208.542 163.71 208.7C164.057 208.851 164.323 209.074 164.507 209.366C164.697 209.654 164.792 210.003 164.792 210.415C164.792 210.816 164.697 211.163 164.507 211.456C164.323 211.743 164.057 211.966 163.71 212.123C163.364 212.28 162.949 212.359 162.466 212.359H160.669L160.938 212.074V214.156H160.336ZM160.938 212.123L160.669 211.83H162.45C163.019 211.83 163.45 211.708 163.743 211.464C164.041 211.215 164.19 210.865 164.19 210.415C164.19 209.96 164.041 209.608 163.743 209.358C163.45 209.109 163.019 208.984 162.45 208.984H160.669L160.938 208.7V212.123Z" fill="#E8E8E3"/>
<path d="M153.507 88.1111L135.433 88.0291L135.418 91.3458L153.492 91.4278L153.507 88.1111Z" fill="#120F6C"/>
<path opacity="0.1" d="M153.507 88.1111L135.433 88.0291L135.418 91.3458L153.492 91.4278L153.507 88.1111Z" fill="black"/>
<path d="M206.488 108.475C206.63 108.461 206.769 108.428 206.903 108.377C207.097 108.301 207.266 108.172 207.391 108.004C207.515 107.836 207.589 107.636 207.605 107.428C207.605 106.311 207.605 104.681 207.605 102.587C207.605 101.54 207.605 100.366 207.605 99.0731C207.605 98.7569 207.605 98.4266 207.605 98.0963C207.651 97.7758 207.581 97.4495 207.409 97.1758C207.312 97.0445 207.186 96.9375 207.041 96.8631C206.896 96.7887 206.735 96.749 206.572 96.7471H205.476H195.322L136.548 96.5293C136.397 96.5267 136.248 96.5605 136.114 96.6278C135.979 96.6951 135.863 96.7939 135.775 96.9158C135.605 97.1906 135.54 97.5175 135.592 97.8363C135.592 98.539 135.592 99.2417 135.592 99.9444C135.592 101.35 135.592 102.755 135.592 104.161C135.592 104.863 135.592 105.566 135.592 106.269C135.563 106.596 135.563 106.925 135.592 107.253C135.629 107.393 135.698 107.523 135.793 107.633C135.888 107.742 136.007 107.829 136.14 107.885C136.279 107.94 136.427 107.966 136.576 107.962H140.153L155.76 108.047L182.181 108.208L199.995 108.349L204.837 108.405H206.095C206.383 108.405 206.523 108.405 206.523 108.405H206.095H204.837H199.995H182.181L155.76 108.321L140.153 108.257H136.576C136.379 108.265 136.183 108.232 136 108.159C135.815 108.08 135.65 107.96 135.519 107.808C135.387 107.655 135.292 107.475 135.241 107.281C135.2 107.096 135.186 106.907 135.199 106.719V106.199C135.199 105.496 135.199 104.793 135.199 104.09C135.199 102.685 135.199 101.28 135.199 99.8742C135.199 99.1715 135.199 98.4687 135.199 97.766C135.185 97.5789 135.185 97.391 135.199 97.2039C135.225 96.9972 135.305 96.8009 135.43 96.6347C135.552 96.4651 135.712 96.3273 135.898 96.2331C136.084 96.1388 136.29 96.091 136.499 96.0936L195.273 96.4168L205.427 96.4871H206.523C206.716 96.4873 206.907 96.534 207.078 96.6233C207.249 96.7126 207.396 96.8418 207.507 97.0001C207.705 97.3056 207.785 97.6729 207.732 98.0331C207.732 98.3633 207.732 98.6936 207.732 99.0098C207.732 100.289 207.732 101.462 207.732 102.523C207.732 104.631 207.683 106.248 207.669 107.372C207.651 107.588 207.573 107.795 207.442 107.968C207.311 108.141 207.134 108.273 206.931 108.349C206.798 108.431 206.645 108.475 206.488 108.475Z" fill="#E0E0E0"/>
<path d="M173.918 100.057H140.862V103.156H173.918V100.057Z" fill="#120F6C"/>
<path opacity="0.2" d="M173.918 100.057H140.862V103.156H173.918V100.057Z" fill="white"/>
<path d="M153.383 118.369L135.31 118.287L135.295 121.603L153.368 121.685L153.383 118.369Z" fill="#120F6C"/>
<path opacity="0.1" d="M153.383 118.369L135.31 118.287L135.295 121.603L153.368 121.685L153.383 118.369Z" fill="black"/>
<path d="M206.031 138.734C206.173 138.716 206.314 138.691 206.453 138.657C206.649 138.594 206.83 138.49 206.982 138.352C207.135 138.214 207.256 138.045 207.338 137.855C207.449 137.572 207.492 137.266 207.465 136.963C207.465 136.626 207.465 136.26 207.465 135.853C207.465 135.038 207.465 134.11 207.465 133.042V128.58C207.498 128.257 207.427 127.931 207.261 127.652C207.088 127.366 206.815 127.153 206.495 127.055C206.145 126.992 205.789 126.974 205.434 126.999H195.322L136.751 126.781C136.436 126.782 136.132 126.897 135.896 127.105C135.659 127.313 135.506 127.6 135.465 127.912C135.465 128.58 135.465 129.318 135.465 130.02C135.465 131.426 135.465 132.831 135.465 134.237C135.465 134.939 135.465 135.642 135.465 136.345C135.439 136.673 135.453 137.003 135.508 137.328C135.595 137.613 135.776 137.861 136.021 138.031C136.28 138.196 136.585 138.275 136.892 138.256H137.869H139.899L155.45 138.333L181.781 138.495L199.531 138.635L204.359 138.692H199.531H181.781L155.436 138.664L139.885 138.607H136.829C136.449 138.63 136.071 138.529 135.753 138.319C135.434 138.098 135.2 137.773 135.093 137.399C135.03 137.042 135.011 136.678 135.037 136.317C135.037 135.614 135.037 134.911 135.037 134.208C135.037 132.803 135.037 131.398 135.037 129.992C135.037 129.289 135.037 128.587 135.037 127.884C135.088 127.482 135.284 127.113 135.588 126.845C135.892 126.577 136.283 126.43 136.688 126.429L195.259 126.753L205.371 126.83C205.747 126.807 206.125 126.833 206.495 126.907C206.86 127.027 207.168 127.277 207.359 127.61C207.541 127.919 207.62 128.279 207.584 128.636C207.584 128.966 207.584 129.289 207.584 129.613C207.584 130.885 207.584 132.051 207.584 133.126C207.584 134.201 207.584 135.108 207.584 135.937C207.584 136.338 207.584 136.71 207.584 137.054C207.61 137.369 207.559 137.684 207.437 137.975C207.345 138.169 207.213 138.341 207.05 138.479C206.886 138.617 206.694 138.719 206.488 138.776C206.334 138.789 206.18 138.774 206.031 138.734Z" fill="#E0E0E0"/>
<path d="M153.248 149.94L135.174 149.858L135.159 153.175L153.232 153.257L153.248 149.94Z" fill="#120F6C"/>
<path opacity="0.1" d="M153.248 149.94L135.174 149.858L135.159 153.175L153.232 153.257L153.248 149.94Z" fill="black"/>
<path d="M205.891 170.292C206.033 170.276 206.174 170.25 206.312 170.215C206.508 170.153 206.688 170.05 206.84 169.913C206.993 169.776 207.115 169.609 207.198 169.421C207.308 169.137 207.351 168.832 207.324 168.529C207.324 168.184 207.324 167.826 207.324 167.411C207.324 166.603 207.324 165.669 207.324 164.601V160.138C207.358 159.815 207.286 159.49 207.121 159.211C206.943 158.93 206.672 158.72 206.355 158.621C206.005 158.556 205.648 158.534 205.293 158.557H195.182L136.611 158.339C136.296 158.34 135.992 158.455 135.755 158.663C135.519 158.872 135.366 159.158 135.325 159.471C135.325 160.173 135.325 160.876 135.325 161.579C135.325 162.984 135.325 164.39 135.325 165.795C135.325 166.498 135.325 167.201 135.325 167.903C135.299 168.229 135.313 168.557 135.367 168.88C135.451 169.167 135.633 169.415 135.88 169.583C136.138 169.751 136.444 169.83 136.751 169.808H139.808L155.359 169.892L181.69 170.054L199.44 170.194L204.268 170.25H199.44H181.69L155.359 170.173L139.808 170.11H136.751C136.371 170.135 135.993 170.034 135.676 169.822C135.357 169.6 135.123 169.275 135.016 168.901C134.953 168.544 134.934 168.181 134.96 167.819C134.96 167.116 134.96 166.414 134.96 165.711C134.96 164.305 134.96 162.9 134.96 161.495C134.96 160.792 134.96 160.089 134.96 159.351C135.009 158.95 135.204 158.581 135.507 158.313C135.809 158.045 136.2 157.897 136.604 157.897L195.174 158.22L205.286 158.297C205.663 158.274 206.041 158.3 206.411 158.375C206.776 158.494 207.084 158.744 207.275 159.077C207.457 159.387 207.536 159.746 207.5 160.103C207.5 160.433 207.5 160.764 207.5 161.08C207.5 162.352 207.5 163.518 207.5 164.594C207.5 165.669 207.5 166.575 207.5 167.404C207.5 167.805 207.5 168.177 207.5 168.522C207.527 168.836 207.476 169.152 207.352 169.442C207.261 169.636 207.129 169.808 206.966 169.946C206.802 170.085 206.61 170.186 206.404 170.243C206.239 170.3 206.063 170.317 205.891 170.292Z" fill="#E0E0E0"/>
<path d="M173.212 131.192L140.157 131.042L140.143 134.141L173.198 134.291L173.212 131.192Z" fill="#120F6C"/>
<path opacity="0.2" d="M173.212 131.192L140.157 131.042L140.143 134.141L173.198 134.291L173.212 131.192Z" fill="white"/>
<path d="M143.146 164.558C143.125 164.841 143.022 165.111 142.849 165.336C142.676 165.56 142.441 165.729 142.173 165.821C141.905 165.914 141.616 165.925 141.341 165.854C141.067 165.784 140.819 165.634 140.629 165.424C140.439 165.214 140.315 164.952 140.272 164.672C140.229 164.392 140.269 164.105 140.387 163.848C140.506 163.59 140.697 163.373 140.938 163.224C141.178 163.074 141.457 162.998 141.741 163.005C142.132 163.027 142.499 163.202 142.762 163.493C143.026 163.784 143.163 164.167 143.146 164.558Z" fill="#120F6C"/>
<path d="M147.623 164.579C147.636 164.778 147.609 164.976 147.543 165.164C147.477 165.351 147.373 165.522 147.237 165.667C147.102 165.813 146.938 165.929 146.756 166.008C146.574 166.087 146.377 166.128 146.179 166.128C145.98 166.128 145.783 166.087 145.601 166.008C145.419 165.929 145.255 165.813 145.12 165.667C144.984 165.522 144.88 165.351 144.814 165.164C144.748 164.976 144.721 164.778 144.734 164.579C144.721 164.381 144.748 164.182 144.814 163.995C144.88 163.808 144.984 163.637 145.12 163.491C145.255 163.346 145.419 163.23 145.601 163.151C145.783 163.072 145.98 163.031 146.179 163.031C146.377 163.031 146.574 163.072 146.756 163.151C146.938 163.23 147.102 163.346 147.237 163.491C147.373 163.637 147.477 163.808 147.543 163.995C147.609 164.182 147.636 164.381 147.623 164.579Z" fill="#120F6C"/>
<path d="M152.105 164.601C152.085 164.883 151.981 165.154 151.808 165.378C151.635 165.603 151.4 165.771 151.132 165.863C150.864 165.956 150.575 165.967 150.301 165.896C150.026 165.826 149.778 165.676 149.588 165.466C149.398 165.256 149.274 164.994 149.231 164.714C149.188 164.434 149.228 164.148 149.346 163.89C149.465 163.632 149.656 163.415 149.897 163.266C150.137 163.116 150.417 163.04 150.7 163.048C151.091 163.071 151.457 163.247 151.719 163.537C151.982 163.828 152.121 164.209 152.105 164.601Z" fill="#120F6C"/>
<path d="M156.582 164.622C156.561 164.904 156.458 165.175 156.285 165.399C156.112 165.624 155.877 165.792 155.609 165.885C155.341 165.977 155.052 165.988 154.777 165.918C154.503 165.847 154.255 165.697 154.065 165.487C153.875 165.277 153.75 165.016 153.707 164.735C153.664 164.455 153.704 164.169 153.823 163.911C153.941 163.654 154.133 163.437 154.373 163.287C154.614 163.137 154.893 163.061 155.176 163.069C155.567 163.092 155.933 163.268 156.196 163.558C156.459 163.849 156.597 164.23 156.582 164.622Z" fill="#120F6C"/>
<path d="M161.058 164.636C161.039 164.919 160.936 165.19 160.764 165.415C160.592 165.641 160.357 165.811 160.089 165.904C159.821 165.997 159.532 166.01 159.257 165.94C158.982 165.87 158.734 165.72 158.543 165.51C158.352 165.3 158.227 165.039 158.183 164.759C158.14 164.478 158.18 164.191 158.298 163.933C158.416 163.675 158.608 163.458 158.849 163.308C159.089 163.158 159.369 163.082 159.653 163.09C160.042 163.113 160.407 163.288 160.67 163.577C160.932 163.866 161.072 164.246 161.058 164.636Z" fill="#120F6C"/>
<path d="M165.541 164.657C165.522 164.938 165.421 165.208 165.251 165.433C165.08 165.658 164.847 165.828 164.581 165.923C164.315 166.017 164.028 166.032 163.753 165.964C163.479 165.897 163.231 165.752 163.038 165.545C162.846 165.339 162.718 165.08 162.67 164.802C162.623 164.524 162.658 164.238 162.771 163.979C162.884 163.72 163.07 163.5 163.306 163.346C163.542 163.192 163.819 163.11 164.101 163.111C164.497 163.125 164.871 163.296 165.141 163.586C165.411 163.876 165.555 164.261 165.541 164.657Z" fill="#120F6C"/>
<path d="M170.018 164.678C170.032 164.876 170.004 165.075 169.938 165.262C169.872 165.449 169.768 165.621 169.632 165.766C169.497 165.911 169.333 166.027 169.151 166.106C168.969 166.185 168.772 166.226 168.574 166.226C168.375 166.226 168.179 166.185 167.996 166.106C167.814 166.027 167.65 165.911 167.515 165.766C167.38 165.621 167.275 165.449 167.209 165.262C167.143 165.075 167.116 164.876 167.13 164.678C167.116 164.48 167.143 164.281 167.209 164.094C167.275 163.906 167.38 163.735 167.515 163.59C167.65 163.444 167.814 163.329 167.996 163.249C168.179 163.17 168.375 163.129 168.574 163.129C168.772 163.129 168.969 163.17 169.151 163.249C169.333 163.329 169.497 163.444 169.632 163.59C169.768 163.735 169.872 163.906 169.938 164.094C170.004 164.281 170.032 164.48 170.018 164.678Z" fill="#120F6C"/>
<path d="M174.494 164.699C174.475 164.981 174.374 165.25 174.203 165.475C174.033 165.7 173.8 165.87 173.534 165.965C173.268 166.059 172.98 166.074 172.706 166.007C172.432 165.94 172.183 165.794 171.991 165.587C171.798 165.381 171.67 165.123 171.623 164.844C171.575 164.566 171.61 164.28 171.723 164.021C171.836 163.763 172.022 163.543 172.258 163.388C172.495 163.234 172.771 163.152 173.053 163.153C173.449 163.168 173.823 163.339 174.093 163.628C174.363 163.918 174.507 164.303 174.494 164.699Z" fill="#120F6C"/>
<path d="M178.97 164.72C178.951 165.003 178.848 165.274 178.676 165.5C178.504 165.725 178.269 165.895 178.001 165.988C177.733 166.081 177.444 166.094 177.169 166.024C176.894 165.954 176.645 165.805 176.455 165.595C176.264 165.385 176.139 165.123 176.095 164.843C176.052 164.563 176.092 164.276 176.21 164.018C176.328 163.76 176.52 163.542 176.76 163.392C177.001 163.242 177.281 163.166 177.564 163.174C177.954 163.198 178.319 163.372 178.582 163.661C178.844 163.95 178.983 164.33 178.97 164.72Z" fill="#120F6C"/>
<g opacity="0.2">
<path d="M143.146 164.558C143.125 164.841 143.022 165.111 142.849 165.336C142.676 165.56 142.441 165.729 142.173 165.821C141.905 165.914 141.616 165.925 141.341 165.854C141.067 165.784 140.819 165.634 140.629 165.424C140.439 165.214 140.315 164.952 140.272 164.672C140.229 164.392 140.269 164.105 140.387 163.848C140.506 163.59 140.697 163.373 140.938 163.224C141.178 163.074 141.457 162.998 141.741 163.005C142.132 163.027 142.499 163.202 142.762 163.493C143.026 163.784 143.163 164.167 143.146 164.558Z" fill="white"/>
<path d="M147.622 164.58C147.636 164.778 147.609 164.976 147.543 165.164C147.476 165.351 147.372 165.522 147.237 165.668C147.101 165.813 146.937 165.929 146.755 166.008C146.573 166.087 146.377 166.128 146.178 166.128C145.98 166.128 145.783 166.087 145.601 166.008C145.419 165.929 145.255 165.813 145.12 165.668C144.984 165.522 144.88 165.351 144.814 165.164C144.747 164.976 144.72 164.778 144.734 164.58C144.72 164.381 144.747 164.183 144.814 163.995C144.88 163.808 144.984 163.637 145.12 163.491C145.255 163.346 145.419 163.23 145.601 163.151C145.783 163.072 145.98 163.031 146.178 163.031C146.377 163.031 146.573 163.072 146.755 163.151C146.937 163.23 147.101 163.346 147.237 163.491C147.372 163.637 147.476 163.808 147.543 163.995C147.609 164.183 147.636 164.381 147.622 164.58Z" fill="white"/>
<path d="M152.105 164.601C152.084 164.883 151.981 165.154 151.808 165.378C151.635 165.603 151.4 165.771 151.132 165.863C150.864 165.956 150.575 165.967 150.3 165.896C150.026 165.826 149.778 165.676 149.588 165.466C149.398 165.256 149.274 164.994 149.231 164.714C149.188 164.434 149.228 164.148 149.346 163.89C149.465 163.632 149.656 163.415 149.897 163.266C150.137 163.116 150.416 163.04 150.7 163.048C151.091 163.071 151.457 163.247 151.719 163.537C151.982 163.828 152.121 164.209 152.105 164.601Z" fill="white"/>
<path d="M156.582 164.622C156.561 164.904 156.458 165.175 156.285 165.399C156.112 165.624 155.877 165.792 155.609 165.885C155.341 165.977 155.051 165.988 154.777 165.918C154.503 165.847 154.255 165.697 154.065 165.487C153.875 165.277 153.75 165.016 153.707 164.735C153.664 164.455 153.704 164.169 153.823 163.911C153.941 163.654 154.132 163.437 154.373 163.287C154.614 163.137 154.893 163.061 155.176 163.069C155.567 163.092 155.933 163.268 156.196 163.558C156.459 163.849 156.597 164.23 156.582 164.622Z" fill="white"/>
<path d="M161.058 164.636C161.039 164.919 160.936 165.19 160.764 165.415C160.592 165.641 160.357 165.811 160.089 165.904C159.821 165.997 159.532 166.01 159.257 165.94C158.982 165.87 158.733 165.721 158.543 165.511C158.352 165.301 158.227 165.039 158.183 164.759C158.14 164.478 158.18 164.191 158.298 163.934C158.416 163.676 158.608 163.458 158.848 163.308C159.089 163.158 159.369 163.082 159.652 163.09C160.042 163.113 160.407 163.288 160.67 163.577C160.932 163.866 161.071 164.246 161.058 164.636Z" fill="white"/>
<path d="M165.541 164.657C165.522 164.938 165.421 165.208 165.25 165.433C165.08 165.658 164.847 165.828 164.581 165.923C164.315 166.017 164.027 166.032 163.753 165.965C163.479 165.898 163.23 165.752 163.038 165.545C162.845 165.339 162.717 165.081 162.67 164.802C162.622 164.524 162.657 164.238 162.77 163.979C162.883 163.721 163.069 163.501 163.305 163.346C163.542 163.192 163.818 163.11 164.1 163.111C164.496 163.125 164.87 163.296 165.14 163.586C165.41 163.876 165.554 164.261 165.541 164.657Z" fill="white"/>
<path d="M170.018 164.678C170.031 164.876 170.004 165.075 169.938 165.262C169.872 165.449 169.768 165.621 169.632 165.766C169.497 165.911 169.333 166.027 169.151 166.106C168.969 166.185 168.772 166.226 168.574 166.226C168.375 166.226 168.178 166.185 167.996 166.106C167.814 166.027 167.65 165.911 167.515 165.766C167.379 165.621 167.275 165.449 167.209 165.262C167.143 165.075 167.116 164.876 167.129 164.678C167.116 164.48 167.143 164.281 167.209 164.094C167.275 163.907 167.379 163.735 167.515 163.59C167.65 163.445 167.814 163.329 167.996 163.25C168.178 163.17 168.375 163.13 168.574 163.13C168.772 163.13 168.969 163.17 169.151 163.25C169.333 163.329 169.497 163.445 169.632 163.59C169.768 163.735 169.872 163.907 169.938 164.094C170.004 164.281 170.031 164.48 170.018 164.678Z" fill="white"/>
<path d="M174.494 164.699C174.475 164.981 174.374 165.25 174.203 165.475C174.032 165.7 173.8 165.87 173.534 165.965C173.268 166.059 172.98 166.074 172.706 166.007C172.432 165.94 172.183 165.794 171.991 165.587C171.798 165.381 171.67 165.123 171.623 164.844C171.575 164.566 171.61 164.28 171.723 164.021C171.836 163.763 172.022 163.543 172.258 163.388C172.495 163.234 172.771 163.152 173.053 163.153C173.449 163.168 173.823 163.339 174.093 163.628C174.363 163.918 174.507 164.303 174.494 164.699Z" fill="white"/>
<path d="M178.97 164.72C178.95 165.003 178.848 165.274 178.676 165.5C178.504 165.725 178.269 165.895 178.001 165.988C177.733 166.082 177.444 166.094 177.169 166.024C176.894 165.954 176.645 165.805 176.454 165.595C176.264 165.385 176.139 165.124 176.095 164.843C176.052 164.563 176.091 164.276 176.21 164.018C176.328 163.76 176.519 163.542 176.76 163.392C177.001 163.242 177.281 163.167 177.564 163.174C177.954 163.198 178.319 163.372 178.581 163.661C178.844 163.95 178.983 164.33 178.97 164.72Z" fill="white"/>
</g>
<path d="M172.61 63.2772C173.099 63.0622 173.513 62.7085 173.801 62.2599C174.09 61.8114 174.24 61.2878 174.234 60.7545C174.252 60.4078 174.199 60.061 174.079 59.7353C173.959 59.4095 173.774 59.1117 173.535 58.8598C173.296 58.608 173.008 58.4074 172.689 58.2704C172.37 58.1333 172.027 58.0626 171.679 58.0626C171.332 58.0626 170.989 58.1333 170.67 58.2704C170.351 58.4074 170.063 58.608 169.824 58.8598C169.585 59.1117 169.4 59.4095 169.28 59.7353C169.159 60.061 169.107 60.4078 169.125 60.7545C169.114 61.2932 169.263 61.823 169.554 62.277C169.844 62.731 170.262 63.0888 170.755 63.3053C166.82 63.8956 166.996 68.168 166.996 68.168L176.3 68.2102C176.3 68.2102 176.517 63.8605 172.61 63.2772Z" fill="#120F6C"/>
<path opacity="0.1" d="M172.61 63.2772C173.099 63.0622 173.513 62.7085 173.801 62.2599C174.09 61.8114 174.24 61.2878 174.234 60.7545C174.252 60.4078 174.199 60.061 174.079 59.7353C173.959 59.4095 173.774 59.1117 173.535 58.8598C173.296 58.608 173.008 58.4074 172.689 58.2704C172.37 58.1333 172.027 58.0626 171.679 58.0626C171.332 58.0626 170.989 58.1333 170.67 58.2704C170.351 58.4074 170.063 58.608 169.824 58.8598C169.585 59.1117 169.4 59.4095 169.28 59.7353C169.159 60.061 169.107 60.4078 169.125 60.7545C169.114 61.2932 169.263 61.823 169.554 62.277C169.844 62.731 170.262 63.0888 170.755 63.3053C166.82 63.8956 166.996 68.168 166.996 68.168L176.3 68.2102C176.3 68.2102 176.517 63.8605 172.61 63.2772Z" fill="black"/>
<path d="M187.729 70.9659L154.568 70.8154L154.55 74.7787L187.711 74.9291L187.729 70.9659Z" fill="#120F6C"/>
<path opacity="0.2" d="M187.729 70.9659L154.568 70.8154L154.55 74.7787L187.711 74.9291L187.729 70.9659Z" fill="white"/>
<path d="M100.028 288.024V282.016L89.2553 281.938L89.1639 291.024L89.8315 291.074C92.804 291.263 104.954 291.544 106.949 290.926C109.17 290.237 100.028 288.024 100.028 288.024Z" fill="#120F6C"/>
<path d="M107.202 290.364C107.202 290.462 103.169 290.547 98.2006 290.547C93.2325 290.547 89.199 290.462 89.199 290.364C89.199 290.265 93.2325 290.181 98.2006 290.181C103.169 290.181 107.202 290.265 107.202 290.364Z" fill="#263238"/>
<path d="M100.218 289.254C100.126 289.204 100.218 288.888 100.435 288.551C100.653 288.214 100.948 288.073 101.019 288.143C101.089 288.214 100.941 288.481 100.731 288.769C100.52 289.057 100.309 289.303 100.218 289.254Z" fill="#263238"/>
<path d="M100.906 289.647C100.808 289.647 100.857 289.254 101.068 288.881C101.279 288.509 101.56 288.284 101.637 288.34C101.714 288.396 101.588 288.712 101.391 289.043C101.194 289.373 100.997 289.682 100.906 289.647Z" fill="#263238"/>
<path d="M92.4456 290.336C92.4034 290.336 92.2418 290.209 92.0099 289.942C91.7268 289.599 91.4115 289.284 91.0683 289.001C90.7307 288.731 90.3287 288.554 89.9018 288.488C89.5715 288.445 89.3607 288.488 89.3396 288.445C89.3185 288.403 89.5223 288.256 89.9088 288.228C90.4189 288.217 90.9164 288.386 91.3142 288.705C91.6869 289.009 92.0012 289.378 92.2418 289.795C92.4034 290.104 92.4877 290.308 92.4456 290.336Z" fill="#263238"/>
<path d="M100.253 288.122C100.302 288.207 100.119 288.417 99.81 288.53C99.5008 288.642 99.2267 288.6 99.2127 288.53C99.1986 288.46 99.4165 288.312 99.6835 288.214C99.9505 288.115 100.196 288.038 100.253 288.122Z" fill="#263238"/>
<path d="M100.084 287.539C100.084 287.644 99.8028 287.729 99.4374 287.736C99.072 287.743 98.7839 287.658 98.7909 287.56C98.7979 287.462 99.086 287.37 99.4374 287.363C99.7887 287.356 100.07 287.441 100.084 287.539Z" fill="#263238"/>
<path d="M126.555 288.024V282.016L115.783 281.938L115.691 290.933L116.359 290.982C119.331 291.172 131.488 291.544 133.477 290.926C135.697 290.237 126.555 288.024 126.555 288.024Z" fill="#120F6C"/>
<path d="M133.73 290.378C133.73 290.476 129.703 290.561 124.728 290.561C119.753 290.561 115.733 290.476 115.733 290.378C115.733 290.28 119.76 290.195 124.728 290.195C129.696 290.195 133.73 290.28 133.73 290.378Z" fill="#263238"/>
<path d="M126.745 289.254C126.661 289.204 126.745 288.888 126.963 288.551C127.181 288.214 127.476 288.073 127.546 288.143C127.616 288.214 127.469 288.481 127.258 288.769C127.047 289.057 126.836 289.303 126.745 289.254Z" fill="#263238"/>
<path d="M127.433 289.647C127.342 289.647 127.384 289.254 127.602 288.881C127.82 288.509 128.094 288.284 128.171 288.34C128.249 288.396 128.115 288.712 127.918 289.043C127.722 289.373 127.532 289.682 127.433 289.647Z" fill="#263238"/>
<path d="M118.973 290.336C118.931 290.336 118.776 290.209 118.537 289.942C118.254 289.599 117.939 289.284 117.596 289.001C117.258 288.731 116.856 288.554 116.429 288.488C116.106 288.445 115.888 288.488 115.867 288.445C115.846 288.403 116.05 288.256 116.436 288.228C116.946 288.217 117.444 288.386 117.842 288.705C118.216 289.007 118.531 289.377 118.769 289.795C118.931 290.104 119.015 290.308 118.973 290.336Z" fill="#263238"/>
<path d="M126.78 288.122C126.829 288.207 126.646 288.417 126.337 288.53C126.028 288.642 125.754 288.6 125.74 288.53C125.726 288.46 125.944 288.312 126.211 288.214C126.478 288.115 126.724 288.038 126.78 288.122Z" fill="#263238"/>
<path d="M126.625 287.539C126.625 287.644 126.344 287.729 125.979 287.736C125.613 287.743 125.332 287.658 125.339 287.56C125.346 287.462 125.627 287.37 125.979 287.363C126.33 287.356 126.625 287.441 126.625 287.539Z" fill="#263238"/>
<path d="M166.244 109.607C165.963 109.319 165.267 109.459 165.267 109.459C165.337 109.054 165.337 108.641 165.267 108.236C165.141 107.843 164.255 107.92 164.255 107.92C164.214 107.589 164.214 107.254 164.255 106.922C164.262 106.849 164.247 106.775 164.21 106.711C164.174 106.647 164.118 106.595 164.051 106.564C163.633 106.393 163.183 106.312 162.73 106.325C162.189 105.939 164.382 102.868 165.197 101.884C166.012 100.9 165.864 100.134 165.141 100.134C164.642 100.134 162.084 103.086 161.297 104.076C160.51 105.067 158.423 107.822 158.353 105.622C158.282 103.423 157.397 101.764 156.842 101.483C156.287 101.202 155.696 101.863 155.998 102.474C156.264 103.169 156.43 103.897 156.49 104.638C156.567 105.229 156.541 105.828 156.413 106.409C156.18 107.491 155.863 108.553 155.464 109.586H155.408C155.408 109.586 140.075 124.293 138.965 125.34C137.974 126.282 118.045 124.223 114.047 123.801C112.688 123.602 111.316 123.509 109.943 123.52C108.207 123.598 107.898 123.843 106.17 123.865C101.804 123.913 97.4485 124.296 93.1414 125.01C91.1911 125.342 89.3694 126.202 87.8749 127.499C86.3805 128.795 85.2707 130.476 84.6667 132.36C80.6402 144.939 71.5191 174.712 69.9099 191.437C68.6939 193.642 67.5961 195.91 66.6212 198.232C65.4899 201.31 65.7639 201.415 66.1434 201.486C67.1693 201.675 68.3358 196.152 68.7715 197.487C69.2072 198.822 66.558 204.071 67.6331 204.226C69.0385 204.423 70.1558 198.604 70.2893 198.141C70.4229 197.677 71.1185 197.824 70.9921 198.26C70.7883 198.879 68.8137 205.435 70.191 205.646C70.9499 205.758 71.0342 204.374 71.0342 204.374C71.0342 204.374 72.4396 198.098 73.0791 198.225C73.7186 198.351 73.0369 202.055 72.7137 203.292C72.3904 204.528 72.8402 205.154 73.5007 204.852C73.9504 204.641 75.0256 200.881 75.3207 199.659C75.6159 198.436 76.3537 195.049 77.3445 197.009C78.3353 198.97 79.8391 200.108 80.4575 200.136C80.5969 200.12 80.7282 200.063 80.8346 199.972C80.9411 199.88 81.0178 199.759 81.0548 199.624C81.0918 199.489 81.0875 199.345 81.0425 199.212C80.9974 199.08 80.9136 198.963 80.8018 198.879C80.27 198.359 79.8135 197.768 79.4456 197.122C79.1178 196.619 78.88 196.062 78.7429 195.477C78.4597 194.312 78.2949 193.12 78.251 191.922L78.1386 191.219C79.7126 183.426 84.2451 160.553 90.7873 145.944L93.4716 151.467L94.6381 155.557L87.4846 173.216L117.996 172.815L113.443 155.29L118.973 137.019C124.953 137.153 140.307 137.378 142.865 136.218C146.083 134.813 162.73 113.788 162.73 113.788C163.816 112.945 164.855 112.044 165.843 111.089C165.843 111.089 166.855 110.239 166.244 109.607Z" fill="#FFBE9D"/>
<path d="M86.1424 160.166C87.0279 157.145 91.5744 142.205 91.5744 142.205C91.5744 142.205 93.809 154.383 93.2187 155.852C92.6757 157.109 92.0343 158.321 91.3003 159.478C86.1424 167.327 86.817 171.255 86.817 171.255L117.982 170.306C118.052 165.95 115.473 155.817 114.939 154.2C114.405 152.584 116.183 147.293 116.183 147.293C116.183 147.293 119.697 143.716 119.57 141.875C119.503 140.221 119.299 138.576 118.959 136.956L137.932 137.659L137.335 124.799L110.084 122.073C109.135 124.75 100.555 123.436 100.555 123.436C91.2933 123.745 90.7171 125.446 86.8662 128.439C83.0154 131.433 76.6418 157.124 76.6418 157.124L86.1424 160.166Z" fill="#120F6C"/>
<path d="M104.568 157.124C104.027 157.22 103.477 157.248 102.93 157.208C101.911 157.208 100.513 157.138 98.974 156.983C97.4351 156.829 96.0437 156.611 95.0529 156.414C94.5066 156.344 93.9709 156.207 93.4578 156.006C94.0072 156.007 94.5553 156.058 95.0951 156.161C96.0929 156.287 97.4772 156.463 99.0091 156.618C100.541 156.772 101.932 156.878 102.937 156.948C103.485 156.955 104.031 157.014 104.568 157.124Z" fill="#263238"/>
<path d="M106.704 154.474C106.163 154.739 105.592 154.935 105.003 155.058C102.2 155.794 99.3071 156.137 96.409 156.077C95.8093 156.096 95.2096 156.039 94.6241 155.908C95.216 155.833 95.8126 155.803 96.409 155.817C97.5123 155.781 99.0301 155.704 100.703 155.507C102.375 155.311 103.865 155.03 104.919 154.805C105.504 154.648 106.101 154.538 106.704 154.474Z" fill="#263238"/>
<path d="M117.188 142.655C117.174 143.191 117.101 143.723 116.97 144.243C116.787 145.22 116.506 146.555 116.148 148.017C115.79 149.478 115.445 150.827 115.136 151.741C115.012 152.264 114.828 152.771 114.588 153.252C114.627 152.718 114.726 152.19 114.883 151.678C115.15 150.581 115.452 149.317 115.79 147.932C116.127 146.548 116.45 145.283 116.717 144.187C116.812 143.659 116.97 143.145 117.188 142.655Z" fill="#263238"/>
<path d="M86.4727 158.374C84.847 158.123 83.2426 157.75 81.6732 157.257C80.0696 156.882 78.4959 156.389 76.9651 155.781C78.59 156.037 80.1941 156.41 81.7646 156.899C83.3686 157.272 84.9424 157.766 86.4727 158.374Z" fill="#263238"/>
<path d="M119.296 136.801C119.031 136.847 118.76 136.847 118.495 136.801C117.761 136.726 117.041 136.554 116.352 136.288C115.203 135.856 114.156 135.189 113.28 134.328C112.404 133.468 111.717 132.434 111.264 131.292C110.764 130.036 110.55 128.685 110.639 127.336C110.67 126.223 111.003 125.14 111.602 124.202C112.023 123.57 112.652 123.105 113.38 122.888C113.574 122.834 113.775 122.808 113.977 122.81C114.117 122.81 114.188 122.81 114.188 122.81C114.188 122.81 113.893 122.81 113.422 123C112.754 123.247 112.188 123.709 111.813 124.314C110.857 125.818 110.59 128.566 111.609 131.131C112.083 132.34 112.825 133.426 113.78 134.307C114.562 135.028 115.463 135.608 116.443 136.021C117.363 136.385 118.32 136.646 119.296 136.801Z" fill="#263238"/>
<path d="M135.676 137.406C135.5 135.251 135.444 133.088 135.507 130.927C135.452 128.767 135.518 126.607 135.704 124.455C135.88 126.607 135.936 128.768 135.873 130.927C135.932 133.088 135.866 135.252 135.676 137.406Z" fill="#263238"/>
<path d="M109.901 122.86C109.978 121.293 110.14 119.522 110.14 119.522C110.14 119.522 114.019 119.093 114.251 115.088C114.483 111.082 114.251 101.842 114.251 101.842L107.224 98.2438L99.4236 104.378L100.625 124.406L107.779 124.862C108.326 124.877 108.856 124.675 109.254 124.3C109.652 123.924 109.884 123.406 109.901 122.86Z" fill="#FFBE9D"/>
<path d="M110.597 111.919C110.597 111.919 110.597 111.996 110.534 112.087C110.481 112.153 110.414 112.206 110.337 112.24C110.259 112.275 110.175 112.29 110.091 112.284C109.641 112.284 109.205 111.764 109.051 111.16C108.977 110.867 108.977 110.56 109.051 110.267C109.065 110.139 109.111 110.017 109.185 109.912C109.259 109.806 109.357 109.721 109.472 109.663C109.567 109.624 109.673 109.624 109.768 109.663C109.838 109.698 109.894 109.754 109.929 109.824C109.978 109.944 109.929 110.021 109.929 110.014C109.929 110.007 109.929 109.944 109.859 109.874C109.822 109.823 109.768 109.788 109.707 109.775C109.646 109.762 109.583 109.772 109.529 109.803C109.442 109.855 109.371 109.929 109.32 110.016C109.27 110.103 109.243 110.202 109.241 110.302C109.181 110.564 109.181 110.835 109.241 111.096C109.381 111.644 109.761 112.087 110.098 112.129C110.164 112.138 110.231 112.134 110.295 112.115C110.359 112.097 110.419 112.066 110.47 112.024C110.555 111.968 110.583 111.911 110.597 111.919Z" fill="#EB996E"/>
<path d="M116.661 99.6773C116.12 97.8363 114.159 96.9227 112.374 96.4168C109.655 95.6438 106.718 95.3065 104.061 96.2833C101.405 97.26 98.2148 98.9746 98.2148 101.905C96.6477 101.778 95.7483 103.149 95.1299 104.849C94.7345 105.885 94.4976 106.975 94.4272 108.082C94.2304 111.918 93.1553 117.217 90.6677 120.028C89.2623 121.595 87.3158 122.677 86.5147 124.63C85.812 126.324 86.1774 128.334 85.5239 130.048C84.9406 131.559 83.6547 132.634 82.7131 133.948C81.7537 135.439 81.1892 137.149 81.0724 138.918C80.9556 140.687 81.2905 142.456 82.0455 144.06C82.8059 145.623 83.8766 147.015 85.1922 148.15C86.5078 149.286 88.0409 150.142 89.698 150.666C92.9803 151.664 96.4806 151.698 99.7818 150.764C102.259 150.172 104.571 149.026 106.542 147.412C108.559 145.765 109.944 143.471 110.463 140.919C110.962 138.052 110.161 135.136 109.563 132.283C107.694 123.267 108.228 122.796 110.589 114.427C110.646 114.28 110.674 114.125 110.716 113.977C110.758 113.83 110.779 113.76 110.807 113.647C110.874 113.316 110.91 112.98 110.913 112.642C110.568 112.771 110.194 112.798 109.834 112.72C109.474 112.643 109.144 112.465 108.882 112.207C108.619 111.931 108.436 111.59 108.352 111.218C108.268 110.847 108.286 110.46 108.404 110.098C108.57 109.703 108.817 109.346 109.129 109.052C109.441 108.758 109.812 108.533 110.217 108.391C110.997 108.068 111.833 107.899 112.599 107.541C114.222 106.768 115.347 105.165 116.113 103.486C116.742 102.322 116.937 100.972 116.661 99.6773Z" fill="#263238"/>
<path d="M110.878 112.108C111.026 112.328 111.149 112.563 111.243 112.811C111.454 113.254 111.735 113.879 112.044 114.603L112.101 114.736H111.953L111.25 114.8C110.765 114.8 110.358 114.891 109.88 114.884C109.838 114.874 109.8 114.855 109.768 114.827C109.736 114.798 109.712 114.762 109.697 114.722C109.676 114.658 109.676 114.589 109.697 114.525C109.714 114.431 109.735 114.337 109.761 114.244L109.887 113.745C109.951 113.413 110.05 113.088 110.182 112.776C110.169 113.115 110.12 113.452 110.035 113.781L109.936 114.28C109.901 114.448 109.838 114.708 109.936 114.687C110.288 114.687 110.787 114.61 111.25 114.582L111.953 114.518L111.862 114.673C111.56 113.97 111.307 113.31 111.159 112.853C111.03 112.62 110.935 112.369 110.878 112.108Z" fill="#120F6C"/>
<path d="M86.817 171.255L117.982 170.306L131.544 223.248L129.05 283.976H112.571L114.588 224.541L102.537 187.684L104.392 286.33L87.7376 286.576L85.9878 193.854C85.9105 191.275 85.0673 185.464 85.3835 182.906L86.817 171.255Z" fill="#263238"/>
<path d="M106.682 188.436C106.172 188.468 105.66 188.438 105.158 188.345C104.216 188.232 102.93 188.036 101.517 187.755C100.105 187.474 98.8402 187.15 97.9267 186.89C97.4383 186.783 96.9659 186.613 96.5212 186.384C96.5212 186.279 98.8121 186.827 101.623 187.396C104.434 187.965 106.696 188.331 106.682 188.436Z" fill="#455A64"/>
<path d="M128.881 280.645C128.881 280.744 125.15 280.828 120.547 280.828C115.944 280.828 112.206 280.744 112.206 280.645C112.206 280.547 115.937 280.463 120.547 280.463C125.157 280.463 128.881 280.54 128.881 280.645Z" fill="#455A64"/>
<path d="M104.244 283.765C104.244 283.871 100.618 283.948 96.149 283.948C91.6797 283.948 88.0608 283.871 88.0608 283.765C88.0608 283.66 91.6868 283.583 96.149 283.583C100.611 283.583 104.244 283.667 104.244 283.765Z" fill="#455A64"/>
<path d="M102.094 283.512C101.995 283.512 101.56 261.96 101.117 235.377C100.674 208.794 100.414 187.228 100.506 187.228C100.597 187.228 101.047 208.773 101.482 235.37C101.918 261.967 102.199 283.512 102.094 283.512Z" fill="#455A64"/>
<path d="M126.668 280.645C126.66 280.549 126.66 280.453 126.668 280.357V279.514C126.668 278.755 126.724 277.666 126.766 276.282C126.864 273.471 127.005 269.388 127.181 264.385C127.56 254.322 128.094 240.451 128.677 225.139C128.677 224.991 128.677 224.85 128.677 224.724V224.773C124.988 210.016 121.65 196.623 119.226 186.932L116.415 175.471C116.092 174.129 115.846 173.082 115.67 172.351C115.586 172.007 115.53 171.74 115.481 171.536C115.453 171.445 115.437 171.35 115.431 171.255C115.468 171.344 115.496 171.435 115.516 171.529C115.572 171.726 115.642 171.993 115.741 172.33C115.93 173.033 116.204 174.101 116.556 175.436C117.258 178.149 118.249 182.056 119.486 186.869C121.931 196.552 125.304 209.911 129.043 224.689V224.738C129.043 224.864 129.043 225.012 129.043 225.153C128.417 240.465 127.848 254.329 127.434 264.392C127.216 269.402 127.033 273.457 126.907 276.282C126.836 277.687 126.78 278.755 126.745 279.514C126.745 279.872 126.703 280.153 126.696 280.357C126.697 280.454 126.687 280.551 126.668 280.645Z" fill="#455A64"/>
<path d="M121.292 223.487C120.108 223.876 118.889 224.147 117.652 224.295C116.134 224.555 114.841 224.738 114.258 224.766V224.626C114.447 224.682 114.546 224.717 114.546 224.745C114.546 224.773 114.426 224.745 114.23 224.745H113.808L114.23 224.619C114.778 224.457 116.071 224.19 117.589 223.916C118.806 223.652 120.046 223.508 121.292 223.487Z" fill="#455A64"/>
<path d="M121.004 225.504C119.907 225.554 118.809 225.505 117.722 225.356C116.624 225.334 115.531 225.214 114.454 224.998C116.65 224.819 118.861 224.99 121.004 225.504Z" fill="#455A64"/>
<path opacity="0.2" d="M86.6835 172.372C87.0526 172.846 87.5175 173.237 88.0478 173.519C88.5781 173.801 89.162 173.968 89.7613 174.01C91.0165 174.158 92.2861 174.135 93.5349 173.939C101.581 173.047 110.105 172.225 117.982 170.306C107.786 170.876 97.0133 170.686 86.817 171.255L86.7116 172.126" fill="black"/>
<g opacity="0.2">
<path d="M97.1891 186.743L102.937 209.047L102.537 187.684L97.1891 186.743Z" fill="black"/>
</g>
</svg>
