<svg width="443" height="435" viewBox="0 0 443 435" fill="none" xmlns="http://www.w3.org/2000/svg">
<path d="M253.121 64.4667C252.846 65.0819 252.4 65.6048 251.836 65.9731C251.19 66.3649 250.461 66.6009 249.708 66.6624C248.752 66.8456 247.761 66.6795 246.917 66.1943C246.532 65.8715 246.222 65.4694 246.007 65.0155C245.793 64.5616 245.679 64.0666 245.674 63.5646C245.632 63.2072 245.606 62.7136 245.597 62.1434L245.649 59.2753L244.066 59.4881L243.555 56.3988L245.691 56.1009V54.5265L249.248 53.9222V55.6243L251.248 55.3435L252.006 58.5094L249.214 58.8073V61.2923C249.208 61.4029 249.208 61.5137 249.214 61.6242C249.24 61.983 249.398 62.3195 249.657 62.5689C249.77 62.6749 249.904 62.7555 250.051 62.8054C250.198 62.8553 250.354 62.8733 250.508 62.8582C250.796 62.8071 251.064 62.6776 251.284 62.4839C251.503 62.2902 251.664 62.0399 251.751 61.7604L253.121 64.4667Z" fill="#455A64"/>
<path d="M266.142 64.4243L262.133 64.9094L261.231 59.735C261.169 59.2715 260.977 58.8349 260.678 58.4755C260.533 58.3131 260.349 58.1909 260.143 58.1208C259.938 58.0507 259.717 58.0351 259.503 58.0755C258.601 58.1861 258.201 59.0286 258.295 60.6286L258.899 65.3179L254.84 65.7434L252.763 50.2714H256.959L257.665 55.6925C258.374 54.9418 259.341 54.4885 260.372 54.4245C261.076 54.3435 261.79 54.4401 262.448 54.7053C263.191 54.9856 263.844 55.4634 264.336 56.0873C264.828 56.7112 265.14 57.4574 265.24 58.2457L266.142 64.4243Z" fill="#455A64"/>
<path d="M274.695 63.3943L274.61 62.6624C274.263 63.0709 273.837 63.404 273.357 63.6412C272.877 63.8783 272.353 64.0144 271.818 64.0411C270.98 64.1473 270.131 63.9833 269.393 63.573C268.607 63.1505 267.945 62.5319 267.469 61.7773C266.944 60.9885 266.608 60.0882 266.491 59.1476C266.375 58.2165 266.495 57.2714 266.84 56.3987C267.153 55.5536 267.67 54.7992 268.346 54.203C268.946 53.6458 269.704 53.2889 270.516 53.1817C271.018 53.0715 271.538 53.0763 272.038 53.1957C272.537 53.315 273.003 53.546 273.401 53.8711L273.316 53.1562L276.635 52.7562L278.337 62.9688L274.695 63.3943ZM273.673 59.6497C273.819 59.4512 273.923 59.2251 273.979 58.9852C274.034 58.7452 274.041 58.4964 273.997 58.254C273.981 58.0093 273.913 57.7709 273.797 57.555C273.681 57.3391 273.52 57.1508 273.325 57.0029C273.128 56.8601 272.904 56.758 272.668 56.7025C272.431 56.6469 272.186 56.6391 271.946 56.6796C271.711 56.6999 271.484 56.7686 271.277 56.8814C271.071 56.9942 270.89 57.1486 270.746 57.3349C270.598 57.5164 270.489 57.7265 270.426 57.952C270.363 58.1775 270.347 58.4136 270.38 58.6455C270.428 58.9608 270.55 59.2603 270.737 59.5192C270.923 59.7781 271.168 59.989 271.452 60.1348C271.751 60.2895 272.089 60.3489 272.422 60.305C272.664 60.2885 272.9 60.2226 273.115 60.1114C273.33 60.0001 273.52 59.8459 273.673 59.6582V59.6497Z" fill="#455A64"/>
<path d="M285.401 57.3264C285.381 56.8274 285.215 56.3451 284.924 55.9392C284.801 55.791 284.641 55.6772 284.461 55.6086C284.28 55.54 284.085 55.5191 283.895 55.5477C283.703 55.5527 283.517 55.6091 283.356 55.711C283.194 55.8128 283.063 55.9563 282.975 56.1264C282.812 56.5997 282.777 57.1076 282.873 57.5988L283.435 62.3646L279.418 62.8497L278.107 52.4755L282.192 51.7691L282.286 52.535C282.932 51.8514 283.79 51.4048 284.72 51.267C285.297 51.164 285.891 51.2117 286.444 51.4055C286.997 51.5993 287.491 51.9327 287.877 52.3733C288.752 53.5071 289.268 54.8763 289.358 56.3052L290.005 61.5221L285.894 62.0157L285.401 57.3264Z" fill="#455A64"/>
<path d="M302.498 60.0498L298.473 60.7732L295.188 57.1052L295.639 60.8668L291.588 61.3945L289.716 45.8203L293.784 45.131L294.788 53.6415L296.43 50.1862L300.515 49.9905L298.149 54.918L302.498 60.0498Z" fill="#455A64"/>
<path d="M283.418 65.8284L281.716 76.3218C281.532 77.8314 280.944 79.2634 280.014 80.4664C279.253 81.3899 278.164 81.9818 276.975 82.1174C276.43 82.1881 275.878 82.1881 275.333 82.1174C274.725 82.0284 274.125 81.8947 273.537 81.7174L274.567 77.7515C274.82 77.9851 275.127 78.1518 275.461 78.2366C275.792 78.3762 276.148 78.4457 276.507 78.4409C276.878 78.411 277.226 78.2477 277.486 77.9813C277.737 77.6854 277.918 77.3362 278.014 76.9601L272.056 67.5985L276.201 67.0539L278.754 71.9559L279.443 66.6284L283.418 65.8284Z" fill="#455A64"/>
<path d="M287.494 75.5388C286.574 75.1256 285.77 74.4911 285.154 73.692C284.538 72.8947 284.153 71.9441 284.039 70.9431C283.917 70.0208 284.068 69.083 284.473 68.2453C284.882 67.3738 285.513 66.6253 286.303 66.0752C287.146 65.4801 288.128 65.1109 289.154 65.0028C290.133 64.8668 291.131 64.9901 292.047 65.3603C292.913 65.7178 293.664 66.3067 294.218 67.0624C294.777 67.8086 295.129 68.6894 295.239 69.6155C295.355 70.6044 295.216 71.6066 294.837 72.527C294.457 73.4475 293.848 74.2556 293.069 74.875C292.297 75.4835 291.372 75.8665 290.396 75.9813C289.407 76.0996 288.404 75.9466 287.494 75.5388ZM291.086 71.5729C291.23 71.383 291.335 71.1663 291.395 70.9355C291.455 70.7047 291.468 70.4643 291.435 70.2283C291.38 69.772 291.151 69.3545 290.796 69.0623C290.613 68.9081 290.399 68.7942 290.169 68.7282C289.939 68.6622 289.697 68.6456 289.46 68.6794C289.219 68.6996 288.984 68.7689 288.77 68.883C288.557 68.9972 288.369 69.1537 288.218 69.3432C288.003 69.6305 287.879 69.9747 287.859 70.3326C287.84 70.6904 287.926 71.0461 288.108 71.355C288.29 71.664 288.559 71.9124 288.881 72.0692C289.203 72.2261 289.565 72.2843 289.92 72.2367C290.149 72.2108 290.37 72.1387 290.571 72.0245C290.771 71.9104 290.946 71.7568 291.086 71.5729Z" fill="#455A64"/>
<path d="M303.698 74.356L303.605 73.5815C302.963 74.2721 302.104 74.7225 301.171 74.8581C300.594 74.9611 300 74.9134 299.447 74.7196C298.894 74.5257 298.4 74.1924 298.013 73.7517C297.137 72.6156 296.622 71.2433 296.533 69.8114L295.886 64.603L299.996 64.1094L300.464 68.7901C300.482 69.2921 300.648 69.7776 300.941 70.1859C301.064 70.3345 301.224 70.4482 301.404 70.5154C301.585 70.5827 301.781 70.6011 301.971 70.5688C302.161 70.5647 302.347 70.5096 302.508 70.4093C302.67 70.309 302.802 70.1672 302.89 69.9986C303.057 69.5262 303.092 69.0173 302.992 68.5263L302.439 63.7519L306.456 63.2668L307.758 73.6496L303.698 74.356Z" fill="#455A64"/>
<path d="M308.898 68.0751L307.358 58.7136L311.613 58.203L312.66 67.3177L308.898 68.0751ZM309.809 72.2793C309.364 71.9229 309.077 71.4066 309.009 70.841C308.962 70.4582 309.031 70.0703 309.205 69.7262C309.38 69.3848 309.637 69.0924 309.954 68.8751C310.27 68.6555 310.635 68.5154 311.017 68.4666C311.282 68.4289 311.551 68.444 311.81 68.5112C312.068 68.5784 312.311 68.6963 312.524 68.8581C312.745 69.0293 312.927 69.2451 313.059 69.4915C313.191 69.7378 313.27 70.0091 313.29 70.2879C313.333 70.577 313.318 70.8717 313.246 71.1551C313.175 71.4385 313.048 71.7049 312.873 71.9389C312.709 72.1765 312.496 72.3756 312.247 72.5226C311.999 72.6695 311.722 72.7608 311.434 72.7899C311.143 72.8252 310.847 72.7979 310.567 72.7098C310.286 72.6218 310.028 72.475 309.809 72.2793Z" fill="#455A64"/>
<path d="M315 67.3178L313.46 57.9563L317.715 57.4457L318.788 66.5093L315 67.3178ZM315.937 71.5731C315.713 71.3998 315.527 71.183 315.389 70.9358C315.252 70.6886 315.166 70.4161 315.137 70.1348C315.087 69.7556 315.152 69.3702 315.324 69.0284C315.494 68.6839 315.753 68.3903 316.073 68.1774C316.388 67.9529 316.753 67.8097 317.136 67.7604C317.671 67.6879 318.212 67.8285 318.643 68.1519C318.865 68.324 319.048 68.5412 319.18 68.7891C319.312 69.0369 319.39 69.3099 319.409 69.5901C319.452 69.8779 319.437 70.1713 319.365 70.4532C319.294 70.7352 319.167 71.0001 318.992 71.2326C318.826 71.4683 318.612 71.666 318.364 71.8127C318.116 71.9594 317.84 72.0518 317.553 72.0837C317.263 72.1171 316.969 72.0889 316.691 72.0009C316.412 71.913 316.155 71.7671 315.937 71.5731Z" fill="#455A64"/>
<path d="M321.136 66.5944L319.596 57.2329L323.851 56.7223L324.924 65.7774L321.136 66.5944ZM322.055 70.8071C321.832 70.6315 321.647 70.4131 321.509 70.1646C321.372 69.9161 321.286 69.6427 321.255 69.3603C321.207 68.9811 321.272 68.5961 321.443 68.254C321.614 67.9059 321.87 67.606 322.186 67.3816C322.503 67.1572 322.87 67.0154 323.255 66.9689C323.527 66.927 323.803 66.9418 324.068 67.0124C324.334 67.083 324.581 67.2079 324.795 67.3791C325.01 67.5502 325.186 67.764 325.314 68.0069C325.441 68.2498 325.517 68.5165 325.536 68.7901C325.617 69.3724 325.464 69.963 325.111 70.4327C324.947 70.6698 324.733 70.8687 324.485 71.0156C324.237 71.1625 323.959 71.254 323.672 71.2837C323.385 71.3245 323.091 71.303 322.812 71.2208C322.533 71.1386 322.275 70.9975 322.055 70.8071Z" fill="#455A64"/>
<path d="M231.521 85.0535C232.049 85.794 233.223 86.0237 234.074 86.2365C234.679 86.3897 235.291 86.5173 235.904 86.628C237.045 86.8391 238.2 86.9699 239.359 87.0195C241.603 87.0844 243.845 86.8613 246.031 86.3556C248.024 85.9328 249.948 85.2369 251.75 84.2876C253.49 83.3301 255.091 82.1389 256.508 80.7472C258.224 79.2541 259.585 77.396 260.491 75.3091C260.55 75.1549 260.552 74.9848 260.498 74.829C260.443 74.6732 260.335 74.5417 260.193 74.458C259.955 74.2878 259.452 74.1431 259.223 74.458C257.853 76.0835 256.67 77.8622 255.155 79.36C253.851 80.6443 252.379 81.7464 250.78 82.6366C247.378 84.4494 243.571 85.3688 239.717 85.3089C238.53 85.3063 237.344 85.2267 236.168 85.0706C235.581 84.9855 234.993 84.8833 234.415 84.7642C233.57 84.5008 232.695 84.3492 231.81 84.3131C231.453 84.3131 231.376 84.7812 231.555 85.0365L231.521 85.0535Z" fill="#120F6C"/>
<path d="M299.06 42.4416C298.859 42.409 298.676 42.3051 298.545 42.1489C298.413 41.9927 298.343 41.7946 298.345 41.5906L298.83 32.4844C298.848 32.2707 298.945 32.0713 299.102 31.9261C299.26 31.781 299.467 31.7007 299.681 31.7014C299.895 31.7186 300.095 31.8157 300.24 31.9735C300.385 32.1313 300.465 32.3381 300.464 32.5525L299.954 41.6502C299.937 41.8639 299.839 42.0632 299.682 42.2084C299.524 42.3536 299.317 42.4338 299.103 42.4331L299.06 42.4416Z" fill="#120F6C"/>
<path d="M304.022 44.0417C303.9 44.0242 303.784 43.9806 303.681 43.914C303.502 43.7897 303.377 43.6011 303.332 43.3872C303.288 43.1734 303.328 42.9506 303.443 42.7651L308.464 35.1653C308.507 35.0436 308.578 34.9333 308.67 34.8428C308.762 34.7523 308.874 34.684 308.996 34.643C309.118 34.602 309.249 34.5894 309.377 34.6062C309.505 34.623 309.627 34.6687 309.735 34.7399C309.843 34.8111 309.933 34.9059 309.999 35.0171C310.064 35.1283 310.104 35.2529 310.114 35.3817C310.125 35.5104 310.106 35.6398 310.059 35.7601C310.012 35.8804 309.938 35.9884 309.843 36.0759L304.83 43.6757C304.742 43.8052 304.62 43.9079 304.477 43.9724C304.335 44.037 304.177 44.061 304.022 44.0417Z" fill="#120F6C"/>
<path d="M307.256 47.6076C307.104 47.5844 306.962 47.5208 306.844 47.4234C306.725 47.3261 306.635 47.1986 306.583 47.0544C306.52 46.8466 306.538 46.6224 306.635 46.4278C306.732 46.2332 306.899 46.0828 307.103 46.0076L315.732 43.0885C315.922 43.0727 316.111 43.121 316.27 43.2254C316.429 43.3299 316.548 43.4846 316.609 43.6649C316.67 43.8451 316.668 44.0405 316.605 44.2199C316.542 44.3992 316.42 44.5522 316.26 44.6544L307.63 47.5735C307.51 47.6126 307.382 47.6243 307.256 47.6076Z" fill="#120F6C"/>
<path d="M282.499 95.6576C282.327 95.654 282.16 95.5985 282.02 95.4982C281.88 95.3979 281.774 95.2577 281.716 95.0959L278.788 86.4663C278.766 86.2732 278.811 86.0784 278.915 85.9142C279.019 85.7501 279.175 85.6264 279.359 85.5637C279.543 85.5011 279.743 85.5033 279.926 85.5699C280.108 85.6366 280.262 85.7637 280.363 85.9301L283.282 94.5512C283.345 94.759 283.327 94.9831 283.23 95.1778C283.134 95.3724 282.966 95.5227 282.763 95.598C282.678 95.6303 282.589 95.6504 282.499 95.6576Z" fill="#120F6C"/>
<path d="M272.55 96.3214C272.496 96.3297 272.442 96.3297 272.388 96.3214C272.177 96.2724 271.993 96.1448 271.873 95.9645C271.752 95.7842 271.706 95.5649 271.742 95.3512L273.563 86.4237C273.556 86.2942 273.579 86.1648 273.63 86.0454C273.68 85.9261 273.758 85.8199 273.856 85.735C273.954 85.6501 274.07 85.5888 274.196 85.5557C274.321 85.5226 274.452 85.5187 274.58 85.5441C274.707 85.5696 274.826 85.6237 274.929 85.7025C275.033 85.7813 275.116 85.8826 275.174 85.9987C275.232 86.1148 275.263 86.2425 275.264 86.3722C275.265 86.502 275.236 86.6302 275.18 86.7471L273.359 95.6746C273.314 95.8563 273.21 96.0182 273.064 96.1351C272.918 96.252 272.737 96.3175 272.55 96.3214Z" fill="#120F6C"/>
<path d="M263.129 91.2151C263.009 91.2172 262.89 91.1922 262.781 91.1422C262.672 91.0921 262.576 91.0181 262.499 90.9257C262.362 90.7573 262.294 90.5426 262.31 90.3258C262.326 90.109 262.424 89.9065 262.584 89.7598L269.503 83.8025C269.674 83.7124 269.87 83.683 270.06 83.7191C270.249 83.7552 270.421 83.8545 270.546 84.0009C270.672 84.1473 270.744 84.3321 270.751 84.5249C270.758 84.7177 270.699 84.9071 270.584 85.062L263.665 91.0194C263.514 91.1444 263.325 91.2135 263.129 91.2151Z" fill="#120F6C"/>
<path d="M171.479 51.6074C170.122 50.2043 168.387 49.2257 166.484 48.7904C163.411 48.097 160.204 48.3064 157.247 49.3935C154.291 50.4807 151.712 52.3991 149.82 54.9179C146.501 59.4966 145.846 65.5135 146.314 71.1474C146.782 76.7813 148.237 82.2961 148.697 87.93C149.114 92.9257 143.863 97.0277 140.365 99.8447C139.718 100.355 139.004 101.113 139.318 101.87C139.456 102.095 139.64 102.288 139.859 102.435C140.078 102.582 140.326 102.68 140.586 102.721C143.51 103.539 146.607 103.506 149.512 102.624C152.418 101.742 155.011 100.048 156.986 97.7426L157.105 101.998C158.244 101.8 159.323 101.348 160.262 100.674C161.2 100.001 161.975 99.1238 162.526 98.1086C163.621 96.0714 164.259 93.8211 164.399 91.5129C165.148 83.8535 162.833 76.5856 162.637 69.0453C162.424 60.5348 165.326 54.2116 170.705 55.1818C172.892 55.5732 173.948 54.8328 172.535 52.9009C172.214 52.4452 171.862 52.0129 171.479 51.6074Z" fill="#263238"/>
<path d="M169.76 53.1307C169.48 52.7478 167.726 43.9054 171.675 39.08C175.624 34.2545 177.633 37.9055 177.25 42.1693C176.994 44.4699 176.178 46.6726 174.872 48.5839C173.566 50.4951 171.811 52.0565 169.76 53.1307Z" fill="#120F6C"/>
<path d="M171.011 52.935C170.594 53.1563 161.59 53.6329 157.395 49.0372C153.199 44.4416 157.088 42.9863 161.258 43.9309C163.499 44.5153 165.56 45.6424 167.261 47.2129C168.962 48.7833 170.25 50.7486 171.011 52.935Z" fill="#120F6C"/>
<path d="M249.521 132.678C246.312 129.47 238.704 120.397 237.112 118.21C235.112 115.495 229.623 108.951 226.304 106.491C222.985 104.032 216.04 102.806 210.449 103.215C210.006 110.023 216.177 120.687 216.177 120.687L230.159 134.687C238.346 142.006 248.372 146.201 259.793 148.014C258.729 144.891 252.738 135.887 249.521 132.678Z" fill="#FFA8A7"/>
<path d="M230.159 134.712C231.793 135.019 237.18 134.67 240.848 135.359C244.516 136.048 251.189 138.865 254.703 143.699L230.159 134.712Z" fill="#F28F8F"/>
<path d="M210.449 103.24C212.364 103.164 220.662 101.938 225.768 105.691C230.406 109.096 233.887 113.972 237.614 118.551C239.47 120.832 242.312 124.559 242.312 124.559C242.312 124.559 238.534 130.823 229.223 135.401L213.096 119.895L210.449 103.24Z" fill="#37474F"/>
<path d="M205.428 344.955C205.261 344.994 205.107 345.078 204.984 345.198C204.861 345.318 204.773 345.469 204.73 345.636C204.304 347.091 204.321 348.742 204.024 350.24C203.555 352.572 203.062 355.933 203.445 357.806C203.828 359.678 206.364 361.508 211.104 362.852C213.972 363.703 219.087 366.146 221.427 368.265C224.287 370.869 230.415 373.048 234.559 373.176C239.419 373.32 244.482 372.027 245.623 368.529C246.116 367.056 246.474 364.537 239.563 361.806C237.2 360.958 234.921 359.892 232.755 358.623C229.529 356.725 224.687 354.214 222.015 351.712C219.568 349.243 218.153 345.936 218.057 342.461C217.128 342.149 216.134 342.077 215.169 342.25C214.204 342.423 213.298 342.837 212.535 343.452C211.772 344.068 211.176 344.866 210.802 345.772C210.429 346.679 210.29 347.665 210.398 348.64C210.066 348.827 209.657 348.512 209.547 348.155C209.477 347.784 209.437 347.408 209.428 347.031C209.33 346.634 209.131 346.269 208.851 345.971C208.57 345.673 208.218 345.452 207.828 345.329C207.076 344.991 206.247 344.862 205.428 344.955Z" fill="#37474F"/>
<path d="M138.961 345.108C139.35 346.178 139.551 347.306 139.557 348.444C139.756 349.381 139.889 350.331 139.957 351.287C139.957 352.138 140.153 353.142 140.936 353.44C141.255 353.526 141.592 353.517 141.907 353.414C142.221 353.311 142.499 353.119 142.706 352.861C143.11 352.338 143.485 351.792 143.829 351.227C144.244 350.666 144.777 350.202 145.39 349.869C146.003 349.535 146.681 349.339 147.378 349.295C148.765 349.219 148.867 349.346 149.803 350.376L149.003 352.291C146.323 359.099 146.161 365.193 147.829 372.282C148.169 373.729 150.263 376.086 151.412 377.235C152.087 377.917 152.806 378.554 153.565 379.141C154.237 379.669 154.901 380.29 154.986 380.843C155.107 381.654 154.961 382.481 154.569 383.201C153.972 384.156 153.031 384.845 151.94 385.124C147.859 386.591 143.372 386.445 139.395 384.716C137.704 383.889 136.243 382.658 135.14 381.133C132.808 377.073 133.072 373.21 133.038 369.712C132.978 361.993 131.702 358.01 131.08 354.146C130.323 349.499 137.506 344.41 138.961 345.108Z" fill="#37474F"/>
<path d="M221.325 349.304C218.466 346.214 217.921 343.236 218.313 337.5C218.704 331.764 221.572 281.058 222.738 268.565C224.704 247.544 225.7 188.473 223.955 173.894L167.914 178.303C163.846 188.515 160.85 201 161.488 220.659C161.965 235.655 161.616 276.326 161.616 276.326C161.616 276.326 154.808 282.284 149.889 294.105C145.574 304.513 140.604 340.504 140.604 340.504C140.174 342.067 139.625 343.595 138.961 345.074C137.736 346.562 137.028 348.408 136.944 350.333C136.945 356.562 137.607 362.772 138.919 368.861C139.599 372.01 141.565 374.044 144.706 375.295C145.401 375.577 146.152 375.699 146.901 375.652C147.291 375.653 147.669 375.514 147.965 375.261C148.501 374.724 148.016 373.465 147.914 372.835C147.757 371.815 147.663 370.786 147.633 369.754C147.574 367.729 147.633 365.261 147.769 363.244C148.038 358.722 148.768 354.239 149.948 349.865L151.037 347.27C151.037 347.27 175.36 298.224 182.271 286.275C187.76 276.914 191.411 240.472 195.309 220.566L201.879 268.165C201.879 268.165 198.994 276.76 198.236 283.339C197.215 292.164 203.453 326.742 205.317 339.065C205.658 341.349 205.683 343.668 205.394 345.959C206.049 351.287 210.058 352.929 214.194 355.95C216.245 357.448 225.257 362.946 230.755 364.052C235.197 364.954 238.61 362.291 235.861 360.58C230.695 357.04 224.185 352.418 221.325 349.304Z" fill="#FFA8A7"/>
<path d="M193.019 235.672C193.59 230.327 195.13 223.008 195.13 223.008L197.632 243.629L199.641 267.314C198.89 270.487 198.305 273.697 197.887 276.931C197.036 283.296 197.419 293.526 198.585 300.36C199.751 307.194 202.168 319.457 202.168 319.457C212.33 324.768 220.04 319.33 220.04 319.33C220.04 319.33 221.027 305.653 222.925 285.611C224.823 265.569 225.478 245.518 225.615 228.863C225.615 228.863 228.023 187.332 221.01 159.307C212.764 165.111 188.271 166.277 178.39 158.456C178.39 158.456 174.424 165.009 165.777 179.622C158.969 191.102 160.978 209.536 160.858 224.949C160.68 248.727 160.807 275.577 160.807 275.577C157.678 279.081 154.88 282.867 152.45 286.888C148.118 293.866 145.897 309.381 145.897 309.381C145.897 309.381 150.271 318.683 165.207 319.083C165.207 319.083 179.726 292.658 183.369 286.658C187.011 280.658 192.449 241.025 193.019 235.672Z" fill="#120F6C"/>
<path opacity="0.15" d="M195.13 223.008L200.585 202.022C200.585 202.022 211.036 200.932 219.164 194.975C219.164 194.975 217.462 202.634 203.104 204.907L196.909 225.51L197.632 243.672L195.13 223.008Z" fill="black"/>
<path d="M224.066 119.844C217.257 110.908 214.977 107.819 210.449 103.24L185.641 102.211C183.709 102.381 172.603 104.168 172.603 104.168C169.829 105.393 166.782 111.989 167.497 117.215C168.263 122.67 168.892 128.074 170.254 134.755C171.616 141.435 173.743 146.627 174.229 148.771C175.182 153.069 175.641 157.537 173.377 161.843C168.68 170.822 164.867 176.618 163.259 184.158C165.939 183.42 168.386 182.008 170.365 180.056C173.395 177.154 175.216 175.801 177.641 172.396C177.641 172.396 177.888 177.503 182.96 184.192C184.253 185.913 185.737 187.48 187.386 188.864C196.492 196.524 223.879 199.8 224.772 175.911C224.772 175.911 222.091 165.009 221.564 158.524C221.036 152.039 220.925 148.133 220.985 146.465C232.142 138.457 228.5 125.64 224.066 119.844Z" fill="#455A64"/>
<path d="M121.361 140.797C124.366 135.58 128.255 134.253 133.208 130.534C138.161 126.814 148.348 118.695 154.62 114.432C161.744 109.589 167.343 105.249 172.654 105.291C172.654 105.291 173.505 105.13 175.011 109.351C176.518 113.572 176.364 123.912 172.935 126.661C169.505 129.41 141.727 144.806 141.727 144.806L121.361 140.797Z" fill="#FFA8A7"/>
<path d="M155.063 137.325L153.054 133.35C151.165 134.636 148.076 135.81 143.055 136.099C138.033 136.389 129.046 136.184 124.068 139.172C123.746 139.382 123.494 139.682 123.343 140.035C123.191 140.387 123.148 140.777 123.217 141.155L141.744 144.806C141.744 144.806 148.067 141.291 155.063 137.325Z" fill="#F28F8F"/>
<path d="M172.594 104.125C169.556 104.125 165.326 105.998 161.675 108.687C157.165 112.015 145.301 121.138 145.301 121.138C145.301 121.138 147.701 133.904 155.922 137.155C155.922 137.155 171.318 128.644 172.543 127.717C173.769 126.789 175.905 124.746 176.296 117.504C176.688 110.262 174.237 106.951 172.594 104.125Z" fill="#37474F"/>
<path d="M206.007 142.576C206.007 142.576 199.258 148.533 190.977 146.184C187.809 145.348 185.018 143.46 183.062 140.831C182.974 140.723 182.851 140.65 182.714 140.625C182.577 140.6 182.435 140.624 182.314 140.694C182.194 140.763 182.102 140.874 182.055 141.005C182.008 141.136 182.009 141.279 182.058 141.41C183.224 144.142 185.752 147.325 191.215 148.644C201.266 151.052 206.007 142.576 206.007 142.576Z" fill="#37474F"/>
<path d="M179.607 45.0119C188.118 41.6502 194.322 42.2885 198.543 43.2246C216.134 35.2844 230.559 58.8073 214.815 70.4582C214.815 70.4582 214.083 88.7727 200.151 93.1641L184.832 96.3555C182.518 89.9982 169.139 87.9301 165.548 73.7517C161.361 60.3477 170.543 48.5948 179.607 45.0119Z" fill="#263238"/>
<path d="M206.687 51.6329C209.836 52.884 214.542 59.5987 216.559 74.8921C218.262 87.8535 214.577 91.7002 212.619 92.9428C210.662 94.1853 206.517 94.2619 202.475 94.2193L203.692 103.164C203.692 103.164 207.836 105.674 208.687 110.04C209.377 113.589 199.777 115.836 193.224 111.887C190.155 110.125 187.632 107.551 185.93 104.449L183.479 85.8195C183.479 85.8195 181.377 88.5343 177.522 86.5514C173.352 84.4238 172.458 79.5898 174.594 76.6282C176.73 73.6665 181.752 74.2538 183.318 77.6494C183.318 77.6494 188.858 76.4239 196.151 70.0836C204.015 63.2157 205.283 57.403 206.687 51.6329Z" fill="#FFA8A7"/>
<path d="M199.258 73.9474C199.309 74.2649 199.266 74.5906 199.134 74.884C199.003 75.1774 198.787 75.4256 198.516 75.5978C198.244 75.77 197.928 75.8587 197.606 75.8527C197.284 75.8468 196.972 75.7465 196.706 75.5643C196.441 75.3822 196.235 75.1262 196.114 74.8281C195.993 74.53 195.963 74.2029 196.026 73.8875C196.089 73.5721 196.244 73.2822 196.47 73.0538C196.697 72.8254 196.985 72.6685 197.3 72.6027C197.737 72.5276 198.187 72.6261 198.552 72.8773C198.918 73.1284 199.171 73.5124 199.258 73.9474Z" fill="#263238"/>
<path d="M200.662 82.8153L207.096 84.0578C207.034 84.4867 206.887 84.8986 206.662 85.2688C206.437 85.639 206.139 85.9598 205.787 86.2119C205.435 86.464 205.035 86.6422 204.612 86.7356C204.189 86.8291 203.751 86.8359 203.326 86.7557C202.455 86.5765 201.689 86.0641 201.191 85.3278C200.694 84.5916 200.504 83.6898 200.662 82.8153Z" fill="#B16668"/>
<path d="M203.326 86.7558C203.851 86.857 204.394 86.8189 204.9 86.6451C204.855 86.194 204.697 85.7616 204.441 85.3872C204.185 85.0129 203.839 84.7086 203.436 84.5021C203.032 84.2956 202.583 84.1935 202.13 84.2051C201.677 84.2167 201.233 84.3417 200.841 84.5686C201.028 85.1183 201.356 85.6094 201.792 85.9931C202.228 86.3768 202.757 86.6398 203.326 86.7558Z" fill="#F28F8F"/>
<path d="M212.73 67.0625L209.087 65.2923C209.191 65.0492 209.343 64.8298 209.534 64.6476C209.726 64.4653 209.952 64.324 210.2 64.2324C210.448 64.1407 210.712 64.1007 210.975 64.1147C211.239 64.1286 211.497 64.1963 211.734 64.3136C212.22 64.5578 212.594 64.9787 212.779 65.4899C212.964 66.0011 212.947 66.5638 212.73 67.0625Z" fill="#263238"/>
<path d="M212.568 70.9942C212.622 71.3139 212.58 71.6423 212.448 71.9384C212.317 72.2346 212.101 72.4854 211.827 72.6596C211.554 72.8339 211.236 72.9238 210.911 72.9183C210.587 72.9127 210.272 72.8119 210.005 72.6283C209.738 72.4448 209.531 72.1867 209.409 71.8862C209.288 71.5857 209.257 71.2561 209.322 70.9385C209.387 70.6209 209.543 70.3293 209.772 70.1001C210.002 69.8709 210.293 69.7142 210.611 69.6496C211.048 69.5745 211.497 69.673 211.863 69.9241C212.228 70.1753 212.481 70.5592 212.568 70.9942Z" fill="#263238"/>
<path d="M204.645 70.7474L206.424 80.4834L211.326 78.092L204.645 70.7474Z" fill="#F28F8F"/>
<path d="M202.475 94.2193C198.219 94.3215 189.309 93.1896 187.454 90.0237C188.255 91.6505 189.535 92.9929 191.122 93.8704C194.015 95.6576 202.824 96.8065 202.824 96.8065L202.475 94.2193Z" fill="#F28F8F"/>
<path d="M259.793 148.04C252.61 141.955 250.38 138.457 230.159 134.712C230.159 134.712 219.036 131.308 217.657 130.329C216.279 129.351 213.47 129.257 211.436 128.508C209.402 127.759 202.024 125.104 200.092 123.802C198.16 122.5 197.317 121.657 193.998 121.444C190.679 121.232 186.194 120.695 185.122 120.806C184.05 120.917 183.088 123.266 182.016 125.061C180.943 126.857 180.407 127.129 181.241 130.738C181.786 133.121 182.552 133.401 182.552 133.401C183.13 133.648 183.939 132.55 183.939 132.55C185.105 132.865 185.267 131.555 185.267 131.555C186.177 131.555 187.905 128.593 187.905 128.593L189.649 128.159C191.173 128.593 194.39 131.24 193.317 133.691C192.245 136.142 188.39 137.095 186.101 138.797C183.811 140.499 183.547 144.218 184.586 144.754C185.198 145.061 185.956 143.827 187.99 142.44C189.823 141.273 191.803 140.357 193.879 139.716C198.407 138.329 202.27 139.299 206.126 139.086C209.981 138.874 211.155 137.384 224.185 145.512C229.555 148.857 234.134 151.827 238.542 153.435C243.537 155.136 248.771 156.032 254.048 156.09C260.227 156.431 260.865 151.188 259.793 148.04Z" fill="#FFA8A7"/>
<path d="M208.849 136.253C207.06 135.822 205.384 135.009 203.939 133.87C202.356 132.729 200.636 130.568 199.385 129.427C198.134 128.287 196.381 129.427 195.368 129.427C195.054 129.425 194.745 129.346 194.468 129.198C194.191 129.05 193.953 128.836 193.777 128.576C195.394 128.253 195.368 127.3 195.368 127.3C194.403 127.735 193.313 127.811 192.296 127.512C191.615 127.146 191.581 126.048 191.581 126.048C191.505 126.968 190.586 127.444 189.42 127.589C188.254 127.734 187.905 127.189 187.905 127.189C188.008 127.654 188.008 128.136 187.905 128.602L189.649 128.168C189.868 128.234 190.079 128.323 190.279 128.431C191.905 129.282 194.254 131.555 193.317 133.699C192.878 134.562 192.202 135.283 191.369 135.776C195.556 134.567 196.339 131.844 197.402 131.436C198.151 131.146 199.173 131.359 201.411 133.223C203.487 135.027 206.103 136.093 208.849 136.253Z" fill="#F28F8F"/>
<path d="M194.509 124.219C192.864 124.177 191.218 124.245 189.581 124.423C188.875 124.559 186.313 126.363 185.862 126.644C185.411 126.925 185.199 128.695 184.824 129.836C184.45 130.976 184.611 131.189 185.088 131.538C185.088 131.538 184.016 131.393 184.501 129.734C184.986 128.074 185.13 126.517 185.667 126.083C186.873 125.254 188.156 124.542 189.496 123.955C190.033 123.827 194.509 124.219 194.509 124.219Z" fill="#F28F8F"/>
<path d="M187.905 121.206C186.969 121.061 186.688 121.512 185.973 122.329C184.89 123.687 183.89 125.108 182.977 126.585C182.856 127.292 182.856 128.014 182.977 128.721C182.977 129.512 183.079 131.385 183.939 132.576C183.939 132.576 183.53 132.516 183.088 131.385C182.757 130.128 182.571 128.837 182.535 127.538C182.45 126.823 182.535 126.61 183.199 125.606C184.064 124.3 185.011 123.049 186.032 121.861C186.713 121.164 186.96 120.934 187.905 121.206Z" fill="#F28F8F"/>
<path d="M212.636 139.461C211.991 138.525 211.69 137.394 211.785 136.261C211.785 134.712 211.657 134.372 211.377 135.572C211.096 136.772 209.606 138.857 208.372 138.891C209.818 138.776 211.271 138.97 212.636 139.461Z" fill="#F28F8F"/>
<path d="M121.361 140.797C118.357 146.014 117.387 150.073 119.327 152.286C120.825 153.988 123.583 153.767 127.463 153.988C131.2 154.176 138.11 153.342 142.935 150.627C149.974 146.661 153.676 144.525 159.437 144.006C164.909 143.52 167.318 142.201 170.339 141.929C173.897 141.614 177.65 141.512 180.109 142.78C181.242 143.378 182.326 144.063 183.352 144.831C183.607 144.95 183.973 144.686 184.05 143.886C184.102 142.958 183.889 142.034 183.437 141.223C182.475 139.478 179.658 138.372 176.628 137.818C173.599 137.265 171.42 135.767 170.969 133.963C170.626 132.558 170.786 131.076 171.42 129.776C172.007 129.949 172.604 130.088 173.207 130.193C174.037 130.301 174.873 130.36 175.709 130.372C176.3 131.162 176.983 131.879 177.743 132.508C178.458 133.001 179.13 133.214 179.445 132.908C179.823 133.539 180.435 133.995 181.147 134.176C182.109 134.287 182.296 133.81 182.296 133.81C182.296 133.81 181.981 131.963 181.888 131.189C181.794 130.414 181.803 129.214 181.692 128.636C181.581 128.057 181.071 127.648 179.624 126.082C178.177 124.517 177.513 123.129 176.816 122.985C176.146 122.924 175.47 122.973 174.816 123.129C174.337 123.043 173.847 123.043 173.369 123.129C172.22 123.24 170.611 123.427 168.765 123.555C166.918 123.683 164.773 123.614 164.254 124.134C163.735 124.653 162.918 125.912 161.769 127.24C160.139 129.017 158.408 130.699 156.586 132.278C155.664 133.056 154.698 133.78 153.693 134.448C152.639 135.166 151.494 135.738 150.288 136.15C148.229 136.755 145.182 136.874 141.242 137.206C134.578 137.716 124.127 137.606 121.361 140.797Z" fill="#FFA8A7"/>
<path d="M175.011 137.359C172.867 136.636 171.352 135.384 170.994 133.955C170.652 132.549 170.812 131.068 171.445 129.768C171.205 130.02 170.916 130.222 170.596 130.361C170.276 130.5 169.931 130.573 169.582 130.576C168.484 130.568 167.406 130.29 166.441 129.768C166.678 130.146 166.997 130.465 167.374 130.704C167.751 130.943 168.177 131.094 168.62 131.146C167.512 131.724 166.352 132.197 165.156 132.559C163.156 133.163 162.773 135.112 162.058 137.138C161.344 139.163 161.156 141.197 158.824 142.431C158.824 142.431 161.114 142.082 163.25 139.189C165.386 136.295 166.816 135.487 169.003 135.444C171.19 135.402 172.594 137.087 174.96 137.359H175.011Z" fill="#F28F8F"/>
<path d="M179.505 132.848C179.998 132.414 180.211 132.27 179.599 131.487C178.986 130.704 178.109 129.529 177.667 129.036C177.061 128.452 176.347 127.992 175.565 127.682C174.484 127.146 174.041 126.704 172.935 126.627C173.56 126.583 174.186 126.685 174.765 126.925C175.513 127.317 177.318 128.261 177.726 128.534C178.398 129.207 178.995 129.952 179.505 130.755C179.803 131.197 180.416 131.972 180.356 132.244C180.296 132.516 179.505 132.848 179.505 132.848Z" fill="#F28F8F"/>
<path d="M179.505 132.848C179.749 133.062 180.046 133.206 180.365 133.266C180.684 133.326 181.013 133.299 181.318 133.189C181.905 132.848 181.854 132.585 181.505 131.793C181.167 130.92 180.883 130.028 180.654 129.121C180.568 128.351 180.197 127.641 179.616 127.129C178.297 126.1 175.216 123.512 174.833 123.078C174.833 123.078 177.897 125.376 178.441 125.742C179.377 126.372 180.594 127.189 180.748 127.793C180.901 128.397 181.53 130.814 181.65 131.129C181.938 131.65 182.084 132.237 182.075 132.831C181.862 133.308 181.19 134.253 179.505 132.848Z" fill="#F28F8F"/>
<path d="M159.148 144.023C157.378 143.878 156.476 142.542 155.701 142.108C154.927 141.674 155.795 142.882 155.701 143.64C155.623 144.106 155.366 144.524 154.986 144.806C156.345 144.422 157.735 144.16 159.139 144.023H159.148Z" fill="#F28F8F"/>
<path fill-rule="evenodd" clip-rule="evenodd" d="M217.691 0.816239C246.69 -0.613009 273.084 15.448 299.902 26.574C327.21 37.9033 355.736 47.3512 377.662 67.1835C400.411 87.76 417.332 114.149 428.366 142.77C439.653 172.048 445.042 203.571 442.292 234.829C439.524 266.291 431.993 298.855 412.451 323.667C393.322 347.953 359.485 353.79 334.382 371.834C309.41 389.784 293.521 420.81 264.236 430.202C234.73 439.665 201.927 433.507 172.517 423.747C144.218 414.355 119.97 395.95 98.5437 375.214C78.5185 355.834 67.6386 329.934 51.8527 306.969C34.9136 282.326 6.36008 263.447 1.4417 233.951C-3.46447 204.528 15.4686 176.868 25.4728 148.767C35.2698 121.248 39.472 90.0131 60.0614 69.2922C80.5555 48.6672 112.343 46.0886 139.011 34.5036C165.467 23.0108 188.881 2.23615 217.691 0.816239Z" fill="#120F6C" fill-opacity="0.05"/>
</svg>
